<svg width="21" height="20" viewBox="0 0 21 20" fill="none" xmlns="http://www.w3.org/2000/svg">
<path d="M18.4507 9.204C18.7041 9.559 18.8307 9.73734 18.8307 9.99984C18.8307 10.2632 18.7041 10.4407 18.4507 10.7957C17.3124 12.3923 14.4049 15.8332 10.4974 15.8332C6.58906 15.8332 3.6824 12.3915 2.54406 10.7957C2.29073 10.4407 2.16406 10.2623 2.16406 9.99984C2.16406 9.7365 2.29073 9.559 2.54406 9.204C3.6824 7.60734 6.5899 4.1665 10.4974 4.1665C14.4057 4.1665 17.3124 7.60817 18.4507 9.204Z" stroke="#FF8A00" stroke-width="1.5" stroke-linecap="round" stroke-linejoin="round"/>
<path d="M13 10C13 9.33696 12.7366 8.70107 12.2678 8.23223C11.7989 7.76339 11.163 7.5 10.5 7.5C9.83696 7.5 9.20107 7.76339 8.73223 8.23223C8.26339 8.70107 8 9.33696 8 10C8 10.663 8.26339 11.2989 8.73223 11.7678C9.20107 12.2366 9.83696 12.5 10.5 12.5C11.163 12.5 11.7989 12.2366 12.2678 11.7678C12.7366 11.2989 13 10.663 13 10Z" stroke="#FF8A00" stroke-width="1.5" stroke-linecap="round" stroke-linejoin="round"/>
</svg>
