<svg width="54" height="54" viewBox="0 0 54 54" fill="none" xmlns="http://www.w3.org/2000/svg">
<circle cx="26.8493" cy="26.8483" r="18.8473" fill="#FFB419"/>
<circle cx="26.8484" cy="26.8484" r="25.8484" stroke="#4941A6" stroke-width="2" stroke-dasharray="8 8"/>
<path d="M23.1836 25.9315C23.1836 25.6884 23.2802 25.4552 23.4521 25.2833C23.624 25.1114 23.8572 25.0148 24.1003 25.0148H29.6003C29.8434 25.0148 30.0765 25.1114 30.2485 25.2833C30.4204 25.4552 30.5169 25.6884 30.5169 25.9315C30.5169 26.1746 30.4204 26.4078 30.2485 26.5797C30.0765 26.7516 29.8434 26.8482 29.6003 26.8482H24.1003C23.8572 26.8482 23.624 26.7516 23.4521 26.5797C23.2802 26.4078 23.1836 26.1746 23.1836 25.9315ZM24.1003 28.6815C23.8572 28.6815 23.624 28.7781 23.4521 28.95C23.2802 29.1219 23.1836 29.3551 23.1836 29.5982C23.1836 29.8413 23.2802 30.0744 23.4521 30.2463C23.624 30.4183 23.8572 30.5148 24.1003 30.5148H27.7669C28.0101 30.5148 28.2432 30.4183 28.4151 30.2463C28.587 30.0744 28.6836 29.8413 28.6836 29.5982C28.6836 29.3551 28.587 29.1219 28.4151 28.95C28.2432 28.7781 28.0101 28.6815 27.7669 28.6815H24.1003ZM17.6836 26.8482C17.6841 24.8385 18.345 22.8846 19.5646 21.2873C20.7842 19.69 22.495 18.5377 24.4336 18.0079C26.3722 17.4781 28.4312 17.6 30.2937 18.3549C32.1562 19.1099 33.719 20.456 34.7416 22.1861C35.7642 23.9162 36.1899 25.9344 35.9531 27.9301C35.7164 29.9258 34.8303 31.7884 33.4314 33.2312C32.0324 34.6741 30.1981 35.6172 28.2106 35.9154C26.2232 36.2137 24.1928 35.8505 22.4319 34.8818L18.8679 35.9672C18.709 36.0156 18.5398 36.0199 18.3786 35.9796C18.2174 35.9393 18.0701 35.856 17.9526 35.7385C17.8351 35.621 17.7518 35.4737 17.7115 35.3125C17.6712 35.1513 17.6755 34.9821 17.7239 34.8232L18.8093 31.2537C18.0685 29.9036 17.6813 28.3881 17.6836 26.8482ZM26.8503 19.5148C25.5485 19.5147 24.2701 19.8611 23.1465 20.5185C22.0229 21.1759 21.0945 22.1205 20.4568 23.2553C19.819 24.3902 19.4948 25.6743 19.5174 26.9759C19.5401 28.2775 19.9088 29.5496 20.5858 30.6615C20.653 30.772 20.696 30.8954 20.7122 31.0237C20.7283 31.1519 20.7171 31.2822 20.6793 31.4058L19.9771 33.714L22.2816 33.0118C22.4056 32.974 22.5363 32.963 22.6649 32.9794C22.7935 32.9959 22.9172 33.0394 23.0278 33.1072C23.9943 33.6972 25.0843 34.0555 26.2124 34.1538C27.3405 34.2521 28.4761 34.0879 29.5301 33.6739C30.5841 33.2599 31.5279 32.6074 32.2875 31.7677C33.0472 30.9279 33.602 29.9236 33.9086 28.8335C34.2152 27.7434 34.2651 26.5971 34.0545 25.4844C33.844 24.3718 33.3786 23.323 32.6948 22.4204C32.0111 21.5177 31.1276 20.7856 30.1136 20.2815C29.0996 19.7774 27.9827 19.515 26.8503 19.5148Z" fill="#4941A6"/>
</svg>
