<svg width="462" height="423" viewBox="0 0 462 423" fill="none" xmlns="http://www.w3.org/2000/svg">
<path d="M22.2297 212.38C169.796 346.635 462.237 547.3 451.469 275.917C440.7 4.53318 160.823 120.482 22.2297 212.38Z" fill="#ECF2F4"/>
<path d="M20.8481 210.296L18.1737 212.069L20.5472 214.229C94.3828 281.404 204.68 365.411 295.365 398.61C340.613 415.175 381.755 419.378 410.999 401.491C440.401 383.508 456.67 343.934 453.967 275.818C451.258 207.563 431.605 163.151 400.982 136.685C370.376 110.233 329.29 102.121 284.599 105.425C195.316 112.024 90.2629 164.269 20.8481 210.296Z" stroke="#FFD7B7" stroke-opacity="0.1" stroke-width="5"/>
<path d="M461.845 172.662C504.149 109.65 563.374 -11.5819 461.845 7.58794C360.315 26.7578 419.541 125.625 461.845 172.662Z" fill="#ECF2F4"/>
<path d="M459.986 174.334L462.132 176.719L463.92 174.055C485.112 142.491 510.725 96.0965 518.23 59.8131C521.963 41.7703 521.388 25.4164 512.545 14.8297C503.583 4.10081 487.029 0.288735 461.381 5.13135C435.597 9.99964 419.516 20.0276 410.953 33.5133C402.402 46.9794 401.685 63.3631 405.468 80.222C413.012 113.844 438.739 150.709 459.986 174.334Z" stroke="#FFD7B7" stroke-opacity="0.1" stroke-width="5"/>
</svg>
