<svg width="1380" height="11" viewBox="0 0 1430 11" fill="none" xmlns="http://www.w3.org/2000/svg">
<circle cx="5.93115" cy="5.73779" r="5.04053" fill="white"/>
<circle cx="21.8647" cy="5.73779" r="5.04053" fill="white"/>
<circle cx="37.8003" cy="5.73779" r="5.04053" fill="white"/>
<circle cx="53.7358" cy="5.73779" r="5.04053" fill="white"/>
<circle cx="69.6694" cy="5.73779" r="5.04053" fill="white"/>
<circle cx="85.603" cy="5.73779" r="5.04053" fill="white"/>
<circle cx="101.539" cy="5.73779" r="5.04053" fill="white"/>
<circle cx="117.474" cy="5.73779" r="5.04053" fill="white"/>
<circle cx="133.408" cy="5.73779" r="5.04053" fill="white"/>
<circle cx="149.341" cy="5.73779" r="5.04053" fill="white"/>
<circle cx="165.277" cy="5.73779" r="5.04053" fill="white"/>
<circle cx="181.212" cy="5.73779" r="5.04053" fill="white"/>
<circle cx="197.146" cy="5.73779" r="5.04053" fill="white"/>
<circle cx="213.08" cy="5.73779" r="5.04053" fill="white"/>
<circle cx="229.015" cy="5.73779" r="5.04053" fill="white"/>
<circle cx="244.951" cy="5.73779" r="5.04053" fill="white"/>
<circle cx="260.884" cy="5.73779" r="5.04053" fill="white"/>
<circle cx="276.818" cy="5.73779" r="5.04053" fill="white"/>
<circle cx="292.753" cy="5.73779" r="5.04053" fill="white"/>
<circle cx="308.689" cy="5.73779" r="5.04053" fill="white"/>
<circle cx="324.623" cy="5.73779" r="5.04053" fill="white"/>
<circle cx="340.556" cy="5.73779" r="5.04053" fill="white"/>
<circle cx="356.492" cy="5.73779" r="5.04053" fill="white"/>
<circle cx="372.427" cy="5.73779" r="5.04053" fill="white"/>
<circle cx="388.361" cy="5.73779" r="5.04053" fill="white"/>
<circle cx="404.294" cy="5.73779" r="5.04053" fill="white"/>
<circle cx="420.23" cy="5.73779" r="5.04053" fill="white"/>
<circle cx="436.166" cy="5.73779" r="5.04053" fill="white"/>
<circle cx="452.099" cy="5.73779" r="5.04053" fill="white"/>
<circle cx="468.033" cy="5.73779" r="5.04053" fill="white"/>
<circle cx="483.968" cy="5.73779" r="5.04053" fill="white"/>
<circle cx="499.904" cy="5.73779" r="5.04053" fill="white"/>
<circle cx="515.837" cy="5.73779" r="5.04053" fill="white"/>
<circle cx="531.771" cy="5.73779" r="5.04053" fill="white"/>
<circle cx="547.707" cy="5.73779" r="5.04053" fill="white"/>
<circle cx="563.642" cy="5.73779" r="5.04053" fill="white"/>
<circle cx="579.576" cy="5.73779" r="5.04053" fill="white"/>
<circle cx="595.509" cy="5.73779" r="5.04053" fill="white"/>
<circle cx="611.445" cy="5.73779" r="5.04053" fill="white"/>
<circle cx="627.38" cy="5.73779" r="5.04053" fill="white"/>
<circle cx="643.314" cy="5.73779" r="5.04053" fill="white"/>
<circle cx="659.248" cy="5.73779" r="5.04053" fill="white"/>
<circle cx="675.183" cy="5.73779" r="5.04053" fill="white"/>
<circle cx="691.119" cy="5.73779" r="5.04053" fill="white"/>
<circle cx="707.052" cy="5.73779" r="5.04053" fill="white"/>
<circle cx="722.986" cy="5.73779" r="5.04053" fill="white"/>
<circle cx="738.921" cy="5.73779" r="5.04053" fill="white"/>
<circle cx="754.857" cy="5.73779" r="5.04053" fill="white"/>
<circle cx="770.791" cy="5.73779" r="5.04053" fill="white"/>
<circle cx="786.724" cy="5.73779" r="5.04053" fill="white"/>
<circle cx="802.66" cy="5.73779" r="5.04053" fill="white"/>
<circle cx="818.595" cy="5.73779" r="5.04053" fill="white"/>
<circle cx="834.529" cy="5.73779" r="5.04053" fill="white"/>
<circle cx="850.462" cy="5.73779" r="5.04053" fill="white"/>
<circle cx="866.398" cy="5.73779" r="5.04053" fill="white"/>
<circle cx="882.333" cy="5.73779" r="5.04053" fill="white"/>
<circle cx="898.267" cy="5.73779" r="5.04053" fill="white"/>
<circle cx="914.201" cy="5.73779" r="5.04053" fill="white"/>
<circle cx="930.136" cy="5.73779" r="5.04053" fill="white"/>
<circle cx="946.072" cy="5.73779" r="5.04053" fill="white"/>
<circle cx="962.005" cy="5.73779" r="5.04053" fill="white"/>
<circle cx="977.939" cy="5.73779" r="5.04053" fill="white"/>
<circle cx="993.875" cy="5.73779" r="5.04053" fill="white"/>
<circle cx="1009.81" cy="5.73779" r="5.04053" fill="white"/>
<circle cx="1025.74" cy="5.73779" r="5.04053" fill="white"/>
<circle cx="1041.68" cy="5.73779" r="5.04053" fill="white"/>
<circle cx="1057.61" cy="5.73779" r="5.04053" fill="white"/>
<circle cx="1073.55" cy="5.73779" r="5.04053" fill="white"/>
<circle cx="1089.48" cy="5.73779" r="5.04053" fill="white"/>
<circle cx="1105.42" cy="5.73779" r="5.04053" fill="white"/>
<circle cx="1121.35" cy="5.73779" r="5.04053" fill="white"/>
<circle cx="1137.29" cy="5.73779" r="5.04053" fill="white"/>
<circle cx="1153.22" cy="5.73779" r="5.04053" fill="white"/>
<circle cx="1169.15" cy="5.73779" r="5.04053" fill="white"/>
<circle cx="1185.09" cy="5.73779" r="5.04053" fill="white"/>
<circle cx="1201.02" cy="5.73779" r="5.04053" fill="white"/>
<circle cx="1216.96" cy="5.73779" r="5.04053" fill="white"/>
<circle cx="1232.89" cy="5.73779" r="5.04053" fill="white"/>
<circle cx="1248.83" cy="5.73779" r="5.04053" fill="white"/>
<circle cx="1264.76" cy="5.73779" r="5.04053" fill="white"/>
<circle cx="1280.7" cy="5.73779" r="5.04053" fill="white"/>
<circle cx="1296.63" cy="5.73779" r="5.04053" fill="white"/>
<circle cx="1312.57" cy="5.73779" r="5.04053" fill="white"/>
<circle cx="1328.5" cy="5.73779" r="5.04053" fill="white"/>
<circle cx="1344.44" cy="5.73779" r="5.04053" fill="white"/>
<circle cx="1360.37" cy="5.73779" r="5.04053" fill="white"/>
<circle cx="1376.3" cy="5.73779" r="5.04053" fill="white"/>
<circle cx="1392.24" cy="5.73779" r="5.04053" fill="white"/>
<circle cx="1408.17" cy="5.73779" r="5.04053" fill="white"/>
<circle cx="1424.11" cy="5.73779" r="5.04053" fill="white"/>
</svg>
