<svg width="21" height="21" viewBox="0 0 21 21" fill="none" xmlns="http://www.w3.org/2000/svg">
<path d="M1.57861 6.91406C1.57861 6.16814 1.87493 5.45277 2.40238 4.92532C2.92982 4.39788 3.64519 4.10156 4.39111 4.10156H16.2661C17.012 4.10156 17.7274 4.39788 18.2549 4.92532C18.7823 5.45277 19.0786 6.16814 19.0786 6.91406V15.0391C19.0786 15.785 18.7823 16.5004 18.2549 17.0278C17.7274 17.5552 17.012 17.8516 16.2661 17.8516H4.39111C3.64519 17.8516 2.92982 17.5552 2.40238 17.0278C1.87493 16.5004 1.57861 15.785 1.57861 15.0391V6.91406ZM4.39111 5.35156C3.97671 5.35156 3.57928 5.51618 3.28626 5.80921C2.99323 6.10223 2.82861 6.49966 2.82861 6.91406V7.85156H17.8286V6.91406C17.8286 6.49966 17.664 6.10223 17.371 5.80921C17.0779 5.51618 16.6805 5.35156 16.2661 5.35156H4.39111ZM2.82861 15.0391C2.82861 15.4535 2.99323 15.8509 3.28626 16.1439C3.57928 16.4369 3.97671 16.6016 4.39111 16.6016H16.2661C16.6805 16.6016 17.0779 16.4369 17.371 16.1439C17.664 15.8509 17.8286 15.4535 17.8286 15.0391V9.10156H2.82861V15.0391ZM13.4536 12.8516H15.3286C15.4944 12.8516 15.6533 12.9174 15.7706 13.0346C15.8878 13.1518 15.9536 13.3108 15.9536 13.4766C15.9536 13.6423 15.8878 13.8013 15.7706 13.9185C15.6533 14.0357 15.4944 14.1016 15.3286 14.1016H13.4536C13.2879 14.1016 13.1289 14.0357 13.0117 13.9185C12.8945 13.8013 12.8286 13.6423 12.8286 13.4766C12.8286 13.3108 12.8945 13.1518 13.0117 13.0346C13.1289 12.9174 13.2879 12.8516 13.4536 12.8516Z" fill="white"/>
</svg>
