<svg width="20" height="21" viewBox="0 0 20 21" fill="none" xmlns="http://www.w3.org/2000/svg">
<path d="M3.74219 18.8957H14.8255C15.2454 18.8957 15.6482 18.7201 15.9451 18.4075C16.242 18.095 16.4089 17.671 16.4089 17.229V6.39567L12.4505 2.229H5.32552C4.90559 2.229 4.50287 2.4046 4.20594 2.71716C3.909 3.02972 3.74219 3.45364 3.74219 3.89567V7.229" stroke="white" stroke-width="2" stroke-linecap="round" stroke-linejoin="round"/>
<path d="M11.6602 2.229V5.56234C11.6602 6.00436 11.827 6.42829 12.1239 6.74085C12.4208 7.05341 12.8236 7.229 13.2435 7.229H16.4102M2.16016 13.0623H10.0768M10.0768 13.0623L7.70182 15.5623M10.0768 13.0623L7.70182 10.5623" stroke="white" stroke-width="2" stroke-linecap="round" stroke-linejoin="round"/>
</svg>
