<svg width="25" height="25" viewBox="0 0 25 25" fill="none" xmlns="http://www.w3.org/2000/svg">
<path d="M10.3286 12.5547C9.22861 12.5547 8.28695 12.163 7.50361 11.3797C6.72028 10.5964 6.32861 9.65469 6.32861 8.55469C6.32861 7.45469 6.72028 6.51302 7.50361 5.72969C8.28695 4.94635 9.22861 4.55469 10.3286 4.55469C11.4286 4.55469 12.3703 4.94635 13.1536 5.72969C13.9369 6.51302 14.3286 7.45469 14.3286 8.55469C14.3286 9.65469 13.9369 10.5964 13.1536 11.3797C12.3703 12.163 11.4286 12.5547 10.3286 12.5547ZM2.32861 18.5547V17.7547C2.32861 17.2047 2.47028 16.688 2.75361 16.2047C3.03695 15.7214 3.42861 15.3547 3.92861 15.1047C4.89528 14.6214 5.89528 14.242 6.92861 13.9667C7.96195 13.6914 9.02028 13.554 10.1036 13.5547C10.3869 13.5547 10.6246 13.6547 10.8166 13.8547C11.0086 14.0547 11.1043 14.2964 11.1036 14.5797C11.1036 14.863 11.0076 15.1007 10.8156 15.2927C10.6236 15.4847 10.3863 15.5804 10.1036 15.5797C9.17028 15.5797 8.26595 15.6964 7.39061 15.9297C6.51528 16.163 5.66128 16.488 4.82861 16.9047C4.66195 16.988 4.53695 17.1047 4.45361 17.2547C4.37028 17.4047 4.32861 17.5714 4.32861 17.7547V18.5547H10.1036C10.3869 18.5547 10.6246 18.6507 10.8166 18.8427C11.0086 19.0347 11.1043 19.272 11.1036 19.5547C11.1036 19.838 11.0076 20.0757 10.8156 20.2677C10.6236 20.4597 10.3866 20.5554 10.1046 20.5547H4.32861C3.77861 20.5547 3.30795 20.359 2.91661 19.9677C2.52528 19.5764 2.32928 19.1054 2.32861 18.5547ZM16.1786 20.7547L16.0286 20.0547C15.8286 19.9714 15.6413 19.884 15.4666 19.7927C15.2919 19.7014 15.1126 19.5887 14.9286 19.4547L14.2036 19.6797C13.9869 19.7464 13.7746 19.738 13.5666 19.6547C13.3586 19.5714 13.1959 19.438 13.0786 19.2547L12.8786 18.9047C12.7619 18.7047 12.7203 18.488 12.7536 18.2547C12.7869 18.0214 12.8953 17.8297 13.0786 17.6797L13.6286 17.2047C13.5953 16.9714 13.5786 16.7547 13.5786 16.5547C13.5786 16.3547 13.5953 16.138 13.6286 15.9047L13.0786 15.4297C12.8953 15.2797 12.7869 15.092 12.7536 14.8667C12.7203 14.6414 12.7619 14.429 12.8786 14.2297L13.1036 13.8547C13.2203 13.6714 13.3786 13.538 13.5786 13.4547C13.7786 13.3714 13.9869 13.363 14.2036 13.4297L14.9286 13.6547C15.1119 13.5214 15.2913 13.4087 15.4666 13.3167C15.6419 13.2247 15.8293 13.1374 16.0286 13.0547L16.1786 12.3297C16.2286 12.0964 16.3413 11.909 16.5166 11.7677C16.6919 11.6264 16.8959 11.5554 17.1286 11.5547H17.5286C17.7619 11.5547 17.9663 11.6297 18.1416 11.7797C18.3169 11.9297 18.4293 12.1214 18.4786 12.3547L18.6286 13.0547C18.8286 13.138 19.0159 13.2297 19.1906 13.3297C19.3653 13.4297 19.5446 13.5547 19.7286 13.7047L20.4036 13.4797C20.6369 13.3964 20.8619 13.3964 21.0786 13.4797C21.2953 13.563 21.4619 13.7047 21.5786 13.9047L21.7786 14.2547C21.8953 14.4547 21.9369 14.6714 21.9036 14.9047C21.8703 15.138 21.7619 15.3297 21.5786 15.4797L21.0286 15.9547C21.0619 16.1547 21.0786 16.363 21.0786 16.5797C21.0786 16.7964 21.0619 17.0047 21.0286 17.2047L21.5786 17.6797C21.7619 17.8297 21.8703 18.0174 21.9036 18.2427C21.9369 18.468 21.8953 18.6804 21.7786 18.8797L21.5536 19.2547C21.4369 19.438 21.2786 19.5714 21.0786 19.6547C20.8786 19.738 20.6703 19.7464 20.4536 19.6797L19.7286 19.4547C19.5453 19.588 19.3659 19.7004 19.1906 19.7917C19.0153 19.883 18.8279 19.9707 18.6286 20.0547L18.4786 20.7797C18.4286 21.013 18.3163 21.2007 18.1416 21.3427C17.9669 21.4847 17.7626 21.5554 17.5286 21.5547H17.1286C16.8953 21.5547 16.6913 21.4797 16.5166 21.3297C16.3419 21.1797 16.2293 20.988 16.1786 20.7547ZM17.3286 18.5547C17.8786 18.5547 18.3496 18.359 18.7416 17.9677C19.1336 17.5764 19.3293 17.1054 19.3286 16.5547C19.3286 16.0047 19.1329 15.534 18.7416 15.1427C18.3503 14.7514 17.8793 14.5554 17.3286 14.5547C16.7786 14.5547 16.3079 14.7507 15.9166 15.1427C15.5253 15.5347 15.3293 16.0054 15.3286 16.5547C15.3286 17.1047 15.5246 17.5757 15.9166 17.9677C16.3086 18.3597 16.7793 18.5554 17.3286 18.5547ZM10.3286 10.5547C10.8786 10.5547 11.3496 10.359 11.7416 9.96769C12.1336 9.57635 12.3293 9.10535 12.3286 8.55469C12.3286 8.00469 12.1329 7.53402 11.7416 7.14269C11.3503 6.75135 10.8793 6.55535 10.3286 6.55469C9.77861 6.55469 9.30795 6.75069 8.91661 7.14269C8.52528 7.53469 8.32928 8.00535 8.32861 8.55469C8.32861 9.10469 8.52461 9.57569 8.91661 9.96769C9.30861 10.3597 9.77928 10.5554 10.3286 10.5547Z" fill="white"/>
</svg>
