<svg width="27" height="27" viewBox="0 0 27 27" fill="none" xmlns="http://www.w3.org/2000/svg">
<path d="M18.2044 17.6548C20.0678 17.6548 22.2669 18.5215 22.5378 19.0415V19.8215H13.8711V19.0415C14.1419 18.5215 16.3411 17.6548 18.2044 17.6548ZM18.2044 16.0298C16.2219 16.0298 12.2461 17.0265 12.2461 19.009V21.4465H24.1628V19.009C24.1628 17.0265 20.1869 16.0298 18.2044 16.0298ZM10.0794 14.9465C7.55526 14.9465 2.49609 16.214 2.49609 18.7381V21.4465H10.0794V19.8215H4.12109V18.7381C4.12109 18.0556 7.14359 16.3981 10.9678 16.5715C11.4335 16.0145 12.004 15.5544 12.6469 15.2173C11.8019 15.044 10.942 14.9533 10.0794 14.9465ZM10.0794 7.90479C10.4008 7.90479 10.715 8.00009 10.9822 8.17865C11.2495 8.3572 11.4577 8.61099 11.5807 8.90792C11.7037 9.20485 11.7359 9.53159 11.6732 9.84681C11.6105 10.162 11.4557 10.4516 11.2285 10.6788C11.0012 10.9061 10.7117 11.0609 10.3964 11.1236C10.0812 11.1863 9.7545 11.1541 9.45757 11.0311C9.16064 10.9081 8.90685 10.6998 8.72829 10.4326C8.54973 10.1654 8.45443 9.85118 8.45443 9.52979C8.45443 9.09881 8.62563 8.68548 8.93038 8.38074C9.23512 8.07599 9.64845 7.90479 10.0794 7.90479ZM10.0794 6.27979C9.43664 6.27979 8.80828 6.47039 8.27382 6.82751C7.73936 7.18462 7.3228 7.6922 7.07682 8.28606C6.83083 8.87992 6.76647 9.53339 6.89187 10.1638C7.01728 10.7943 7.32681 11.3734 7.78133 11.8279C8.23585 12.2824 8.81494 12.5919 9.44538 12.7173C10.0758 12.8427 10.7293 12.7784 11.3231 12.5324C11.917 12.2864 12.4246 11.8698 12.7817 11.3354C13.1388 10.8009 13.3294 10.1726 13.3294 9.52979C13.3294 8.66783 12.987 7.84118 12.3775 7.23169C11.768 6.6222 10.9414 6.27979 10.0794 6.27979ZM18.2044 10.0715C18.4187 10.0715 18.6281 10.135 18.8063 10.254C18.9844 10.3731 19.1233 10.5423 19.2053 10.7402C19.2873 10.9382 19.3087 11.156 19.2669 11.3661C19.2251 11.5763 19.122 11.7693 18.9705 11.9208C18.819 12.0723 18.6259 12.1755 18.4158 12.2173C18.2056 12.2591 17.9878 12.2376 17.7899 12.1557C17.5919 12.0737 17.4227 11.9348 17.3037 11.7567C17.1846 11.5785 17.1211 11.369 17.1211 11.1548C17.1211 10.8675 17.2352 10.5919 17.4384 10.3888C17.6416 10.1856 17.9171 10.0715 18.2044 10.0715ZM18.2044 8.44645C17.6688 8.44645 17.1451 8.60529 16.6998 8.90289C16.2544 9.20048 15.9072 9.62347 15.7023 10.1184C15.4973 10.6132 15.4436 11.1578 15.5481 11.6832C15.6526 12.2085 15.9106 12.6911 16.2893 13.0699C16.6681 13.4486 17.1507 13.7066 17.6761 13.8111C18.2014 13.9156 18.746 13.8619 19.2409 13.657C19.7357 13.452 20.1587 13.1048 20.4563 12.6595C20.7539 12.2141 20.9128 11.6904 20.9128 11.1548C20.9128 10.4365 20.6274 9.74762 20.1195 9.2397C19.6116 8.73179 18.9227 8.44645 18.2044 8.44645Z" fill="white"/>
</svg>
