<svg width="25" height="25" viewBox="0 0 25 25" fill="none" xmlns="http://www.w3.org/2000/svg">
<path d="M20.3286 17.8906C20.859 17.8906 21.3678 17.6799 21.7428 17.3048C22.1179 16.9298 22.3286 16.4211 22.3286 15.8906V4.89062C22.3286 4.36019 22.1179 3.85148 21.7428 3.47641C21.3678 3.10134 20.859 2.89063 20.3286 2.89062H9.78861C10.1386 3.50063 10.3286 4.19062 10.3286 4.89062H20.3286V15.8906H11.3286V17.8906M15.3286 7.89062V9.89062H9.32861V22.8906H7.32861V16.8906H5.32861V22.8906H3.32861V14.8906H1.82861V9.89062C1.82861 9.36019 2.03933 8.85148 2.4144 8.47641C2.78947 8.10134 3.29818 7.89062 3.82861 7.89062H15.3286ZM8.32861 4.89062C8.32861 5.42106 8.1179 5.92977 7.74283 6.30484C7.36775 6.67991 6.85905 6.89062 6.32861 6.89062C5.79818 6.89062 5.28947 6.67991 4.9144 6.30484C4.53933 5.92977 4.32861 5.42106 4.32861 4.89062C4.32861 4.36019 4.53933 3.85148 4.9144 3.47641C5.28947 3.10134 5.79818 2.89063 6.32861 2.89062C6.85905 2.89063 7.36775 3.10134 7.74283 3.47641C8.1179 3.85148 8.32861 4.36019 8.32861 4.89062Z" fill="white"/>
</svg>
