<svg width="19" height="19" viewBox="0 0 19 19" fill="none" xmlns="http://www.w3.org/2000/svg">
<g clip-path="url(#clip0_51_4680)">
<path d="M0.328125 9.23828C0.328125 6.85133 1.27634 4.56215 2.96416 2.87432C4.65199 1.18649 6.94118 0.238281 9.32812 0.238281C11.7151 0.238281 14.0043 1.18649 15.6921 2.87432C17.3799 4.56215 18.3281 6.85133 18.3281 9.23828C18.3281 11.6252 17.3799 13.9144 15.6921 15.6022C14.0043 17.2901 11.7151 18.2383 9.32812 18.2383C6.94118 18.2383 4.65199 17.2901 2.96416 15.6022C1.27634 13.9144 0.328125 11.6252 0.328125 9.23828ZM9.32812 1.92578C7.38873 1.92578 5.52877 2.6962 4.15741 4.06756C2.78605 5.43892 2.01562 7.29889 2.01562 9.23828C2.01562 11.1777 2.78605 13.0376 4.15741 14.409C5.52877 15.7804 7.38873 16.5508 9.32812 16.5508C11.2675 16.5508 13.1275 15.7804 14.4988 14.409C15.8702 13.0376 16.6406 11.1777 16.6406 9.23828C16.6406 7.29889 15.8702 5.43892 14.4988 4.06756C13.1275 2.6962 11.2675 1.92578 9.32812 1.92578ZM8.11312 7.08391C8.01317 7.28411 7.83891 7.43641 7.62666 7.5073C7.41442 7.57819 7.18271 7.56186 6.9825 7.46191C6.78229 7.36195 6.63 7.18656 6.55911 6.97432C6.48822 6.76207 6.50455 6.53036 6.6045 6.33016C6.79462 5.94878 7.095 5.54153 7.55963 5.23103C8.02875 4.91828 8.61825 4.73828 9.32812 4.73828C9.98927 4.73376 10.6346 4.94071 11.1698 5.32891C11.7356 5.75303 12.1406 6.41453 12.1406 7.26953C12.1406 7.77353 12.0112 8.20328 11.7705 8.56328C11.5399 8.90866 11.2417 9.14041 10.992 9.30803C10.8694 9.38903 10.7445 9.46328 10.6399 9.52741L10.6331 9.53191C10.5342 9.58951 10.4366 9.64953 10.3406 9.71191C10.2201 9.78265 10.1147 9.87628 10.0301 9.98753C9.90486 10.171 9.71229 10.2977 9.49419 10.3401C9.2761 10.3824 9.0501 10.3371 8.86524 10.2139C8.68039 10.0906 8.5516 9.89944 8.50683 9.68183C8.46206 9.46422 8.50493 9.23773 8.62613 9.05153C8.83313 8.75453 9.09863 8.50141 9.40462 8.30791C9.5205 8.23253 9.6375 8.15941 9.75675 8.08853L9.76462 8.08403C9.87712 8.01541 9.96937 7.96028 10.0549 7.90291C10.1755 7.83189 10.2813 7.73831 10.3665 7.62728C10.4081 7.56653 10.4531 7.46866 10.4531 7.26953C10.4574 7.15427 10.4326 7.03979 10.3811 6.93659C10.3296 6.83339 10.253 6.74479 10.1584 6.67891C9.91457 6.51047 9.62443 6.42202 9.32812 6.42578C8.913 6.42578 8.65875 6.52703 8.49563 6.63616C8.33099 6.7492 8.19906 6.90364 8.11312 7.08391ZM10.4531 12.6133C10.4531 12.9116 10.3346 13.1978 10.1236 13.4088C9.91264 13.6198 9.62649 13.7383 9.32812 13.7383C9.02976 13.7383 8.74361 13.6198 8.53263 13.4088C8.32165 13.1978 8.20312 12.9116 8.20312 12.6133C8.20312 12.3149 8.32165 12.0288 8.53263 11.8178C8.74361 11.6068 9.02976 11.4883 9.32812 11.4883C9.62649 11.4883 9.91264 11.6068 10.1236 11.8178C10.3346 12.0288 10.4531 12.3149 10.4531 12.6133Z" fill="white"/>
</g>
<defs>
<clipPath id="clip0_51_4680">
<rect width="18" height="18" fill="white" transform="translate(0.328125 0.238281)"/>
</clipPath>
</defs>
</svg>
