<svg width="23" height="24" viewBox="0 0 23 24" fill="none" xmlns="http://www.w3.org/2000/svg">
<path d="M21.6406 12.1016C21.6414 11.2761 21.4478 10.4632 21.0771 9.73445C20.7064 9.00569 20.1698 8.38347 19.5148 7.92267C18.8597 7.46187 18.1063 7.17663 17.3209 7.09211C16.5355 7.00758 15.7423 7.12637 15.0112 7.438C14.2801 7.74962 13.6336 8.24451 13.1286 8.87903C12.6237 9.51355 12.2758 10.2682 12.1156 11.0765C11.9555 11.8847 11.9881 12.7218 12.2104 13.5138C12.4328 14.3058 12.8381 15.0285 13.3906 15.618V20.7266C13.3905 20.8491 13.4204 20.9697 13.4775 21.0768C13.5345 21.1839 13.6168 21.2739 13.7166 21.3384C13.8163 21.4029 13.9301 21.4396 14.0473 21.4451C14.1644 21.4506 14.2809 21.4247 14.3858 21.3698L16.8281 20.0923L19.2705 21.3698C19.3753 21.4247 19.4919 21.4506 19.609 21.4451C19.7261 21.4396 19.84 21.4029 19.9397 21.3384C20.0394 21.2739 20.1217 21.1839 20.1788 21.0768C20.2358 20.9697 20.2657 20.8491 20.2656 20.7266V15.618C21.1474 14.6798 21.6412 13.4169 21.6406 12.1016ZM16.8281 8.50781C17.508 8.50781 18.1726 8.71858 18.7379 9.11347C19.3032 9.50836 19.7438 10.0696 20.004 10.7263C20.2641 11.383 20.3322 12.1055 20.1996 12.8027C20.0669 13.4998 19.7395 14.1401 19.2588 14.6427C18.7781 15.1453 18.1656 15.4876 17.4987 15.6263C16.8319 15.7649 16.1408 15.6938 15.5127 15.4218C14.8845 15.1498 14.3477 14.6891 13.9699 14.0981C13.5922 13.5072 13.3906 12.8123 13.3906 12.1016C13.3906 11.1484 13.7528 10.2344 14.3974 9.5604C15.0421 8.88644 15.9164 8.50781 16.8281 8.50781ZM17.1358 18.6458C17.0403 18.5958 16.9349 18.5698 16.8281 18.5698C16.7213 18.5698 16.616 18.5958 16.5205 18.6458L14.7656 19.564V16.6468C15.4101 16.9668 16.1146 17.1328 16.8281 17.1328C17.5416 17.1328 18.2461 16.9668 18.8906 16.6468V19.564L17.1358 18.6458ZM12.0156 17.8516C12.0156 18.0422 11.9432 18.225 11.8143 18.3598C11.6853 18.4946 11.5105 18.5703 11.3281 18.5703H3.76563C3.40095 18.5703 3.05122 18.4189 2.79335 18.1493C2.53549 17.8797 2.39063 17.5141 2.39062 17.1328V5.63281C2.39062 5.25156 2.53549 4.88593 2.79335 4.61635C3.05122 4.34676 3.40095 4.19531 3.76563 4.19531H18.8906C19.2553 4.19531 19.605 4.34676 19.8629 4.61635C20.1208 4.88593 20.2656 5.25156 20.2656 5.63281C20.2656 5.82344 20.1932 6.00625 20.0643 6.14105C19.9353 6.27584 19.7605 6.35156 19.5781 6.35156C19.3958 6.35156 19.2209 6.27584 19.092 6.14105C18.9631 6.00625 18.8906 5.82344 18.8906 5.63281H3.76563V17.1328H11.3281C11.5105 17.1328 11.6853 17.2085 11.8143 17.3433C11.9432 17.4781 12.0156 17.6609 12.0156 17.8516ZM10.6406 12.8203C10.6406 13.0109 10.5682 13.1938 10.4393 13.3285C10.3103 13.4633 10.1355 13.5391 9.95313 13.5391H6.51563C6.33329 13.5391 6.15842 13.4633 6.02949 13.3285C5.90056 13.1938 5.82813 13.0109 5.82813 12.8203C5.82813 12.6297 5.90056 12.4469 6.02949 12.3121C6.15842 12.1773 6.33329 12.1016 6.51563 12.1016H9.95313C10.1355 12.1016 10.3103 12.1773 10.4393 12.3121C10.5682 12.4469 10.6406 12.6297 10.6406 12.8203ZM10.6406 9.94531C10.6406 10.1359 10.5682 10.3188 10.4393 10.4535C10.3103 10.5883 10.1355 10.6641 9.95313 10.6641H6.51563C6.33329 10.6641 6.15842 10.5883 6.02949 10.4535C5.90056 10.3188 5.82813 10.1359 5.82813 9.94531C5.82813 9.75469 5.90056 9.57187 6.02949 9.43708C6.15842 9.30229 6.33329 9.22656 6.51563 9.22656H9.95313C10.1355 9.22656 10.3103 9.30229 10.4393 9.43708C10.5682 9.57187 10.6406 9.75469 10.6406 9.94531Z" fill="white"/>
</svg>
