<svg width="23" height="24" viewBox="0 0 23 24" fill="none" xmlns="http://www.w3.org/2000/svg">
<path d="M19.5781 4.83594H3.07812C2.89579 4.83594 2.72092 4.91166 2.59199 5.04645C2.46306 5.18125 2.39063 5.36406 2.39062 5.55469V17.7734C2.39063 18.1547 2.53549 18.5203 2.79335 18.7899C3.05122 19.0595 3.40095 19.2109 3.76562 19.2109H18.8906C19.2553 19.2109 19.605 19.0595 19.8629 18.7899C20.1208 18.5203 20.2656 18.1547 20.2656 17.7734V5.55469C20.2656 5.36406 20.1932 5.18125 20.0643 5.04645C19.9353 4.91166 19.7605 4.83594 19.5781 4.83594ZM3.76562 10.5859H7.20312V13.4609H3.76562V10.5859ZM8.57812 10.5859H18.8906V13.4609H8.57812V10.5859ZM18.8906 6.27344V9.14844H3.76562V6.27344H18.8906ZM3.76562 14.8984H7.20312V17.7734H3.76562V14.8984ZM18.8906 17.7734H8.57812V14.8984H18.8906V17.7734Z" fill="white"/>
</svg>
