<svg width="20" height="22" viewBox="0 0 20 22" fill="none" xmlns="http://www.w3.org/2000/svg">
<path d="M17.7136 10.8877C17.7136 13.0765 16.9137 15.1757 15.4898 16.7234C14.0658 18.2712 12.1346 19.1407 10.1209 19.1407V20.479C14.9942 20.479 18.9449 16.1848 18.9449 10.8877H17.7136ZM10.1209 19.1407C8.10716 19.1407 6.17591 18.2712 4.752 16.7234C3.32808 15.1757 2.52813 13.0765 2.52813 10.8877H1.29688C1.29688 16.1848 5.24757 20.479 10.1209 20.479V19.1407ZM2.52813 10.8877C2.52813 8.69887 3.32808 6.59969 4.752 5.05195C6.17591 3.50422 8.10716 2.63471 10.1209 2.63471V1.29639C5.24757 1.29639 1.29688 5.59062 1.29688 10.8877H2.52813ZM12.9938 12.8952C11.742 12.8952 10.5415 12.3547 9.6564 11.3926C8.77126 10.4305 8.274 9.12557 8.274 7.76494H7.04274C7.04274 9.48051 7.66973 11.1258 8.78577 12.3389C9.90181 13.552 11.4155 14.2335 12.9938 14.2335V12.8952ZM17.0364 10.4139C16.6167 11.1713 16.0238 11.7979 15.3154 12.2326C14.6071 12.6674 13.8073 12.8957 12.9938 12.8952V14.2335C14.0194 14.2341 15.0277 13.9465 15.9209 13.3985C16.814 12.8506 17.5617 12.061 18.0912 11.1063L17.0364 10.4139ZM8.274 7.76494C8.27364 6.88073 8.48365 6.01144 8.88363 5.2415C9.28362 4.47156 9.85998 3.82712 10.5567 3.37079L9.91978 2.22518C9.04155 2.80065 8.31512 3.61315 7.81102 4.58381C7.30692 5.55447 7.04226 6.65031 7.04274 7.76494H8.274ZM10.1209 2.63471C10.0376 2.63258 9.95855 2.59473 9.9009 2.52943C9.86565 2.49216 9.8421 2.44378 9.83359 2.39113C9.8303 2.36348 9.83195 2.28318 9.91978 2.22518L10.5567 3.37079C10.9696 3.09955 11.1026 2.60259 11.0542 2.2118C11.0033 1.80584 10.7094 1.29639 10.1209 1.29639V2.63471ZM18.0912 11.1063C18.037 11.2018 17.9632 11.2035 17.9377 11.2C17.8893 11.1907 17.8448 11.1651 17.8105 11.1268C17.7504 11.0641 17.7156 10.9782 17.7136 10.8877H18.9449C18.9449 10.248 18.4762 9.92857 18.1027 9.87325C17.7432 9.82061 17.286 9.96515 17.0364 10.4139L18.0912 11.1063Z" fill="#FDFDFD"/>
</svg>
