<svg width="23" height="16" viewBox="0 0 23 16" fill="none" xmlns="http://www.w3.org/2000/svg">
<path d="M16.2034 12.0605C18.0668 12.0605 20.2659 12.9272 20.5368 13.4472V14.2272H11.8701V13.4472C12.1409 12.9272 14.3401 12.0605 16.2034 12.0605ZM16.2034 10.4355C14.2209 10.4355 10.2451 11.4322 10.2451 13.4147V15.8522H22.1618V13.4147C22.1618 11.4322 18.1859 10.4355 16.2034 10.4355ZM8.07845 9.35221C5.55428 9.35221 0.495117 10.6197 0.495117 13.1439V15.8522H8.07845V14.2272H2.12012V13.1439C2.12012 12.4614 5.14262 10.8039 8.96678 10.9772C9.43249 10.4203 10.003 9.9602 10.6459 9.62305C9.80092 9.44974 8.94104 9.35904 8.07845 9.35221ZM8.07845 2.31055C8.39984 2.31055 8.71402 2.40585 8.98125 2.58441C9.24848 2.76297 9.45676 3.01676 9.57975 3.31369C9.70275 3.61062 9.73493 3.93735 9.67223 4.25257C9.60952 4.56779 9.45476 4.85734 9.2275 5.0846C9.00024 5.31186 8.71069 5.46662 8.39547 5.52932C8.08025 5.59202 7.75352 5.55984 7.45659 5.43685C7.15966 5.31386 6.90587 5.10558 6.72731 4.83835C6.54875 4.57112 6.45345 4.25694 6.45345 3.93555C6.45345 3.50457 6.62465 3.09124 6.9294 2.7865C7.23415 2.48175 7.64747 2.31055 8.07845 2.31055ZM8.07845 0.685547C7.43566 0.685547 6.80731 0.876156 6.27285 1.23327C5.73839 1.59039 5.32183 2.09797 5.07584 2.69183C4.82986 3.28569 4.7655 3.93915 4.8909 4.56959C5.0163 5.20003 5.32583 5.77912 5.78035 6.23364C6.23487 6.68817 6.81397 6.9977 7.44441 7.1231C8.07484 7.2485 8.72831 7.18414 9.32217 6.93816C9.91603 6.69217 10.4236 6.27561 10.7807 5.74115C11.1378 5.20669 11.3284 4.57834 11.3284 3.93555C11.3284 3.07359 10.986 2.24694 10.3765 1.63745C9.76705 1.02796 8.9404 0.685547 8.07845 0.685547ZM16.2034 4.47721C16.4177 4.47721 16.6272 4.54075 16.8053 4.65979C16.9835 4.77883 17.1223 4.94802 17.2043 5.14597C17.2863 5.34393 17.3078 5.56175 17.266 5.77189C17.2242 5.98204 17.121 6.17507 16.9695 6.32658C16.818 6.47809 16.6249 6.58126 16.4148 6.62306C16.2047 6.66487 15.9868 6.64341 15.7889 6.56142C15.5909 6.47942 15.4217 6.34057 15.3027 6.16242C15.1837 5.98426 15.1201 5.77481 15.1201 5.56055C15.1201 5.27323 15.2343 4.99768 15.4374 4.79451C15.6406 4.59135 15.9161 4.47721 16.2034 4.47721ZM16.2034 2.85221C15.6678 2.85221 15.1442 3.01105 14.6988 3.30865C14.2534 3.60625 13.9063 4.02923 13.7013 4.52411C13.4963 5.019 13.4427 5.56355 13.5472 6.08892C13.6517 6.61428 13.9096 7.09686 14.2884 7.47563C14.6671 7.8544 15.1497 8.11234 15.6751 8.21684C16.2004 8.32134 16.745 8.26771 17.2399 8.06272C17.7348 7.85773 18.1578 7.5106 18.4553 7.06522C18.7529 6.61983 18.9118 6.0962 18.9118 5.56055C18.9118 4.84225 18.6264 4.15338 18.1185 3.64547C17.6106 3.13756 16.9217 2.85221 16.2034 2.85221Z" fill="white"/>
</svg>
