<svg width="73" height="622" viewBox="0 0 73 622" fill="none" xmlns="http://www.w3.org/2000/svg">
<path d="M3 563.73V58.2696C3 53.2134 3 50.6854 3.59648 48.298C3.97793 46.7713 4.53824 45.295 5.26577 43.8996C6.40341 41.7177 8.08072 39.8262 11.4354 36.0432C30.9901 13.9913 40.7675 2.96541 49.4022 2.70719C54.7031 2.54867 59.8499 4.502 63.7109 8.13762C70 14.0597 70 28.7963 70 58.2696V563.73C70 593.204 70 607.94 63.7109 613.862C59.8499 617.498 54.7031 619.451 49.4022 619.293C40.7675 619.035 30.9901 608.009 11.4353 585.957C8.08072 582.174 6.40341 580.282 5.26577 578.1C4.53824 576.705 3.97793 575.229 3.59648 573.702C3 571.315 3 568.787 3 563.73Z" fill="#4941A6" stroke="#a5a2c2" stroke-width="5"/>
</svg>
