<svg width="19" height="18" viewBox="0 0 19 18" fill="none" xmlns="http://www.w3.org/2000/svg">
<g clip-path="url(#clip0_51_4688)">
<path d="M15.8622 0.150391C15.6026 0.150391 15.3555 0.261544 15.1478 0.457698L14.6507 0.906891L17.5708 3.66481L18.0472 3.19535C18.4625 2.80304 18.4625 2.21851 18.0472 1.8262L16.5975 0.457044C16.3898 0.260891 16.1218 0.150391 15.8622 0.150391ZM14.1744 1.29528L13.417 1.88831L16.5324 4.83062L17.2247 4.17678L14.1744 1.29528ZM13.0058 2.35778L6.75423 8.20185C6.72259 8.22653 6.69339 8.25389 6.667 8.28358L6.62408 8.30385C6.54857 8.38558 6.49638 8.48415 6.47246 8.59024L5.62854 11.3894C5.59237 11.5001 5.58887 11.6182 5.61843 11.7307C5.64798 11.8432 5.70947 11.946 5.79628 12.028C5.88308 12.11 5.99191 12.168 6.11106 12.1959C6.2302 12.2239 6.35516 12.2206 6.47246 12.1864L9.43623 11.3894C9.53464 11.3673 9.62654 11.3247 9.70515 11.2646C9.78376 11.2045 9.84706 11.1285 9.89039 11.0422L16.0353 5.30008L14.8667 4.11466V4.17612L14.0442 3.39935H14.1093L13.0058 2.35778ZM0.891079 2.80697C0.730691 2.83578 0.586245 2.91719 0.483255 3.03684C0.380264 3.15648 0.325357 3.30665 0.328232 3.46081V16.5377C0.328232 16.7111 0.401172 16.8775 0.531005 17.0001C0.660838 17.1227 0.836929 17.1916 1.02054 17.1916H14.8667C15.0503 17.1916 15.2264 17.1227 15.3562 17.0001C15.4861 16.8775 15.559 16.7111 15.559 16.5377V9.34543C15.559 9.17202 15.4861 9.00571 15.3562 8.88309C15.2264 8.76047 15.0503 8.69158 14.8667 8.69158C14.6831 8.69158 14.507 8.76047 14.3772 8.88309C14.2473 9.00571 14.1744 9.17202 14.1744 9.34543V15.8839H1.71285V4.11466H8.63593C8.81954 4.11466 8.99563 4.04577 9.12546 3.92315C9.25529 3.80053 9.32823 3.63422 9.32823 3.46081C9.32823 3.2874 9.25529 3.1211 9.12546 2.99848C8.99563 2.87586 8.81954 2.80697 8.63593 2.80697H1.02054C0.99886 2.806 0.977144 2.806 0.955463 2.80697C0.933783 2.806 0.912067 2.806 0.890386 2.80697H0.891079ZM7.68469 9.22316L8.63662 9.28397L8.70169 10.2647L7.74977 10.5302L7.38216 10.1837L7.68469 9.22316Z" fill="#4941A6
"/>
</g>
<defs>
<clipPath id="clip0_51_4688">
<rect width="18" height="17" fill="white" transform="translate(0.328125 0.191406)"/>
</clipPath>
</defs>
</svg>
