<svg width="20" height="20" viewBox="0 0 20 20" fill="none" xmlns="http://www.w3.org/2000/svg">
<path d="M16.165 6.11655L13.8816 3.83321C13.5836 3.55329 13.1931 3.39268 12.7844 3.38192C12.3757 3.37117 11.9773 3.51102 11.665 3.77488L4.16496 11.2749C3.8956 11.5465 3.72788 11.9026 3.68996 12.2832L3.33163 15.7582C3.3204 15.8803 3.33624 16.0033 3.37801 16.1185C3.41978 16.2338 3.48646 16.3384 3.57329 16.4249C3.65116 16.5021 3.74351 16.5632 3.84504 16.6047C3.94657 16.6462 4.05529 16.6672 4.16496 16.6665H4.23996L7.71496 16.3499C8.09562 16.312 8.45166 16.1442 8.72329 15.8749L16.2233 8.37488C16.5144 8.06735 16.6717 7.65697 16.6608 7.23366C16.6498 6.81035 16.4715 6.40864 16.165 6.11655ZM7.56496 14.6832L5.06496 14.9165L5.28996 12.4165L9.99829 7.76655L12.2483 10.0165L7.56496 14.6832ZM13.3316 8.89988L11.0983 6.66655L12.7233 4.99988L14.9983 7.27488L13.3316 8.89988Z" fill="white"/>
</svg>
