<svg width="21" height="20" viewBox="0 0 21 20" fill="none" xmlns="http://www.w3.org/2000/svg">
<path d="M1.57812 5.9375C1.57813 5.19158 1.87444 4.47621 2.40189 3.94876C2.92933 3.42132 3.6447 3.125 4.39062 3.125H16.2656C17.0115 3.125 17.7269 3.42132 18.2544 3.94876C18.7818 4.47621 19.0781 5.19158 19.0781 5.9375V14.0625C19.0781 14.8084 18.7818 15.5238 18.2544 16.0512C17.7269 16.5787 17.0115 16.875 16.2656 16.875H4.39062C3.6447 16.875 2.92933 16.5787 2.40189 16.0512C1.87444 15.5238 1.57813 14.8084 1.57812 14.0625V5.9375ZM4.39062 4.375C3.97622 4.375 3.5788 4.53962 3.28577 4.83265C2.99275 5.12567 2.82812 5.5231 2.82812 5.9375V6.875H17.8281V5.9375C17.8281 5.5231 17.6635 5.12567 17.3705 4.83265C17.0775 4.53962 16.68 4.375 16.2656 4.375H4.39062ZM2.82812 14.0625C2.82812 14.4769 2.99275 14.8743 3.28577 15.1674C3.5788 15.4604 3.97622 15.625 4.39062 15.625H16.2656C16.68 15.625 17.0775 15.4604 17.3705 15.1674C17.6635 14.8743 17.8281 14.4769 17.8281 14.0625V8.125H2.82812V14.0625ZM13.4531 11.875H15.3281C15.4939 11.875 15.6529 11.9408 15.7701 12.0581C15.8873 12.1753 15.9531 12.3342 15.9531 12.5C15.9531 12.6658 15.8873 12.8247 15.7701 12.9419C15.6529 13.0592 15.4939 13.125 15.3281 13.125H13.4531C13.2874 13.125 13.1284 13.0592 13.0112 12.9419C12.894 12.8247 12.8281 12.6658 12.8281 12.5C12.8281 12.3342 12.894 12.1753 13.0112 12.0581C13.1284 11.9408 13.2874 11.875 13.4531 11.875Z" fill="#4941A6"/>
</svg>
