<svg width="33" height="32" viewBox="0 0 33 32" fill="none" xmlns="http://www.w3.org/2000/svg">
<path d="M16.5741 2.26367C19.7318 2.26367 22.7602 3.48322 24.9931 5.65404C27.2259 7.82485 28.4803 10.7691 28.4803 13.8391C28.4803 18.6313 24.7232 23.6525 17.3679 29.0158C17.1389 29.1828 16.8604 29.273 16.5741 29.273C16.2879 29.273 16.0094 29.1828 15.7804 29.0158C8.42502 23.6525 4.66797 18.6313 4.66797 13.8391C4.66797 10.7691 5.92236 7.82485 8.1552 5.65404C10.388 3.48322 13.4164 2.26367 16.5741 2.26367ZM16.5741 9.98063C15.5216 9.98063 14.5121 10.3871 13.7678 11.1107C13.0235 11.8344 12.6054 12.8158 12.6054 13.8391C12.6054 14.8624 13.0235 15.8439 13.7678 16.5675C14.5121 17.2911 15.5216 17.6976 16.5741 17.6976C17.6267 17.6976 18.6362 17.2911 19.3804 16.5675C20.1247 15.8439 20.5428 14.8624 20.5428 13.8391C20.5428 12.8158 20.1247 11.8344 19.3804 11.1107C18.6362 10.3871 17.6267 9.98063 16.5741 9.98063Z" fill="#FE4F60"/>
</svg>
