<svg width="14" height="14" viewBox="0 0 14 14" fill="none" xmlns="http://www.w3.org/2000/svg">
<path d="M5.48958 3.87126H7.65625C7.65625 3.58394 7.54211 3.30839 7.33895 3.10522C7.13578 2.90206 6.86023 2.78792 6.57292 2.78792C6.2856 2.78792 6.01005 2.90206 5.80688 3.10522C5.60372 3.30839 5.48958 3.58394 5.48958 3.87126ZM4.40625 3.87126C4.40625 3.29662 4.63452 2.74552 5.04085 2.33919C5.44718 1.93286 5.99828 1.70459 6.57292 1.70459C7.14755 1.70459 7.69865 1.93286 8.10498 2.33919C8.51131 2.74552 8.73958 3.29662 8.73958 3.87126H11.4479C11.5916 3.87126 11.7294 3.92832 11.8309 4.02991C11.9325 4.13149 11.9896 4.26926 11.9896 4.41292C11.9896 4.55658 11.9325 4.69436 11.8309 4.79594C11.7294 4.89752 11.5916 4.95459 11.4479 4.95459H10.9702L10.4903 10.5554C10.4441 11.0963 10.1967 11.6001 9.79684 11.9672C9.39702 12.3343 8.87397 12.538 8.33117 12.5379H4.81467C4.27187 12.538 3.74882 12.3343 3.349 11.9672C2.94918 11.6001 2.70172 11.0963 2.65558 10.5554L2.17567 4.95459H1.69792C1.55426 4.95459 1.41648 4.89752 1.3149 4.79594C1.21332 4.69436 1.15625 4.55658 1.15625 4.41292C1.15625 4.26926 1.21332 4.13149 1.3149 4.02991C1.41648 3.92832 1.55426 3.87126 1.69792 3.87126H4.40625ZM8.19792 7.12126C8.19792 6.9776 8.14085 6.83982 8.03927 6.73824C7.93768 6.63666 7.79991 6.57959 7.65625 6.57959C7.51259 6.57959 7.37482 6.63666 7.27323 6.73824C7.17165 6.83982 7.11458 6.9776 7.11458 7.12126V9.28792C7.11458 9.43158 7.17165 9.56936 7.27323 9.67094C7.37482 9.77252 7.51259 9.82959 7.65625 9.82959C7.79991 9.82959 7.93768 9.77252 8.03927 9.67094C8.14085 9.56936 8.19792 9.43158 8.19792 9.28792V7.12126ZM5.48958 6.57959C5.63324 6.57959 5.77102 6.63666 5.8726 6.73824C5.97418 6.83982 6.03125 6.9776 6.03125 7.12126V9.28792C6.03125 9.43158 5.97418 9.56936 5.8726 9.67094C5.77102 9.77252 5.63324 9.82959 5.48958 9.82959C5.34592 9.82959 5.20815 9.77252 5.10657 9.67094C5.00499 9.56936 4.94792 9.43158 4.94792 9.28792V7.12126C4.94792 6.9776 5.00499 6.83982 5.10657 6.73824C5.20815 6.63666 5.34592 6.57959 5.48958 6.57959ZM3.73458 10.4633C3.75766 10.7339 3.88147 10.9858 4.08149 11.1694C4.28151 11.353 4.54317 11.4548 4.81467 11.4546H8.33117C8.60247 11.4545 8.86386 11.3526 9.06366 11.169C9.26345 10.9855 9.38711 10.7337 9.41017 10.4633L9.8825 4.95459H3.26333L3.73458 10.4633Z" fill="#FF3A3A"/>
</svg>
