<svg width="27" height="26" viewBox="0 0 27 26" fill="none" xmlns="http://www.w3.org/2000/svg">
<path d="M13.745 23.8427C14.9227 23.8427 15.8863 22.8791 15.8863 21.7014H11.6036C11.6036 22.8791 12.5672 23.8427 13.745 23.8427ZM20.1689 17.4187V12.0654C20.1689 8.77852 18.4237 6.02693 15.3509 5.29888V4.57083C15.3509 3.68218 14.6336 2.96484 13.745 2.96484C12.8563 2.96484 12.139 3.68218 12.139 4.57083V5.29888C9.07688 6.02693 7.321 8.76781 7.321 12.0654V17.4187L5.17969 19.56V20.6307H22.3102V19.56L20.1689 17.4187ZM18.0276 18.4894H9.46232V12.0654C9.46232 9.4102 11.079 7.24748 13.745 7.24748C16.4109 7.24748 18.0276 9.4102 18.0276 12.0654V18.4894Z" fill="white"/>
</svg>
