<svg width="32" height="32" viewBox="0 0 32 32" fill="none" xmlns="http://www.w3.org/2000/svg">
<path d="M9 4V7.234L5.516 5.143L4.484 6.857L6.39 8H3V27H9V25H5V10H13.027C13.86 9.38 14.884 9 16 9C16.352 9 16.682 9.042 17 9.102V8H13.611L15.516 6.857L14.484 5.143L11 7.234V4H9ZM16 11C14.355 11 13 12.355 13 14C13 14.352 13.075 14.684 13.188 15H11V27H29V15H26.812C26.9325 14.6802 26.9961 14.3417 27 14C27 12.355 25.645 11 24 11C22.25 11 21.062 12.328 20.281 13.438C20.176 13.585 20.093 13.732 20 13.877C19.906 13.732 19.824 13.587 19.719 13.437C18.937 12.328 17.75 11 16 11ZM16 13C16.625 13 17.438 13.671 18.063 14.563C18.215 14.781 18.192 14.794 18.313 15.002H16C15.434 15.002 15 14.568 15 14.002C14.9977 13.87 15.022 13.7388 15.0714 13.6163C15.1208 13.4938 15.1944 13.3826 15.2877 13.2891C15.3809 13.1956 15.4921 13.1218 15.6145 13.0722C15.7368 13.0225 15.8679 12.998 16 13ZM24 13C24.566 13 25 13.434 25 14C25 14.566 24.566 15 24 15H21.687C21.809 14.793 21.785 14.78 21.937 14.562C22.563 13.672 23.375 13 24 13ZM13 17H19V25H13V17ZM21 17H27V25H21V17Z" fill="white"/>
</svg>
