<svg width="22" height="23" viewBox="0 0 22 23" fill="none" xmlns="http://www.w3.org/2000/svg">
<path d="M21.3125 11.5C21.3132 10.6746 21.1197 9.86165 20.749 9.13289C20.3782 8.40412 19.8417 7.78191 19.1867 7.32111C18.5316 6.8603 17.7782 6.57507 16.9928 6.49054C16.2074 6.40602 15.4142 6.52481 14.6831 6.83643C13.952 7.14806 13.3055 7.64295 12.8005 8.27747C12.2955 8.91199 11.9477 9.66665 11.7875 10.4749C11.6274 11.2832 11.6599 12.1202 11.8823 12.9122C12.1046 13.7042 12.5099 14.4269 13.0625 15.0165V20.125C13.0624 20.2476 13.0923 20.3681 13.1494 20.4752C13.2064 20.5823 13.2887 20.6724 13.3884 20.7368C13.4882 20.8013 13.602 20.838 13.7191 20.8435C13.8363 20.849 13.9528 20.8231 14.0577 20.7683L16.5 19.4907L18.9423 20.7683C19.0472 20.8231 19.1637 20.849 19.2809 20.8435C19.398 20.838 19.5118 20.8013 19.6116 20.7368C19.7113 20.6724 19.7936 20.5823 19.8506 20.4752C19.9077 20.3681 19.9376 20.2476 19.9375 20.125V15.0165C20.8193 14.0782 21.3131 12.8153 21.3125 11.5ZM16.5 7.90625C17.1799 7.90625 17.8445 8.11702 18.4098 8.51191C18.9751 8.90679 19.4157 9.46806 19.6758 10.1247C19.936 10.7814 20.0041 11.504 19.8715 12.2011C19.7388 12.8982 19.4114 13.5386 18.9307 14.0412C18.4499 14.5438 17.8374 14.886 17.1706 15.0247C16.5038 15.1634 15.8126 15.0922 15.1845 14.8202C14.5564 14.5482 14.0195 14.0876 13.6418 13.4966C13.2641 12.9056 13.0625 12.2108 13.0625 11.5C13.0625 10.5469 13.4247 9.63279 14.0693 8.95884C14.714 8.28488 15.5883 7.90625 16.5 7.90625ZM16.8077 18.0442C16.7121 17.9943 16.6068 17.9682 16.5 17.9682C16.3932 17.9682 16.2879 17.9943 16.1923 18.0442L14.4375 18.9624V16.0452C15.082 16.3652 15.7865 16.5312 16.5 16.5312C17.2135 16.5312 17.918 16.3652 18.5625 16.0452V18.9624L16.8077 18.0442ZM11.6875 17.25C11.6875 17.4406 11.6151 17.6234 11.4861 17.7582C11.3572 17.893 11.1823 17.9688 11 17.9688H3.4375C3.07283 17.9688 2.72309 17.8173 2.46523 17.5477C2.20737 17.2781 2.0625 16.9125 2.0625 16.5312V5.03125C2.0625 4.65 2.20737 4.28437 2.46523 4.01478C2.72309 3.7452 3.07283 3.59375 3.4375 3.59375H18.5625C18.9272 3.59375 19.2769 3.7452 19.5348 4.01478C19.7926 4.28437 19.9375 4.65 19.9375 5.03125C19.9375 5.22187 19.8651 5.40469 19.7361 5.53948C19.6072 5.67427 19.4323 5.75 19.25 5.75C19.0677 5.75 18.8928 5.67427 18.7639 5.53948C18.6349 5.40469 18.5625 5.22187 18.5625 5.03125H3.4375V16.5312H11C11.1823 16.5312 11.3572 16.607 11.4861 16.7418C11.6151 16.8766 11.6875 17.0594 11.6875 17.25ZM10.3125 12.2188C10.3125 12.4094 10.2401 12.5922 10.1111 12.727C9.98221 12.8618 9.80734 12.9375 9.625 12.9375H6.1875C6.00516 12.9375 5.8303 12.8618 5.70136 12.727C5.57243 12.5922 5.5 12.4094 5.5 12.2188C5.5 12.0281 5.57243 11.8453 5.70136 11.7105C5.8303 11.5757 6.00516 11.5 6.1875 11.5H9.625C9.80734 11.5 9.98221 11.5757 10.1111 11.7105C10.2401 11.8453 10.3125 12.0281 10.3125 12.2188ZM10.3125 9.34375C10.3125 9.53437 10.2401 9.71719 10.1111 9.85198C9.98221 9.98677 9.80734 10.0625 9.625 10.0625H6.1875C6.00516 10.0625 5.8303 9.98677 5.70136 9.85198C5.57243 9.71719 5.5 9.53437 5.5 9.34375C5.5 9.15313 5.57243 8.97031 5.70136 8.83552C5.8303 8.70073 6.00516 8.625 6.1875 8.625H9.625C9.80734 8.625 9.98221 8.70073 10.1111 8.83552C10.2401 8.97031 10.3125 9.15313 10.3125 9.34375Z" fill="#4941A6"/>
</svg>
