<svg width="22" height="23" viewBox="0 0 22 23" fill="none" xmlns="http://www.w3.org/2000/svg">
<path d="M19.25 4.3125H2.75C2.56766 4.3125 2.3928 4.38823 2.26386 4.52302C2.13493 4.65781 2.0625 4.84063 2.0625 5.03125V17.25C2.0625 17.6312 2.20737 17.9969 2.46523 18.2665C2.72309 18.536 3.07283 18.6875 3.4375 18.6875H18.5625C18.9272 18.6875 19.2769 18.536 19.5348 18.2665C19.7926 17.9969 19.9375 17.6312 19.9375 17.25V5.03125C19.9375 4.84063 19.8651 4.65781 19.7361 4.52302C19.6072 4.38823 19.4323 4.3125 19.25 4.3125ZM3.4375 10.0625H6.875V12.9375H3.4375V10.0625ZM8.25 10.0625H18.5625V12.9375H8.25V10.0625ZM18.5625 5.75V8.625H3.4375V5.75H18.5625ZM3.4375 14.375H6.875V17.25H3.4375V14.375ZM18.5625 17.25H8.25V14.375H18.5625V17.25Z" fill="#4941A6"/>
</svg>
