<svg width="673" height="41" viewBox="0 0 673 41" fill="none" xmlns="http://www.w3.org/2000/svg">
<rect width="673" height="41" rx="10" fill="#ACEADF"/>
<path d="M495.891 25.024C494.697 25.024 494.099 25.612 494.099 26.788C494.099 27.4133 494.277 27.894 494.631 28.23C494.986 28.5753 495.523 28.748 496.241 28.748C496.521 28.748 496.895 28.72 497.361 28.664C497.837 28.6173 498.332 28.5473 498.845 28.454L498.999 29.49C498.523 29.602 498.01 29.7 497.459 29.784C496.909 29.8773 496.414 29.924 495.975 29.924C494.93 29.924 494.132 29.644 493.581 29.084C493.031 28.524 492.755 27.7307 492.755 26.704C492.755 25.7613 492.998 25.052 493.483 24.576C493.969 24.0907 494.692 23.848 495.653 23.848C496.12 23.848 496.559 23.8993 496.969 24.002C497.38 24.0953 497.707 24.2073 497.949 24.338V20.866C497.949 19.97 497.497 19.522 496.591 19.522C496.171 19.522 495.201 19.5967 493.679 19.746L493.637 18.808C494.151 18.6867 494.72 18.584 495.345 18.5C495.971 18.4067 496.489 18.36 496.899 18.36C497.637 18.36 498.215 18.542 498.635 18.906C499.055 19.2607 499.265 19.8673 499.265 20.726V25.5H497.949C497.697 25.3787 497.38 25.2713 496.997 25.178C496.624 25.0753 496.255 25.024 495.891 25.024ZM503.989 24.31V25.5H501.329V15.532H502.659V24.31H503.989ZM512.38 24.31V25.5H503.994V24.31H509.51V20.866C509.51 19.97 509.053 19.522 508.138 19.522C507.727 19.522 506.761 19.5967 505.24 19.746L505.198 18.808C505.702 18.6867 506.267 18.584 506.892 18.5C507.527 18.4067 508.049 18.36 508.46 18.36C509.197 18.36 509.776 18.542 510.196 18.906C510.616 19.2607 510.826 19.8673 510.826 20.726V24.31H512.38ZM507.564 26.62H508.838V27.992H507.564V26.62ZM517.877 24.31V25.5H512.375V24.31H514.461V18.5H515.791V24.31H517.877ZM514.489 15.826H515.763V17.198H514.489V15.826ZM521.287 18.5V25.5H517.871V24.31H519.957V18.5H521.287ZM519.999 26.62H521.273V27.992H519.999V26.62ZM535.413 18.5V25.5H529.939C529.081 25.5 528.381 25.43 527.839 25.29C527.298 25.15 526.887 24.9073 526.607 24.562C526.337 24.2073 526.201 23.7173 526.201 23.092C526.201 22.7 526.243 22.2193 526.327 21.65C526.421 21.0807 526.523 20.5393 526.635 20.026L527.685 20.082L527.559 21.118C527.447 21.902 527.391 22.4573 527.391 22.784C527.391 23.3253 527.569 23.7173 527.923 23.96C528.287 24.1933 528.936 24.31 529.869 24.31H534.083V18.5H535.413ZM529.449 17.142H530.639V18.5H529.449V17.142ZM531.325 17.142H532.501V18.5H531.325V17.142ZM537.71 15.532H539.04V25.5H537.71V15.532ZM546.145 25.5H544.213V25.584C544.213 26.6853 544.021 27.5253 543.639 28.104C543.256 28.692 542.677 28.986 541.903 28.986C541.688 28.986 541.455 28.972 541.203 28.944L540.867 28.916V27.74C541.175 27.768 541.427 27.782 541.623 27.782C542.043 27.782 542.36 27.614 542.575 27.278C542.789 26.942 542.897 26.4707 542.897 25.864V18.514H544.213V24.31H546.145V25.5ZM551.647 24.31V25.5H546.145V24.31H548.231V18.5H549.561V24.31H551.647ZM547.349 26.62H548.539V27.964H547.349V26.62ZM549.225 26.62H550.401V27.964H549.225V26.62ZM557.143 24.31V25.5H551.641V24.31H553.727V18.5H555.057V24.31H557.143ZM552.845 26.62H554.035V27.964H552.845V26.62ZM554.721 26.62H555.897V27.964H554.721V26.62ZM565.943 24.31V25.5H564.361C563.903 25.5 563.432 25.444 562.947 25.332C562.471 25.22 562.023 25.066 561.603 24.87C561.201 25.066 560.763 25.22 560.287 25.332C559.811 25.444 559.349 25.5 558.901 25.5H557.137V24.31H558.859C559.335 24.31 559.825 24.2213 560.329 24.044C559.647 23.5027 559.101 22.9007 558.691 22.238C558.289 21.566 558.079 20.9547 558.061 20.404L558.019 19.34C558.579 19.032 559.162 18.7893 559.769 18.612C560.385 18.4347 560.991 18.346 561.589 18.346C562.186 18.346 562.793 18.4347 563.409 18.612C564.034 18.7893 564.631 19.032 565.201 19.34L565.145 20.404C565.126 20.9547 564.911 21.566 564.501 22.238C564.099 22.9007 563.553 23.5027 562.863 24.044C563.376 24.2213 563.871 24.31 564.347 24.31H565.943ZM559.363 20.012C559.363 20.656 559.559 21.2813 559.951 21.888C560.352 22.4947 560.903 23.0173 561.603 23.456C562.312 23.008 562.867 22.4853 563.269 21.888C563.67 21.2813 563.871 20.656 563.871 20.012C563.012 19.704 562.256 19.55 561.603 19.55C560.959 19.55 560.212 19.704 559.363 20.012ZM560.917 15.826H562.191V17.198H560.917V15.826ZM571.443 24.31V25.5H565.941V24.31H568.027V18.5H569.357V24.31H571.443ZM567.159 15.84H568.349V17.198H567.159V15.84ZM569.035 15.84H570.211V17.198H569.035V15.84ZM574.49 15.532V25.5H571.438V24.31H573.16V15.532H574.49ZM576.921 15.532H578.251V25.5H576.921V15.532ZM593.654 24.31V25.5H582.874V24.31H583.63V15.532H584.946V20.74C585.366 20.2173 585.744 19.7927 586.08 19.466C586.425 19.1393 586.826 18.8733 587.284 18.668C587.741 18.4627 588.268 18.36 588.866 18.36C590.042 18.36 590.872 18.724 591.358 19.452C591.852 20.1707 592.1 21.0153 592.1 21.986V24.31H593.654ZM588.656 19.55C587.377 19.55 586.14 20.5067 584.946 22.42V24.31H590.784V22.21C590.784 21.454 590.602 20.824 590.238 20.32C589.874 19.8067 589.346 19.55 588.656 19.55ZM587.284 15.826H588.558V17.198H587.284V15.826ZM602.348 24.31V25.5H593.654V24.31H595.474C595.26 23.778 595.152 23.0313 595.152 22.07C595.152 21.146 595.264 20.432 595.488 19.928C595.712 19.4147 596.067 19.0507 596.552 18.836C597.047 18.6213 597.733 18.514 598.61 18.514C599.338 18.514 599.996 18.5467 600.584 18.612L601.074 18.668V24.31H602.348ZM596.482 22.168C596.482 22.7747 596.524 23.2367 596.608 23.554C596.692 23.862 596.8 24.114 596.93 24.31H599.744V19.732C599.166 19.6853 598.76 19.662 598.526 19.662C597.966 19.662 597.542 19.7413 597.252 19.9C596.963 20.0587 596.762 20.3153 596.65 20.67C596.538 21.0247 596.482 21.524 596.482 22.168ZM597.602 15.826H598.876V17.198H597.602V15.826ZM606.816 18.36C607.553 18.36 608.132 18.542 608.552 18.906C608.972 19.2607 609.182 19.8673 609.182 20.726V25.5H602.35V24.31H607.866V20.866C607.866 19.97 607.408 19.522 606.494 19.522C606.083 19.522 605.117 19.5967 603.596 19.746L603.554 18.808C604.058 18.6867 604.622 18.584 605.248 18.5C605.882 18.4067 606.405 18.36 606.816 18.36ZM622.504 24.31V25.5H621.958C621.79 25.5 621.612 25.4487 621.426 25.346C621.248 25.234 621.09 25.0893 620.95 24.912V25.5H616.428C615.392 25.5 614.874 26.1393 614.874 27.418C614.874 28.0247 615 28.902 615.252 30.05L614.132 30.078C613.824 28.7247 613.67 27.6607 613.67 26.886C613.67 25.6447 614.08 24.8467 614.902 24.492C614.743 23.68 614.664 22.868 614.664 22.056C614.664 21.468 614.706 20.8753 614.79 20.278C614.874 19.6713 614.967 19.1673 615.07 18.766C615.312 18.6633 615.658 18.57 616.106 18.486C616.563 18.402 617.044 18.36 617.548 18.36C618.761 18.36 619.629 18.6447 620.152 19.214C620.684 19.7833 620.95 20.712 620.95 22V23.736C621.062 23.904 621.202 24.044 621.37 24.156C621.547 24.2587 621.743 24.31 621.958 24.31H622.504ZM619.62 24.31V21.972C619.62 21.1133 619.438 20.4973 619.074 20.124C618.719 19.7413 618.15 19.55 617.366 19.55C616.964 19.55 616.572 19.592 616.19 19.676C616.05 20.5347 615.98 21.328 615.98 22.056C615.98 22.476 615.998 22.896 616.036 23.316C616.082 23.7267 616.129 24.058 616.176 24.31H619.62ZM625.918 18.5V25.5H622.502V24.31H624.588V18.5H625.918ZM623.734 15.84H624.924V17.198H623.734V15.84ZM625.61 15.84H626.786V17.198H625.61V15.84Z" fill="black"/>
<path d="M651.531 16.4688L644.531 24.5L641.656 21.625M641.375 24.5312L638.469 21.625M648.344 16.4688L644.375 21.0312" stroke="black" stroke-width="1.375" stroke-miterlimit="10" stroke-linecap="square"/>
</svg>
