<svg width="20" height="23" viewBox="0 0 20 23" fill="none" xmlns="http://www.w3.org/2000/svg">
<path d="M17.4324 11.5679C17.4324 13.7567 16.6324 15.8559 15.2085 17.4036C13.7846 18.9513 11.8534 19.8209 9.83963 19.8209V21.1592C14.7129 21.1592 18.6636 16.865 18.6636 11.5679H17.4324ZM9.83963 19.8209C7.82591 19.8209 5.89466 18.9513 4.47075 17.4036C3.04683 15.8559 2.24688 13.7567 2.24688 11.5679H1.01562C1.01562 16.865 4.96632 21.1592 9.83963 21.1592V19.8209ZM2.24688 11.5679C2.24688 9.37904 3.04683 7.27986 4.47075 5.73213C5.89466 4.18439 7.82591 3.31488 9.83963 3.31488V1.97656C4.96632 1.97656 1.01562 6.27079 1.01562 11.5679H2.24688ZM12.7126 13.5754C11.4608 13.5754 10.2603 13.0349 9.37515 12.0727C8.49001 11.1106 7.99275 9.80574 7.99275 8.44512H6.76149C6.76149 10.1607 7.38848 11.806 8.50452 13.0191C9.62056 14.2322 11.1342 14.9137 12.7126 14.9137V13.5754ZM16.7552 11.0941C16.3354 11.8515 15.7426 12.478 15.0342 12.9128C14.3258 13.3476 13.5261 13.5758 12.7126 13.5754V14.9137C13.7382 14.9143 14.7465 14.6266 15.6396 14.0787C16.5328 13.5308 17.2804 12.7411 17.81 11.7865L16.7552 11.0941ZM7.99275 8.44512C7.99239 7.56091 8.2024 6.69162 8.60238 5.92168C9.00237 5.15173 9.57873 4.5073 10.2755 4.05096L9.63853 2.90536C8.7603 3.48083 8.03387 4.29333 7.52977 5.26399C7.02567 6.23465 6.76101 7.33048 6.76149 8.44512H7.99275ZM9.83963 3.31488C9.75639 3.31275 9.6773 3.2749 9.61965 3.2096C9.5844 3.17234 9.56085 3.12395 9.55234 3.07131C9.54905 3.04365 9.5507 2.96335 9.63853 2.90536L10.2755 4.05096C10.6884 3.77973 10.8214 3.28277 10.7729 2.89197C10.722 2.48602 10.4282 1.97656 9.83963 1.97656V3.31488ZM17.81 11.7865C17.7558 11.8819 17.6819 11.8837 17.6565 11.8801C17.608 11.8709 17.5635 11.8453 17.5292 11.807C17.4692 11.7443 17.4343 11.6584 17.4324 11.5679H18.6636C18.6636 10.9282 18.1949 10.6087 17.8215 10.5534C17.4619 10.5008 17.0047 10.6453 16.7552 11.0941L17.81 11.7865Z" fill="#FDFDFD"/>
</svg>
