<svg width="12" height="13" viewBox="0 0 12 13" fill="none" xmlns="http://www.w3.org/2000/svg">
<path d="M10.4922 6.16403C10.3596 6.16403 10.2324 6.21671 10.1386 6.31048C10.0449 6.40425 9.99219 6.53142 9.99219 6.66403V9.66403C9.99219 9.79664 9.93951 9.92382 9.84574 10.0176C9.75197 10.1114 9.6248 10.164 9.49219 10.164H2.49219C2.35958 10.164 2.2324 10.1114 2.13863 10.0176C2.04487 9.92382 1.99219 9.79664 1.99219 9.66403V2.66403C1.99219 2.53142 2.04487 2.40425 2.13863 2.31048C2.2324 2.21671 2.35958 2.16403 2.49219 2.16403H5.49219C5.6248 2.16403 5.75197 2.11135 5.84574 2.01759C5.93951 1.92382 5.99219 1.79664 5.99219 1.66403C5.99219 1.53142 5.93951 1.40425 5.84574 1.31048C5.75197 1.21671 5.6248 1.16403 5.49219 1.16403H2.49219C2.09436 1.16403 1.71283 1.32207 1.43153 1.60337C1.15022 1.88468 0.992188 2.26621 0.992188 2.66403V9.66403C0.992188 10.0619 1.15022 10.4434 1.43153 10.7247C1.71283 11.006 2.09436 11.164 2.49219 11.164H9.49219C9.89001 11.164 10.2715 11.006 10.5528 10.7247C10.8342 10.4434 10.9922 10.0619 10.9922 9.66403V6.66403C10.9922 6.53142 10.9395 6.40425 10.8457 6.31048C10.752 6.21671 10.6248 6.16403 10.4922 6.16403ZM2.99219 6.54403V8.66403C2.99219 8.79664 3.04487 8.92382 3.13863 9.01759C3.2324 9.11135 3.35958 9.16403 3.49219 9.16403H5.61219C5.67799 9.16441 5.74322 9.1518 5.80414 9.12692C5.86506 9.10204 5.92047 9.06537 5.96719 9.01903L9.42719 5.55403L10.8472 4.16403C10.8941 4.11755 10.9312 4.06225 10.9566 4.00132C10.982 3.94039 10.9951 3.87504 10.9951 3.80903C10.9951 3.74303 10.982 3.67767 10.9566 3.61674C10.9312 3.55581 10.8941 3.50051 10.8472 3.45403L8.72719 1.30903C8.68071 1.26217 8.62541 1.22497 8.56448 1.19959C8.50355 1.1742 8.43819 1.16113 8.37219 1.16113C8.30618 1.16113 8.24083 1.1742 8.1799 1.19959C8.11897 1.22497 8.06367 1.26217 8.01719 1.30903L6.60719 2.72403L3.13719 6.18903C3.09085 6.23575 3.05418 6.29116 3.0293 6.35208C3.00442 6.413 2.99181 6.47823 2.99219 6.54403ZM8.37219 2.36903L9.78719 3.78403L9.07719 4.49403L7.66219 3.07903L8.37219 2.36903ZM3.99219 6.74903L6.95719 3.78403L8.37219 5.19903L5.40719 8.16403H3.99219V6.74903Z" fill="white"/>
</svg>
