<svg width="484" height="269" viewBox="0 0 484 269" fill="none" xmlns="http://www.w3.org/2000/svg">
<g clip-path="url(#clip0_41_65)">
<path d="M99.6567 36.707C101.972 36.3698 103.998 37.4778 106.169 37.9595C106.652 38.0558 107.182 38.2003 107.617 38.0558C108.581 37.815 109.353 37.8631 109.595 39.1156C110.077 38.5375 109.739 38.104 109.739 37.7186C109.643 36.6107 110.077 36.129 111.138 36.3216C112.393 36.5625 113.357 37.1406 113.695 38.5375C114.322 41.187 115.625 43.4029 118.278 44.5108C119.002 44.7999 119.05 45.2334 118.423 45.7633C117.747 46.3895 116.734 46.7267 116.879 47.931C116.927 48.1719 116.493 48.2682 116.3 48.3646C115.77 48.6536 115.239 48.9426 114.515 49.2798C116.734 50.3396 118.857 50.6768 121.076 50.1951C121.944 50.0024 122.186 49.4725 121.993 48.6054C121.896 48.2682 121.8 47.9792 121.752 47.642C121.462 46.2932 121.752 45.7633 123.102 45.4261C123.778 45.2816 123.922 44.9926 123.874 44.3663C123.826 43.4992 123.729 42.584 124.453 41.8614C124.646 41.6687 124.55 41.5242 124.405 41.3797C124.164 41.1388 123.922 40.8498 123.585 40.9943C121.703 41.8132 120.449 40.8016 119.291 39.5973C118.809 39.0674 118.278 38.5857 117.603 38.2485C117.12 38.0077 117.12 37.6223 117.313 37.2369C117.506 36.8034 117.844 37.1887 118.085 37.2851C118.761 37.6223 119.146 37.3332 119.339 36.707C119.436 36.4662 119.484 36.2253 119.581 35.9844C119.822 35.2137 120.063 34.4911 121.124 34.4911C122.379 34.4429 123.006 34.7801 123.488 35.8399C123.826 36.5625 123.922 37.4296 124.743 37.8631C124.984 37.9595 125.177 38.2003 125.466 38.0558C125.804 37.9113 125.659 37.6223 125.707 37.3814C125.707 37.0924 125.707 36.8034 125.707 36.5143C125.756 34.732 126.576 33.9131 128.312 33.9612C129.374 33.9612 130.483 34.1057 131.545 34.2021C132.413 34.2503 132.268 34.9728 132.268 35.4546C132.268 36.2735 131.738 36.7552 131.014 37.0924C130.532 37.2851 130.049 37.4778 129.567 37.6705C128.312 38.2485 127.878 39.501 128.554 40.7053C128.94 41.4278 129.47 42.1504 129.953 42.8248C130.483 43.6437 130.773 44.559 130.483 45.5224C130.339 46.0523 130.58 46.245 130.966 46.4377C131.641 46.7749 132.365 46.9194 133.088 47.1121C135.115 47.5938 135.645 48.2682 135.693 50.2914C135.693 50.6768 135.645 51.0622 136.079 51.2067C136.514 51.3512 136.948 51.3031 137.237 50.9659C138.202 49.7616 138.926 48.4609 139.022 46.9194C139.119 45.6188 138.636 45.0889 137.237 44.6072C135.259 43.9809 133.137 41.1388 133.137 39.2119C133.185 36.418 135.597 34.3948 138.395 34.8283C139.167 34.9247 138.684 35.31 138.54 35.5509C137.816 36.5625 137.478 37.6705 137.72 38.8747C137.816 39.2119 137.768 39.8864 138.347 39.79C138.829 39.6937 138.877 39.1156 138.829 38.6339C138.588 36.1771 141.434 34.2021 143.702 35.2137C144.618 35.5991 144.956 36.3698 144.956 37.3814C144.956 39.3565 145.197 39.5492 147.03 38.7302C149.105 37.7668 150.938 37.9595 152.626 39.5491C153.591 40.4644 154.749 41.0906 155.955 41.5724C157.692 42.2468 159.236 43.3065 160.924 44.1255C162.275 44.7999 162.42 45.8115 161.503 47.0158C160.683 48.1719 160.779 48.0274 161.792 48.8945C163.577 50.3396 165.652 51.2067 167.726 52.122C169.415 52.8445 169.511 53.7116 168.257 55.0123C167.871 55.3976 167.533 55.7349 167.437 56.3129C167.34 56.9391 166.858 57.2764 166.231 57.469C164.59 58.0953 164.59 58.1434 165.073 59.7813C165.169 60.1185 165.266 60.4075 165.314 60.7447C165.411 61.4191 165.362 61.9008 164.494 61.9008C163.722 61.9008 163.191 62.4789 162.661 62.9124C161.503 63.8759 161.069 63.924 159.766 63.2015C159.187 62.8643 158.56 62.5271 157.933 62.238C156.968 61.7563 156.245 61.0337 155.666 60.1185C154.46 58.2398 153.061 57.8544 150.986 58.6733C150.552 58.8178 150.118 58.9624 149.635 58.9624C148.767 58.9624 148.381 58.4806 148.285 57.7099C148.236 56.9873 148.622 56.5538 149.346 56.4093C149.684 56.3611 150.021 56.3129 150.407 56.3611C152.24 56.6019 153.061 56.0721 153.688 54.3379C154.025 53.3744 154.315 52.411 154.942 51.5921C155.183 51.3031 155.135 51.014 154.942 50.6768C154.46 49.8579 153.639 49.3762 152.868 48.9426C152.482 48.75 151.758 49.3762 151.855 49.9061C151.903 50.2433 151.951 50.5805 151.855 50.9659C151.662 51.5921 151.372 52.0738 150.697 52.122C150.021 52.1701 149.346 52.0256 149.008 51.3512C148.671 50.7732 149.056 50.2914 149.394 49.8579C150.214 48.8463 150.214 46.7749 149.442 45.7151C148.912 45.0407 148.14 44.9926 147.416 45.0889C146.693 45.1852 145.921 45.2334 145.197 45.4743C144.329 45.7633 144.136 46.6304 143.943 47.4011C143.846 47.7865 143.846 48.2682 143.653 48.6054C143.219 49.4725 143.219 50.2433 143.702 51.1104C144.232 52.122 143.943 52.8927 142.93 53.3744C142.496 53.5671 142.013 53.808 141.531 53.8562C140.469 53.9043 140.132 54.6751 139.746 55.3977C139.505 55.8794 139.842 55.9757 140.132 56.1202C141.675 56.9873 143.074 57.9989 144.184 59.3477C144.425 59.6368 144.908 59.9258 144.57 60.4075C144.184 60.8892 143.702 60.7447 143.267 60.5039C143.074 60.4075 142.93 60.3112 142.785 60.2148C141.434 59.3477 141.386 59.3477 140.566 60.6965C139.794 61.949 138.202 62.0935 137.285 60.9856C137.189 60.8892 137.141 60.7929 137.044 60.6965C136.658 60.1667 136.465 59.1069 135.935 59.1069C134.97 59.155 134.005 59.6849 133.088 60.0221C133.04 60.0221 132.944 60.0703 132.944 60.1185C132.268 62.0454 130.387 63.0088 129.133 64.4539C127.106 66.8144 127.444 70.6681 129.133 72.595C129.663 73.2212 130.339 73.6066 131.255 73.7029C132.847 73.8474 134.198 74.57 135.501 75.4371C136.176 75.8706 136.851 76.256 137.478 76.6896C138.733 77.5085 140.035 77.8939 141.579 77.8457C142.689 77.7975 143.074 78.1829 143.123 79.2908C143.171 80.0134 143.219 80.736 143.219 81.4586C143.267 83.0482 144.281 83.9153 145.342 84.7824C145.776 85.1196 146.21 85.1678 146.693 84.9269C147.223 84.6379 147.465 84.2525 147.416 83.6745C147.416 83.1927 147.175 82.711 147.03 82.2775C146.307 80.1098 146.886 78.4719 148.719 77.1231C149.105 76.8341 149.539 76.5451 149.78 76.1597C150.214 75.5334 150.456 74.7145 149.877 74.1846C148.381 72.7877 148.14 71.0535 148.381 69.2229C148.622 67.5851 148.333 65.9954 148.333 64.3576C148.333 63.2015 148.429 63.057 149.587 63.0088C150.552 62.9606 151.469 62.8643 152.433 62.8161C153.35 62.8161 154.17 63.057 154.894 63.635C155.81 64.3576 156.727 64.9838 157.692 65.6582C158.85 66.4772 159.429 67.5369 159.38 68.9821C159.332 70.4272 159.573 70.8126 160.779 71.198C161.889 71.5834 162.757 71.2943 163.481 70.2346C163.819 69.7047 164.156 69.2229 164.494 68.6449C164.976 67.826 165.507 67.9705 166.086 68.5004C166.761 69.1266 167.051 70.0419 167.437 70.8608C168.739 73.6547 170.186 76.3524 172.406 78.5683C173.226 79.3872 174.191 79.9652 175.155 80.6396C176.361 81.4104 176.796 82.3738 176.361 83.7708C175.734 85.6977 176.361 87.191 177.664 88.588C178.629 89.5996 179.304 90.7557 180.124 91.9118C180.221 92.0564 180.317 92.2009 180.366 92.3454C180.51 92.8271 180.607 93.357 180.028 93.5978C179.497 93.8387 179.063 93.6942 178.822 93.1643C178.677 92.7789 178.436 92.6826 178.098 92.8271C177.375 93.1643 176.699 92.9716 175.976 92.7789C174.48 92.3454 172.985 92.0563 171.393 92.8271C171.778 92.0563 172.164 91.2856 172.55 90.5149C173.322 89.0215 174.239 87.5764 174.769 85.9385C174.769 85.8904 174.818 85.8422 174.818 85.794C174.769 85.794 174.721 85.8422 174.673 85.8422C171.923 87.0465 168.98 87.191 166.086 87.6245C164.687 87.8172 163.336 88.1063 161.937 88.8288C162.757 89.166 163.529 88.9252 164.253 89.1179C165.218 89.4069 165.604 89.8886 165.459 90.9002C165.362 91.3338 165.218 91.7673 165.121 92.2009C164.783 93.4533 165.218 94.2722 166.375 94.754C166.906 94.9466 167.437 95.0912 167.967 95.1875C168.594 95.332 169.077 95.1393 169.173 94.4168C169.27 93.6942 169.704 93.3088 170.331 93.1161C170.621 93.0198 170.814 93.2125 170.91 93.5015C171.151 94.2241 171.393 94.9466 170.862 95.6211C170.572 96.0064 170.138 96.1509 169.656 96.2473C168.546 96.44 167.63 97.0662 166.713 97.7406C165.314 98.8004 163.915 99.1858 162.468 97.6924C161.985 97.2107 160.442 97.5961 160.007 98.3187C158.705 100.438 156.775 101.98 155.039 103.714C152.868 105.833 151.131 108.098 151.276 111.325C151.324 112.626 150.6 113.541 149.587 114.264C148.719 114.89 147.754 115.42 146.934 116.094C143.653 118.936 143.846 120.863 146.114 124.476C147.416 126.547 149.008 128.667 148.574 131.413C148.526 131.798 148.574 132.28 148.14 132.376C147.706 132.521 147.368 132.183 147.079 131.846C146.451 131.124 145.487 130.642 145.39 129.534C143.943 129.534 144.232 127.992 143.46 127.318C142.592 126.595 142.496 125.343 141.965 124.38C141.386 123.32 141 123.223 140.18 124.091C139.649 124.669 139.263 125.006 138.684 124.091C138.154 123.175 136.658 123.705 135.742 124.139C135.597 124.187 135.597 124.476 135.404 124.428C135.018 124.38 133.619 124.476 133.33 124.669C132.895 124.958 132.509 125.295 131.882 125.006C131.738 124.909 131.593 125.054 131.545 125.247C131.496 125.439 131.496 125.632 131.738 125.728C132.027 125.825 132.365 125.873 132.702 125.921C132.509 126.644 133.33 126.74 133.571 127.174C133.233 127.414 132.992 127.125 132.751 126.981C132.413 126.788 132.027 126.306 132.075 127.222C132.075 127.463 130.773 127.607 130.58 127.414C130.001 126.885 129.47 126.017 128.65 127.125C128.457 127.366 128.119 127.029 127.83 126.981C127.155 126.885 126.431 127.125 125.9 127.125C124.598 127.125 124.839 128.233 124.308 128.667C122.668 129.968 123.199 131.702 123.392 133.243C123.633 135.122 124.694 136.712 126.335 137.82C128.119 138.976 129.904 138.59 131.11 136.808C131.545 136.182 131.834 135.507 132.268 134.881C133.137 133.677 134.68 133.243 136.031 133.869C136.707 134.158 136.996 134.64 136.562 135.363C135.404 137.193 135.742 139.361 135.066 141.288C134.873 141.818 135.259 141.962 135.742 141.962C136.9 141.962 138.009 141.962 139.167 142.107C141.097 142.299 141.868 143.407 141.145 145.19C140.373 147.213 140.614 149.044 142.013 150.681C142.544 151.308 143.074 151.934 144.039 151.741C144.425 151.645 144.811 151.837 145.149 152.078C145.535 152.416 145.873 152.56 146.258 152.078C146.403 151.886 146.741 151.837 146.886 151.982C147.754 152.849 149.153 152.319 149.973 153.234C150.021 153.283 150.166 153.331 150.263 153.331C151.662 153.042 152.578 153.861 153.447 154.776C154.46 155.836 155.81 156.028 157.258 155.788C159.043 155.547 160.876 155.402 162.516 156.366C163.24 156.799 163.915 157.377 164.349 158.1C166.086 161.038 168.836 162.339 172.068 162.676C174.914 162.965 177.519 166.241 176.94 168.938C176.603 170.432 177.519 171.443 179.208 171.492C180.366 171.54 181.186 171.925 182.102 172.6C183.694 173.852 185.769 174.286 187.698 174.815C189.58 175.345 191.461 175.875 193.198 176.839C194.645 177.706 195.899 178.717 196.237 180.451C196.527 181.897 196.092 183.245 195.514 184.498C194.742 186.136 193.873 187.677 193.053 189.315C191.992 191.483 191.606 193.843 190.882 196.107C190.207 198.323 189.339 200.395 187.795 202.177C186.733 203.381 185.431 204.297 183.984 204.826C181.33 205.886 179.931 207.813 179.111 210.414C178.339 212.823 177.23 215.135 175.638 217.158C173.805 219.471 171.296 220.916 168.691 222.12C168.16 222.361 168.064 222.505 168.209 222.987C168.353 223.469 168.402 223.951 168.45 224.432C168.594 225.588 168.257 226.456 167.147 226.937C161.165 229.587 158.705 234.789 157.306 240.714C157.016 241.87 156.872 243.027 156.534 244.135C156.1 245.724 156.293 247.169 157.065 248.566C157.788 249.867 158.512 251.216 159.236 252.516C159.38 252.805 159.525 253.094 159.67 253.384C160.876 256.081 160.297 257.285 157.451 258.056C157.258 258.104 157.065 258.104 156.92 258.249C156.196 258.249 155.473 258.249 154.749 258.249C149.057 255.888 145.438 250.445 145.535 244.327C145.583 242.641 146.114 241.052 146.789 239.558C148.043 236.764 148.429 233.826 148.092 230.791C147.706 226.985 148.381 223.276 149.056 219.519C149.925 214.798 150.745 210.029 151.179 205.212C151.372 203.189 151.71 201.214 151.42 199.19C151.083 196.83 149.877 195.144 147.754 194.229C146.017 193.458 144.811 192.254 143.943 190.616C142.061 186.907 140.035 183.245 138.347 179.392C136.514 175.056 137.671 170.432 141.29 167.445C142.206 166.723 142.447 165.904 142.206 164.796C141.675 162.724 142.11 160.797 142.978 158.919C143.46 157.811 144.088 156.799 144.666 155.739C144.859 155.354 145.004 154.969 144.522 154.728C141.048 152.897 138.829 149.573 135.742 147.261C133.812 145.816 131.786 144.612 129.76 143.311C128.023 142.203 126.335 141.721 124.26 141.914C122.137 142.107 120.304 140.951 118.519 139.891C117.217 139.12 116.011 138.253 114.66 137.579C113.55 137.001 112.923 136.133 112.971 134.737C113.02 132.665 111.862 131.124 110.559 129.63C109.402 128.33 108.051 127.27 107.038 125.825C106.748 125.439 106.459 125.488 106.121 125.632C105.639 125.777 105.783 126.114 105.832 126.451C105.976 127.125 106.362 127.703 106.652 128.33C106.893 128.86 107.038 129.341 106.362 129.63C105.687 129.919 105.06 129.968 104.722 129.197C104.529 128.763 104.433 128.33 104.336 127.896C104.24 127.029 103.854 126.499 103.034 126.114C101.442 125.391 101.297 125.006 102.021 123.416C102.214 123.031 102.021 122.983 101.779 122.838C100.622 121.923 99.2225 121.393 98.113 120.429C97.1964 119.659 96.0386 119.225 95.4114 118.117C95.2184 117.828 94.8325 117.828 94.4948 117.828C93.9159 117.828 93.3852 117.78 92.8546 117.636C92.4204 117.491 92.1792 117.25 92.1792 116.768C92.2757 115.42 91.3108 114.601 90.5872 113.734C90.0083 113.059 89.5741 112.144 88.561 111.999C88.3681 111.951 88.3681 111.662 88.4163 111.47C88.6093 110.265 88.1269 109.254 87.7409 108.146C87.548 107.616 87.2585 107.086 87.7409 106.604C87.7892 106.556 87.8374 106.46 87.7892 106.412C87.162 105.641 87.4515 104.726 87.2585 103.907C86.9208 102.558 86.6796 101.209 86.7278 99.7638C86.7761 98.3668 87.162 97.1626 87.4032 95.8619C87.6927 94.3686 87.6444 92.8271 88.561 91.4783C89.1882 90.563 88.561 89.7923 87.8857 89.4069C84.9911 87.7691 84.364 84.9269 83.7368 82.0848C83.5921 81.4586 83.3991 81.0732 82.6755 81.1214C82.5308 81.1214 82.3378 81.0732 82.1931 81.0732C81.3247 80.8805 80.5046 80.6878 80.3599 79.5799C80.3117 79.2908 80.1669 79.05 80.0704 78.7609C79.974 78.4719 79.781 78.2792 79.4916 78.4719C79.1539 78.6646 79.2503 78.8091 79.4916 79.05C79.781 79.339 79.9257 79.7726 79.7328 80.2061C79.1056 80.3024 78.9609 79.4835 78.382 79.5317C78.2855 79.9171 78.7679 80.0616 78.6714 80.3988C77.8031 80.0616 77.7066 79.8689 77.8031 78.9536C77.8513 78.5201 77.7548 78.0865 77.2242 77.942C77.0312 77.8939 76.8382 77.8457 76.8382 77.6048C76.8382 77.3158 77.0794 77.364 77.2724 77.3158C77.4171 77.3158 77.7548 77.4603 77.6584 77.1231C77.6101 76.9786 77.7066 76.5932 77.3207 76.6896C76.983 76.7859 76.7418 76.4487 76.4041 76.3524C76.2593 76.0152 75.9699 75.7743 75.9699 75.3889C75.9699 75.1481 75.8252 74.9072 75.5357 75.1962C74.9568 75.7743 74.9086 75.1962 74.8603 74.859C74.6673 73.5102 73.4131 72.8358 72.7859 71.776C73.4131 73.6547 75.0533 75.1481 75.198 77.2676C75.1015 77.3158 75.0533 77.4121 74.9568 77.4603C74.6191 77.0749 74.3297 76.4487 73.9437 76.3042C73.0754 75.967 73.2201 74.7627 72.2552 74.5218C71.8693 74.4255 71.9176 74.0883 72.207 73.8474C72.6894 73.4139 72.207 73.3657 71.9658 73.2212C71.8693 72.1614 71.1939 72.7877 70.5668 72.595C71.0492 73.3175 71.5316 73.0767 71.9658 73.173C71.7728 73.9919 71.2904 74.1365 70.615 73.7993C70.2773 73.6066 69.9396 73.3657 69.6502 73.173C68.2994 72.1614 66.8039 71.5352 65.1637 71.0053C63.7647 70.5236 62.4621 70.5236 61.1113 70.6681C60.2912 70.7644 59.8571 70.09 59.1334 69.9937C58.1686 69.8492 57.3967 69.9455 56.866 70.8126C56.7213 71.0535 56.5284 71.3907 56.1907 71.1016C55.9495 70.8608 56.2389 70.6681 56.3354 70.4272C56.6731 69.7528 57.5414 69.8492 57.9756 69.2711C57.445 68.3559 56.4319 68.8857 55.7082 68.5485C55.3705 68.3559 55.467 68.9339 55.5153 69.1748C55.8047 70.0419 55.3705 70.7644 54.5022 70.8126C54.261 70.8126 53.9233 70.7644 53.7786 71.0053C53.3444 71.9687 52.2831 71.8724 51.5594 72.2578C51.2217 72.4505 50.7393 72.4986 50.4499 72.2096C50.1604 71.9206 50.7393 71.5834 50.7393 71.5352C50.2087 70.6199 51.1735 70.09 51.3665 69.4156C51.6077 68.5485 52.0419 68.0187 53.0549 68.404C53.1997 68.4522 53.3926 68.404 53.5374 68.404C53.1032 67.5369 52.3313 67.3924 51.5594 68.115C50.8358 68.7894 50.0639 69.3675 49.5333 70.1864C49.1956 70.6681 49.0026 71.3425 48.1342 71.4388C47.4589 71.487 47.4589 72.3059 48.0378 72.7395C48.3755 72.9803 48.2307 73.2212 48.0378 73.3657C46.7352 74.6182 45.8186 76.2078 43.7442 76.545C42.6829 76.7377 41.5251 77.4121 40.6567 78.1347C39.6919 78.9536 38.7271 79.2908 37.521 79.2427C37.1351 79.2427 36.7009 79.5317 36.315 79.5317C34.337 79.628 32.5521 80.7842 30.5742 80.8805C30.333 80.8805 29.9953 81.025 29.8988 80.736C29.754 80.3506 30.14 80.1579 30.3812 80.1579C32.2144 79.9652 33.8064 78.8573 35.5431 78.5201C36.4114 78.3756 37.0868 78.1347 37.8587 77.7493C39.113 77.1231 40.1261 76.1597 41.3804 75.4853C42.0558 75.0999 42.0558 74.2328 42.4899 73.7029C42.6829 73.4621 42.6829 73.0767 43.1171 72.884C42.4899 72.6431 41.4769 73.4621 41.4286 72.1614C41.4769 72.1614 41.4769 72.1614 41.5251 72.1132V72.0651C41.4769 72.1133 41.4769 72.1133 41.4286 72.1614C40.9944 73.1249 41.0427 73.0767 40.0778 72.3541C39.5472 71.9687 38.9683 71.198 38.2446 72.2578C37.9069 72.7395 37.3763 72.1133 36.9421 72.0651C36.5562 72.0651 36.8939 71.6797 36.9421 71.4388C37.1833 70.5718 37.7622 69.7528 37.328 68.7412C37.1833 68.3559 37.4245 67.9705 37.521 67.5851C37.5693 67.5369 37.6657 67.4406 37.714 67.3924C37.7622 67.3442 37.9069 67.3442 37.7622 67.2479C37.714 67.2961 37.714 67.3442 37.6657 67.3924C37.6175 67.4406 37.521 67.4888 37.4728 67.5851C37.0868 67.6333 36.9903 68.0187 36.7974 68.2595C35.929 69.0784 34.9642 68.9339 34.4335 67.8741C34.1923 67.4406 34.2406 66.9107 33.6616 66.718C34.53 65.7546 35.3019 66.6217 36.0738 66.8144C36.2185 66.3808 35.929 66.2363 35.7361 66.2363C35.0124 66.2363 34.53 65.6582 33.9511 65.3692C33.4687 65.0802 33.2275 64.0204 33.6616 63.635C34.6265 62.7679 35.6878 61.9972 36.7009 61.1301C37.0868 60.8411 37.328 60.7447 37.714 61.1301C38.1482 61.6118 38.5823 61.4191 38.9683 61.0337C39.306 60.6484 39.6919 60.552 40.1743 60.552C41.0909 60.552 41.6216 59.8295 41.2356 59.0587C40.9462 58.4806 41.3804 58.4806 41.6698 58.288C41.8628 58.1434 42.2005 57.9989 42.0075 57.7099C41.8628 57.4209 41.5733 57.4209 41.3321 57.469C41.1874 57.5172 40.9944 57.5654 40.8979 57.6617C40.1743 58.1916 39.5472 58.6252 38.7753 57.7099C38.6306 57.5172 38.1964 57.6136 37.9069 57.7099C37.1833 58.0471 36.4114 57.8062 36.0738 57.2764C35.7843 56.7946 35.1572 56.1684 35.7843 55.3977C36.0738 55.0123 35.5431 54.9159 35.3019 54.7714C35.0607 54.6269 34.6747 54.5787 34.723 54.1934C34.7712 53.7598 35.1572 53.7116 35.4948 53.7598C36.8939 53.8562 38.0999 52.9409 39.4507 52.9891C39.8849 52.9891 40.2226 53.1336 39.8366 53.6153C39.3542 54.2415 39.7401 54.386 40.2708 54.4824C40.4155 54.5306 40.512 54.5306 40.6567 54.5787C41.0909 54.5787 41.6216 54.8196 41.8628 54.4824C42.0075 54.1934 41.7663 53.7116 41.6216 53.3263C41.3804 52.7964 41.4286 52.1701 40.6085 52.0738C40.3673 52.0256 40.319 51.5439 40.2708 51.2067C40.1743 50.1951 39.7884 49.328 38.92 48.7018C38.4859 48.4127 38.4859 48.1237 38.6788 47.7383C38.8718 47.353 39.113 47.1121 39.5954 47.2566C40.2708 47.4493 40.9462 47.4975 41.6216 47.3048C42.0558 47.1603 42.3935 46.8713 42.5864 46.3895C43.4065 44.3663 44.6126 44.1736 46.1081 44.6072C46.2046 44.6554 46.3011 44.6072 46.4458 44.559C45.9634 43.7401 46.494 43.6437 47.0729 43.6437C47.9413 43.6437 48.8096 43.6919 49.3403 42.873C49.485 42.6321 49.7262 42.6803 49.9192 42.873C50.3051 43.162 50.3051 43.5474 50.0157 44.0291C50.5463 43.5474 50.9323 43.4029 51.3182 44.0291C51.4147 44.1736 51.8006 44.0773 52.0901 44.1255C52.7172 44.1255 53.2961 44.0291 53.5374 44.8962C53.6821 45.3779 54.261 45.5706 54.7916 45.3779C55.4188 45.1852 55.9977 45.2334 56.6248 45.4743C57.5414 45.8596 58.458 46.1487 59.4229 46.2932C59.5676 46.3414 59.7606 46.4377 59.9053 46.3895C61.7867 45.8115 63.1858 47.0639 64.7295 47.6902C66.5627 48.4127 68.3476 48.5573 70.0844 47.4975C71.0974 46.9194 72.2552 46.8231 73.4131 47.1603C74.0884 47.353 74.6673 47.2085 75.0533 46.6304C76.0664 45.1852 77.5619 45.0889 79.1056 45.2816C80.1669 45.4261 81.2765 45.4261 82.3378 45.4261C83.3991 45.4261 84.171 44.8962 84.8946 44.1255C85.0876 43.9328 85.2323 43.4511 85.6183 43.9328C86.9691 45.5706 88.8023 45.3298 90.5872 45.1371C92.1792 44.9444 93.6264 44.9444 94.929 46.0523C95.6044 46.5822 96.3762 46.8713 97.2446 47.0158C98.6436 47.2566 100.043 47.3048 101.442 47.4011C101.731 47.4011 102.021 47.4011 102.214 46.9676C101.345 46.7749 100.429 46.7267 99.6567 46.1969C99.1743 45.9078 98.5954 45.667 98.6436 44.9926C98.6919 44.3182 99.319 44.27 99.8014 44.1255C99.8497 44.1255 99.9462 44.0773 99.9944 44.0773C100.284 43.9328 100.863 44.0291 100.815 43.5956C100.766 43.0657 100.236 43.3065 99.9461 43.3065C98.8366 43.3065 98.2094 42.6321 97.727 41.765C97.3411 41.0425 97.0999 40.2717 96.8104 39.501C96.4245 38.5857 95.9421 38.5375 95.3149 39.2601C94.8325 39.8382 94.3018 40.3681 93.7712 40.898C92.8546 41.765 91.6968 41.8614 90.5872 41.2352C89.6706 40.7534 89.0435 39.9345 88.2233 39.3565C87.9821 39.2119 87.9821 38.9229 87.9339 38.6339C87.6444 35.6954 90.6354 32.4197 93.53 32.7088C95.4596 32.9015 97.3893 33.3832 99.2708 33.8167C100.284 34.0576 100.573 34.6838 100.332 35.6472C99.8014 36.2253 99.7049 36.4662 99.6567 36.707C99.6085 36.707 99.6085 36.707 99.5602 36.7552V36.8034C99.6085 36.7552 99.6567 36.7552 99.6567 36.707Z" fill="#4941A6"/>
<path d="M187.701 0C189.148 0.578061 190.499 1.39698 191.56 2.5531C192.139 3.17933 192.814 3.13116 193.441 2.45676C193.876 1.97504 194.31 1.49332 194.792 1.05978C195.516 0.385374 196.046 0.481717 196.432 1.44515C197.011 2.8903 197.204 4.4318 197.494 5.92512C198.024 9.10446 199.616 11.4167 202.656 12.7655C204.73 13.6808 206.418 15.0778 207.432 17.2455C207.962 18.4498 208.203 19.7022 208.01 21.051C207.721 22.8334 208.734 24.0859 209.988 25.1938C211.146 26.1573 212.111 27.217 212.304 28.8067C212.545 30.6854 211.918 32.2751 210.712 33.672C209.168 35.4544 207.335 36.9477 205.068 37.7666C204.827 37.863 204.682 38.0075 204.634 38.2002C203.862 41.0423 201.836 43.0174 199.906 45.0887C198.314 46.7748 196.577 48.3162 195.371 50.3395C193.827 52.8444 193.538 55.542 194.117 58.336C194.165 58.4805 194.165 58.5768 194.213 58.7213C194.551 61.3226 193.586 62.2379 190.981 61.8525C189.679 61.6598 188.328 61.5153 186.977 61.3708C182.973 60.8891 180.03 58.8659 178.1 55.3493C176.364 52.17 175.447 48.7016 174.289 45.2814C173.807 43.8363 174.675 42.5356 176.219 41.9094C176.75 41.7167 177.329 41.524 177.666 40.9941C178.004 40.5124 178.052 39.9825 177.666 39.549C177.329 39.1154 176.894 39.3563 176.508 39.549C175.737 39.9344 174.916 40.1752 174.048 40.1271C173.18 40.0307 172.697 39.5008 173.083 38.7301C173.662 37.5258 173.324 36.0325 174.579 34.9727C173.759 34.78 173.083 34.6836 172.746 34.0574C172.456 33.4794 172.649 32.8531 172.601 32.2269C172.553 30.7817 172.746 29.3366 172.408 27.9396C171.733 25.0493 169.851 23.3151 167.101 22.4962C165.847 22.1108 164.544 22.0627 163.242 21.7736C161.553 21.3883 161.216 20.7138 161.795 19.1723C162.036 18.5461 162.084 17.9199 161.843 17.2455C161.65 16.6192 161.505 15.993 161.312 15.3668C161.023 14.4515 159.72 14.1143 159.238 14.8851C158.225 16.3784 156.729 17.0046 155.089 17.4382C154.221 17.6309 153.401 17.9681 152.532 18.2089C151.905 18.3534 151.664 18.787 151.809 19.365C152.194 20.9065 151.374 21.8218 150.168 22.5444C149.831 22.7371 149.493 22.9297 149.155 23.1706C148.239 23.845 148.142 24.2786 148.625 25.2902C149.155 26.3499 148.962 26.928 147.901 27.3615C146.936 27.7469 145.923 28.0359 145.103 28.7104C144.765 28.9512 144.283 28.9512 143.849 29.0957C143.945 29.5293 144.331 29.6256 144.621 29.7701C145.151 30.0592 145.923 30.2519 145.778 31.0226C145.634 31.8897 145.199 32.6123 144.283 32.9495C143.27 33.3348 142.257 32.9495 141.292 32.8531C139.845 32.7086 138.446 32.7086 136.998 32.805C135.455 32.9013 133.863 33.0458 132.319 32.7568C131.209 32.5641 130.486 31.9379 130.051 30.9263C129.714 30.1073 129.473 29.2402 129.376 28.3732C129.231 27.2652 129.858 26.7353 130.968 26.928C131.257 26.9762 131.547 26.9762 131.836 27.0243C133.139 27.2652 134.007 26.8317 134.634 25.6274C135.358 24.3267 136.371 23.2669 138.204 23.2669C137.529 22.5444 136.612 22.159 136.709 21.0992C136.709 20.8584 136.323 20.9065 136.13 20.9547C135.551 21.0029 135.069 21.1956 134.586 21.4846C133.573 22.0627 132.56 22.0627 131.45 21.7255C129.521 21.1474 127.736 20.2803 126.192 18.9797C124.504 17.6309 124.455 16.6674 125.951 15.1741C127.157 13.9698 128.508 13.0064 130.196 12.6692C130.679 12.5728 130.727 12.332 130.727 11.9466C130.823 10.0197 131.065 9.73069 132.994 9.77886C134.731 9.77886 136.371 9.34532 138.011 9.10446C139.555 8.8636 141.099 8.67091 142.643 9.10446C143.27 9.29714 143.704 9.15263 143.945 8.47823C144.524 6.93673 145.73 6.35867 147.322 6.40684C149.155 6.45501 150.988 6.11781 152.773 6.06964C157.646 5.92512 162.567 6.11781 167.198 7.65931C168.983 8.23737 170.285 8.57457 171.781 7.08124C172.939 5.92512 174.675 5.58792 176.219 5.15438C178.39 4.52814 180.32 3.51654 181.96 1.92687C182.876 1.05978 184.034 0.626233 185.192 0.144515C186.109 0 186.929 0 187.701 0Z" fill="#4941A6"/>
<path d="M483.23 187.003C482.458 187.773 482.121 188.785 481.686 189.748C481.349 190.471 479.66 191.097 478.985 190.664C478.744 190.519 478.84 190.326 478.888 190.134C479.371 187.292 480.384 186.473 483.23 186.569C483.23 186.713 483.23 186.858 483.23 187.003Z" fill="#4941A6"/>
<path d="M0.8125 73.7988C0.957226 73.847 1.10195 73.847 1.15019 73.9433C1.34316 74.136 1.87382 74.2324 1.68086 74.6177C1.48789 74.9549 1.15019 74.8586 0.8125 74.7623C0.8125 74.4251 0.8125 74.136 0.8125 73.7988Z" fill="#4941A6"/>
<path d="M229.964 80.736C230.929 79.7244 232.087 79.4354 233.245 79.0982C234.016 78.8573 234.74 78.7128 235.464 78.3756C236.622 77.8457 237.297 76.9786 237.538 75.678C236.573 75.678 235.657 76.0152 234.74 76.2079C233.1 76.5932 231.556 76.4487 230.205 75.3408C230.012 75.1963 229.819 75.0999 229.626 74.9554C228.227 73.7029 226.78 73.2694 225.092 74.5219C224.368 75.0517 223.886 74.7627 223.548 73.8475C222.873 71.9206 223.162 70.1382 224.416 68.5967C225.285 67.537 226.249 66.5253 227.793 66.4772C228.469 66.4772 228.806 66.0436 228.71 65.2729C228.565 64.3094 228.855 63.346 228.903 62.3344C228.951 61.5637 229.433 61.0338 230.254 60.8893C231.267 60.7447 231.99 61.1783 232.521 61.9009C233.003 62.5271 233.245 63.2015 233.196 64.0204C233.003 66.6217 234.161 68.5967 235.946 70.3791C236.187 70.6199 236.38 70.8608 236.67 71.0535C237.779 71.9206 238.117 72.9804 237.779 74.3292C237.538 75.2444 237.731 75.3889 238.599 75.1481C239.95 74.8109 240.867 73.8956 241.735 72.884C243.038 71.3425 244.437 69.9937 246.559 69.8492C247.138 69.801 247.138 69.3675 247.09 68.9821C247.042 68.3559 246.801 67.7778 246.559 67.1998C245.932 65.6583 246.318 64.1649 247.669 63.2015C248.537 62.5753 249.164 61.8527 249.599 60.9374C249.743 60.6484 249.888 60.3594 249.55 60.0703C249.213 59.7813 248.923 59.7813 248.586 60.0222C248.007 60.4557 247.476 60.9374 246.849 61.3228C245.112 62.4308 244.147 62.1899 243.327 60.3112C242.555 58.577 241.832 56.8428 242.218 54.8678C242.362 54.0007 242.845 53.2781 243.665 52.8446C247.283 51.014 249.84 48.0274 252.059 44.7517C255.243 40.1272 259.199 36.5144 264.361 34.2985C266.339 33.4314 268.413 32.757 270.487 32.2752C271.597 32.0344 272.755 32.0826 273.527 32.9496C275.505 35.0692 278.206 35.6954 280.811 36.5144C283.368 37.2851 285.828 38.2004 287.758 40.1754C288.192 40.609 288.578 41.0907 288.578 41.6687C288.578 42.4395 288.916 42.5358 289.591 42.5358C291.907 42.5358 291.907 42.5358 291.955 40.1754C291.955 40.0309 291.955 39.8382 291.955 39.6937C291.955 38.2967 292.148 38.104 293.547 38.2004C294.126 38.2485 294.705 38.2967 294.946 38.8748C295.139 39.3565 294.753 39.6937 294.464 40.0791C294.126 40.5126 293.547 40.9462 294.271 41.5724C294.898 42.1023 295.718 42.1504 296.297 41.5724C297.117 40.7053 297.937 39.8864 298.998 39.3565C300.301 38.6821 301.7 38.3449 303.147 38.2485C305.704 38.104 308.309 37.8632 310.866 37.7187C312.217 37.6223 312.554 37.1406 313.133 36.2735C314.05 34.732 315.304 34.443 316.896 35.2137C317.62 35.5991 318.343 35.9845 319.067 36.3698C319.55 36.6107 320.08 36.8034 320.659 36.8516C321.19 36.8997 321.431 36.7552 321.334 36.129C321.093 34.6838 321.045 33.2868 321.383 31.8417C321.913 29.4331 323.554 27.8434 325.628 26.7837C326.593 26.3019 327.558 26.7355 328.185 27.7471C328.474 28.1806 328.715 28.6142 329.101 28.9996C329.487 29.3849 329.777 29.674 330.356 29.2886C330.742 28.9996 330.983 29.2886 331.272 29.5776C332.141 30.3484 332.768 30.4447 333.684 29.7703C334.601 29.0477 335.566 28.566 336.82 28.566C338.026 28.566 338.364 27.5062 338.364 26.5428C338.412 25.0013 339.522 24.4714 340.728 24.5196C342.175 24.6159 343.622 24.1824 345.118 24.4232C346.227 24.5678 346.71 23.9415 346.565 22.8818C346.324 21.1476 347.24 19.7988 349.025 19.6061C350.859 19.4616 352.547 18.9317 354.235 18.3054C356.02 17.6792 357.805 17.5347 359.639 18.0646C360.989 18.45 362.051 17.8719 363.064 17.0048C363.739 16.4749 364.222 15.8005 364.752 15.0779C366.537 12.6212 368.419 12.5248 370.445 14.7889C371.554 15.9932 372.857 16.5713 374.545 16.1377C376.33 15.7042 378.067 15.8487 379.418 17.342C380.72 18.7872 380.576 20.3287 378.935 21.3403C378.501 21.6293 378.019 21.822 377.585 22.111C377.247 22.3519 376.668 22.4482 376.813 22.9781C376.909 23.508 377.247 23.9415 377.778 24.1342C379.032 24.5678 380.334 24.7123 381.637 24.8086C384.242 24.9531 386.751 25.194 389.018 26.6873C390.128 27.4581 391.382 27.0245 392.105 25.9166C392.974 24.6159 393.939 24.3751 395.627 24.9531C396.495 25.2422 397.316 25.7239 398.28 25.5312C398.522 25.483 398.666 25.6275 398.715 25.8202C398.811 26.1574 398.811 26.4946 398.57 26.7355C398.232 27.0727 397.943 27.4099 397.605 27.6989C397.123 28.1325 397.171 28.566 397.702 28.7587C399.004 29.1923 399.486 30.3002 400.162 31.2636C401.03 32.5161 401.85 32.7088 402.767 31.5527C404.069 29.8185 405.71 30.0112 407.446 30.252C408.556 30.3965 409.714 30.6374 410.823 30.7337C412.029 30.8301 412.56 30.3965 412.946 29.2886C413.573 27.4581 414.779 26.88 416.661 27.3136C418.494 27.7471 420.327 28.0361 422.112 28.4215C423.752 28.7587 425.296 29.4331 426.598 30.5411C428.576 32.1789 430.747 32.6606 433.304 31.938C435.861 31.2155 437.791 31.9862 438.997 34.2021C439.769 35.6473 440.878 35.9845 442.229 35.6473C443.917 35.2619 445.509 35.4064 447.246 35.7436C448.693 36.0326 450.044 36.2253 451.154 37.2851C451.25 37.3814 451.395 37.4296 451.491 37.4778C452.215 37.7668 452.504 37.6223 452.456 36.8516C452.408 36.418 452.263 35.9845 452.167 35.5027C452.022 34.8765 452.311 34.3466 452.939 34.443C456.171 34.8283 459.451 34.7802 462.635 35.7436C463.745 36.0808 464.758 36.5144 465.626 37.3333C467.749 39.3565 467.845 41.5242 465.819 43.6919C464.951 44.6072 463.986 45.4743 463.118 46.3896C462.973 46.5822 462.298 46.7749 463.069 47.1121C463.504 47.3048 463.069 47.642 462.925 47.8347C462.346 48.5091 462.346 49.1835 462.78 49.9061C462.828 49.9543 462.828 50.0024 462.876 50.0988C463.697 51.9293 463.359 52.5074 461.333 52.411C460.32 52.3629 459.5 52.6519 458.728 53.2299C455.11 55.8794 450.912 57.1319 446.522 57.7581C445.654 57.9026 444.786 57.9508 443.966 58.288C442.567 58.866 442.036 60.0222 442.422 61.4673C442.518 61.7082 442.567 61.9972 442.663 62.1899C443.628 63.8759 443.29 65.4174 442.036 66.7662C440.203 68.6931 438.9 70.9571 437.356 73.0285C436.681 73.9438 436.006 74.8591 434.944 75.5816C434.558 73.7511 434.221 72.0169 433.835 70.2827C433.69 69.6083 433.545 68.9339 433.449 68.2595C433.111 65.5137 434.124 63.2978 436.343 61.7082C438.225 60.3594 439.672 58.577 441.168 56.891C441.553 56.4575 441.264 55.7349 440.637 55.7349C439.576 55.7349 438.9 55.1086 438.177 54.4824C437.019 53.4226 436.44 53.4226 435.282 54.5306C434.558 55.205 433.787 55.8794 433.015 56.602C432.484 57.0837 432.146 57.7099 432.002 58.4807C431.809 59.685 430.265 60.5521 429.252 59.8777C426.984 58.3843 424.669 58.8179 422.257 59.2032C421.147 59.3959 419.941 59.4923 418.832 59.1551C417.722 58.8179 416.854 59.1551 416.082 59.9258C414.007 62.0454 412.126 64.3095 410.196 66.5254C409.955 66.8144 409.714 67.1034 409.424 67.3924C408.46 68.4522 408.46 68.5486 409.666 69.4157C410.534 70.0419 411.451 70.2346 412.415 69.7047C413.284 69.2711 413.863 69.4638 414.297 70.2346C414.634 70.8608 415.02 71.0053 415.696 70.7645C416.95 70.3791 417.481 70.7163 417.818 72.0169C418.349 73.9438 418.397 75.8707 418.011 77.8457C417.625 79.9171 417.095 81.9403 416.564 84.1562C415.551 82.7111 415.841 81.2177 415.937 79.7726C416.033 78.5201 416.178 77.2676 416.275 75.967C416.323 75.5816 416.275 75.1963 416.033 74.8591C415.792 74.5219 415.455 74.1847 415.117 74.2328C414.683 74.281 414.876 74.7627 414.876 75.0517C414.49 79.6762 412.029 83.2409 409.183 86.613C408.411 87.5282 407.639 88.4917 406.723 89.3106C406.289 89.696 405.903 89.8405 405.324 89.696C403.442 89.2624 402.429 89.7441 401.368 91.382C400.789 92.2491 400.307 93.1643 399.776 94.0796C399.535 94.5131 399.197 94.8985 398.763 95.1394C398.087 95.5247 398.039 96.0064 398.57 96.5363C399.486 97.4034 399.921 98.5114 400.21 99.7157C400.644 101.498 400.114 102.606 398.377 103.28C398.184 103.329 397.991 103.425 397.798 103.473C396.544 103.81 396.544 103.81 396.64 102.558C396.737 101.45 396.351 100.486 395.868 99.5712C395.338 98.5114 394.807 97.4998 394.614 96.2955C394.518 95.6211 393.987 95.3802 393.408 95.3802C391.092 95.2839 388.825 95.5247 386.606 96.1028C385.545 96.3918 385.448 96.8254 386.22 97.5961C386.413 97.7888 386.606 98.0297 386.751 98.2705C387.088 98.8004 387.571 98.9931 388.15 98.7041C388.391 98.6077 388.632 98.5114 388.921 98.4632C389.452 98.3669 391.189 98.9931 391.141 99.234C390.996 99.8602 390.32 99.9084 389.935 100.246C387.957 101.739 387.619 103.04 388.825 105.255C389.693 106.797 390.417 108.338 390.272 110.121C389.983 114.649 387.04 120.719 381.347 122.356C379.948 122.742 378.646 123.272 377.247 123.705C376.572 123.898 376.234 124.187 376.33 124.909C376.427 125.439 376.33 126.017 376.33 126.595C376.33 127.077 376.186 127.511 375.896 127.848C375.414 128.426 374.787 128.378 374.208 128.089C373.581 127.8 373.822 127.27 374.015 126.788C374.208 126.306 374.497 125.873 374.69 125.391C375.221 124.283 375.028 124.139 373.87 124.042C372.712 123.994 371.699 124.091 371.072 125.295C370.445 126.499 370.59 127.607 371.265 128.715C371.506 129.149 371.796 129.534 372.133 129.919C372.76 130.642 373.339 131.413 373.822 132.232C375.558 135.074 375.076 138.012 372.519 140.132C371.747 140.758 370.831 141.24 369.962 141.77C369.48 142.107 369.046 141.962 368.901 141.384C368.081 138.735 365.765 137.434 363.932 135.7C363.643 135.411 363.546 135.555 363.353 135.844C361.809 138.927 362.195 141.914 364.559 144.419C364.752 144.612 365.042 144.756 365.283 144.901C367.888 146.346 371.217 150.537 371.94 153.427C371.313 153.524 370.831 153.138 370.3 152.897C367.936 151.789 365.717 150.489 364.125 148.369C363.691 147.743 363.305 147.117 363.305 146.298C363.305 145.864 363.016 145.672 362.774 145.431C361.375 144.13 360.7 142.54 360.796 140.613C360.845 139.265 360.796 137.964 360.941 136.615C361.134 135.266 360.459 134.062 360.073 132.858C359.88 132.232 359.783 131.316 359.349 130.979C358.867 130.594 358.24 131.413 357.612 131.557C356.455 131.894 355.972 131.654 355.683 130.497C355.586 130.16 355.49 129.775 355.538 129.438C355.779 127.511 354.814 126.066 353.657 124.669C353.078 123.994 352.595 123.031 351.872 122.645C351.148 122.26 350.376 123.223 349.508 123.272C348.977 123.32 348.495 123.416 347.964 123.561C347.047 123.85 346.276 124.331 345.938 125.247C345.552 126.258 344.828 126.933 343.96 127.511C341.886 128.956 340.052 130.642 338.702 132.858C337.689 134.544 337.64 136.374 337.496 138.253C337.447 138.783 337.399 139.313 337.158 139.795C336.482 141.384 334.746 141.625 333.733 140.228C332.092 137.964 331.079 135.363 330.163 132.713C329.294 130.208 328.378 127.655 328.185 124.958C328.137 124.476 327.895 124.476 327.509 124.524C325.532 124.861 324.615 124.428 323.747 122.597C323.119 121.345 322.492 120.14 321.431 119.225C319.646 117.732 317.572 117.636 315.401 118.021C312.989 118.454 310.625 118.165 308.55 116.72C308.116 116.431 308.02 116.528 307.875 116.961C307.537 117.925 307.971 118.984 309.081 119.707C309.612 120.044 310.239 120.333 310.769 120.719C311.927 121.489 312.168 122.356 311.445 123.561C310.914 124.428 310.287 125.247 309.66 126.017C305.559 130.594 300.735 134.062 294.608 135.411C293.837 135.604 292.968 135.604 292.196 135.7C291.714 135.748 291.473 135.555 291.376 135.122C289.832 129.341 286.697 124.283 283.706 119.225C282.837 117.732 282.017 116.19 281.342 114.601C280.908 113.589 280.232 113.493 279.412 114.167C278.93 114.553 278.882 114.986 279.123 115.564C281.052 120.044 283.175 124.476 284.864 129.052C285.587 131.075 286.841 132.81 288.578 134.11C288.964 134.399 289.254 134.737 289.543 135.122C289.736 135.363 289.977 135.748 290.218 135.796C291.087 135.941 291.28 136.278 291.038 137.145C290.942 137.53 291.328 138.012 291.521 138.446C291.859 139.168 292.341 138.687 292.775 138.494C293.161 138.349 293.547 138.398 293.933 138.398C294.174 138.398 294.464 138.446 294.608 138.301C295.573 137.338 296.779 137.049 298.082 137.001C298.516 136.952 298.998 136.808 299.24 136.374C299.433 136.037 299.77 135.989 300.108 136.085C300.494 136.182 300.349 136.567 300.397 136.808C300.446 137.097 300.253 137.482 300.735 137.627C301.025 137.723 300.928 138.012 300.928 138.205C300.397 143.504 298.034 147.791 294.078 151.308C291.955 153.186 289.977 155.258 288.433 157.666C288.047 158.244 287.469 158.533 287.083 159.063C285.732 160.942 285.442 163.013 285.973 165.229C286.455 167.397 287.131 169.517 287.662 171.636C288.096 173.274 288.096 174.864 287.034 176.309C286.938 176.453 286.841 176.646 286.841 176.839C286.6 178.814 285.201 179.825 283.561 180.5C280.908 181.608 280.088 183.342 280.956 186.039C281.728 188.448 281.342 189.46 279.219 190.76C278.496 191.194 278.013 191.676 277.917 192.735C277.772 195.24 276.614 197.456 274.974 199.335C271.935 202.9 268.124 205.164 263.396 205.645C262.238 205.742 261.032 205.79 259.971 205.067C259.681 204.875 259.44 204.875 259.199 205.115C258.716 205.693 258.282 205.404 257.848 205.067C256.835 204.297 256.835 204.297 256.401 202.996C256.352 202.851 256.304 202.659 256.449 202.562C257.317 201.984 256.787 201.262 256.449 200.78C255.967 200.154 255.629 199.528 255.388 198.805C254.953 197.697 254.519 196.637 253.603 195.818C252.927 195.192 252.783 194.229 252.638 193.41C252.445 192.109 252.011 190.857 252.155 189.508C252.252 188.833 252.011 188.111 251.673 187.533C250.563 185.799 250.129 183.631 248.537 182.138C248.296 181.897 248.103 181.463 248.151 181.174C248.393 179.97 248.007 178.669 248.537 177.513C248.827 176.935 248.971 176.261 249.116 175.634C249.309 174.767 249.599 173.996 250.322 173.37C251.046 172.648 251.191 171.732 250.708 170.769C250.274 169.854 249.84 168.987 250.033 167.831C250.178 167.012 249.888 166 249.213 165.229C248.586 164.555 248.393 163.591 248.248 162.724C248.151 162.098 247.814 161.665 247.379 161.231C246.173 160.075 245.064 158.774 244.34 157.233C244.147 156.799 244.003 156.462 244.437 156.125C244.485 156.077 244.581 155.98 244.581 155.884C244.485 153.909 245.691 152.078 245.402 150.055C245.353 149.814 245.498 149.381 244.967 149.573C244.871 149.622 244.726 149.573 244.678 149.525C243.906 148.032 242.555 148.899 241.494 148.899C239.902 148.851 239.902 148.947 239.323 147.502C238.792 146.201 238.31 146.009 237.007 146.346C234.933 146.828 232.859 147.165 230.784 147.695C229.048 148.128 227.407 147.839 225.719 147.598C224.899 147.502 223.934 147.55 223.258 147.984C222.39 148.514 221.667 148.514 220.846 147.984C220.46 147.743 219.93 147.598 219.64 147.213C218.29 145.575 216.601 144.323 215.154 142.781C214.816 142.444 214.623 142.155 214.816 141.673C215.009 141.192 214.913 140.71 214.478 140.324C213.658 139.554 213.176 138.494 212.308 137.723C211.246 136.76 210.523 135.507 210.909 133.869C211.005 133.34 211.102 132.761 210.523 132.376C210.233 132.183 210.426 131.846 210.619 131.605C211.15 131.027 211.536 130.353 211.584 129.534C211.584 129.245 211.825 128.956 212.018 128.667C212.742 127.655 212.886 126.547 212.452 125.391C212.356 125.102 212.308 124.861 212.501 124.669C213.224 123.946 212.838 123.272 212.308 122.742C211.729 122.164 211.873 121.682 212.308 121.2C213.031 120.43 213.514 119.611 213.996 118.695C214.141 118.358 214.382 118.117 214.72 117.876C214.961 117.732 215.25 117.539 215.347 117.298C215.877 115.757 216.987 114.697 218.048 113.541C218.627 112.915 219.158 112.529 219.978 112.433C221.715 112.144 223.114 110.41 223.355 108.724C223.548 107.375 224.32 106.171 225.526 105.4C226.298 104.918 227.021 104.437 227.6 103.762C228.662 102.558 228.42 101.305 227.07 100.438C226.973 100.39 226.828 100.294 226.732 100.246C224.416 99.8602 224.416 98.126 224.32 96.3437C224.272 95.043 224.416 93.7424 224.561 92.4417C224.706 91.5746 224.706 90.7557 224.706 89.8886C224.706 89.0216 225.092 88.588 225.96 88.588C227.649 88.588 229.337 88.299 231.025 88.7807C231.942 89.0216 233.052 89.0215 233.679 88.0099C234.451 86.8056 234.692 85.4568 234.161 84.0599C233.679 82.8556 232.617 82.133 231.556 81.5068C231.122 81.3141 230.591 81.0732 229.964 80.736ZM265.326 47.1121C264.602 47.5939 264.168 48.3646 263.878 49.1353C264.505 48.5573 265.229 48.0756 265.326 47.1121C265.326 47.1121 265.374 47.1121 265.374 47.064V47.0158C265.374 47.064 265.326 47.064 265.326 47.1121ZM252.252 98.126C253.361 97.8851 254.375 97.6925 255.388 97.4998C255.677 97.4516 255.967 97.3553 256.063 97.0181C256.304 96.3437 255.822 94.754 255.195 94.3686C252.976 93.1643 251.239 91.4301 249.502 89.5996C248.537 88.588 247.283 88.3471 245.884 88.5398C243.375 88.9252 241.446 90.1295 239.805 92.0082C238.985 92.9716 238.117 93.9351 236.911 94.465C236.139 94.8022 235.898 95.4284 235.85 96.1991C235.705 98.8486 235.126 99.523 232.521 100.053C231.653 100.246 230.736 100.486 230.061 101.161C229.626 101.594 229.482 101.835 230.157 102.124C231.604 102.702 233.003 102.847 234.354 102.028C234.788 101.739 235.271 101.546 235.753 101.354C238.31 100.294 241.012 100.149 243.713 99.8602C245.112 99.7157 246.511 99.523 247.91 99.4748C249.695 99.4266 250.467 100.438 250.129 102.221C250.033 102.75 249.84 103.232 249.695 103.714C249.406 104.726 249.743 105.352 250.756 105.496C252.107 105.737 253.361 106.267 254.568 106.99C255.677 107.664 256.787 108.338 257.944 109.013C258.234 109.206 258.475 109.35 258.668 108.82C259.006 107.809 259.826 107.471 260.839 107.471C261.225 107.471 261.611 107.568 261.949 107.23C262.913 106.171 264.119 106.315 265.277 106.797C266.725 107.375 268.075 108.242 269.619 108.483C270.729 108.676 271.886 108.868 272.996 109.109C274.299 109.398 275.601 109.35 276.855 109.013C280.666 108.001 281.245 105.737 281.583 102.558C281.728 101.257 281.149 100.775 279.798 101.016C278.592 101.257 277.434 101.498 276.228 101.546C273.816 101.643 271.935 100.824 270.777 98.7041C270.198 97.6443 269.86 96.5363 269.667 95.3802C269.378 93.4052 268.461 93.2607 266.773 94.2723C265.277 95.1394 265.181 96.44 266.29 97.6443C266.725 98.0778 266.725 98.5114 266.339 98.9449C266.049 99.2821 265.663 99.4748 265.47 99.8602C265.084 100.583 264.554 100.438 263.975 100.197C263.203 99.812 262.962 99.0413 262.962 98.3187C262.962 97.4998 262.624 96.9699 262.093 96.44C261.659 96.0546 261.177 95.6693 261.177 94.9948C261.128 92.7789 259.971 91.1893 258.33 89.8886C256.642 88.5398 254.664 87.5764 253.169 85.9867C252.879 85.6495 252.541 85.794 252.348 86.0831C251.962 86.6611 251.914 87.2392 252.445 87.7691C253.024 88.3471 253.41 88.9734 253.844 89.6478C254.761 91.0448 255.87 92.2009 257.607 92.5863C257.848 92.6344 258.089 92.7789 258.282 92.9235C258.716 93.2125 258.861 93.646 258.765 94.1278C258.716 94.5613 258.523 94.8503 257.993 94.8503C257.462 94.8503 257.751 95.2839 257.751 95.5247C257.8 96.5363 257.703 97.4998 256.69 97.9815C256.015 98.2705 255.774 98.8004 255.532 99.4266C255.146 100.535 254.471 100.679 253.651 99.8602C253.217 99.2821 252.783 98.7522 252.252 98.126ZM272.369 90.1777C272.369 91.8155 272.369 92.0082 272.948 92.0082C274.347 91.96 275.794 92.7308 277.145 91.671C277.338 91.5265 277.724 91.4783 277.965 91.4301C279.653 90.9966 281.101 91.671 282.596 92.2491C283.802 92.7308 285.008 93.2607 286.359 93.2125C287.517 93.1643 288.482 92.4417 288.771 91.382C289.061 90.3222 288.192 89.8886 287.565 89.3587C286.166 88.1545 284.622 87.2392 283.079 86.2758C282.307 85.794 281.68 85.6977 280.811 86.0349C278.93 86.7575 278.496 86.8538 277.724 85.0233C277.675 84.8788 277.531 84.7343 277.482 84.5898C276.662 83.4336 275.505 83.3373 274.636 84.4452C273.237 86.2276 272.61 88.3471 272.369 90.1777ZM295.766 91.7673C295.814 93.646 296.056 95.332 297.165 96.8254C297.31 97.0181 297.455 97.3553 297.744 97.2107C297.889 97.1626 297.985 96.8254 298.034 96.6327C298.275 95.4766 298.516 94.3204 298.757 93.2125C298.902 92.6826 299.095 92.3936 299.674 92.8753C300.59 93.646 300.783 93.5497 300.976 92.3454C301.073 91.8155 301.025 91.2374 300.928 90.7076C300.735 89.5033 300.397 88.3471 299.963 87.2392C299.288 85.4568 299.336 83.7708 300.156 82.0367C300.639 81.025 301.025 79.9171 301.459 78.8573C301.603 78.5683 301.748 78.2311 301.411 77.9902C300.06 77.075 298.709 76.1115 297.069 75.7743C295.766 75.5335 295.284 75.967 295.187 77.3158C295.091 78.5683 295.38 79.7726 295.621 80.9769C296.007 82.9037 296.49 84.7824 296.2 86.7575C295.959 88.4435 295.911 90.1295 295.766 91.7673ZM262.383 50.9659C260.453 52.122 259.681 53.7598 260.067 55.6867C260.26 56.5056 260.453 57.2764 260.308 58.0953C259.874 60.7929 258.813 63.2015 257.173 65.3692C256.208 66.6699 255.002 67.537 253.265 67.2961C252.734 67.2479 252.3 67.4888 251.866 67.6815C251.625 67.7778 251.48 67.9223 251.577 68.2114C251.673 68.4522 251.866 68.404 252.059 68.4522C256.449 68.7412 260.164 67.537 262.913 63.8759C264.168 62.1899 264.795 60.1667 266.097 58.577C263.782 58.1435 262.624 57.18 262.334 55.0605C262.238 53.808 261.9 52.4592 262.383 50.9659ZM307.682 115.998C306.958 115.998 306.476 116.046 305.993 115.998C304.209 115.901 302.713 115.179 301.603 113.782C301.025 113.107 300.687 112.288 300.204 111.566C299.529 110.554 298.805 110.458 297.937 111.229C297.262 111.855 297.406 112.529 297.841 113.156C298.612 114.264 299.288 115.42 299.963 116.576C300.59 117.587 301.266 118.599 302.279 119.322C303.099 119.9 303.919 119.9 304.739 119.322C305.849 118.454 306.669 117.298 307.682 115.998Z" fill="#4941A6"/>
<path d="M446.135 207.138C446.135 209.74 445.363 212.1 443.964 214.22C442.854 215.858 441.89 217.495 441.648 219.519C441.359 221.734 438.85 223.42 436.631 223.035C435.329 222.794 433.978 222.698 432.627 222.65C430.119 222.602 428.72 221.397 428.285 218.989C428.189 218.362 427.899 217.881 427.465 217.495C424.957 215.087 422.207 213.112 419.264 211.329C417.624 210.366 415.887 210.51 414.15 211.089C412.703 211.57 411.352 212.341 410.098 213.256C408.169 214.653 405.998 215.52 403.73 216.195C402.621 216.532 401.559 217.11 400.498 217.592C398.954 218.314 397.362 217.303 397.652 215.665C398.231 212.678 397.169 210.077 395.915 207.524C394.998 205.597 394.227 203.67 394.227 201.454C394.227 199.19 395.191 197.504 397.025 196.3C397.652 195.866 398.375 195.433 399.099 195.24C401.994 194.517 403.875 192.591 405.37 190.23C406.576 188.351 408.313 187.003 409.905 185.509C411.063 184.401 411.787 184.45 413.282 185.365C414.151 185.847 414.536 185.75 414.874 184.931C416.08 181.993 416.949 181.367 420.133 181.559C421.387 181.607 422.593 181.848 423.799 182.041C424.281 182.089 424.523 182.234 424.378 182.86C423.847 184.787 423.992 186.569 425.68 187.918C426.597 188.689 427.706 189.074 428.864 189.363C429.684 189.556 430.07 188.978 430.312 188.351C430.746 187.195 430.89 185.943 430.987 184.69C431.035 183.438 431.421 182.234 432 181.126C432.097 180.885 432.241 180.596 432.531 180.644C432.82 180.644 432.772 180.981 432.82 181.174C433.351 183.004 434.219 184.594 435.136 186.232C436.101 187.918 437.017 189.604 437.789 191.386C438.802 193.747 440.587 195.625 442.227 197.6C444.109 199.865 445.556 202.369 445.99 205.356C446.038 205.886 446.087 206.512 446.135 207.138Z" fill="#4941A6"/>
<path d="M397.554 177.079C394.707 176.887 391.861 176.935 389.063 176.212C387.085 175.682 385.397 174.719 383.901 173.322C382.357 171.877 380.621 170.624 379.511 168.746C379.318 168.36 379.029 168.023 378.836 167.638C377.678 164.699 375.218 163.013 372.805 161.231C369.621 158.919 366.293 156.896 363.205 154.439C362.964 154.246 362.626 154.15 362.578 153.62C364.122 153.475 365.569 153.957 366.92 154.439C372.468 156.51 377.34 159.593 381.489 163.784C382.406 164.699 383.419 165.566 384.335 166.482C385.879 168.023 386.361 169.854 385.493 171.925C385.204 172.551 385.445 172.696 385.975 172.889C387.857 173.515 389.787 173.756 391.716 174.189C393.935 174.719 395.913 175.49 397.554 177.079Z" fill="#4941A6"/>
<path d="M426.641 174.478C426.834 173.515 426.255 172.792 425.387 172.262C424.374 171.636 423.264 171.251 422.106 171.058C420.611 170.865 419.453 170.287 418.874 168.746C418.633 168.119 418.344 167.493 417.813 167.011C417.33 166.578 417.427 166.096 417.958 165.711C419.115 164.796 420.756 165.229 421.19 166.674C421.335 167.06 421.431 167.445 421.528 167.782C421.817 168.697 422.396 168.987 423.312 168.698C426.545 167.686 429.729 167.638 432.816 169.324C434.794 170.432 436.338 172.021 437.496 173.948C438.557 175.682 439.763 177.32 441.307 178.669C441.5 178.814 441.837 179.006 441.693 179.295C441.596 179.536 441.259 179.488 440.969 179.536C439.763 179.681 438.702 179.247 437.833 178.428C437.303 177.898 436.772 177.368 436.193 176.887C434.842 175.827 433.829 175.875 432.671 177.128C432.237 177.609 431.9 178.043 431.079 177.609C430.597 177.368 429.922 177.417 429.343 177.368C427.22 177.32 426.641 176.742 426.641 174.478Z" fill="#4941A6"/>
<path d="M254.469 11.6576C251.237 11.7058 250.948 8.71912 249.211 6.88859C250.755 7.08128 252.057 7.32214 253.36 7.12945C255.338 6.79225 257.364 6.45505 259.342 6.11784C259.39 6.11784 259.39 6.11784 259.438 6.06967C262.333 3.95012 265.517 4.81721 268.604 5.20258C269.183 5.25075 269.762 5.29892 270.341 5.3471C270.534 5.3471 270.823 5.25075 270.92 5.53978C270.968 5.73247 270.823 5.92516 270.679 6.06967C269.231 7.80385 267.543 9.00815 265.179 8.86363C264.745 8.81546 264.262 8.86363 263.828 8.81546C263.249 8.76729 262.815 8.86363 262.719 9.53804C262.719 9.68255 262.574 9.82707 262.429 9.92341C261.03 10.5496 260.451 11.8503 259.824 13.1027C259.342 14.1144 258.57 14.9333 257.75 15.6558C257.219 16.0894 256.544 16.2821 256.11 15.704C255.724 15.2223 254.759 14.8369 255.482 13.9217C255.724 13.6326 255.338 13.5845 255.193 13.4881C254.421 13.1027 254.035 12.5729 254.469 11.6576Z" fill="#4941A6"/>
<path d="M415.598 92.1524C415.743 92.9231 415.839 93.8384 416.032 94.8018C416.659 98.3183 415.212 100.968 412.462 102.991C410.436 104.532 408.121 105.496 405.564 105.737C404.454 105.833 403.538 106.17 403.489 107.519C403.489 107.808 403.296 108.097 403.152 108.29C402.862 108.675 402.573 109.205 402.09 109.205C401.56 109.205 401.656 108.483 401.463 108.145C400.257 106.17 401.704 104.388 403.248 103.232C405.033 101.835 407.156 101.16 409.182 100.293C411.883 99.1373 413.331 96.9214 413.958 94.1274C414.006 93.9347 414.054 93.742 413.958 93.5493C413.331 91.6706 414.247 90.1773 415.116 88.684C415.598 87.8651 416.081 87.0461 416.129 86.0827C416.177 85.5528 416.418 85.601 416.804 85.7455C417.335 85.9864 417.721 86.4199 418.058 86.8535C418.541 87.4315 419.072 87.7687 419.892 87.7687C420.953 87.7687 421.194 88.2986 420.76 89.2621C420.133 90.659 418.637 91.3816 417.094 90.9962C415.936 90.7554 415.598 90.9962 415.598 92.1524Z" fill="#4941A6"/>
<path d="M297.743 173.081C299.383 174.43 298.708 176.357 299.094 177.995C299.142 178.284 299.142 178.621 298.853 178.814C298.418 179.103 298.563 178.332 298.177 178.476C297.984 178.717 298.081 179.006 298.129 179.295C298.274 179.921 298.708 180.596 297.695 180.933C297.55 180.981 297.454 181.27 297.454 181.463C297.164 184.016 295.717 186.136 294.8 188.448C294.318 189.604 293.884 190.76 293.449 191.916C293.256 192.446 293.015 192.783 292.436 192.735C292.195 192.735 291.857 192.783 291.664 192.88C290.941 193.361 290.314 193.121 289.735 192.687C289.059 192.205 288.818 191.483 288.866 190.712C288.915 189.941 288.866 189.219 288.722 188.496C288.577 187.87 288.915 187.388 289.301 186.906C289.542 186.617 289.735 186.28 289.976 185.991C290.989 184.787 290.603 183.438 290.41 182.089C290.169 180.451 291.134 179.151 292.726 178.765C294.366 178.38 295.572 177.272 295.91 175.538C295.958 175.249 296.054 175.201 296.296 175.249C297.068 175.345 297.357 174.719 297.212 174.237C297.164 173.611 297.502 173.37 297.743 173.081Z" fill="#4941A6"/>
<path d="M307.105 32.9977C305.754 33.0459 304.837 32.2752 303.873 31.5044C303.438 31.1672 303.052 30.6855 302.57 30.4928C301.46 30.0111 301.798 29.4812 302.281 28.7105C303.197 27.2653 304.114 25.8202 305.899 25.3384C306.285 25.2421 306.188 24.9531 306.188 24.7122C306.236 23.3634 306.864 22.3036 307.732 21.3402C310.096 18.6907 313.28 17.7755 316.608 17.1492C318.345 16.812 320.082 16.4267 321.674 15.7523C321.915 15.6559 322.156 15.5596 322.446 15.5596C322.928 15.5596 323.362 15.7041 323.555 16.1858C323.748 16.6675 323.459 17.0529 323.121 17.3901C322.542 17.8718 321.867 18.0645 321.191 18.3054C319.551 18.8352 317.911 19.317 316.222 19.8469C313.859 20.5694 311.929 21.9182 310.433 23.8451C310.096 24.3268 309.662 24.7122 309.179 25.0976C307.153 26.7836 306.043 29.5294 308.359 31.9861C308.938 32.6124 308.648 32.8532 307.973 32.9977C307.684 32.9496 307.394 32.9977 307.105 32.9977Z" fill="#4941A6"/>
<path d="M391.041 163.061C392.103 162.772 393.598 162.676 395.094 162.58C396.058 162.531 396.637 161.857 396.975 160.942C397.216 160.316 397.457 159.737 397.747 159.159C398.085 158.485 398.664 158.34 399.291 158.726C401.172 159.882 402.137 162.628 400.4 164.41C399.773 165.036 399.532 165.855 399.291 166.674C398.953 167.734 398.664 168.794 398.085 169.757C397.795 170.287 397.457 170.576 396.734 170.239C395.866 169.805 394.852 169.709 393.888 169.709C392.006 169.661 390.655 168.842 390.028 167.011C389.739 166.241 389.546 165.47 389.305 164.699C388.919 163.109 388.967 163.013 391.041 163.061Z" fill="#4941A6"/>
<path d="M389.694 146.587C389.645 147.695 388.246 148.61 386.992 148.417C386.558 148.369 386.076 148.224 385.641 148.128C384.001 147.646 382.94 147.984 382.216 149.477C381.396 151.211 380.19 152.126 378.26 152.078C378.116 152.078 377.923 152.126 377.826 152.223C377.681 152.367 377.874 152.512 378.019 152.608C378.598 152.993 378.26 153.234 377.923 153.475C376.861 154.15 375.655 153.668 375.462 152.415C375.366 151.837 375.173 151.741 374.69 151.645C374.16 151.548 373.581 151.5 373.098 151.259C372.278 150.826 372.134 150.296 372.664 149.525C373.002 149.043 373.436 148.658 374.015 148.417C376.813 147.213 379.611 146.009 382.361 144.804C383.133 144.467 383.905 144.082 384.58 143.6C385.979 142.588 386.461 142.685 387.716 143.889C388.295 144.467 388.922 144.997 389.404 145.671C389.549 145.96 389.742 146.249 389.694 146.587Z" fill="#4941A6"/>
<path d="M211.819 50.4357C209.841 50.2912 208.394 49.2314 207.188 47.7381C206.947 47.4009 206.947 47.1601 207.381 47.0155C207.574 46.9674 207.767 46.871 207.767 46.6302C207.719 46.3893 207.526 46.3411 207.333 46.293C207.284 46.293 207.188 46.2448 207.14 46.2448C206.657 46.1003 205.934 46.1966 205.885 45.5704C205.837 44.7033 206.464 44.0771 207.14 43.5953C207.67 43.2581 208.298 43.3545 208.683 43.788C210.034 45.3777 211.481 44.9442 213.073 44.2698C216.161 43.0173 216.885 43.7399 218.911 45.8112C219.345 46.293 219.248 46.7265 218.863 47.2082C216.981 49.2796 214.569 50.1949 211.819 50.4357Z" fill="#4941A6"/>
<path d="M110.85 31.7932C109.114 31.0224 107.473 32.0822 105.833 32.9493C104.772 33.5274 103.711 33.5274 102.697 32.7084C102.504 32.5639 102.263 32.3712 102.263 32.2267C102.263 31.2151 101.588 31.4078 100.961 31.4078C100.141 31.4078 99.3205 31.6005 98.5969 31.0706C97.825 30.4925 97.8732 30.0108 98.6933 29.6254C99.0793 29.4328 99.1758 29.1437 99.3687 28.8065C99.9476 27.6504 100.478 27.4095 101.733 27.9876C103.276 28.662 104.82 29.1919 106.46 29.5773C106.702 29.6254 106.894 29.6736 107.136 29.6736C107.473 29.6736 107.811 29.77 108.004 29.3846C108.149 29.0956 107.956 28.8065 107.811 28.5657C107.715 28.4211 107.618 28.3248 107.522 28.1803C107.329 27.7949 106.894 27.4095 107.232 26.9278C107.57 26.4461 108.149 26.2534 108.679 26.2534C109.21 26.2534 109.548 26.687 109.693 27.1687C109.741 27.3132 109.789 27.5059 109.789 27.6504C109.837 28.662 110.416 28.8547 111.333 28.7102C112.732 28.5175 113.069 28.662 113.166 29.5773C113.311 30.8297 112.635 31.745 111.429 31.8413C111.381 31.7932 111.236 31.7932 110.85 31.7932Z" fill="#4941A6"/>
<path d="M465.193 236.042C464.18 236.042 463.408 235.512 462.732 234.789C462.202 234.211 462.54 233.633 462.974 233.151C463.987 231.995 465.289 231.128 466.447 230.165C467.653 229.201 468.666 228.093 469.342 226.648C469.824 225.588 470.065 225.588 471.464 226.311C472.188 226.696 472.477 227.563 471.995 228.19C470.162 230.598 468.522 233.151 466.447 235.367C465.868 236.042 465.868 236.042 465.193 236.042Z" fill="#4941A6"/>
<path d="M403.341 174.237C402.714 172.117 401.942 170.287 401.845 168.312C401.749 166.915 402.424 165.662 402.665 164.314C402.762 163.543 403.534 163.013 404.45 163.013C405.126 163.013 405.753 163.013 406.38 162.868C406.959 162.772 407.49 162.965 407.683 163.543C407.876 164.073 408.165 164.699 407.49 165.132C405.801 166.24 405.56 167.637 406.428 169.372C406.621 169.757 406.621 170.19 406.477 170.624C406.187 171.491 405.801 171.587 405.126 171.009C404.402 170.383 403.968 170.48 403.775 171.443C403.582 172.31 403.486 173.129 403.341 174.237Z" fill="#4941A6"/>
<path d="M367.839 7.61094C364.703 8.04448 361.712 8.38169 358.721 8.47803C356.936 8.5262 356.551 7.94814 357.274 6.26213C358.191 4.23892 358.818 3.99806 361.085 4.23892C363.546 4.52795 365.668 5.44321 367.453 7.12922C367.55 7.27374 367.646 7.37008 367.839 7.61094Z" fill="#4941A6"/>
<path d="M411.307 14.7407C413.96 14.7889 416.276 15.7042 418.205 17.4865C418.398 17.631 418.736 17.7755 418.591 18.0646C418.495 18.3054 418.205 18.2573 417.964 18.2573C415.263 18.4981 412.513 18.7871 409.811 19.028C408.074 19.1725 407.544 18.4018 408.267 16.8121C409.232 14.7407 409.281 14.7407 411.307 14.7407Z" fill="#4941A6"/>
<path d="M228.029 78.5682C225.231 79.0017 222.626 79.3871 219.925 79.4834C218.767 79.5316 218.381 79.0017 218.67 77.8937C219.394 75.1961 220.359 74.6181 223.108 75.2443C225.086 75.726 226.63 76.8821 228.029 78.5682Z" fill="#4941A6"/>
<path d="M477.736 221.301C476.964 222.65 476.192 223.998 475.372 225.347C475.227 225.636 475.034 225.925 474.841 226.166C474.504 226.552 474.214 227.178 473.684 227.13C473.153 227.081 473.105 226.359 472.96 225.877C472.284 223.998 472.14 222.12 472.912 220.241C473.346 219.181 473.587 219.133 474.455 219.808C474.6 219.904 474.793 220 474.938 220.145C475.613 221.156 476.578 221.494 477.736 221.301Z" fill="#4941A6"/>
<path d="M114.953 18.2568C116.738 19.1239 118.957 19.5575 120.694 20.9545C121.031 21.2435 121.224 21.6289 121.369 22.0142C121.562 22.5441 121.369 22.9777 120.983 23.3149C120.597 23.7002 120.067 23.6521 119.729 23.3149C118.571 22.2551 117.22 21.9179 115.725 21.8697C114.374 21.8215 113.409 20.0392 113.892 18.7386C114.036 18.4014 114.326 18.2087 114.953 18.2568Z" fill="#4941A6"/>
<path d="M389.694 135.941C389.018 135.941 388.729 135.555 388.68 134.977C388.391 132.954 387.957 130.931 388.873 128.908C389.356 127.896 389.694 127.559 390.514 127.896C391.43 128.281 392.202 129.678 391.623 130.256C390.514 131.413 390.755 132.665 391.044 134.014C391.237 135.266 390.707 135.989 389.694 135.941Z" fill="#4941A6"/>
<path d="M120.885 26.9281C121.802 26.88 122.718 26.7836 123.104 27.8916C123.394 28.6623 122.96 30.83 122.429 31.2636C122.043 31.5526 121.609 31.5044 121.223 31.4081C119.969 31.1191 118.811 30.541 117.943 29.5776C117.074 28.566 117.46 27.4098 118.763 27.169C119.486 26.9763 120.21 26.8318 120.885 26.9281Z" fill="#4941A6"/>
<path d="M90.9766 27.7467C92.8098 26.4461 94.3053 24.8082 96.5726 24.4228C97.1515 24.3265 97.6822 24.3265 98.2129 24.4228C99.4189 24.6637 99.4672 25.4826 99.2742 26.5424C99.2259 26.7351 99.1295 26.7833 98.9365 26.7833C97.5375 26.7351 96.3797 27.5058 95.1736 28.0357C93.7746 28.662 92.4238 28.7101 90.9766 27.7467Z" fill="#4941A6"/>
<path d="M391.141 143.311C392.202 142.877 393.022 142.299 393.89 141.769C394.614 141.336 395.386 140.902 396.206 141.721C397.026 142.54 397.219 143.504 396.737 144.467C396.447 145.045 396.061 145.479 395.482 145.768C394.373 146.346 393.987 146.249 393.312 145.19C392.395 143.937 392.395 143.937 391.141 143.311Z" fill="#4941A6"/>
<path d="M434.844 225.974C435.809 226.504 436.58 226.455 437.401 226.311C438.751 226.07 439.378 226.793 439.186 228.19C439.089 228.768 438.993 229.346 438.703 229.876C438.414 230.454 438.028 231.032 437.256 230.983C436.436 230.935 435.809 230.646 435.423 229.876C435.181 229.346 435.037 228.768 435.037 228.19C435.085 227.467 435.133 226.841 434.844 225.974Z" fill="#4941A6"/>
<path d="M151.572 140.469C149.546 140.806 147.712 141.095 145.831 141.095C145.493 141.095 145.252 140.999 145.107 140.71C144.721 139.843 145.879 138.012 146.844 138.012C148.726 138.06 150.318 138.735 151.572 140.469Z" fill="#4941A6"/>
<path d="M337.493 140.613C338.072 141.48 338.795 141.914 339.326 142.492C339.567 142.781 339.857 143.07 340.098 143.407C340.773 144.371 340.629 145.334 339.809 145.768C339.085 146.153 337.927 145.671 337.541 144.756C336.962 143.455 337.203 142.155 337.493 140.613Z" fill="#4941A6"/>
<path d="M403.731 176.212C404.213 176.212 404.695 176.164 405.178 176.405C405.564 176.598 405.805 176.887 405.709 177.32C405.612 177.754 405.323 177.994 404.84 177.946C404.117 177.898 403.538 178.043 402.959 178.524C402.428 178.958 400.595 178.139 400.498 177.513C400.45 177.224 400.691 177.127 400.884 176.983C401.753 176.357 402.718 176.164 403.731 176.212Z" fill="#4941A6"/>
<path d="M124.602 22.9297C123.686 22.8815 122.914 22.5925 122.432 21.7735C122.19 21.3882 122.094 21.0028 122.335 20.5692C122.624 20.1357 123.107 20.0394 123.541 20.1357C124.12 20.2802 124.747 20.4729 125.326 20.6656C125.905 20.9065 126.436 21.2918 126.339 22.0626C126.243 22.8333 125.567 22.737 125.037 22.8815C124.94 22.9297 124.795 22.9297 124.602 22.9297Z" fill="#4941A6"/>
<path d="M156.776 142.251C156.631 142.155 156.487 142.107 156.39 142.059C156.052 141.818 155.618 139.939 155.763 139.505C156.197 138.398 156.342 138.349 157.548 138.831C158.223 139.072 158.513 139.746 159.043 140.18C159.333 140.421 158.899 140.71 158.706 140.806C158.079 141.143 157.403 141.384 157.066 142.107C157.017 142.155 156.873 142.203 156.776 142.251Z" fill="#4941A6"/>
<path d="M47.2715 76.882C47.4645 76.6412 46.9338 75.8222 47.8022 76.2558C48.1399 76.4003 48.2363 76.1113 48.3811 75.8704C48.574 75.5814 48.7188 75.2442 48.9117 74.9552C49.0565 74.7143 49.2494 74.3771 49.5871 74.5216C49.8283 74.618 50.0695 74.8588 50.1178 75.196C50.1178 75.6296 49.7318 75.5332 49.4906 75.6777C49.3459 75.7741 49.2012 75.8222 49.0082 75.8704C49.2012 76.304 50.1178 76.4967 49.5871 77.1229C49.2494 77.5564 48.6223 77.5564 48.2846 78.0381C48.2363 78.0863 48.0916 78.0863 47.9951 78.1345C47.7057 78.279 47.4645 78.8571 47.2715 78.6162C46.8856 78.1827 46.2584 78.0381 46.0172 77.5083C45.9207 77.2674 45.8242 77.0265 46.0655 76.7857C46.4996 76.3521 46.8373 76.882 47.2715 76.882Z" fill="#4941A6"/>
<path d="M390.611 117.635C390.852 119.321 390.756 120.911 389.694 122.356C389.308 122.886 389.067 122.886 388.778 122.26C388.054 120.622 388.826 118.599 390.611 117.635Z" fill="#4941A6"/>
<path d="M456.074 25.7717C455.157 26.2534 454.337 26.687 453.421 27.0242C453.035 27.1687 452.649 27.1205 452.263 26.976C451.829 26.7833 451.539 26.5424 451.539 26.0607C451.539 25.579 451.877 25.3382 452.311 25.1455C453.662 24.6638 454.82 25.1936 456.074 25.7717Z" fill="#4941A6"/>
<path d="M419.364 22.3998C418.302 22.8815 417.482 23.2187 416.71 23.6041C416.18 23.8449 415.697 23.7004 415.215 23.4596C414.877 23.2669 414.636 22.9778 414.732 22.5925C414.781 22.2071 414.974 21.9662 415.36 21.8217C416.71 21.2918 417.868 21.8699 419.364 22.3998Z" fill="#4941A6"/>
<path d="M425.146 18.5945C424.085 18.9799 423.216 19.847 422.01 19.847C421.383 19.847 420.804 19.7507 420.708 18.9799C420.611 18.2092 421.094 18.0165 421.769 17.8238C423.023 17.4384 424.036 18.2092 425.146 18.5945Z" fill="#4941A6"/>
<path d="M370.299 11.0797C369.334 11.5133 368.562 11.9468 367.694 12.284C367.26 12.4767 366.778 12.4285 366.343 12.1877C365.957 11.995 365.668 11.7541 365.716 11.3206C365.764 10.887 366.006 10.6462 366.392 10.4535C367.791 9.92359 368.997 10.5017 370.299 11.0797Z" fill="#4941A6"/>
<path d="M470.545 48.5088C469.484 48.9906 468.664 49.3278 467.844 49.665C467.361 49.8576 466.879 49.8576 466.445 49.6168C466.059 49.4241 465.77 49.1832 465.818 48.7015C465.866 48.268 466.107 48.0271 466.541 47.8826C467.892 47.3527 469.05 48.0271 470.545 48.5088Z" fill="#4941A6"/>
<path d="M105.885 22.5924C106.126 22.5924 106.223 22.5924 106.319 22.5924C106.801 22.7369 107.67 22.496 107.622 23.2186C107.573 23.9412 106.898 24.4711 106.126 24.4711C105.451 24.4711 104.775 24.2302 104.148 23.9894C103.762 23.8448 103.859 23.6522 104.052 23.4113C104.582 22.7851 105.209 22.496 105.885 22.5924Z" fill="#4941A6"/>
<path d="M126.774 27.6985C126.436 27.6985 126.291 27.6985 126.146 27.6985C125.519 27.6022 124.458 26.6388 124.699 26.3016C125.085 25.6753 125.76 25.7235 126.436 25.868C126.581 25.9162 126.677 25.9162 126.822 25.9644C127.401 26.2052 128.221 26.4942 128.173 27.0723C128.076 27.6022 127.208 27.6504 126.774 27.6985Z" fill="#4941A6"/>
<path d="M226.389 59.2993C226.389 60.2145 225.569 61.7079 225.376 61.5152C224.749 61.0334 224.507 60.3109 224.459 59.5401C224.411 58.9621 224.652 58.3358 225.327 58.3358C226.051 58.2877 226.389 58.8657 226.389 59.2993Z" fill="#4941A6"/>
<path d="M412.656 163.64C412.656 163.11 412.704 162.628 413.187 162.339C413.476 162.146 413.814 162.339 414.055 162.58C414.489 162.917 414.731 163.399 414.489 163.977C414.248 164.555 414.007 165.566 413.476 165.422C412.897 165.326 412.704 164.362 412.656 163.64Z" fill="#4941A6"/>
<path d="M457.42 191.242C458.433 192.061 459.495 192.831 459.929 194.18C460.025 194.517 460.122 194.903 460.025 195.24C459.929 195.529 459.591 195.77 459.446 195.433C458.819 194.084 457.806 192.88 457.324 191.434C457.275 191.386 457.324 191.29 457.42 191.242Z" fill="#4941A6"/>
<path d="M414.918 168.36C415.642 168.36 416.366 168.312 416.366 169.227C416.366 170.142 415.545 170.046 415.015 170.046C414.291 170.094 413.664 169.853 413.664 168.986C413.664 168.071 414.484 168.456 414.918 168.36Z" fill="#4941A6"/>
<path d="M391.669 138.735C392.393 138.735 393.068 138.783 392.971 139.65C392.923 140.228 392.971 140.951 392.2 141.191C391.814 141.288 390.801 139.698 390.897 139.072C390.994 138.542 391.476 138.783 391.669 138.735Z" fill="#4941A6"/>
<path d="M229.77 56.5054C230.445 56.5535 231.024 56.7944 230.976 57.4688C230.976 58.1432 230.59 58.914 229.963 58.9621C229.287 59.0103 229.143 58.1432 229.046 57.5651C228.998 57.0834 229.191 56.6017 229.77 56.5054Z" fill="#4941A6"/>
<path d="M28.5501 58.866C28.936 59.0105 29.5149 59.1069 29.9008 59.4922C30.2868 59.8776 30.5762 60.3593 31.1551 60.5038C31.2516 60.5038 31.3481 60.6965 31.3481 60.7929C31.3481 60.9374 31.2034 60.9856 31.0586 60.9856C30.528 61.0337 29.9491 61.3228 29.6596 60.6002C29.4184 60.0703 28.936 60.0221 28.4053 60.0221C28.0194 60.0221 27.7782 59.7331 27.8264 59.3959C27.8747 59.0587 28.0676 58.8178 28.5501 58.866Z" fill="#4941A6"/>
<path d="M439.477 173.129C440.441 172.31 441.551 172.31 442.709 172.599C443.336 172.792 443.143 173.033 442.805 173.274C441.937 173.948 440.731 173.9 439.477 173.129Z" fill="#4941A6"/>
<path d="M411.404 176.164C411.934 176.164 412.465 176.116 412.465 176.839C412.465 177.465 412.031 177.754 411.452 177.754C410.873 177.706 410.149 177.706 410.198 176.887C410.198 176.164 410.873 176.212 411.404 176.164Z" fill="#4941A6"/>
<path d="M162.378 250.541C161.896 251.023 161.413 251.216 160.931 251.456C160.593 251.601 160.207 251.601 159.918 251.312C159.677 251.071 159.725 250.782 159.821 250.493C159.966 250.108 160.352 250.059 160.69 250.011C161.317 249.915 161.751 250.3 162.378 250.541Z" fill="#4941A6"/>
<path d="M153.061 142.877C152.434 143.311 151.904 143.696 151.276 143.793C150.89 143.841 150.456 143.793 150.36 143.311C150.263 142.829 150.456 142.54 150.987 142.396C151.759 142.155 152.29 142.637 153.061 142.877Z" fill="#4941A6"/>
<path d="M298.417 35.5508C297.79 35.888 297.356 36.177 296.922 36.4179C296.584 36.5624 296.295 36.5142 296.005 36.2734C295.764 36.0325 295.716 35.7435 295.812 35.4545C295.909 35.0691 296.246 35.0209 296.584 34.9727C297.211 34.8764 297.742 35.1173 298.417 35.5508Z" fill="#4941A6"/>
<path d="M31.7828 68.1147C32.41 68.1147 32.8441 68.3074 32.8441 68.9337C32.8441 69.4636 32.3135 69.6081 31.9275 69.6081C31.3969 69.5599 30.6732 69.3672 30.625 68.7892C30.625 68.1148 31.3486 68.1629 31.7828 68.1147Z" fill="#4941A6"/>
<path d="M17.8445 83.8189C17.7962 83.9634 17.6515 84.1561 17.5068 84.0597C16.7349 83.6744 15.963 83.4817 15.0947 83.4817C14.8052 83.4817 14.757 83.2408 14.9982 83C15.5771 82.5182 17.4585 82.9036 17.7962 83.6262C17.7962 83.7225 17.7962 83.7707 17.8445 83.8189Z" fill="#4941A6"/>
<path d="M153.112 136.374C153.594 136.422 154.125 136.47 154.607 136.615C154.848 136.711 155.476 136.663 155.283 137.048C155.138 137.386 154.462 137.771 154.173 137.578C153.787 137.241 153.063 137.145 153.112 136.374Z" fill="#4941A6"/>
<path d="M460.992 199.672C461.716 200.057 462.198 200.587 462.343 201.358C462.391 201.551 462.391 201.743 462.15 201.84C461.957 201.936 461.812 201.84 461.764 201.695C461.523 201.021 461.282 200.346 460.992 199.672Z" fill="#4941A6"/>
<path d="M26.1875 83.6743C26.4287 83.2407 27.0076 83.2408 27.0076 82.6627C27.0076 82.3737 27.3453 82.3737 27.5383 82.4218C27.7312 82.4218 27.9242 82.5182 28.0207 82.7109C28.1172 82.9517 27.9725 83.1926 27.7795 83.2889C27.3453 83.6261 26.8629 83.9152 26.1875 83.6743Z" fill="#4941A6"/>
<path d="M456.266 187.87C456.217 188.255 455.976 188.496 455.542 188.544C455.156 188.544 454.818 188.4 454.77 187.966C454.722 187.533 455.06 187.436 455.397 187.436C455.783 187.388 456.121 187.388 456.266 187.87Z" fill="#4941A6"/>
<path d="M24.2545 84.1078C24.1098 84.156 23.965 84.156 23.8686 83.9633C23.7721 83.7706 23.8203 83.5297 24.0133 83.4816C24.4957 83.2889 24.9781 83.0962 25.4605 82.9517C25.5088 82.9517 25.6535 82.9998 25.7017 83.048C25.7982 83.1925 25.75 83.337 25.6535 83.4816C25.3158 83.8669 24.7852 83.9633 24.2545 84.1078Z" fill="#4941A6"/>
<path d="M453.903 185.991C453.566 185.991 453.18 185.895 453.18 185.509C453.18 185.028 453.662 184.931 454.048 184.931C454.386 184.931 454.723 185.027 454.675 185.461C454.675 185.943 454.289 186.039 453.903 185.991Z" fill="#4941A6"/>
<path d="M144.863 133.821C145.249 133.821 145.442 134.014 145.442 134.399C145.442 134.881 145.104 135.026 144.719 134.977C144.381 134.929 143.995 134.833 144.043 134.448C144.043 133.966 144.526 133.966 144.863 133.821Z" fill="#4941A6"/>
<path d="M453.949 182.763C453.852 183.149 453.563 183.39 453.177 183.342C452.887 183.293 452.453 183.197 452.453 182.812C452.501 182.282 452.936 182.282 453.321 182.282C453.659 182.282 453.9 182.426 453.949 182.763Z" fill="#4941A6"/>
<path d="M150.365 135.989C149.931 136.278 149.593 135.94 149.255 136.085C148.966 136.229 148.821 135.844 148.676 135.651C148.532 135.411 148.724 135.314 148.869 135.17C149.11 135.025 149.303 134.881 149.545 135.121C149.834 135.411 150.075 135.7 150.365 135.989Z" fill="#4941A6"/>
<path d="M464.661 67.6332C464.612 67.9222 464.371 68.0668 464.082 68.0668C463.744 68.0186 463.406 67.8741 463.406 67.5369C463.406 67.1033 463.792 67.1515 464.082 67.1515C464.371 67.1515 464.661 67.2478 464.661 67.6332Z" fill="#4941A6"/>
<path d="M76.2663 76.7376C76.2663 76.8822 76.2663 76.9785 76.218 77.123C76.1215 77.4602 76.5075 78.0383 75.9286 78.0383C75.5426 78.0383 75.3497 77.4602 75.3979 77.0267C75.4944 76.2559 75.9768 76.7858 76.2663 76.7376Z" fill="#4941A6"/>
<path d="M458.051 65.9472C457.906 66.2844 457.665 66.3807 457.376 66.2844C457.086 66.188 456.748 66.0435 456.845 65.7063C456.941 65.3209 457.327 65.321 457.617 65.4173C457.858 65.4655 458.099 65.61 458.051 65.9472Z" fill="#4941A6"/>
<path d="M461.379 66.4287C461.379 66.7659 461.186 66.9104 460.896 66.9104C460.559 66.9104 460.221 66.7659 460.125 66.4287C460.028 66.0915 460.414 66.0433 460.607 65.9951C460.993 65.9951 461.282 66.0915 461.379 66.4287Z" fill="#4941A6"/>
<path d="M218.382 110.939C218.285 111.71 218.044 112.096 217.32 112.529C217.369 111.807 217.61 111.469 218.382 110.939Z" fill="#4941A6"/>
<path d="M456.556 204.73C455.832 204.874 455.35 204.874 454.916 204.682C454.723 204.633 454.53 204.537 454.578 204.296C454.674 204.055 454.867 204.103 455.06 204.152C455.494 204.344 455.88 204.489 456.556 204.73Z" fill="#4941A6"/>
<path d="M459.639 203.574C459.784 203.863 459.784 203.863 459.784 203.911C459.639 204.489 459.398 205.019 458.771 205.212C458.723 205.212 458.578 205.115 458.578 205.067C458.675 204.441 459.398 204.296 459.639 203.574Z" fill="#4941A6"/>
<path d="M243.708 150.874C243.418 150.874 243.273 150.73 243.322 150.441C243.37 150.103 243.563 149.911 243.901 149.911C244.19 149.911 244.286 150.103 244.238 150.392C244.19 150.681 244.045 150.874 243.708 150.874Z" fill="#4941A6"/>
<path d="M153.109 136.374C152.771 136.374 152.482 136.615 152.192 136.374C151.951 136.23 151.469 136.808 151.469 136.23C151.469 135.844 151.999 136.037 152.289 135.989C152.578 135.989 153.013 135.844 153.109 136.374Z" fill="#4941A6"/>
<path d="M215.153 111.662C215.009 111.951 214.864 112.192 214.575 112.192C214.285 112.192 214.14 111.951 214.092 111.662C214.044 111.421 214.285 111.325 214.478 111.373C214.719 111.421 215.057 111.373 215.153 111.662Z" fill="#4941A6"/>
<path d="M427.606 83.5297C427.606 83.8188 427.51 83.9633 427.269 83.9633C427.028 83.9151 426.883 83.7706 426.883 83.4816C426.883 83.2889 426.979 83.0962 427.221 83.0962C427.51 83.0962 427.558 83.337 427.606 83.5297Z" fill="#4941A6"/>
<path d="M477.734 221.301C477.783 221.253 477.783 221.253 477.831 221.205V221.253C477.783 221.301 477.734 221.301 477.734 221.301Z" fill="#4941A6"/>
<path d="M132.469 125.969C132.517 125.921 132.517 125.873 132.565 125.825C132.662 125.969 132.565 125.969 132.469 125.969Z" fill="#4941A6"/>
<path d="M71.774 73.6064C71.3398 73.51 70.8574 73.7027 70.375 73.0283C71.0021 73.1247 71.6293 72.5466 71.774 73.6064Z" fill="#FEFEFE"/>
<path d="M174.484 85.7454C174.533 85.7454 174.581 85.6973 174.629 85.6973C174.629 85.7454 174.581 85.7936 174.581 85.8418C174.533 85.7936 174.533 85.7454 174.484 85.7454Z" fill="#FEFEFE"/>
<path d="M37.3828 67.874C37.4311 67.8258 37.4311 67.7777 37.4793 67.7295C37.5758 67.874 37.4311 67.874 37.3828 67.874Z" fill="#FEFEFE"/>
<path d="M37.3818 67.9223C37.3336 67.9705 37.2371 68.0668 37.1889 68.115L37.1406 68.0668C37.2371 68.0186 37.2854 67.9705 37.3818 67.9223Z" fill="#FEFEFE"/>
<path d="M41.0938 72.5949C41.142 72.5467 41.142 72.5467 41.1902 72.4985V72.5467C41.1902 72.5949 41.142 72.5949 41.0938 72.5949Z" fill="#FEFEFE"/>
<path d="M99.659 36.707C99.6107 36.7552 99.6107 36.7552 99.5625 36.8034V36.7552C99.6107 36.707 99.659 36.707 99.659 36.707Z" fill="#FEFEFE"/>
<path d="M265.322 47.1118C265.274 48.0753 264.502 48.6051 263.875 49.1832C264.164 48.3643 264.55 47.5935 265.322 47.1118Z" fill="#FEFEFE"/>
<path d="M265.32 47.112C265.369 47.0638 265.369 47.0638 265.417 47.0156V47.0638C265.369 47.112 265.32 47.112 265.32 47.112Z" fill="#FEFEFE"/>
<path d="M247.327 90.5146C247.761 91.4781 248.196 92.3452 248.582 93.2123C248.823 93.7903 248.871 94.4166 248.678 95.0428C248.485 95.6209 248.34 96.3434 247.424 96.1026C246.604 95.8617 246.507 95.3318 246.748 94.5611C247.231 93.3086 246.845 91.9116 247.327 90.5146Z" fill="#4941A6"/>
</g>
<defs>
<clipPath id="clip0_41_65">
<rect width="482.42" height="268.991" fill="white" transform="translate(0.8125)"/>
</clipPath>
</defs>
</svg>
