<svg width="18" height="21" viewBox="0 0 18 21" fill="none" xmlns="http://www.w3.org/2000/svg">
<path d="M16.4324 10.5679C16.4324 12.7567 15.6324 14.8559 14.2085 16.4036C12.7846 17.9513 10.8534 18.8209 8.83963 18.8209V20.1592C13.7129 20.1592 17.6636 15.865 17.6636 10.5679H16.4324ZM8.83963 18.8209C6.82591 18.8209 4.89466 17.9513 3.47075 16.4036C2.04683 14.8559 1.24688 12.7567 1.24688 10.5679H0.015625C0.015625 15.865 3.96632 20.1592 8.83963 20.1592V18.8209ZM1.24688 10.5679C1.24688 8.37904 2.04683 6.27986 3.47075 4.73213C4.89466 3.18439 6.82591 2.31488 8.83963 2.31488V0.976562C3.96632 0.976562 0.015625 5.27079 0.015625 10.5679H1.24688ZM11.7126 12.5754C10.4608 12.5754 9.26029 12.0349 8.37515 11.0727C7.49001 10.1106 6.99275 8.80574 6.99275 7.44512H5.76149C5.76149 9.16069 6.38848 10.806 7.50452 12.0191C8.62056 13.2322 10.1342 13.9137 11.7126 13.9137V12.5754ZM15.7552 10.0941C15.3354 10.8515 14.7426 11.478 14.0342 11.9128C13.3258 12.3476 12.5261 12.5758 11.7126 12.5754V13.9137C12.7382 13.9143 13.7465 13.6266 14.6396 13.0787C15.5328 12.5308 16.2804 11.7411 16.81 10.7865L15.7552 10.0941ZM6.99275 7.44512C6.99239 6.56091 7.2024 5.69162 7.60238 4.92168C8.00237 4.15173 8.57873 3.5073 9.2755 3.05096L8.63853 1.90536C7.7603 2.48083 7.03387 3.29333 6.52977 4.26399C6.02567 5.23465 5.76101 6.33048 5.76149 7.44512H6.99275ZM8.83963 2.31488C8.75639 2.31275 8.6773 2.2749 8.61965 2.2096C8.5844 2.17234 8.56085 2.12395 8.55234 2.07131C8.54905 2.04365 8.5507 1.96335 8.63853 1.90536L9.2755 3.05096C9.68838 2.77973 9.82135 2.28277 9.77292 1.89197C9.72203 1.48602 9.42817 0.976562 8.83963 0.976562V2.31488ZM16.81 10.7865C16.7558 10.8819 16.6819 10.8837 16.6565 10.8801C16.608 10.8709 16.5635 10.8453 16.5292 10.807C16.4692 10.7443 16.4343 10.6584 16.4324 10.5679H17.6636C17.6636 9.92815 17.1949 9.60874 16.8215 9.55342C16.4619 9.50078 16.0047 9.64532 15.7552 10.0941L16.81 10.7865Z" fill="#FDFDFD"/>
</svg>
