<svg width="19" height="19" viewBox="0 0 19 19" fill="none" xmlns="http://www.w3.org/2000/svg">
<path d="M17.5 16.373V7.87305C17.5 7.7178 17.4639 7.56469 17.3944 7.42583C17.325 7.28698 17.2242 7.16619 17.1 7.07305L10.1 1.82305C9.9269 1.69322 9.71637 1.62305 9.5 1.62305C9.28363 1.62305 9.0731 1.69322 8.9 1.82305L1.9 7.07305C1.7758 7.16619 1.675 7.28698 1.60557 7.42583C1.53614 7.56469 1.5 7.7178 1.5 7.87305V16.373C1.5 16.6383 1.60536 16.8926 1.79289 17.0802C1.98043 17.2677 2.23478 17.373 2.5 17.373H6.5C6.76522 17.373 7.01957 17.2677 7.20711 17.0802C7.39464 16.8926 7.5 16.6383 7.5 16.373V13.373C7.5 13.1078 7.60536 12.8535 7.79289 12.6659C7.98043 12.4784 8.23478 12.373 8.5 12.373H10.5C10.7652 12.373 11.0196 12.4784 11.2071 12.6659C11.3946 12.8535 11.5 13.1078 11.5 13.373V16.373C11.5 16.6383 11.6054 16.8926 11.7929 17.0802C11.9804 17.2677 12.2348 17.373 12.5 17.373H16.5C16.7652 17.373 17.0196 17.2677 17.2071 17.0802C17.3946 16.8926 17.5 16.6383 17.5 16.373Z" stroke="#4941A6" stroke-width="2" stroke-linecap="round" stroke-linejoin="round"/>
</svg>
