<svg width="19" height="14" viewBox="0 0 19 14" fill="none" xmlns="http://www.w3.org/2000/svg">
<path d="M0.578125 2.9375C0.578125 2.19158 0.874441 1.47621 1.40189 0.948762C1.92933 0.421316 2.6447 0.125 3.39062 0.125H15.2656C16.0115 0.125 16.7269 0.421316 17.2544 0.948762C17.7818 1.47621 18.0781 2.19158 18.0781 2.9375V11.0625C18.0781 11.8084 17.7818 12.5238 17.2544 13.0512C16.7269 13.5787 16.0115 13.875 15.2656 13.875H3.39062C2.6447 13.875 1.92933 13.5787 1.40189 13.0512C0.874441 12.5238 0.578125 11.8084 0.578125 11.0625V2.9375ZM3.39062 1.375C2.97622 1.375 2.5788 1.53962 2.28577 1.83265C1.99275 2.12567 1.82812 2.5231 1.82812 2.9375V3.875H16.8281V2.9375C16.8281 2.5231 16.6635 2.12567 16.3705 1.83265C16.0775 1.53962 15.68 1.375 15.2656 1.375H3.39062ZM1.82812 11.0625C1.82812 11.4769 1.99275 11.8743 2.28577 12.1674C2.5788 12.4604 2.97622 12.625 3.39062 12.625H15.2656C15.68 12.625 16.0775 12.4604 16.3705 12.1674C16.6635 11.8743 16.8281 11.4769 16.8281 11.0625V5.125H1.82812V11.0625ZM12.4531 8.875H14.3281C14.4939 8.875 14.6529 8.94085 14.7701 9.05806C14.8873 9.17527 14.9531 9.33424 14.9531 9.5C14.9531 9.66576 14.8873 9.82473 14.7701 9.94194C14.6529 10.0592 14.4939 10.125 14.3281 10.125H12.4531C12.2874 10.125 12.1284 10.0592 12.0112 9.94194C11.894 9.82473 11.8281 9.66576 11.8281 9.5C11.8281 9.33424 11.894 9.17527 12.0112 9.05806C12.1284 8.94085 12.2874 8.875 12.4531 8.875Z" fill="#4941A6"/>
</svg>
