<svg width="21" height="21" viewBox="0 0 21 21" fill="none" xmlns="http://www.w3.org/2000/svg">
<path d="M18.7812 15.8037C19.3117 15.8037 19.8204 15.593 20.1955 15.2179C20.5705 14.8429 20.7812 14.3341 20.7812 13.8037V2.80371C20.7812 2.27328 20.5705 1.76457 20.1955 1.3895C19.8204 1.01442 19.3117 0.803711 18.7812 0.803711H8.24125C8.59125 1.41371 8.78125 2.10371 8.78125 2.80371H18.7812V13.8037H9.78125V15.8037M13.7812 5.80371V7.80371H7.78125V20.8037H5.78125V14.8037H3.78125V20.8037H1.78125V12.8037H0.28125V7.80371C0.28125 7.27328 0.491964 6.76457 0.867036 6.3895C1.24211 6.01442 1.75082 5.80371 2.28125 5.80371H13.7812ZM6.78125 2.80371C6.78125 3.33414 6.57054 3.84285 6.19546 4.21792C5.82039 4.593 5.31168 4.80371 4.78125 4.80371C4.25082 4.80371 3.74211 4.593 3.36704 4.21792C2.99196 3.84285 2.78125 3.33414 2.78125 2.80371C2.78125 2.27328 2.99196 1.76457 3.36704 1.3895C3.74211 1.01442 4.25082 0.803711 4.78125 0.803711C5.31168 0.803711 5.82039 1.01442 6.19546 1.3895C6.57054 1.76457 6.78125 2.27328 6.78125 2.80371Z" fill="white"/>
</svg>
