<svg width="23" height="16" viewBox="0 0 23 16" fill="none" xmlns="http://www.w3.org/2000/svg">
<path d="M16.3333 12.208C18.1967 12.208 20.3958 13.0747 20.6667 13.5947V14.3747H12V13.5947C12.2708 13.0747 14.47 12.208 16.3333 12.208ZM16.3333 10.583C14.3508 10.583 10.375 11.5797 10.375 13.5622V15.9997H22.2917V13.5622C22.2917 11.5797 18.3158 10.583 16.3333 10.583ZM8.20833 9.49967C5.68417 9.49967 0.625 10.7672 0.625 13.2913V15.9997H8.20833V14.3747H2.25V13.2913C2.25 12.6088 5.2725 10.9513 9.09667 11.1247C9.56237 10.5677 10.1329 10.1077 10.7758 9.77051C9.9308 9.5972 9.07092 9.5065 8.20833 9.49967ZM8.20833 2.45801C8.52973 2.45801 8.8439 2.55331 9.11113 2.73187C9.37836 2.91043 9.58665 3.16422 9.70964 3.46115C9.83263 3.75808 9.86481 4.08481 9.80211 4.40003C9.73941 4.71525 9.58464 5.0048 9.35738 5.23206C9.13012 5.45932 8.84057 5.61408 8.52535 5.67678C8.21014 5.73949 7.8834 5.7073 7.58647 5.58431C7.28954 5.46132 7.03575 5.25304 6.85719 4.98581C6.67864 4.71858 6.58333 4.4044 6.58333 4.08301C6.58333 3.65203 6.75454 3.23871 7.05928 2.93396C7.36403 2.62921 7.77736 2.45801 8.20833 2.45801ZM8.20833 0.833008C7.56554 0.833008 6.93719 1.02362 6.40273 1.38073C5.86827 1.73785 5.45171 2.24543 5.20572 2.83929C4.95974 3.43315 4.89538 4.08661 5.02078 4.71705C5.14618 5.34749 5.45572 5.92658 5.91024 6.38111C6.36476 6.83563 6.94385 7.14516 7.57429 7.27056C8.20473 7.39596 8.85819 7.3316 9.45205 7.08562C10.0459 6.83963 10.5535 6.42307 10.9106 5.88861C11.2677 5.35415 11.4583 4.7258 11.4583 4.08301C11.4583 3.22105 11.1159 2.3944 10.5064 1.78491C9.89694 1.17542 9.07029 0.833008 8.20833 0.833008ZM16.3333 4.62467C16.5476 4.62467 16.757 4.68821 16.9352 4.80725C17.1134 4.92629 17.2522 5.09548 17.3342 5.29343C17.4162 5.49139 17.4377 5.70921 17.3958 5.91936C17.354 6.1295 17.2509 6.32253 17.0994 6.47404C16.9479 6.62555 16.7548 6.72872 16.5447 6.77053C16.3345 6.81233 16.1167 6.79087 15.9188 6.70888C15.7208 6.62688 15.5516 6.48803 15.4326 6.30988C15.3135 6.13172 15.25 5.92227 15.25 5.70801C15.25 5.42069 15.3641 5.14514 15.5673 4.94198C15.7705 4.73881 16.046 4.62467 16.3333 4.62467ZM16.3333 2.99967C15.7977 2.99967 15.274 3.15852 14.8287 3.45611C14.3833 3.75371 14.0361 4.17669 13.8312 4.67157C13.6262 5.16646 13.5725 5.71101 13.677 6.23638C13.7815 6.76174 14.0395 7.24432 14.4183 7.62309C14.797 8.00186 15.2796 8.2598 15.805 8.3643C16.3303 8.4688 16.8749 8.41517 17.3698 8.21018C17.8647 8.00519 18.2876 7.65806 18.5852 7.21268C18.8828 6.76729 19.0417 6.24367 19.0417 5.70801C19.0417 4.98971 18.7563 4.30084 18.2484 3.79293C17.7405 3.28502 17.0516 2.99967 16.3333 2.99967Z" fill="white"/>
</svg>
