<svg width="210" height="76" viewBox="0 0 210 76" fill="none" xmlns="http://www.w3.org/2000/svg">
<g clip-path="url(#clip0_39_7322)">
<path d="M209.767 3.88959C209.657 3.77897 209.547 3.66835 209.438 3.55773C209.723 3.49136 209.833 3.60198 209.767 3.88959Z" fill="#FEFEFE"/>
<path d="M209.438 73.1795C209.547 73.0689 209.657 72.9583 209.767 72.8477C209.833 73.1353 209.723 73.2459 209.438 73.1795Z" fill="#FEFEFE"/>
<path d="M18.2656 27.0736C19.2767 23.8878 20.6833 21.2108 22.5516 18.7993C25.4308 15.0825 29.0134 12.3834 33.8049 11.7196C40.0909 10.8568 45.1022 13.2683 49.0145 18.0028C54.5313 24.6842 54.8829 33.4232 50.1135 41.5648C49.2123 43.0913 48.5749 44.463 48.7507 46.3878C49.0585 49.7949 46.1132 52.6488 42.7724 52.7152C39.1678 52.7816 36.3325 50.1046 36.2446 46.5205C36.1567 43.1798 38.8381 40.3037 42.3108 40.2152C43.3658 40.1931 43.8274 39.7949 44.245 38.9099C47.0364 32.9143 47.3441 26.9409 44.1571 21.0338C40.4426 14.1754 32.8818 12.8701 26.9694 17.9586C24.6616 19.9497 22.8153 22.3612 21.3207 24.994C20.6614 26.1665 19.7163 26.6311 18.2656 27.0736Z" fill="white"/>
<path d="M33.5603 60.9249C27.7139 61.6329 22.241 61.9648 17.1858 59.1108C9.80083 54.9294 6.92156 45.9692 10.3503 38.1152C13.7571 30.3276 19.9332 26.5887 28.1754 25.8807C29.2084 25.7922 30.2635 25.748 31.2965 25.8365C32.5053 25.9249 33.4504 25.6595 34.4615 24.9072C37.4287 22.7391 41.0772 23.4692 43.2092 26.5444C45.1214 29.2878 44.418 33.1816 41.6267 35.1727C38.8133 37.186 34.9011 36.6108 32.9449 33.6683C32.1317 32.4294 31.2965 32.186 29.9777 32.3409C24.0214 33.0267 19.076 35.5046 15.6253 40.571C10.8998 47.5621 13.6472 55.4603 21.7355 57.9825C24.4609 58.8232 27.2523 59.4205 30.1316 59.2657C31.4943 59.1772 32.3954 59.7966 33.5603 60.9249Z" fill="white"/>
<path d="M54.9218 30.7695C58.0868 34.5085 60.3726 38.4244 61.2078 43.0704C62.8783 52.3624 56.834 60.6368 47.2071 62.1191C38.7671 63.4244 32.4371 59.8624 27.5797 53.1368C27.228 52.6501 26.8983 52.1412 26.6346 51.6102C25.7554 49.9288 24.8103 48.5129 22.8981 47.5616C20.1507 46.1899 19.1617 42.8934 20.1068 40.1943C21.0519 37.5173 23.8213 35.7474 26.7005 35.9908C29.5139 36.2341 31.8217 38.4686 32.2832 41.4332C32.503 42.8492 32.2173 44.1766 31.47 45.3713C31.1183 45.9465 31.0524 46.4111 31.4261 47.0306C34.9647 53.004 42.4596 57.7607 50.504 56.0571C55.713 54.9509 59.2077 50.0173 58.5923 44.5085C58.1967 40.9023 56.9219 37.5837 55.1416 34.4642C54.5042 33.2917 54.5262 32.2076 54.9218 30.7695Z" fill="white"/>
<path d="M71.8022 47.8498C67.6261 48.0711 66.747 47.4737 65.626 41.8321C64.7469 37.4516 64.2633 33.049 64.9007 28.5578C65.1645 26.6109 66.0876 25.4826 68.0877 24.9295C72.044 23.8675 76.0002 23.0932 80.0883 23.3808C82.9896 23.5799 83.8468 24.2436 84.4402 26.5224C84.9677 28.5799 84.4182 29.2215 82.3522 28.956C79.2971 28.5357 76.242 28.4693 73.1649 28.7348C70.8351 28.9339 70.8351 28.956 70.8351 31.279C70.8351 31.7215 70.8571 32.164 70.8351 32.6065C70.7472 33.7348 71.1868 34.1773 72.3736 33.9782C73.8243 33.7348 75.3188 33.6242 76.7914 33.5578C77.7366 33.5136 78.9454 33.2702 79.1872 34.6419C79.407 35.8808 78.8795 36.9206 77.6926 37.4959C76.2859 38.1817 74.7254 38.3366 73.2088 38.4251C71.6044 38.5136 71.5164 39.0888 71.8022 40.4605C72.4616 43.5578 71.8242 43.3144 75.3408 42.9826C78.2421 42.695 81.0994 42.2967 83.9127 41.5003C84.7699 41.2569 85.737 40.6596 86.3744 41.8321C86.9678 42.9162 86.9458 44.0667 86.1985 45.0844C85.5831 45.9251 84.66 46.2569 83.6709 46.5224C80.2422 47.4074 76.7475 47.6286 71.8022 47.8498Z" fill="white"/>
<path d="M124.93 40.2134C124.996 38.3992 124.974 36.563 125.413 34.793C125.985 32.5807 128.205 31.1647 129.677 32.4479C131.062 33.6647 132.469 32.7798 133.458 33.355C135.809 34.7045 137.788 33.8196 140.029 33.3107C142.667 32.7134 144.579 34.2621 145.876 36.4081C147.656 39.3948 147.942 42.7576 147.524 46.1426C147.326 47.8461 146.535 48.3992 145.173 48.1337C143.612 47.8461 143.063 46.9391 143.304 45.324C143.634 43.0895 143.964 40.855 142.755 38.7311C142.315 37.9346 141.832 37.0939 140.799 37.293C139.678 37.4922 139.436 38.5099 139.392 39.4612C139.326 40.8329 139.436 42.2045 139.436 43.5762C139.436 44.4612 139.458 45.3461 139.304 46.209C139.062 47.4037 138.601 48.4435 137.018 48.1116C135.436 47.7798 134.842 46.8948 135.106 45.324C135.436 43.2001 135.765 41.0541 134.732 39.0187C134.249 38.0453 133.633 36.9169 132.337 37.116C130.996 37.3373 130.908 38.6426 130.798 39.7267C130.622 41.4302 130.666 43.1337 131.018 44.8152C131.479 47.0497 131.216 47.6691 129.677 48.0452C127.479 48.5762 125.941 47.7576 125.457 45.8107C125.303 45.2355 125.193 44.616 125.149 44.0187C125.018 42.7355 124.974 41.4745 124.93 40.2134Z" fill="white"/>
<path d="M160.867 48.0453C155.306 48.001 151.636 44.9037 150.735 39.8152C150.383 37.8462 150.8 36.0541 152.273 34.6825C155.13 32.0276 158.493 31.032 162.274 32.094C165.131 32.9126 166.494 34.9037 166.604 37.8241C166.669 39.2621 166.098 40.1028 164.603 40.2798C161.944 40.5895 159.284 40.9435 156.625 41.2975C156.229 41.3418 155.636 41.2311 155.482 41.7179C155.306 42.2488 155.724 42.6249 156.054 43.001C157.79 44.8373 160.977 45.0586 162.933 43.4878C163.197 43.2887 163.417 43.0011 163.702 42.8683C164.779 42.3816 165.812 42.6471 166.56 43.4435C167.395 44.3285 166.45 44.9258 165.988 45.5232C164.581 47.2931 162.691 48.0453 160.867 48.0453ZM155.394 38.355C157.79 38.0895 159.966 37.8462 162.142 37.5807C162.449 37.5364 162.867 37.5586 162.977 37.1825C163.087 36.8064 162.735 36.6072 162.515 36.386C160.845 34.9701 156.493 36.0099 155.394 38.355Z" fill="white"/>
<path d="M120.446 37.7817C120.138 40.879 119.699 44.2197 120.578 47.5383C120.82 48.4675 120.358 48.8879 119.501 48.9542C118.512 49.0427 117.303 49.087 116.776 48.2241C116.16 47.2064 115.633 47.4277 114.819 47.7374C112.819 48.5117 110.841 48.3569 108.951 47.3613C106.467 46.056 105.676 43.6224 106.885 41.1002C108.336 38.1135 111.544 36.3879 114.863 36.8082C115.347 36.8746 116.028 37.3613 116.292 36.6533C116.556 35.9233 115.896 35.4587 115.303 35.1268C113.94 34.3525 112.556 34.5294 111.193 35.0825C110.841 35.2153 110.533 35.5029 110.16 35.5914C109.039 35.9011 107.72 35.7905 107.127 34.9056C106.467 33.9542 107.764 33.3348 108.379 32.7595C110.709 30.6799 116.512 30.6799 118.864 32.6932C120.358 33.9985 120.6 35.7241 120.446 37.7817ZM115.589 43.0029C115.567 41.4542 114.006 39.8834 112.534 39.9056C111.281 39.9277 110.358 40.9896 110.402 42.3392C110.446 44.1091 111.786 45.525 113.325 45.4808C114.709 45.4365 115.611 44.441 115.589 43.0029Z" fill="white"/>
<path d="M199.637 38.8663C199.615 44.9283 193.263 49.6849 188.164 47.4725C185.285 46.2115 183.966 43.4902 184.758 40.4814C185.769 36.6318 189.351 33.4681 193.263 32.9592C196.978 32.4725 199.637 34.9504 199.637 38.8663ZM191.901 37.7601C190.164 37.7601 188.736 39.3309 188.758 41.2557C188.78 42.8486 190.164 44.4194 191.527 44.3973C193.373 44.3752 195.044 42.5389 195.022 40.5256C195 38.7778 193.835 37.738 191.901 37.7601Z" fill="white"/>
<path d="M102.952 33.1782C102.622 36.1871 101.655 38.3331 100.27 40.2579C99.5009 41.3198 99.4789 42.072 100.666 42.7357C101.083 42.9791 101.501 43.2667 101.875 43.5986C102.512 44.1517 103.699 44.4614 102.974 45.7446C102.358 46.8508 100.886 47.5366 99.7646 47.1163C98.7755 46.7402 97.9403 46.0986 97.215 45.3463C96.5996 44.7048 96.16 44.7711 95.6105 45.3906C95.149 45.9216 94.5995 46.3862 94.072 46.8729C92.9071 47.9348 91.8521 47.7357 90.7751 46.6738C90.0498 45.9658 89.9619 45.3463 90.6652 44.572C91.5444 43.6207 93.1049 42.8242 92.973 41.5853C92.8631 40.5012 91.6323 39.5278 90.907 38.5101C90.2916 37.6694 89.83 36.7402 89.4124 35.7888C88.8629 34.5278 89.3025 33.5543 90.2476 32.7136C91.3686 31.718 92.0719 31.8286 92.9071 33.0897C93.8302 34.4393 94.7534 35.7888 95.6765 37.1605C96.182 37.9127 96.5556 38.1118 97.1711 37.1605C98.0283 35.8109 98.8195 34.4614 99.4789 33.0012C99.8525 32.1826 100.116 31.2755 101.325 31.6295C102.38 31.9393 103.061 32.5366 102.952 33.1782Z" fill="white"/>
<path d="M170.273 40.7029C170.405 38.8445 170.449 37.2073 170.647 35.5701C170.933 33.0701 172.383 31.9197 174.625 32.2737C174.889 32.3179 175.307 32.34 175.395 32.4949C176.186 34.1542 177.505 33.6011 178.779 33.3799C179.087 33.3135 179.439 33.3799 179.768 33.4241C181.725 33.7117 182.626 34.5745 182.428 35.902C182.23 37.2073 181.373 37.6276 179.329 37.4285C177.021 37.2073 176.384 37.7383 176.098 40.0391C175.856 41.9861 176.12 43.8887 176.581 45.7692C176.911 47.1188 176.274 47.7604 175.131 48.048C172.537 48.6896 170.977 47.6055 170.691 44.9285C170.471 43.4684 170.383 41.9861 170.273 40.7029Z" fill="white"/>
</g>
<defs>
<clipPath id="clip0_39_7322">
<rect width="209" height="75" fill="white" transform="translate(0.789062 0.878906)"/>
</clipPath>
</defs>
</svg>
