<svg width="26" height="80" viewBox="0 0 26 80" fill="none" xmlns="http://www.w3.org/2000/svg">
<path d="M23.5957 41.3082L24.8185 41.8985L25.0897 41.3367L24.8401 40.765L23.5957 41.3082ZM4.57144 78.5071C4.81844 79.2152 5.59267 79.589 6.30073 79.342L17.8392 75.3169C18.5473 75.0699 18.9211 74.2957 18.6741 73.5876C18.4271 72.8796 17.6528 72.5058 16.9448 72.7528L6.68833 76.3306L3.1105 66.0742C2.8635 65.3661 2.08927 64.9924 1.38121 65.2393C0.673153 65.4864 0.299387 66.2606 0.546385 66.9686L4.57144 78.5071ZM4.60908 1.20729L22.3513 41.8514L24.8401 40.765L7.09792 0.12084L4.60908 1.20729ZM22.3729 40.7179L4.63071 77.4696L7.07629 78.6502L24.8185 41.8985L22.3729 40.7179Z" fill="white"/>
</svg>
