<svg width="23" height="24" viewBox="0 0 23 24" fill="none" xmlns="http://www.w3.org/2000/svg">
<g clip-path="url(#clip0_1_628)">
<path d="M15.0938 1.16415e-10C15.2884 1.16415e-10 15.4569 0.0742188 15.5991 0.222656L22.7866 7.72266C22.9289 7.87109 23 8.04688 23 8.25C23 8.45312 22.9289 8.62891 22.7866 8.77734L20.0576 11.625C20.2448 11.8203 20.4282 12.0078 20.6079 12.1875C20.7876 12.3672 20.9448 12.5508 21.0796 12.7383C21.2144 12.9258 21.3267 13.1367 21.4165 13.3711C21.5063 13.6055 21.5513 13.8672 21.5513 14.1562C21.5513 14.4688 21.4951 14.7656 21.3828 15.0469C21.2705 15.3281 21.117 15.5742 20.9224 15.7852C20.7277 15.9961 20.4993 16.1641 20.2373 16.2891C19.9753 16.4141 19.6945 16.4805 19.395 16.4883C19.38 16.8086 19.3164 17.1016 19.2041 17.3672C19.0918 17.6328 18.9421 17.8672 18.7549 18.0703C18.5677 18.2734 18.3431 18.4336 18.0811 18.5508C17.819 18.668 17.5382 18.7305 17.2388 18.7383C17.2313 19.0508 17.1676 19.3438 17.0479 19.6172C16.9281 19.8906 16.7671 20.1289 16.5649 20.332C16.3628 20.5352 16.127 20.6992 15.8574 20.8242C15.5879 20.9492 15.3034 21.0078 15.0039 21C14.7643 21 14.521 20.957 14.2739 20.8711C14.1916 21.1133 14.083 21.332 13.9482 21.5273C13.8135 21.7227 13.6488 21.8945 13.4541 22.043C13.2594 22.1914 13.0535 22.3047 12.8364 22.3828C12.6193 22.4609 12.3835 22.5 12.1289 22.5C11.9342 22.5 11.762 22.4844 11.6123 22.4531C11.4626 22.4219 11.3241 22.3672 11.1968 22.2891C11.0695 22.2109 10.9422 22.125 10.8149 22.0312C10.6877 21.9375 10.5566 21.8242 10.4219 21.6914C10.1598 21.9414 9.90527 22.1367 9.6582 22.2773C9.41113 22.418 9.09668 22.4922 8.71484 22.5C8.41536 22.5 8.13086 22.4414 7.86133 22.3242C7.5918 22.207 7.35596 22.0469 7.15381 21.8438C6.95166 21.6406 6.79069 21.4023 6.6709 21.1289C6.55111 20.8555 6.48747 20.5586 6.47998 20.2383C6.18799 20.2305 5.91097 20.168 5.64893 20.0508C5.38688 19.9336 5.15853 19.7734 4.96387 19.5703C4.76921 19.3672 4.61572 19.1289 4.50342 18.8555C4.39111 18.582 4.33122 18.293 4.32373 17.9883C4.02425 17.9805 3.74723 17.918 3.49268 17.8008C3.23812 17.6836 3.01351 17.5234 2.81885 17.3203C2.62419 17.1172 2.4707 16.8789 2.3584 16.6055C2.24609 16.332 2.18245 16.043 2.16748 15.7383C1.86051 15.7305 1.57601 15.6641 1.31396 15.5391C1.05192 15.4141 0.823568 15.2461 0.628906 15.0352C0.434245 14.8242 0.280762 14.582 0.168457 14.3086C0.0561523 14.0352 0 13.7383 0 13.418C0 13.0977 0.0561523 12.7969 0.168457 12.5156C0.280762 12.2344 0.445475 11.9805 0.662598 11.7539L1.85303 10.5L0.213379 8.77734C0.0711263 8.62891 0 8.45312 0 8.25C0 8.04688 0.0711263 7.87109 0.213379 7.72266L7.40088 0.222656C7.54313 0.0742188 7.71159 1.16415e-10 7.90625 1.16415e-10C8.10091 1.16415e-10 8.26937 0.0742188 8.41162 0.222656L9.89404 1.76953C9.99137 1.73828 10.1785 1.67188 10.4556 1.57031C10.7326 1.46875 11.0583 1.35547 11.4326 1.23047C11.807 1.10547 12.1925 0.96875 12.5894 0.820312C12.9862 0.671875 13.368 0.539062 13.7349 0.421875C14.1017 0.304688 14.4049 0.203125 14.6445 0.117188C14.8841 0.03125 15.0339 -0.0078125 15.0938 1.16415e-10ZM3.50391 11.25C3.28678 11.25 3.09961 11.332 2.94238 11.4961L1.67334 12.8086C1.51611 12.9727 1.4375 13.1719 1.4375 13.4062C1.4375 13.6406 1.51237 13.8359 1.66211 13.9922C1.81185 14.1484 2.00277 14.2305 2.23486 14.2383C2.46696 14.2383 2.65788 14.1602 2.80762 14.0039L4.07666 12.6914C4.23389 12.5273 4.3125 12.3281 4.3125 12.0938C4.3125 11.8594 4.23389 11.6602 4.07666 11.4961C3.91943 11.332 3.72852 11.25 3.50391 11.25ZM5.66016 13.5C5.55534 13.5 5.45426 13.5195 5.35693 13.5586C5.2596 13.5977 5.16976 13.6602 5.0874 13.7461L3.82959 15.0703C3.67236 15.2344 3.59375 15.4336 3.59375 15.668C3.59375 15.8945 3.67236 16.0859 3.82959 16.2422C3.98682 16.3984 4.17773 16.4805 4.40234 16.4883C4.50716 16.4883 4.60824 16.4688 4.70557 16.4297C4.8029 16.3906 4.89274 16.332 4.9751 16.2539L6.23291 14.9297C6.39014 14.7656 6.46875 14.5703 6.46875 14.3438C6.46875 14.1094 6.39014 13.9102 6.23291 13.7461C6.07568 13.582 5.88477 13.5 5.66016 13.5ZM7.81641 15.75C7.59928 15.75 7.41211 15.832 7.25488 15.9961L5.98584 17.3086C5.82861 17.4727 5.75 17.6719 5.75 17.9062C5.75 18.1406 5.82487 18.3359 5.97461 18.4922C6.12435 18.6484 6.31527 18.7305 6.54736 18.7383C6.77946 18.7383 6.97038 18.6602 7.12012 18.5039L8.38916 17.1914C8.54639 17.0273 8.625 16.8281 8.625 16.5938C8.625 16.3594 8.54639 16.1602 8.38916 15.9961C8.23193 15.832 8.04102 15.75 7.81641 15.75ZM7.90625 20.168C7.90625 20.3945 7.98486 20.5859 8.14209 20.7422C8.29932 20.8984 8.49023 20.9805 8.71484 20.9883C8.81966 20.9883 8.92074 20.9688 9.01807 20.9297C9.1154 20.8906 9.20524 20.832 9.2876 20.7539L10.5454 19.4297C10.7026 19.2656 10.7812 19.0703 10.7812 18.8438C10.7812 18.6094 10.7026 18.4102 10.5454 18.2461C10.3882 18.082 10.1973 18 9.97266 18C9.86784 18 9.76676 18.0195 9.66943 18.0586C9.5721 18.0977 9.48226 18.1602 9.3999 18.2461L8.14209 19.5703C7.98486 19.7344 7.90625 19.9336 7.90625 20.168ZM19.3164 15C19.5335 15 19.7207 14.918 19.8779 14.7539C20.0352 14.5898 20.1175 14.3945 20.125 14.168C20.125 13.9336 20.0464 13.7344 19.8892 13.5703L12.7915 6.15234C12.769 6.12891 12.7316 6.10938 12.6792 6.09375C12.6268 6.07812 12.5744 6.0625 12.522 6.04688C12.4696 6.03125 12.4134 6.01953 12.3535 6.01172C12.2936 6.00391 12.2487 6 12.2188 6C12.0241 6 11.8407 6.03906 11.6685 6.11719C11.4963 6.19531 11.3428 6.30078 11.208 6.43359C11.0732 6.56641 10.9684 6.72656 10.8936 6.91406C10.8187 7.10156 10.7812 7.29687 10.7812 7.5C10.7812 7.91406 10.7064 8.30078 10.5566 8.66016C10.4069 9.01953 10.201 9.33984 9.93896 9.62109C9.67692 9.90234 9.3737 10.1172 9.0293 10.2656C8.6849 10.4141 8.31055 10.4922 7.90625 10.5C7.60677 10.5 7.32601 10.4414 7.06396 10.3242C6.80192 10.207 6.57357 10.0469 6.37891 9.84375C6.18424 9.64062 6.03076 9.40234 5.91846 9.12891C5.80615 8.85547 5.75 8.5625 5.75 8.25C5.75 8.0625 5.76872 7.85547 5.80615 7.62891C5.84359 7.40234 5.90348 7.19922 5.98584 7.01953L8.08594 2.625C8.15332 2.5 8.25439 2.39844 8.38916 2.32031L7.90625 1.81641L1.72949 8.25L3.24561 9.82031C3.58252 9.78125 3.90072 9.80469 4.2002 9.89062C4.49967 9.97656 4.76172 10.1211 4.98633 10.3242C5.21094 10.5273 5.39062 10.7734 5.52539 11.0625C5.66016 11.3516 5.73128 11.6758 5.73877 12.0352C6.03825 12.0508 6.31901 12.1133 6.58105 12.2227C6.8431 12.332 7.06771 12.4883 7.25488 12.6914C7.44206 12.8945 7.59554 13.1289 7.71533 13.3945C7.83512 13.6602 7.89502 13.957 7.89502 14.2852C8.1945 14.3008 8.47526 14.3633 8.7373 14.4727C8.99935 14.582 9.22396 14.7383 9.41113 14.9414C9.59831 15.1445 9.75179 15.3789 9.87158 15.6445C9.99137 15.9102 10.0513 16.207 10.0513 16.5352C10.3582 16.5508 10.6427 16.6172 10.9048 16.7344C11.1668 16.8516 11.3952 17.0117 11.5898 17.2148C11.7845 17.418 11.938 17.6602 12.0503 17.9414C12.1626 18.2227 12.2188 18.5234 12.2188 18.8438C12.2188 19.1953 12.1514 19.5234 12.0166 19.8281C11.8818 20.1328 11.6872 20.3984 11.4326 20.625C11.5449 20.7344 11.646 20.8242 11.7358 20.8945C11.8257 20.9648 11.9567 21 12.1289 21C12.346 21 12.5332 20.918 12.6904 20.7539C12.8477 20.5898 12.93 20.3945 12.9375 20.168C12.9375 19.9336 12.8589 19.7344 12.7017 19.5703L13.7124 18.5039L14.4424 19.2539C14.6146 19.418 14.8018 19.5 15.0039 19.5C15.221 19.5 15.4082 19.418 15.5654 19.2539C15.7227 19.0898 15.805 18.8945 15.8125 18.668C15.8125 18.4336 15.7339 18.2344 15.5767 18.0703L14.3076 16.7461L15.3296 15.6914L16.5874 17.0039C16.7446 17.168 16.9355 17.25 17.1602 17.25C17.3848 17.25 17.5757 17.168 17.7329 17.0039C17.8901 16.8398 17.9688 16.6406 17.9688 16.4062C17.9688 16.1719 17.8901 15.9727 17.7329 15.8086L16.4639 14.4961L17.4858 13.4297L18.7549 14.7539C18.9121 14.918 19.0993 15 19.3164 15ZM21.2593 8.25L14.9028 1.60547L9.24268 3.57422L7.28857 7.65234C7.25114 7.72266 7.22494 7.82031 7.20996 7.94531C7.19499 8.07031 7.1875 8.17188 7.1875 8.25C7.1875 8.45312 7.25863 8.62891 7.40088 8.77734C7.54313 8.92578 7.71159 9 7.90625 9C8.1084 9 8.29557 8.96094 8.46777 8.88281C8.63997 8.80469 8.78971 8.69922 8.91699 8.56641C9.04427 8.43359 9.14909 8.27344 9.23145 8.08594C9.3138 7.89844 9.35124 7.70312 9.34375 7.5C9.34375 7.08594 9.41862 6.69922 9.56836 6.33984C9.7181 5.98047 9.92399 5.66016 10.186 5.37891C10.4481 5.09766 10.7513 4.88281 11.0957 4.73438C11.4401 4.58594 11.8145 4.50781 12.2188 4.5C12.3385 4.5 12.4658 4.51172 12.6006 4.53516C12.7354 4.55859 12.8776 4.58984 13.0273 4.62891C13.1771 4.66797 13.3081 4.72266 13.4204 4.79297C13.5327 4.86328 13.6413 4.94531 13.7461 5.03906L19.0469 10.5703L21.2593 8.25Z" fill="white"/>
</g>
<defs>
<clipPath id="clip0_1_628">
<rect width="23" height="24" fill="white"/>
</clipPath>
</defs>
</svg>
