<svg width="28" height="29" viewBox="0 0 28 29" fill="none" xmlns="http://www.w3.org/2000/svg">
<path d="M14.0007 2.5835C7.58398 2.5835 2.33398 7.8335 2.33398 14.2502C2.33398 20.6668 7.58398 25.9168 14.0007 25.9168C20.4173 25.9168 25.6673 20.6668 25.6673 14.2502C25.6673 7.8335 20.4173 2.5835 14.0007 2.5835ZM14.0007 23.5835C8.85565 23.5835 4.66732 19.3952 4.66732 14.2502C4.66732 9.10516 8.85565 4.91683 14.0007 4.91683C19.1457 4.91683 23.334 9.10516 23.334 14.2502C23.334 19.3952 19.1457 23.5835 14.0007 23.5835ZM19.3557 9.0935L11.6673 16.7818L8.64565 13.7718L7.00065 15.4168L11.6673 20.0835L21.0007 10.7502L19.3557 9.0935Z" fill="white"/>
</svg>
