<svg width="30" height="30" viewBox="0 0 30 30" fill="none" xmlns="http://www.w3.org/2000/svg">
<path d="M26.5245 11.051C27.499 13.6686 27.5486 16.5408 26.6649 19.1904C25.7812 21.84 24.0176 24.1074 21.667 25.616C19.3163 27.1246 16.5203 27.7835 13.7434 27.4831C10.9666 27.1828 8.37606 25.9414 6.40234 23.9651C4.18525 21.7553 2.89952 18.7798 2.80973 15.6508C2.71993 12.5218 3.83291 9.47741 5.91962 7.14412C8.00633 4.81083 10.908 3.36613 14.0276 3.10734C17.1472 2.84854 20.2472 3.79533 22.6899 5.75287L24.9669 3.47479C25.0933 3.34834 25.2434 3.24803 25.4086 3.1796C25.5739 3.11117 25.7509 3.07594 25.9298 3.07594C26.1086 3.07594 26.2857 3.11117 26.4509 3.1796C26.6161 3.24803 26.7662 3.34834 26.8927 3.47479C27.0191 3.60124 27.1194 3.75135 27.1878 3.91656C27.2563 4.08178 27.2915 4.25885 27.2915 4.43768C27.2915 4.6165 27.2563 4.79358 27.1878 4.95879C27.1194 5.124 27.0191 5.27412 26.8927 5.40057L16.0177 16.2756C15.8912 16.402 15.7411 16.5023 15.5759 16.5708C15.4107 16.6392 15.2336 16.6744 15.0548 16.6744C14.8759 16.6744 14.6989 16.6392 14.5337 16.5708C14.3684 16.5023 14.2183 16.402 14.0919 16.2756C13.9654 16.1491 13.8651 15.999 13.7967 15.8338C13.7283 15.6686 13.693 15.4915 13.693 15.3127C13.693 15.1339 13.7283 14.9568 13.7967 14.7916C13.8651 14.6264 13.9654 14.4762 14.0919 14.3498L16.8106 11.631C16.0444 11.2649 15.1829 11.1472 14.3465 11.2942C13.5101 11.4412 12.7405 11.8457 12.145 12.4512C11.5495 13.0566 11.1579 13.8329 11.0248 14.6716C10.8917 15.5103 11.0238 16.3697 11.4026 17.1298C11.7814 17.8898 12.388 18.5127 13.1378 18.9114C13.8876 19.3101 14.7431 19.4649 15.5851 19.354C16.4271 19.2431 17.2134 18.8721 17.8344 18.2928C18.4553 17.7135 18.88 16.9549 19.0491 16.1226C19.1203 15.7692 19.329 15.4585 19.6293 15.2589C19.9295 15.0593 20.2968 14.9872 20.6503 15.0584C21.0038 15.1296 21.3145 15.3383 21.5141 15.6386C21.7136 15.9388 21.7858 16.3061 21.7146 16.6596C21.425 18.086 20.6852 19.3818 19.604 20.3562C18.5229 21.3307 17.1575 21.9323 15.7087 22.0726C14.26 22.2129 12.8045 21.8845 11.5565 21.1356C10.3084 20.3867 9.33371 19.257 8.77581 17.9127C8.21791 16.5683 8.1063 15.0804 8.45738 13.6679C8.80846 12.2554 9.6037 10.9929 10.7261 10.0662C11.8484 9.13947 13.2386 8.59754 14.6921 8.52013C16.1455 8.44272 17.5854 8.83392 18.7998 9.63615L20.7517 7.69111C18.9182 6.32183 16.6527 5.65912 14.3704 5.82443C12.088 5.98974 9.94165 6.972 8.32465 8.59119C6.70764 10.2104 5.7283 12.3581 5.56608 14.6407C5.40387 16.9232 6.06965 19.1878 7.44142 21.0194C8.81319 22.851 10.7991 24.1269 13.0351 24.6134C15.2712 25.0998 17.6076 24.7641 19.6163 23.6679C21.6249 22.5716 23.1713 20.7882 23.9719 18.6445C24.7726 16.5008 24.7739 14.1404 23.9757 11.9958C23.9121 11.8281 23.8824 11.6496 23.8881 11.4703C23.8939 11.2911 23.9351 11.1148 24.0093 10.9516C24.0834 10.7883 24.1892 10.6414 24.3204 10.5192C24.4516 10.397 24.6057 10.302 24.7738 10.2396C24.9419 10.1772 25.1207 10.1487 25.2999 10.1557C25.4791 10.1627 25.6551 10.2051 25.8178 10.2804C25.9805 10.3557 26.1267 10.4625 26.248 10.5946C26.3693 10.7266 26.4633 10.8814 26.5245 11.0499V11.051Z" fill="white"/>
</svg>
