<svg width="19" height="18" viewBox="0 0 19 18" fill="none" xmlns="http://www.w3.org/2000/svg">
<g clip-path="url(#clip0_1_13568)">
<path d="M15.8173 0.566406C15.5577 0.566406 15.3105 0.67756 15.1028 0.873714L14.6058 1.32291L17.5259 4.08083L18.0022 3.61137C18.4176 3.21906 18.4176 2.63452 18.0022 2.24221L16.5525 0.87306C16.3448 0.676906 16.0769 0.566406 15.8173 0.566406ZM14.1295 1.71129L13.3721 2.30433L16.4875 5.24664L17.1798 4.59279L14.1295 1.71129ZM12.9608 2.77379L6.70931 8.61787C6.67766 8.64255 6.64847 8.66991 6.62208 8.6996L6.57916 8.71987C6.50364 8.80159 6.45146 8.90016 6.42754 9.00625L5.58362 11.8054C5.54745 11.9162 5.54395 12.0342 5.57351 12.1467C5.60306 12.2592 5.66455 12.362 5.75135 12.444C5.83816 12.526 5.94699 12.584 6.06614 12.612C6.18528 12.6399 6.31023 12.6366 6.42754 12.6024L9.39131 11.8054C9.48972 11.7833 9.58162 11.7407 9.66022 11.6806C9.73883 11.6205 9.80214 11.5445 9.84546 11.4582L15.9904 5.7161L14.8218 4.53068V4.59214L13.9993 3.81537H14.0644L12.9608 2.77379ZM0.846157 3.22298C0.685769 3.25179 0.541323 3.33321 0.438333 3.45285C0.335342 3.57249 0.280435 3.72266 0.283311 3.87683V16.9538C0.283311 17.1272 0.35625 17.2935 0.486083 17.4161C0.615916 17.5387 0.792007 17.6076 0.975618 17.6076H14.8218C15.0054 17.6076 15.1815 17.5387 15.3113 17.4161C15.4411 17.2935 15.5141 17.1272 15.5141 16.9538V9.76145C15.5141 9.58803 15.4411 9.42173 15.3113 9.29911C15.1815 9.17649 15.0054 9.1076 14.8218 9.1076C14.6382 9.1076 14.4621 9.17649 14.3322 9.29911C14.2024 9.42173 14.1295 9.58803 14.1295 9.76145V16.2999H1.66793V4.53068H8.591C8.77461 4.53068 8.95071 4.46179 9.08054 4.33917C9.21037 4.21655 9.28331 4.05024 9.28331 3.87683C9.28331 3.70342 9.21037 3.53711 9.08054 3.41449C8.95071 3.29187 8.77461 3.22298 8.591 3.22298H0.975618C0.953938 3.22202 0.932222 3.22202 0.910541 3.22298C0.888861 3.22202 0.867145 3.22202 0.845464 3.22298H0.846157ZM7.63977 9.63918L8.5917 9.69998L8.65677 10.6808L7.70485 10.9462L7.33723 10.5997L7.63977 9.63918Z" fill="#4941A6"/>
</g>
<defs>
<clipPath id="clip0_1_13568">
<rect width="18" height="17" fill="white" transform="translate(0.283203 0.607422)"/>
</clipPath>
</defs>
</svg>
