<svg width="209" height="75" viewBox="0 0 209 75" fill="none" xmlns="http://www.w3.org/2000/svg">
<path d="M208.978 3.00873C208.868 2.89811 208.758 2.78749 208.648 2.67687C208.934 2.6105 209.044 2.72112 208.978 3.00873Z" fill="#FEFEFE"/>
<path d="M208.648 72.3006C208.758 72.19 208.868 72.0794 208.978 71.9688C209.044 72.2564 208.934 72.367 208.648 72.3006Z" fill="#FEFEFE"/>
<path d="M17.4727 26.1947C18.4837 23.0089 19.8904 20.3319 21.7586 17.9204C24.6379 14.2036 28.2205 11.5045 33.0119 10.8407C39.298 9.9779 44.3092 12.3894 48.2215 17.1239C53.7383 23.8053 54.09 32.5443 49.3205 40.6859C48.4193 42.2124 47.7819 43.5841 47.9578 45.5089C48.2655 48.916 45.3203 51.7699 41.9794 51.8363C38.3749 51.9027 35.5395 49.2257 35.4516 45.6416C35.3637 42.3009 38.0452 39.4248 41.5179 39.3363C42.5729 39.3142 43.0344 38.916 43.452 38.031C46.2434 32.0354 46.5511 26.062 43.3641 20.1549C39.6496 13.2965 32.0888 11.9912 26.1764 17.0797C23.8686 19.0708 22.0223 21.4823 20.5278 24.1151C19.8684 25.2876 18.9233 25.7522 17.4727 26.1947Z" fill="#4941A6"/>
<path d="M32.7713 60.0441C26.9248 60.7521 21.452 61.0839 16.3968 58.2299C9.01177 54.0485 6.1325 45.0883 9.56125 37.2344C12.968 29.4467 19.1442 25.7078 27.3864 24.9998C28.4194 24.9113 29.4744 24.8671 30.5074 24.9556C31.7163 25.0441 32.6614 24.7786 33.6724 24.0264C36.6396 21.8582 40.2881 22.5883 42.4201 25.6636C44.3323 28.4069 43.629 32.3007 40.8376 34.2919C38.0243 36.3052 34.112 35.7299 32.1558 32.7875C31.3426 31.5485 30.5074 31.3052 29.1887 31.46C23.2323 32.1459 18.287 34.6237 14.8363 39.6901C10.1107 46.6813 12.8581 54.5795 20.9465 57.1016C23.6719 57.9423 26.4632 58.5397 29.3425 58.3848C30.7052 58.2963 31.6064 58.9158 32.7713 60.0441Z" fill="#4941A6"/>
<path d="M54.1366 29.8887C57.3016 33.6276 59.5875 37.5435 60.4227 42.1896C62.0931 51.4816 56.0488 59.7559 46.4219 61.2382C37.9819 62.5435 31.6519 58.9816 26.7945 52.2559C26.4429 51.7692 26.1132 51.2604 25.8494 50.7294C24.9703 49.048 24.0252 47.632 22.113 46.6807C19.3656 45.309 18.3765 42.0126 19.3216 39.3134C20.2667 36.6365 23.0361 34.8665 25.9154 35.1099C28.7287 35.3533 31.0365 37.5878 31.4981 40.5524C31.7179 41.9683 31.4322 43.2958 30.6849 44.4904C30.3332 45.0657 30.2673 45.5303 30.6409 46.1497C34.1795 52.1232 41.6744 56.8798 49.7188 55.1763C54.9279 54.0701 58.4226 49.1365 57.8072 43.6276C57.4115 40.0214 56.1367 36.7028 54.3564 33.5834C53.719 32.4108 53.741 31.3267 54.1366 29.8887Z" fill="#4941A6"/>
<path d="M71.0131 46.969C66.8371 47.1902 65.9579 46.5929 64.837 40.9513C63.9578 36.5708 63.4743 32.1681 64.1117 27.6769C64.3754 25.73 65.2985 24.6017 67.2986 24.0486C71.2549 22.9867 75.2111 22.2123 79.2993 22.5C82.2005 22.6991 83.0577 23.3628 83.6511 25.6415C84.1786 27.6991 83.6292 28.3407 81.5631 28.0752C78.508 27.6548 75.4529 27.5885 72.3758 27.8539C70.046 28.0531 70.046 28.0752 70.046 30.3982C70.046 30.8407 70.068 31.2831 70.046 31.7256C69.9581 32.8539 70.3977 33.2964 71.5846 33.0973C73.0352 32.8539 74.5298 32.7433 76.0024 32.6769C76.9475 32.6327 78.1564 32.3893 78.3981 33.761C78.6179 35 78.0904 36.0398 76.9035 36.615C75.4969 37.3008 73.9363 37.4557 72.4198 37.5442C70.8153 37.6327 70.7274 38.2079 71.0131 39.5796C71.6725 42.6769 71.0351 42.4336 74.5518 42.1017C77.453 41.8141 80.3103 41.4159 83.1236 40.6194C83.9808 40.3761 84.9479 39.7787 85.5853 40.9513C86.1787 42.0354 86.1568 43.1858 85.4095 44.2035C84.7941 45.0442 83.8709 45.3761 82.8819 45.6416C79.4531 46.5265 75.9584 46.7477 71.0131 46.969Z" fill="#4941A6"/>
<path d="M124.137 39.3364C124.203 37.5223 124.181 35.686 124.62 33.9161C125.192 31.7037 127.412 30.2878 128.884 31.571C130.269 32.7878 131.676 31.9028 132.665 32.478C135.016 33.8276 136.995 32.9426 139.236 32.4338C141.874 31.8364 143.786 33.3851 145.083 35.5311C146.863 38.5179 147.149 41.8807 146.731 45.2656C146.533 46.9692 145.742 47.5223 144.38 47.2568C142.819 46.9692 142.27 46.0621 142.511 44.4471C142.841 42.2125 143.171 39.978 141.962 37.8541C141.522 37.0577 141.039 36.217 140.006 36.4161C138.885 36.6152 138.643 37.6329 138.599 38.5842C138.533 39.9559 138.643 41.3276 138.643 42.6993C138.643 43.5842 138.665 44.4692 138.511 45.332C138.269 46.5267 137.808 47.5665 136.225 47.2347C134.643 46.9028 134.049 46.0179 134.313 44.4471C134.643 42.3232 134.972 40.1771 133.939 38.1417C133.456 37.1683 132.84 36.04 131.544 36.2391C130.203 36.4603 130.115 37.7656 130.005 38.8497C129.829 40.5533 129.873 42.2568 130.225 43.9382C130.687 46.1727 130.423 46.7922 128.884 47.1683C126.686 47.6993 125.148 46.8807 124.664 44.9338C124.51 44.3586 124.4 43.7391 124.357 43.1418C124.225 41.8586 124.181 40.5975 124.137 39.3364Z" fill="#4941A6"/>
<path d="M160.074 47.1683C154.513 47.1241 150.843 44.0268 149.942 38.9383C149.59 36.9692 150.008 35.1772 151.48 33.8055C154.337 31.1506 157.7 30.1551 161.481 31.217C164.338 32.0356 165.701 34.0268 165.811 36.9471C165.876 38.3852 165.305 39.2259 163.81 39.4029C161.151 39.7126 158.491 40.0666 155.832 40.4206C155.436 40.4648 154.843 40.3542 154.689 40.8409C154.513 41.3719 154.931 41.748 155.261 42.1241C156.997 43.9604 160.184 44.1816 162.14 42.6108C162.404 42.4117 162.624 42.1241 162.909 41.9914C163.986 41.5046 165.019 41.7701 165.767 42.5666C166.602 43.4515 165.657 44.0489 165.195 44.6462C163.788 46.4161 161.898 47.1683 160.074 47.1683ZM154.601 37.4781C156.997 37.2126 159.173 36.9692 161.349 36.7037C161.656 36.6595 162.074 36.6816 162.184 36.3055C162.294 35.9294 161.942 35.7303 161.722 35.5091C160.052 34.0931 155.7 35.1329 154.601 37.4781Z" fill="#4941A6"/>
<path d="M119.653 36.9028C119.345 40.0001 118.906 43.3408 119.785 46.6594C120.027 47.5886 119.565 48.0089 118.708 48.0753C117.719 48.1638 116.51 48.2081 115.983 47.3452C115.367 46.3275 114.84 46.5488 114.026 46.8585C112.026 47.6328 110.048 47.478 108.158 46.4824C105.674 45.1771 104.883 42.7435 106.092 40.2213C107.543 37.2346 110.752 35.5089 114.07 35.9293C114.554 35.9957 115.235 36.4824 115.499 35.7744C115.763 35.0443 115.103 34.5797 114.51 34.2479C113.147 33.4736 111.763 33.6505 110.4 34.2036C110.048 34.3364 109.74 34.624 109.367 34.7125C108.246 35.0222 106.927 34.9116 106.334 34.0266C105.674 33.0753 106.971 32.4559 107.587 31.8806C109.916 29.801 115.719 29.801 118.071 31.8143C119.565 33.1196 119.807 34.8452 119.653 36.9028ZM114.796 42.124C114.774 40.5753 113.213 39.0045 111.741 39.0266C110.488 39.0488 109.565 40.1107 109.609 41.4603C109.653 43.2302 110.993 44.6461 112.532 44.6019C113.917 44.5576 114.818 43.562 114.796 42.124Z" fill="#4941A6"/>
<path d="M198.844 37.9874C198.823 44.0494 192.471 48.806 187.371 46.5936C184.492 45.3326 183.173 42.6113 183.965 39.6025C184.976 35.7529 188.558 32.5892 192.471 32.0803C196.185 31.5936 198.844 34.0715 198.844 37.9874ZM191.108 36.8812C189.371 36.8812 187.943 38.452 187.965 40.3768C187.987 41.9697 189.371 43.5405 190.734 43.5184C192.58 43.4963 194.251 41.66 194.229 39.6467C194.207 37.8989 193.042 36.8591 191.108 36.8812Z" fill="#4941A6"/>
<path d="M102.159 32.3013C101.829 35.3101 100.862 37.4561 99.4772 39.3809C98.7079 40.4428 98.6859 41.1951 99.8728 41.8588C100.29 42.1021 100.708 42.3897 101.082 42.7216C101.719 43.2747 102.906 43.5844 102.181 44.8676C101.565 45.9738 100.093 46.6597 98.9716 46.2393C97.9826 45.8632 97.1474 45.2216 96.4221 44.4694C95.8066 43.8278 95.3671 43.8942 94.8176 44.5136C94.356 45.0446 93.8065 45.5092 93.279 45.9959C92.1141 47.0579 91.0591 46.8588 89.9822 45.7968C89.2568 45.0889 89.1689 44.4694 89.8723 43.6951C90.7514 42.7437 92.3119 41.9473 92.1801 40.7083C92.0702 39.6243 90.8393 38.6508 90.114 37.6331C89.4986 36.7924 89.0371 35.8632 88.6194 34.9119C88.07 33.6508 88.5095 32.6774 89.4547 31.8366C90.5756 30.8411 91.2789 30.9517 92.1141 32.2128C93.0373 33.5623 93.9604 34.9119 94.8835 36.2836C95.389 37.0358 95.7627 37.2349 96.3781 36.2836C97.2353 34.934 98.0265 33.5844 98.6859 32.1243C99.0596 31.3057 99.3233 30.3986 100.532 30.7526C101.587 31.0623 102.269 31.6597 102.159 32.3013Z" fill="#4941A6"/>
<path d="M169.48 39.824C169.612 37.9656 169.656 36.3284 169.854 34.6912C170.14 32.1912 171.59 31.0408 173.832 31.3948C174.096 31.439 174.514 31.4611 174.602 31.616C175.393 33.2753 176.712 32.7222 177.986 32.5009C178.294 32.4346 178.646 32.501 178.975 32.5452C180.932 32.8328 181.833 33.6956 181.635 35.0231C181.437 36.3284 180.58 36.7487 178.536 36.5496C176.228 36.3284 175.591 36.8594 175.305 39.1602C175.063 41.1071 175.327 43.0098 175.788 44.8903C176.118 46.2399 175.481 46.8815 174.338 47.1691C171.744 47.8107 170.184 46.7266 169.898 44.0496C169.678 42.5894 169.59 41.1071 169.48 39.824Z" fill="#4941A6"/>
</svg>
