<svg width="181" height="40" viewBox="0 0 181 40" fill="none" xmlns="http://www.w3.org/2000/svg">
<rect width="181" height="40" rx="5" fill="#4941A6"/>
<path d="M15.496 28.472C14.74 28.472 14.054 28.332 13.438 28.052C12.8313 27.7813 12.3506 27.394 11.996 26.89C11.6506 26.3953 11.478 25.8307 11.478 25.196C11.478 25 11.492 24.7433 11.52 24.426C11.5573 24.1087 11.5993 23.754 11.646 23.362C11.702 22.97 11.758 22.5733 11.814 22.172C11.8793 21.7707 11.94 21.3833 11.996 21.01L13.298 21.206C13.1953 21.85 13.102 22.4427 13.018 22.984C12.9433 23.516 12.8826 23.9733 12.836 24.356C12.7986 24.7293 12.78 25.0093 12.78 25.196C12.78 25.6067 12.892 25.9707 13.116 26.288C13.34 26.6053 13.6573 26.8527 14.068 27.03C14.4786 27.2167 14.9546 27.31 15.496 27.31C16.0373 27.31 16.4946 27.2213 16.868 27.044C17.2506 26.876 17.54 26.6427 17.736 26.344C17.932 26.0453 18.03 25.6907 18.03 25.28V17.986H19.346V25.28C19.346 25.9427 19.1733 26.512 18.828 26.988C18.4826 27.464 18.0206 27.828 17.442 28.08C16.8633 28.3413 16.2146 28.472 15.496 28.472ZM14.768 17.86V16.502H16.084V17.86H14.768ZM20.9252 25V23.838H27.8412L27.1552 24.538V15.004H28.4572V25H20.9252ZM23.0812 23.838V16.978H24.3832V23.838H23.0812ZM22.3952 16.04L21.8632 15.62L22.5212 14.71H23.3332C23.4359 14.8127 23.5666 14.892 23.7252 14.948C23.8932 15.004 24.0566 15.032 24.2152 15.032C24.3832 15.032 24.5419 15.0087 24.6912 14.962C24.8499 14.906 24.9806 14.8267 25.0832 14.724L25.5172 15.074C25.4239 15.2327 25.3026 15.382 25.1532 15.522C25.0132 15.6527 24.8499 15.7553 24.6632 15.83C24.4859 15.9047 24.2759 15.942 24.0332 15.942C23.8186 15.942 23.6132 15.9093 23.4172 15.844C23.2212 15.7787 23.0486 15.676 22.8992 15.536L22.3952 16.04ZM30.8824 25V15.004H32.1844V25H30.8824ZM43.3144 25V23.838H44.8124V25H43.3144ZM39.8704 28.206C39.5344 28.206 39.1797 28.178 38.8064 28.122C38.4424 28.0753 38.0411 28.0053 37.6024 27.912L37.7984 26.862C38.2931 26.918 38.7037 26.96 39.0304 26.988C39.3571 27.016 39.6371 27.03 39.8704 27.03C40.6171 27.03 41.1584 26.89 41.4944 26.61C41.8397 26.33 42.0124 25.924 42.0124 25.392V18.812L42.5444 19.162H40.3464C39.8517 19.162 39.4644 19.2227 39.1844 19.344C38.9044 19.456 38.7084 19.6847 38.5964 20.03C38.4844 20.366 38.4284 20.8607 38.4284 21.514C38.4284 22.158 38.4844 22.648 38.5964 22.984C38.7084 23.3107 38.8997 23.5347 39.1704 23.656C39.4504 23.7773 39.8424 23.838 40.3464 23.838H42.0124V25H40.3464C39.5344 25 38.8951 24.8787 38.4284 24.636C37.9617 24.384 37.6257 24.0013 37.4204 23.488C37.2244 22.9653 37.1264 22.3073 37.1264 21.514C37.1264 20.7113 37.2244 20.0487 37.4204 19.526C37.6257 19.0033 37.9617 18.616 38.4284 18.364C38.8951 18.112 39.5344 17.986 40.3464 17.986H43.3144V25.378C43.3144 25.9753 43.1744 26.484 42.8944 26.904C42.6144 27.3333 42.2177 27.6553 41.7044 27.87C41.1911 28.094 40.5797 28.206 39.8704 28.206ZM44.8124 25V23.838C44.9337 23.838 45.0084 23.8893 45.0364 23.992C45.0737 24.0947 45.0924 24.2347 45.0924 24.412C45.0924 24.5893 45.0737 24.734 45.0364 24.846C45.0084 24.9487 44.9337 25 44.8124 25ZM44.8105 25V23.838H47.1905L46.5185 24.37V17.986H47.8205V25H44.8105ZM44.8105 25C44.6892 25 44.6145 24.9487 44.5865 24.846C44.5492 24.734 44.5305 24.5893 44.5305 24.412C44.5305 24.2347 44.5492 24.0947 44.5865 23.992C44.6145 23.8893 44.6892 23.838 44.8105 23.838V25ZM45.3705 27.632V26.274H46.6865V27.632H45.3705ZM47.2885 27.632V26.274H48.6045V27.632H47.2885ZM54.9738 25V23.838H56.4858V25H54.9738ZM49.4858 25V23.838H54.6658L53.6718 24.72V21.85C53.6718 21.1687 53.5924 20.632 53.4338 20.24C53.2844 19.848 53.0371 19.5727 52.6918 19.414C52.3464 19.246 51.8798 19.162 51.2918 19.162H50.1578V17.986H51.2918C52.0664 17.986 52.7291 18.112 53.2798 18.364C53.8304 18.6067 54.2504 19.0127 54.5398 19.582C54.8291 20.142 54.9738 20.898 54.9738 21.85V25H49.4858ZM56.4858 25V23.838C56.5978 23.838 56.6724 23.8893 56.7098 23.992C56.7471 24.0947 56.7658 24.2347 56.7658 24.412C56.7658 24.5893 56.7471 24.734 56.7098 24.846C56.6724 24.9487 56.5978 25 56.4858 25ZM59.4963 25V23.838H61.0783V25H59.4963ZM61.0783 25V23.838C61.1997 23.838 61.2743 23.8893 61.3023 23.992C61.3397 24.0947 61.3583 24.2347 61.3583 24.412C61.3583 24.5893 61.3397 24.734 61.3023 24.846C61.2743 24.9487 61.1997 25 61.0783 25ZM56.4863 25V23.838H58.8663L58.1943 24.37V17.986H59.4963V25H56.4863ZM56.4863 25C56.365 25 56.2903 24.9487 56.2623 24.846C56.225 24.734 56.2063 24.5893 56.2063 24.412C56.2063 24.2347 56.225 24.0947 56.2623 23.992C56.2903 23.8893 56.365 23.838 56.4863 23.838V25ZM57.0463 27.632V26.274H58.3623V27.632H57.0463ZM58.9643 27.632V26.274H60.2803V27.632H58.9643ZM68.6261 25V23.838H70.1241V25H68.6261ZM61.0801 25V23.838H67.9961L67.3241 24.426V18.7L67.8701 19.162H65.6581C65.1541 19.162 64.7621 19.2227 64.4821 19.344C64.2021 19.4653 64.0061 19.694 63.8941 20.03C63.7914 20.366 63.7401 20.856 63.7401 21.5C63.7401 22.144 63.7914 22.634 63.8941 22.97C64.0061 23.306 64.2021 23.5347 64.4821 23.656C64.7621 23.7773 65.1541 23.838 65.6581 23.838V24.748C64.8461 24.748 64.2067 24.6453 63.7401 24.44C63.2734 24.2347 62.9374 23.894 62.7321 23.418C62.5361 22.942 62.4381 22.3027 62.4381 21.5C62.4381 20.7067 62.5361 20.0533 62.7321 19.54C62.9374 19.0173 63.2734 18.63 63.7401 18.378C64.2067 18.1167 64.8461 17.986 65.6581 17.986H68.6261V25H61.0801ZM61.0801 25C60.9587 25 60.8841 24.9487 60.8561 24.846C60.8187 24.734 60.8001 24.5893 60.8001 24.412C60.8001 24.2347 60.8187 24.0947 60.8561 23.992C60.8841 23.8893 60.9587 23.838 61.0801 23.838V25ZM70.1241 25V23.838C70.2454 23.838 70.3201 23.8893 70.3481 23.992C70.3854 24.0947 70.4041 24.2347 70.4041 24.412C70.4041 24.5893 70.3854 24.734 70.3481 24.846C70.3201 24.9487 70.2454 25 70.1241 25ZM65.2101 16.726V15.368H66.5261V16.726H65.2101ZM71.7969 25V15.004H73.0989V25H71.7969ZM70.1309 25V23.838H71.7969V25H70.1309ZM70.1309 25C70.0095 25 69.9349 24.9487 69.9069 24.846C69.8695 24.734 69.8509 24.5893 69.8509 24.412C69.8509 24.2347 69.8695 24.0947 69.9069 23.992C69.9349 23.8893 70.0095 23.838 70.1309 23.838V25ZM75.4664 25V15.004H76.7684V25H75.4664ZM84.7729 25V21.682C84.7729 20.786 84.9082 20.0673 85.1789 19.526C85.4496 18.9847 85.8509 18.5927 86.3829 18.35C86.9242 18.1073 87.5916 17.986 88.3849 17.986C89.1876 17.986 89.8549 18.1073 90.3869 18.35C90.9189 18.5927 91.3202 18.9847 91.5909 19.526C91.8616 20.0673 91.9969 20.786 91.9969 21.682V25H84.7729ZM86.0749 24.412L85.4169 23.838H91.3529L90.6949 24.412V21.71C90.6949 21.066 90.6249 20.5573 90.4849 20.184C90.3542 19.8107 90.1162 19.5493 89.7709 19.4C89.4349 19.2413 88.9729 19.162 88.3849 19.162C87.7969 19.162 87.3349 19.2413 86.9989 19.4C86.6629 19.5493 86.4249 19.8107 86.2849 20.184C86.1449 20.5573 86.0749 21.066 86.0749 21.71V24.412ZM86.8029 16.852V15.494H88.1189V16.852H86.8029ZM88.7209 16.852V15.494H90.0369V16.852H88.7209ZM98.6007 25V23.838H100.113V25H98.6007ZM93.1127 25V23.838H98.2927L97.2987 24.72V21.85C97.2987 21.1687 97.2194 20.632 97.0607 20.24C96.9114 19.848 96.6641 19.5727 96.3187 19.414C95.9734 19.246 95.5067 19.162 94.9187 19.162H93.7847V17.986H94.9187C95.6934 17.986 96.3561 18.112 96.9067 18.364C97.4574 18.6067 97.8774 19.0127 98.1667 19.582C98.4561 20.142 98.6007 20.898 98.6007 21.85V25H93.1127ZM100.113 25V23.838C100.225 23.838 100.299 23.8893 100.337 23.992C100.374 24.0947 100.393 24.2347 100.393 24.412C100.393 24.5893 100.374 24.734 100.337 24.846C100.299 24.9487 100.225 25 100.113 25ZM100.113 25V23.838H109.815L108.961 24.552V22.172C108.961 21.3133 108.831 20.6133 108.569 20.072C108.317 19.5307 107.93 19.134 107.407 18.882C106.894 18.6207 106.241 18.49 105.447 18.49C105.102 18.49 104.733 18.5087 104.341 18.546C103.949 18.574 103.562 18.616 103.179 18.672C102.797 18.7187 102.447 18.7653 102.129 18.812L101.961 17.874C102.204 17.8087 102.517 17.734 102.899 17.65C103.291 17.5567 103.716 17.4773 104.173 17.412C104.64 17.3467 105.093 17.314 105.531 17.314C106.129 17.314 106.707 17.3933 107.267 17.552C107.837 17.7107 108.341 17.9767 108.779 18.35C109.227 18.714 109.582 19.2087 109.843 19.834C110.114 20.4593 110.249 21.2387 110.249 22.172V25H100.113ZM101.723 23.838V22.83C101.723 22.382 101.835 21.9667 102.059 21.584C102.283 21.2013 102.591 20.8933 102.983 20.66C103.385 20.4267 103.828 20.31 104.313 20.31C104.808 20.31 105.247 20.4267 105.629 20.66C106.021 20.8933 106.329 21.2013 106.553 21.584C106.777 21.9667 106.889 22.382 106.889 22.83V23.838H105.685V22.83C105.685 22.55 105.62 22.3027 105.489 22.088C105.368 21.8733 105.205 21.7053 104.999 21.584C104.803 21.4533 104.575 21.388 104.313 21.388C104.061 21.388 103.828 21.4533 103.613 21.584C103.408 21.7053 103.24 21.878 103.109 22.102C102.979 22.3167 102.913 22.5593 102.913 22.83V23.838H101.723ZM100.113 25C99.9919 25 99.9173 24.9487 99.8893 24.846C99.8519 24.734 99.8333 24.5893 99.8333 24.412C99.8333 24.2347 99.8519 24.0947 99.8893 23.992C99.9173 23.8893 99.9919 23.838 100.113 23.838V25ZM113.901 25V23.838H115.581V25H113.901ZM112.599 25V15.004H113.901V25H112.599ZM115.581 25V23.838C115.693 23.838 115.768 23.8893 115.805 23.992C115.843 24.0947 115.861 24.2347 115.861 24.412C115.861 24.5893 115.843 24.734 115.805 24.846C115.768 24.9487 115.693 25 115.581 25ZM126.44 25V23.838H127.938V25H126.44ZM123.178 25C122.842 25 122.511 24.9393 122.184 24.818C121.867 24.6873 121.564 24.4867 121.274 24.216L122.1 23.348C122.306 23.516 122.492 23.642 122.66 23.726C122.828 23.8007 123.001 23.838 123.178 23.838H125.712L125.138 24.398V21.122C125.138 20.954 125.12 20.7207 125.082 20.422C125.054 20.114 125.008 19.7687 124.942 19.386C124.886 18.994 124.816 18.5973 124.732 18.196L126.006 17.986C126.072 18.322 126.137 18.6907 126.202 19.092C126.268 19.4933 126.324 19.876 126.37 20.24C126.417 20.604 126.44 20.898 126.44 21.122V25H123.178ZM115.576 25V23.838H117.62L117.298 24.16V19.4H118.6V25H115.576ZM118.6 25V23.838H120.056C120.374 23.838 120.612 23.7913 120.77 23.698C120.929 23.6047 121.041 23.418 121.106 23.138C121.172 22.858 121.204 22.4473 121.204 21.906V18.7H122.52V21.906C122.52 22.662 122.432 23.2687 122.254 23.726C122.086 24.1833 121.825 24.51 121.47 24.706C121.116 24.902 120.644 25 120.056 25H118.6ZM115.576 25C115.455 25 115.38 24.9487 115.352 24.846C115.315 24.734 115.296 24.5893 115.296 24.412C115.296 24.2347 115.315 24.0947 115.352 23.992C115.38 23.8893 115.455 23.838 115.576 23.838V25ZM127.938 25V23.838C128.06 23.838 128.134 23.8893 128.162 23.992C128.2 24.0947 128.218 24.2347 128.218 24.412C128.218 24.5893 128.2 24.734 128.162 24.846C128.134 24.9487 128.06 25 127.938 25ZM121.274 14.794V13.548H122.45V14.794H121.274ZM120.168 16.726V15.368H121.456V16.726H120.168ZM122.254 16.726V15.368H123.542V16.726H122.254ZM127.936 25V23.838H135.482L134.656 24.454V21.556C134.656 20.94 134.586 20.4593 134.446 20.114C134.315 19.7687 134.082 19.5213 133.746 19.372C133.41 19.2227 132.952 19.148 132.374 19.148C131.982 19.148 131.594 19.176 131.212 19.232C130.829 19.288 130.53 19.3627 130.316 19.456L131.114 18.672C131.058 18.8867 131.002 19.162 130.946 19.498C130.89 19.834 130.843 20.198 130.806 20.59C130.768 20.9727 130.75 21.3553 130.75 21.738C130.75 22.1207 130.768 22.4987 130.806 22.872C130.843 23.2453 130.885 23.572 130.932 23.852C130.978 24.132 131.016 24.3233 131.044 24.426L129.798 24.776C129.76 24.6547 129.714 24.4447 129.658 24.146C129.611 23.8473 129.564 23.488 129.518 23.068C129.48 22.648 129.462 22.2047 129.462 21.738C129.462 21.2807 129.48 20.8373 129.518 20.408C129.564 19.9693 129.616 19.5727 129.672 19.218C129.737 18.8633 129.798 18.5787 129.854 18.364C130.068 18.28 130.4 18.196 130.848 18.112C131.305 18.028 131.814 17.986 132.374 17.986C133.167 17.986 133.83 18.1027 134.362 18.336C134.903 18.5693 135.304 18.9473 135.566 19.47C135.836 19.9833 135.972 20.6787 135.972 21.556V25H127.936ZM127.936 25C127.814 25 127.74 24.9487 127.712 24.846C127.674 24.734 127.656 24.5893 127.656 24.412C127.656 24.2347 127.674 24.0947 127.712 23.992C127.74 23.8893 127.814 23.838 127.936 23.838V25Z" fill="white"/>
<path d="M165 12H153C150.791 12 149 13.7909 149 16V24C149 26.2091 150.791 28 153 28H165C167.209 28 169 26.2091 169 24V16C169 13.7909 167.209 12 165 12Z" stroke="white" stroke-width="2" stroke-linecap="round" stroke-linejoin="round"/>
<path d="M162 20L157 17V23L162 20Z" stroke="white" stroke-width="2" stroke-linecap="round" stroke-linejoin="round"/>
</svg>
