<svg width="168" height="37" viewBox="0 0 168 37" fill="none" xmlns="http://www.w3.org/2000/svg">
<path d="M5.88891 26C4.75557 26 3.82224 25.82 3.08891 25.46C2.35557 25.1 1.80891 24.5533 1.44891 23.82C1.10224 23.0867 0.928906 22.16 0.928906 21.04C0.928906 19.92 1.10224 18.9867 1.44891 18.24C1.80891 17.48 2.35557 16.9133 3.08891 16.54C3.82224 16.1533 4.75557 15.96 5.88891 15.96H10.4089V24.74H7.72891V17.7L8.38891 18.28H5.88891C5.34224 18.28 4.90224 18.3467 4.56891 18.48C4.23557 18.6 3.98891 18.86 3.82891 19.26C3.68224 19.6467 3.60891 20.24 3.60891 21.04C3.60891 21.8 3.67557 22.3733 3.80891 22.76C3.95557 23.1333 4.19557 23.38 4.52891 23.5C4.86224 23.62 5.31557 23.68 5.88891 23.68H12.5089V26H5.88891ZM12.5089 26V23.68C12.6689 23.68 12.7756 23.7867 12.8289 24C12.8822 24.2 12.9089 24.48 12.9089 24.84C12.9089 25.1867 12.8822 25.4667 12.8289 25.68C12.7756 25.8933 12.6689 26 12.5089 26ZM3.44891 14.76V12.48H6.12891V14.76H3.44891ZM6.18891 14.76V12.48H8.86891V14.76H6.18891ZM12.5117 26V23.68H21.8517L21.0317 24.38V17.7L21.7117 18.28H19.1917C18.6051 18.28 18.1451 18.3533 17.8117 18.5C17.4784 18.6467 17.2451 18.92 17.1117 19.32C16.9784 19.7067 16.9117 20.26 16.9117 20.98C16.9117 21.7667 16.9784 22.3533 17.1117 22.74C17.2451 23.1133 17.4784 23.3667 17.8117 23.5C18.1451 23.62 18.6051 23.68 19.1917 23.68V25.76C18.0584 25.76 17.1251 25.6 16.3917 25.28C15.6584 24.96 15.1117 24.4533 14.7517 23.76C14.4051 23.0533 14.2317 22.1267 14.2317 20.98C14.2317 19.8867 14.4051 18.9667 14.7517 18.22C15.1117 17.4733 15.6584 16.9133 16.3917 16.54C17.1251 16.1533 18.0584 15.96 19.1917 15.96H23.7117V26H12.5117ZM12.5117 26C12.3517 26 12.2451 25.8933 12.1917 25.68C12.1384 25.4667 12.1117 25.1867 12.1117 24.84C12.1117 24.48 12.1384 24.2 12.1917 24C12.2451 23.7867 12.3517 23.68 12.5117 23.68V26ZM17.1517 14.76V12.48H19.8317V14.76H17.1517ZM19.8917 14.76V12.48H22.5717V14.76H19.8917ZM29.5694 26V23.68H31.8494V26H29.5694ZM26.9094 26V11.86H29.5694V26H26.9094ZM31.8494 26V23.68C32.0094 23.68 32.116 23.7867 32.1694 24C32.2227 24.2 32.2494 24.48 32.2494 24.84C32.2494 25.1867 32.2227 25.4667 32.1694 25.68C32.116 25.8933 32.0094 26 31.8494 26ZM36.6277 26V23.68H38.7277V26H36.6277ZM31.8477 26V23.68H35.5077L33.9477 24.98V15.96H36.6277V26H31.8477ZM31.8477 26C31.6877 26 31.581 25.8933 31.5277 25.68C31.4743 25.4667 31.4477 25.1867 31.4477 24.84C31.4477 24.48 31.4743 24.2 31.5277 24C31.581 23.7867 31.6877 23.68 31.8477 23.68V26ZM38.7277 26V23.68C38.8877 23.68 38.9943 23.7867 39.0477 24C39.101 24.2 39.1277 24.48 39.1277 24.84C39.1277 25.1867 39.101 25.4667 39.0477 25.68C38.9943 25.8933 38.8877 26 38.7277 26ZM33.9477 30.26V27.98H36.6277V30.26H33.9477ZM40.9827 26V11.86H43.6627V26H40.9827ZM38.7227 26V23.68H40.9827V26H38.7227ZM38.7227 26C38.5627 26 38.456 25.8933 38.4027 25.68C38.3493 25.4667 38.3227 25.1867 38.3227 24.84C38.3227 24.48 38.3493 24.2 38.4027 24C38.456 23.7867 38.5627 23.68 38.7227 23.68V26ZM46.8703 26V11.86H49.5303V26H46.8703ZM68.2953 26V23.68H70.3953V26H68.2953ZM62.5353 30.96C61.3753 30.96 60.3353 30.7467 59.4153 30.32C58.5086 29.9067 57.7953 29.3267 57.2753 28.58C56.7553 27.8333 56.4953 26.9867 56.4953 26.04C56.4953 25.7733 56.5153 25.42 56.5553 24.98C56.5953 24.54 56.6486 24.0467 56.7153 23.5C56.7953 22.9533 56.8753 22.4 56.9553 21.84C57.0486 21.2667 57.1353 20.7133 57.2153 20.18L59.8553 20.54C59.7086 21.4333 59.582 22.2533 59.4753 23C59.382 23.7333 59.3086 24.36 59.2553 24.88C59.202 25.4 59.1753 25.78 59.1753 26.02C59.1753 26.5533 59.3086 27.0133 59.5753 27.4C59.842 27.7867 60.222 28.0867 60.7153 28.3C61.222 28.5267 61.8286 28.64 62.5353 28.64C63.2686 28.64 63.862 28.5333 64.3153 28.32C64.7686 28.1067 65.0953 27.8133 65.2953 27.44C65.5086 27.0667 65.6153 26.6467 65.6153 26.18V11.86H68.2953V26.18C68.2953 27.14 68.042 27.98 67.5353 28.7C67.042 29.42 66.362 29.9733 65.4953 30.36C64.6286 30.76 63.642 30.96 62.5353 30.96ZM70.3953 26V23.68C70.5553 23.68 70.662 23.7867 70.7153 24C70.7686 24.2 70.7953 24.48 70.7953 24.84C70.7953 25.1867 70.7686 25.4667 70.7153 25.68C70.662 25.8933 70.5553 26 70.3953 26ZM76.2423 26V23.68H78.7423V26H76.2423ZM78.7423 26V23.68C78.9023 23.68 79.009 23.7867 79.0623 24C79.1157 24.2 79.1423 24.48 79.1423 24.84C79.1423 25.1867 79.1157 25.4667 79.0623 25.68C79.009 25.8933 78.9023 26 78.7423 26ZM70.4023 26V23.68H75.1423L73.5823 24.98V15.96H76.2423V26H70.4023ZM70.4023 26C70.2423 26 70.1357 25.8933 70.0823 25.68C70.029 25.4667 70.0023 25.1867 70.0023 24.84C70.0023 24.48 70.029 24.2 70.0823 24C70.1357 23.7867 70.2423 23.68 70.4023 23.68V26ZM71.2023 30.16V27.88H73.8823V30.16H71.2023ZM73.9423 30.16V27.88H76.6223V30.16H73.9423ZM78.7422 26V23.68H93.8622L91.6022 25.64V21.44C91.6022 20.68 91.5022 20.0733 91.3022 19.62C91.1022 19.1533 90.8089 18.8133 90.4222 18.6C90.0489 18.3867 89.5955 18.28 89.0622 18.28C88.4889 18.28 87.9422 18.3933 87.4222 18.62C86.9155 18.8467 86.4422 19.14 86.0022 19.5C85.5622 19.86 85.1555 20.2467 84.7822 20.66C84.4089 21.0733 84.0755 21.4733 83.7822 21.86C83.4889 22.2333 83.2355 22.5533 83.0222 22.82L82.4222 20.88C82.9422 20.2533 83.4089 19.68 83.8222 19.16C84.2355 18.64 84.6289 18.18 85.0022 17.78C85.3889 17.38 85.7889 17.0467 86.2022 16.78C86.6289 16.5133 87.0889 16.3133 87.5822 16.18C88.0889 16.0333 88.6755 15.96 89.3422 15.96C90.2355 15.96 90.9955 16.1133 91.6222 16.42C92.2489 16.7133 92.7555 17.12 93.1422 17.64C93.5422 18.16 93.8289 18.7467 94.0022 19.4C94.1889 20.0533 94.2822 20.7333 94.2822 21.44V26H78.7422ZM81.2622 23.68V15.96H83.9422V23.68H81.2622ZM78.7422 26C78.5822 26 78.4755 25.8933 78.4222 25.68C78.3689 25.4667 78.3422 25.1867 78.3422 24.84C78.3422 24.48 78.3689 24.2 78.4222 24C78.4755 23.7867 78.5822 23.68 78.7422 23.68V26ZM100.116 26V23.68H102.396V26H100.116ZM97.4563 26V11.86H100.116V26H97.4563ZM102.396 26V23.68C102.556 23.68 102.663 23.7867 102.716 24C102.77 24.2 102.796 24.48 102.796 24.84C102.796 25.1867 102.77 25.4667 102.716 25.68C102.663 25.8933 102.556 26 102.396 26ZM113.595 26V23.68H115.695V26H113.595ZM102.395 26V23.68H111.735L110.915 24.38V17.7L111.595 18.28H109.075C108.488 18.28 108.028 18.3533 107.695 18.5C107.361 18.6467 107.128 18.92 106.995 19.32C106.861 19.7067 106.795 20.26 106.795 20.98C106.795 21.7667 106.861 22.3533 106.995 22.74C107.128 23.1133 107.361 23.3667 107.695 23.5C108.028 23.62 108.488 23.68 109.075 23.68V25.76C107.941 25.76 107.008 25.6 106.275 25.28C105.541 24.96 104.995 24.4533 104.635 23.76C104.288 23.0533 104.115 22.1267 104.115 20.98C104.115 19.8867 104.288 18.9667 104.635 18.22C104.995 17.4733 105.541 16.9133 106.275 16.54C107.008 16.1533 107.941 15.96 109.075 15.96H113.595V26H102.395ZM102.395 26C102.235 26 102.128 25.8933 102.075 25.68C102.021 25.4667 101.995 25.1867 101.995 24.84C101.995 24.48 102.021 24.2 102.075 24C102.128 23.7867 102.235 23.68 102.395 23.68V26ZM115.695 26V23.68C115.855 23.68 115.961 23.7867 116.015 24C116.068 24.2 116.095 24.48 116.095 24.84C116.095 25.1867 116.068 25.4667 116.015 25.68C115.961 25.8933 115.855 26 115.695 26ZM108.015 14.12V11.84H110.695V14.12H108.015ZM115.695 26V23.68H120.435L118.875 24.98V15.96H121.535V26H115.695ZM115.695 26C115.535 26 115.429 25.8933 115.375 25.68C115.322 25.4667 115.295 25.1867 115.295 24.84C115.295 24.48 115.322 24.2 115.375 24C115.429 23.7867 115.535 23.68 115.695 23.68V26ZM116.495 14.76V12.48H119.175V14.76H116.495ZM119.235 14.76V12.48H121.915V14.76H119.235Z" fill="white"/>
<path d="M165.25 23.3125H154.25M165.25 27.4375H154.25M159.75 31.5625H154.25M144.625 10.9375H158.031C160.928 10.9375 162.376 10.9375 163.417 11.6333C163.867 11.934 164.253 12.3204 164.554 12.7704C165.25 13.8113 165.25 15.6029 165.25 18.5M151.5 10.9375L150.63 9.19537C149.908 7.75162 149.248 6.29962 147.649 5.70012C146.949 5.4375 146.148 5.4375 144.548 5.4375C142.051 5.4375 140.803 5.4375 139.865 5.96C139.197 6.33281 138.645 6.8841 138.273 7.55225C137.75 8.49 137.75 9.7385 137.75 12.2355V16.4375C137.75 22.9193 137.75 26.1601 139.763 28.1731C141.55 29.9606 144.306 30.1627 149.438 30.1847" stroke="#4941A6" stroke-width="2.0625" stroke-linecap="round" stroke-linejoin="round"/>
</svg>
