<svg width="19" height="21" viewBox="0 0 19 21" fill="none" xmlns="http://www.w3.org/2000/svg">
<g clip-path="url(#clip0_1_16417)">
<path d="M3.16699 18.446H14.2503C14.6703 18.446 15.073 18.2704 15.3699 17.9578C15.6668 17.6452 15.8337 17.2213 15.8337 16.7793V5.94596L11.8753 1.7793H4.75033C4.3304 1.7793 3.92767 1.95489 3.63074 2.26745C3.33381 2.58001 3.16699 3.00394 3.16699 3.44596V6.7793" stroke="#4941A6" stroke-width="2" stroke-linecap="round" stroke-linejoin="round"/>
<path d="M11.0835 1.7793V5.11263C11.0835 5.55466 11.2503 5.97858 11.5472 6.29114C11.8442 6.6037 12.2469 6.7793 12.6668 6.7793H15.8335M1.5835 12.6126H9.50016M9.50016 12.6126L7.12516 15.1126M9.50016 12.6126L7.12516 10.1126" stroke="#4941A6" stroke-width="2" stroke-linecap="round" stroke-linejoin="round"/>
</g>
<defs>
<clipPath id="clip0_1_16417">
<rect width="19" height="20" fill="white" transform="translate(0 0.112305)"/>
</clipPath>
</defs>
</svg>
