<svg width="19" height="21" viewBox="0 0 19 21" fill="none" xmlns="http://www.w3.org/2000/svg">
<path d="M3.17188 18.9665H14.2552C14.6751 18.9665 15.0779 18.7909 15.3748 18.4783C15.6717 18.1658 15.8385 17.7418 15.8385 17.2998V6.46647L11.8802 2.2998H4.75521C4.33528 2.2998 3.93256 2.4754 3.63562 2.78796C3.33869 3.10052 3.17188 3.52444 3.17188 3.96647V7.2998" stroke="#FF7380" stroke-width="2" stroke-linecap="round" stroke-linejoin="round"/>
<path d="M11.0859 2.2998V5.63314C11.0859 6.07517 11.2528 6.49909 11.5497 6.81165C11.8466 7.12421 12.2493 7.2998 12.6693 7.2998H15.8359M1.58594 13.1331H9.5026M9.5026 13.1331L7.1276 15.6331M9.5026 13.1331L7.1276 10.6331" stroke="#FF7380" stroke-width="2" stroke-linecap="round" stroke-linejoin="round"/>
</svg>
