<svg width="18" height="19" viewBox="0 0 18 19" fill="none" xmlns="http://www.w3.org/2000/svg">
<g clip-path="url(#clip0_2144_796)">
<path d="M0 9.42334C0 7.03639 0.948212 4.74721 2.63604 3.05938C4.32387 1.37155 6.61305 0.42334 9 0.42334C11.3869 0.42334 13.6761 1.37155 15.364 3.05938C17.0518 4.74721 18 7.03639 18 9.42334C18 11.8103 17.0518 14.0995 15.364 15.7873C13.6761 17.4751 11.3869 18.4233 9 18.4233C6.61305 18.4233 4.32387 17.4751 2.63604 15.7873C0.948212 14.0995 0 11.8103 0 9.42334ZM9 2.11084C7.0606 2.11084 5.20064 2.88126 3.82928 4.25262C2.45792 5.62398 1.6875 7.48394 1.6875 9.42334C1.6875 11.3627 2.45792 13.2227 3.82928 14.5941C5.20064 15.9654 7.0606 16.7358 9 16.7358C10.9394 16.7358 12.7994 15.9654 14.1707 14.5941C15.5421 13.2227 16.3125 11.3627 16.3125 9.42334C16.3125 7.48394 15.5421 5.62398 14.1707 4.25262C12.7994 2.88126 10.9394 2.11084 9 2.11084ZM7.785 7.26896C7.68505 7.46917 7.51078 7.62147 7.29854 7.69236C7.08629 7.76325 6.85458 7.74692 6.65438 7.64697C6.45417 7.54701 6.30187 7.37162 6.23098 7.15938C6.16009 6.94713 6.17642 6.71542 6.27637 6.51521C6.4665 6.13384 6.76687 5.72659 7.2315 5.41609C7.70062 5.10334 8.29012 4.92334 9 4.92334C9.66115 4.91882 10.3064 5.12577 10.8416 5.51397C11.4075 5.93809 11.8125 6.59959 11.8125 7.45459C11.8125 7.95859 11.6831 8.38834 11.4424 8.74834C11.2117 9.09371 10.9136 9.32547 10.6639 9.49309C10.5413 9.57409 10.4164 9.64834 10.3118 9.71247L10.305 9.71696C10.206 9.77457 10.1085 9.83459 10.0125 9.89696C9.89201 9.96771 9.78653 10.0613 9.702 10.1726C9.57674 10.3561 9.38416 10.4828 9.16607 10.5251C8.94798 10.5675 8.72197 10.5222 8.53712 10.3989C8.35226 10.2757 8.22347 10.0845 8.1787 9.86689C8.13393 9.64928 8.1768 9.42279 8.298 9.23659C8.505 8.93959 8.7705 8.68646 9.0765 8.49296C9.19238 8.41759 9.30937 8.34447 9.42862 8.27359L9.4365 8.26909C9.549 8.20046 9.64125 8.14534 9.72675 8.08797C9.84736 8.01695 9.95316 7.92337 10.0384 7.81234C10.08 7.75159 10.125 7.65371 10.125 7.45459C10.1293 7.33933 10.1045 7.22485 10.053 7.12165C10.0015 7.01845 9.92492 6.92985 9.83025 6.86396C9.58645 6.69553 9.2963 6.60708 9 6.61084C8.58488 6.61084 8.33063 6.71209 8.1675 6.82121C8.00287 6.93426 7.87094 7.08869 7.785 7.26896ZM10.125 12.7983C10.125 13.0967 10.0065 13.3829 9.7955 13.5938C9.58452 13.8048 9.29837 13.9233 9 13.9233C8.70163 13.9233 8.41548 13.8048 8.2045 13.5938C7.99353 13.3829 7.875 13.0967 7.875 12.7983C7.875 12.5 7.99353 12.2138 8.2045 12.0028C8.41548 11.7919 8.70163 11.6733 9 11.6733C9.29837 11.6733 9.58452 11.7919 9.7955 12.0028C10.0065 12.2138 10.125 12.5 10.125 12.7983Z" fill="#4941A6"/>
</g>
<defs>
<clipPath id="clip0_2144_796">
<rect width="18" height="18" fill="white" transform="translate(0 0.42334)"/>
</clipPath>
</defs>
</svg>
