<svg width="18" height="19" viewBox="0 0 18 19" fill="none" xmlns="http://www.w3.org/2000/svg">
<g clip-path="url(#clip0_2133_664)">
<path d="M0 9.6333C0 7.24635 0.948212 4.95717 2.63604 3.26934C4.32387 1.58151 6.61305 0.633301 9 0.633301C11.3869 0.633301 13.6761 1.58151 15.364 3.26934C17.0518 4.95717 18 7.24635 18 9.6333C18 12.0202 17.0518 14.3094 15.364 15.9973C13.6761 17.6851 11.3869 18.6333 9 18.6333C6.61305 18.6333 4.32387 17.6851 2.63604 15.9973C0.948212 14.3094 0 12.0202 0 9.6333ZM9 2.3208C7.0606 2.3208 5.20064 3.09122 3.82928 4.46258C2.45792 5.83394 1.6875 7.69391 1.6875 9.6333C1.6875 11.5727 2.45792 13.4327 3.82928 14.804C5.20064 16.1754 7.0606 16.9458 9 16.9458C10.9394 16.9458 12.7994 16.1754 14.1707 14.804C15.5421 13.4327 16.3125 11.5727 16.3125 9.6333C16.3125 7.69391 15.5421 5.83394 14.1707 4.46258C12.7994 3.09122 10.9394 2.3208 9 2.3208ZM7.785 7.47893C7.68505 7.67913 7.51078 7.83143 7.29854 7.90232C7.08629 7.97321 6.85458 7.95688 6.65438 7.85693C6.45417 7.75697 6.30187 7.58158 6.23098 7.36934C6.16009 7.15709 6.17642 6.92538 6.27637 6.72518C6.4665 6.3438 6.76687 5.93655 7.2315 5.62605C7.70062 5.3133 8.29012 5.1333 9 5.1333C9.66115 5.12878 10.3064 5.33573 10.8416 5.72393C11.4075 6.14805 11.8125 6.80955 11.8125 7.66455C11.8125 8.16855 11.6831 8.5983 11.4424 8.9583C11.2117 9.30368 10.9136 9.53543 10.6639 9.70305C10.5413 9.78405 10.4164 9.8583 10.3118 9.92243L10.305 9.92693C10.206 9.98453 10.1085 10.0445 10.0125 10.1069C9.89201 10.1777 9.78653 10.2713 9.702 10.3826C9.57674 10.566 9.38416 10.6927 9.16607 10.7351C8.94798 10.7775 8.72197 10.7321 8.53712 10.6089C8.35226 10.4856 8.22347 10.2945 8.1787 10.0769C8.13393 9.85924 8.1768 9.63275 8.298 9.44655C8.505 9.14955 8.7705 8.89643 9.0765 8.70293C9.19238 8.62755 9.30937 8.55443 9.42862 8.48355L9.4365 8.47905C9.549 8.41043 9.64125 8.3553 9.72675 8.29793C9.84736 8.22691 9.95316 8.13333 10.0384 8.0223C10.08 7.96155 10.125 7.86368 10.125 7.66455C10.1293 7.54929 10.1045 7.43481 10.053 7.33161C10.0015 7.22841 9.92492 7.13981 9.83025 7.07393C9.58645 6.90549 9.2963 6.81704 9 6.8208C8.58488 6.8208 8.33063 6.92205 8.1675 7.03118C8.00287 7.14422 7.87094 7.29866 7.785 7.47893ZM10.125 13.0083C10.125 13.3067 10.0065 13.5928 9.7955 13.8038C9.58452 14.0148 9.29837 14.1333 9 14.1333C8.70163 14.1333 8.41548 14.0148 8.2045 13.8038C7.99353 13.5928 7.875 13.3067 7.875 13.0083C7.875 12.7099 7.99353 12.4238 8.2045 12.2128C8.41548 12.0018 8.70163 11.8833 9 11.8833C9.29837 11.8833 9.58452 12.0018 9.7955 12.2128C10.0065 12.4238 10.125 12.7099 10.125 13.0083Z" fill="#FF7380"/>
</g>
<defs>
<clipPath id="clip0_2133_664">
<rect width="18" height="18" fill="white" transform="translate(0 0.633301)"/>
</clipPath>
</defs>
</svg>
