<svg width="22" height="24" viewBox="0 0 22 24" fill="none" xmlns="http://www.w3.org/2000/svg">
<path d="M19.25 4.9458H2.75C2.56766 4.9458 2.3928 5.02153 2.26386 5.15632C2.13493 5.29111 2.0625 5.47393 2.0625 5.66455V17.8833C2.0625 18.2645 2.20737 18.6302 2.46523 18.8998C2.72309 19.1693 3.07283 19.3208 3.4375 19.3208H18.5625C18.9272 19.3208 19.2769 19.1693 19.5348 18.8998C19.7926 18.6302 19.9375 18.2645 19.9375 17.8833V5.66455C19.9375 5.47393 19.8651 5.29111 19.7361 5.15632C19.6072 5.02153 19.4323 4.9458 19.25 4.9458ZM3.4375 10.6958H6.875V13.5708H3.4375V10.6958ZM8.25 10.6958H18.5625V13.5708H8.25V10.6958ZM18.5625 6.3833V9.2583H3.4375V6.3833H18.5625ZM3.4375 15.0083H6.875V17.8833H3.4375V15.0083ZM18.5625 17.8833H8.25V15.0083H18.5625V17.8833Z" fill="#FF7380"/>
</svg>
