<svg width="14" height="14" viewBox="0 0 14 14" fill="none" xmlns="http://www.w3.org/2000/svg">
<path d="M7 14C3.1339 14 0 10.8661 0 7C0 3.1339 3.1339 0 7 0C10.8661 0 14 3.1339 14 7C14 10.8661 10.8661 14 7 14ZM7 12.6C8.48521 12.6 9.90959 12.01 10.9598 10.9598C12.01 9.90959 12.6 8.48521 12.6 7C12.6 5.51479 12.01 4.09041 10.9598 3.0402C9.90959 1.99 8.48521 1.4 7 1.4C5.51479 1.4 4.09041 1.99 3.0402 3.0402C1.99 4.09041 1.4 5.51479 1.4 7C1.4 8.48521 1.99 9.90959 3.0402 10.9598C4.09041 12.01 5.51479 12.6 7 12.6ZM7.7 5.95V9.1H8.4V10.5H5.6V9.1H6.3V7.35H5.6V5.95H7.7ZM8.05 4.2C8.05 4.47848 7.93938 4.74555 7.74246 4.94246C7.54555 5.13938 7.27848 5.25 7 5.25C6.72152 5.25 6.45445 5.13938 6.25754 4.94246C6.06062 4.74555 5.95 4.47848 5.95 4.2C5.95 3.92152 6.06062 3.65445 6.25754 3.45754C6.45445 3.26062 6.72152 3.15 7 3.15C7.27848 3.15 7.54555 3.26062 7.74246 3.45754C7.93938 3.65445 8.05 3.92152 8.05 4.2Z" fill="#FF8A00"/>
</svg>
