<svg width="20" height="18" viewBox="0 0 20 18" fill="none" xmlns="http://www.w3.org/2000/svg">
<path d="M19.25 8.53955C19.2507 7.71413 19.0572 6.9012 18.6865 6.17244C18.3157 5.44367 17.7792 4.82146 17.1242 4.36066C16.4691 3.89985 15.7157 3.61462 14.9303 3.53009C14.1449 3.44557 13.3517 3.56436 12.6206 3.87598C11.8895 4.18761 11.243 4.6825 10.738 5.31702C10.233 5.95154 9.88516 6.7062 9.72502 7.51447C9.56489 8.32273 9.59743 9.15977 9.81978 9.95178C10.0421 10.7438 10.4474 11.4664 11 12.056V17.1646C10.9999 17.2871 11.0298 17.4077 11.0869 17.5148C11.1439 17.6219 11.2262 17.7119 11.3259 17.7764C11.4257 17.8409 11.5395 17.8776 11.6566 17.8831C11.7738 17.8886 11.8903 17.8627 11.9952 17.8078L14.4375 16.5303L16.8798 17.8078C16.9847 17.8627 17.1012 17.8886 17.2184 17.8831C17.3355 17.8776 17.4493 17.8409 17.5491 17.7764C17.6488 17.7119 17.7311 17.6219 17.7881 17.5148C17.8452 17.4077 17.8751 17.2871 17.875 17.1646V12.056C18.7568 11.1178 19.2506 9.85489 19.25 8.53955ZM14.4375 4.9458C15.1174 4.9458 15.782 5.15657 16.3473 5.55146C16.9126 5.94634 17.3532 6.50761 17.6133 7.16428C17.8735 7.82095 17.9416 8.54354 17.809 9.24066C17.6763 9.93778 17.3489 10.5781 16.8682 11.0807C16.3874 11.5833 15.7749 11.9256 15.1081 12.0642C14.4413 12.2029 13.7501 12.1317 13.122 11.8597C12.4939 11.5877 11.957 11.1271 11.5793 10.5361C11.2016 9.94514 11 9.25033 11 8.53955C11 7.58643 11.3622 6.67234 12.0068 5.99839C12.6515 5.32443 13.5258 4.9458 14.4375 4.9458ZM14.7452 15.0838C14.6496 15.0338 14.5443 15.0078 14.4375 15.0078C14.3307 15.0078 14.2254 15.0338 14.1298 15.0838L12.375 16.002V13.0847C13.0195 13.4048 13.724 13.5708 14.4375 13.5708C15.151 13.5708 15.8555 13.4048 16.5 13.0847V16.002L14.7452 15.0838ZM9.625 14.2896C9.625 14.4802 9.55257 14.663 9.42364 14.7978C9.29471 14.9326 9.11984 15.0083 8.9375 15.0083H1.375C1.01033 15.0083 0.660591 14.8568 0.402728 14.5873C0.144866 14.3177 0 13.952 0 13.5708V2.0708C0 1.68955 0.144866 1.32392 0.402728 1.05433C0.660591 0.784751 1.01033 0.633301 1.375 0.633301H16.5C16.8647 0.633301 17.2144 0.784751 17.4723 1.05433C17.7301 1.32392 17.875 1.68955 17.875 2.0708C17.875 2.26143 17.8026 2.44424 17.6736 2.57903C17.5447 2.71383 17.3698 2.78955 17.1875 2.78955C17.0052 2.78955 16.8303 2.71383 16.7014 2.57903C16.5724 2.44424 16.5 2.26143 16.5 2.0708H1.375V13.5708H8.9375C9.11984 13.5708 9.29471 13.6465 9.42364 13.7813C9.55257 13.9161 9.625 14.0989 9.625 14.2896ZM8.25 9.2583C8.25 9.44893 8.17757 9.63174 8.04864 9.76653C7.91971 9.90133 7.74484 9.97705 7.5625 9.97705H4.125C3.94266 9.97705 3.7678 9.90133 3.63886 9.76653C3.50993 9.63174 3.4375 9.44893 3.4375 9.2583C3.4375 9.06768 3.50993 8.88486 3.63886 8.75007C3.7678 8.61528 3.94266 8.53955 4.125 8.53955H7.5625C7.74484 8.53955 7.91971 8.61528 8.04864 8.75007C8.17757 8.88486 8.25 9.06768 8.25 9.2583ZM8.25 6.3833C8.25 6.57393 8.17757 6.75674 8.04864 6.89153C7.91971 7.02633 7.74484 7.10205 7.5625 7.10205H4.125C3.94266 7.10205 3.7678 7.02633 3.63886 6.89153C3.50993 6.75674 3.4375 6.57393 3.4375 6.3833C3.4375 6.19268 3.50993 6.00986 3.63886 5.87507C3.7678 5.74028 3.94266 5.66455 4.125 5.66455H7.5625C7.74484 5.66455 7.91971 5.74028 8.04864 5.87507C8.17757 6.00986 8.25 6.19268 8.25 6.3833Z" fill="#FF7380"/>
</svg>
