<svg width="31" height="29" viewBox="0 0 31 29" fill="none" xmlns="http://www.w3.org/2000/svg">
<path d="M29.25 19.3125H18.25M29.25 23.4375H18.25M23.75 27.5625H18.25M8.625 6.9375H22.0312C24.9284 6.9375 26.3762 6.9375 27.4171 7.63325C27.8671 7.93402 28.2535 8.3204 28.5542 8.77038C29.25 9.81125 29.25 11.6029 29.25 14.5M15.5 6.9375L14.6296 5.19537C13.9077 3.75162 13.2478 2.29962 11.6486 1.70012C10.9488 1.4375 10.1485 1.4375 8.548 1.4375C6.051 1.4375 4.8025 1.4375 3.86475 1.96C3.1966 2.33281 2.64531 2.8841 2.2725 3.55225C1.75 4.49 1.75 5.7385 1.75 8.2355V12.4375C1.75 18.9193 1.75 22.1601 3.763 24.1731C5.5505 25.9606 8.306 26.1627 13.4375 26.1847" stroke="#4941A6" stroke-width="2.0625" stroke-linecap="round" stroke-linejoin="round"/>
</svg>
