<svg width="19" height="18" viewBox="0 0 19 18" fill="none" xmlns="http://www.w3.org/2000/svg">
<g clip-path="url(#clip0_1_16621)">
<path d="M15.6025 0.510742C15.3429 0.510742 15.0957 0.621896 14.888 0.81805L14.3909 1.26724L17.3111 4.02517L17.7874 3.5557C18.2028 3.1634 18.2028 2.57886 17.7874 2.18655L16.3377 0.817396C16.13 0.621242 15.8621 0.510742 15.6025 0.510742ZM13.9146 1.65563L13.1572 2.24867L16.2726 5.19097L16.9649 4.53713L13.9146 1.65563ZM12.746 2.71813L6.49447 8.5622C6.46282 8.58689 6.43362 8.61424 6.40724 8.64394L6.36431 8.6642C6.2888 8.74593 6.23662 8.8445 6.2127 8.95059L5.36877 11.7497C5.3326 11.8605 5.32911 11.9785 5.35866 12.091C5.38822 12.2036 5.44971 12.3063 5.53651 12.3883C5.62331 12.4703 5.73215 12.5284 5.85129 12.5563C5.97044 12.5842 6.09539 12.5809 6.2127 12.5467L9.17647 11.7497C9.27487 11.7277 9.36677 11.685 9.44538 11.6249C9.52399 11.5648 9.5873 11.4888 9.63062 11.4025L15.7755 5.66044L14.6069 4.47501V4.53647L13.7845 3.7597H13.8495L12.746 2.71813ZM0.631313 3.16732C0.470926 3.19613 0.326479 3.27755 0.223489 3.39719C0.120499 3.51683 0.0655917 3.667 0.0684668 3.82117V16.8981C0.0684668 17.0715 0.141406 17.2378 0.271239 17.3604C0.401072 17.483 0.577163 17.5519 0.760775 17.5519H14.6069C14.7905 17.5519 14.9666 17.483 15.0965 17.3604C15.2263 17.2378 15.2992 17.0715 15.2992 16.8981V9.70578C15.2992 9.53237 15.2263 9.36606 15.0965 9.24344C14.9666 9.12082 14.7905 9.05194 14.6069 9.05194C14.4233 9.05194 14.2472 9.12082 14.1174 9.24344C13.9876 9.36606 13.9146 9.53237 13.9146 9.70578V16.2442H1.45308V4.47501H8.37616C8.55977 4.47501 8.73586 4.40612 8.86569 4.2835C8.99553 4.16088 9.06847 3.99458 9.06847 3.82117C9.06847 3.64775 8.99553 3.48145 8.86569 3.35883C8.73586 3.23621 8.55977 3.16732 8.37616 3.16732H0.760775C0.739094 3.16636 0.717378 3.16636 0.695698 3.16732C0.674017 3.16636 0.652301 3.16636 0.630621 3.16732H0.631313ZM7.42493 9.58351L8.37685 9.64432L8.44193 10.6251L7.49001 10.8906L7.12239 10.544L7.42493 9.58351Z" fill="#4941A6"/>
</g>
<defs>
<clipPath id="clip0_1_16621">
<rect width="18" height="17" fill="white" transform="translate(0.0683594 0.551758)"/>
</clipPath>
</defs>
</svg>
