<svg width="19" height="18" viewBox="0 0 19 18" fill="none" xmlns="http://www.w3.org/2000/svg">
<g clip-path="url(#clip0_2249_526)">
<path d="M15.6005 0.875977C15.3409 0.875977 15.0937 0.98713 14.8861 1.18328L14.389 1.63248L17.3091 4.3904L17.7854 3.92094C18.2008 3.52863 18.2008 2.94409 17.7854 2.55178L16.3357 1.18263C16.1281 0.986477 15.8601 0.875977 15.6005 0.875977ZM13.9127 2.02086L13.1553 2.6139L16.2707 5.55621L16.963 4.90236L13.9127 2.02086ZM12.7441 3.08336L6.49251 8.92744C6.46087 8.95212 6.43167 8.97948 6.40528 9.00917L6.36236 9.02944C6.28685 9.11116 6.23466 9.20973 6.21074 9.31582L5.36682 12.1149C5.33065 12.2257 5.32715 12.3437 5.35671 12.4563C5.38627 12.5688 5.44775 12.6716 5.53456 12.7536C5.62136 12.8355 5.73019 12.8936 5.84934 12.9215C5.96849 12.9494 6.09344 12.9461 6.21074 12.912L9.17451 12.1149C9.27292 12.0929 9.36482 12.0503 9.44343 11.9902C9.52204 11.9301 9.58534 11.8541 9.62867 11.7677L15.7736 6.02567L14.605 4.84025V4.90171L13.7825 4.12494H13.8476L12.7441 3.08336ZM0.62936 3.53255C0.468973 3.56136 0.324526 3.64278 0.221536 3.76242C0.118546 3.88206 0.0636385 4.03223 0.0665137 4.1864V17.2633C0.0665137 17.4367 0.139453 17.603 0.269286 17.7257C0.399119 17.8483 0.57521 17.9172 0.758821 17.9172H14.605C14.7886 17.9172 14.9647 17.8483 15.0945 17.7257C15.2243 17.603 15.2973 17.4367 15.2973 17.2633V10.071C15.2973 9.8976 15.2243 9.7313 15.0945 9.60868C14.9647 9.48606 14.7886 9.41717 14.605 9.41717C14.4214 9.41717 14.2453 9.48606 14.1154 9.60868C13.9856 9.7313 13.9127 9.8976 13.9127 10.071V16.6095H1.45113V4.84025H8.37421C8.55782 4.84025 8.73391 4.77136 8.86374 4.64874C8.99357 4.52612 9.06651 4.35981 9.06651 4.1864C9.06651 4.01299 8.99357 3.84668 8.86374 3.72406C8.73391 3.60144 8.55782 3.53255 8.37421 3.53255H0.758821C0.737141 3.53159 0.715425 3.53159 0.693744 3.53255C0.672064 3.53159 0.650348 3.53159 0.628668 3.53255H0.62936ZM7.42298 9.94875L8.3749 10.0096L8.43998 10.9903L7.48805 11.2558L7.12044 10.9092L7.42298 9.94875Z" fill="#4941A6"/>
</g>
<defs>
<clipPath id="clip0_2249_526">
<rect width="18" height="17" fill="white" transform="translate(0.0664062 0.916992)"/>
</clipPath>
</defs>
</svg>
