<svg width="25" height="25" viewBox="0 0 25 25" fill="none" xmlns="http://www.w3.org/2000/svg">
<path d="M20.3281 19.2109V10.7109C20.3281 10.5557 20.292 10.4026 20.2226 10.2637C20.1531 10.1249 20.0523 10.0041 19.9281 9.91094L12.9281 4.66094C12.755 4.53112 12.5445 4.46094 12.3281 4.46094C12.1118 4.46094 11.9012 4.53112 11.7281 4.66094L4.72813 9.91094C4.60393 10.0041 4.50313 10.1249 4.4337 10.2637C4.36427 10.4026 4.32812 10.5557 4.32812 10.7109V19.2109C4.32812 19.4762 4.43348 19.7305 4.62102 19.918C4.80855 20.1056 5.06291 20.2109 5.32812 20.2109H9.32812C9.59334 20.2109 9.8477 20.1056 10.0352 19.918C10.2228 19.7305 10.3281 19.4762 10.3281 19.2109V16.2109C10.3281 15.9457 10.4335 15.6914 10.621 15.5038C10.8086 15.3163 11.0629 15.2109 11.3281 15.2109H13.3281C13.5933 15.2109 13.8477 15.3163 14.0352 15.5038C14.2228 15.6914 14.3281 15.9457 14.3281 16.2109V19.2109C14.3281 19.4762 14.4335 19.7305 14.621 19.918C14.8086 20.1056 15.0629 20.2109 15.3281 20.2109H19.3281C19.5933 20.2109 19.8477 20.1056 20.0352 19.918C20.2228 19.7305 20.3281 19.4762 20.3281 19.2109Z" stroke="#4941A6" stroke-width="2" stroke-linecap="round" stroke-linejoin="round"/>
</svg>
