<svg width="132" height="101" viewBox="0 0 132 101" fill="none" xmlns="http://www.w3.org/2000/svg">
<g clip-path="url(#clip0_1_15011)">
<path d="M126.341 3.94015C125.445 3.94015 124.718 3.21246 124.718 2.3148C124.718 1.41715 125.445 0.689453 126.341 0.689453C127.237 0.689453 127.963 1.41715 127.963 2.3148C127.963 3.21246 127.237 3.94015 126.341 3.94015Z" fill="#FF3A3A"/>
<path d="M120.737 3.94015C119.841 3.94015 119.115 3.21246 119.115 2.3148C119.115 1.41715 119.841 0.689453 120.737 0.689453C121.633 0.689453 122.359 1.41715 122.359 2.3148C122.359 3.21246 121.633 3.94015 120.737 3.94015Z" fill="#FF3A3A"/>
<path d="M115.132 3.94015C114.236 3.94015 113.509 3.21246 113.509 2.3148C113.509 1.41715 114.236 0.689453 115.132 0.689453C116.028 0.689453 116.754 1.41715 116.754 2.3148C116.754 3.21246 116.028 3.94015 115.132 3.94015Z" fill="#FF3A3A"/>
<path d="M108.743 3.59942C108.793 3.59942 108.842 3.58051 108.88 3.54287L109.975 2.44621C110.048 2.37314 110.048 2.25637 109.975 2.1833L108.88 1.08673C108.806 1.01256 108.684 1.01136 108.609 1.08379C108.533 1.15641 108.532 1.27547 108.606 1.34965L109.569 2.31475L108.606 3.27995C108.532 3.35413 108.533 3.47319 108.609 3.54581C108.646 3.58161 108.694 3.59942 108.743 3.59942Z" fill="#FF3A3A"/>
<path d="M106.902 3.59956C106.95 3.59956 106.999 3.58175 107.036 3.54595C107.112 3.47333 107.113 3.35436 107.039 3.28009L106.076 2.31489L107.039 1.34979C107.113 1.27561 107.112 1.15655 107.036 1.08393C106.96 1.01122 106.839 1.0126 106.765 1.08687L105.67 2.18343C105.597 2.25651 105.597 2.37328 105.67 2.44635L106.765 3.54301C106.802 3.58065 106.852 3.59956 106.902 3.59956Z" fill="#FF3A3A"/>
<path d="M49.6383 0.877441H51.6736C51.9058 0.877441 52.0938 1.06169 52.0938 1.28918V3.28583C52.0938 3.51333 51.9058 3.69757 51.6736 3.69757H49.6383C49.4061 3.69757 49.2162 3.51333 49.2162 3.28583V1.28918C49.2162 1.06169 49.4061 0.877441 49.6383 0.877441Z" fill="#FF3A3A"/>
<path d="M54.6266 0.877441H56.6619C56.894 0.877441 57.082 1.06169 57.082 1.28918V3.28583C57.082 3.51333 56.894 3.69757 56.6619 3.69757H54.6266C54.3944 3.69757 54.2045 3.51333 54.2045 3.28583V1.28918C54.2045 1.06169 54.3944 0.877441 54.6266 0.877441Z" fill="#FF3A3A"/>
<path d="M44.9391 0.97168H46.9744C47.2065 0.97168 47.3945 1.15592 47.3945 1.38342V3.38007C47.3945 3.60757 47.2065 3.79181 46.9744 3.79181H44.9391C44.7069 3.79181 44.517 3.60757 44.517 3.38007V1.38342C44.517 1.15592 44.7069 0.97168 44.9391 0.97168Z" fill="#FF3A3A"/>
<path d="M75.6168 1.73096H91.8862C92.1702 1.73096 92.3984 1.95657 92.3984 2.23295C92.3984 2.50933 92.1702 2.73493 91.8862 2.73493H75.6168C75.3348 2.73493 75.1046 2.50932 75.1046 2.23295C75.1046 1.95658 75.3348 1.73096 75.6168 1.73096Z" fill="#FF3A3A"/>
<path d="M35.2661 98.4161L37.0046 98.4159L37.832 91.8428L35.2657 91.843L35.2661 98.4161Z" fill="#FFB6B6"/>
<path d="M35.2037 100.194L40.5508 100.194V100.128C40.5507 99.0012 39.6189 98.0881 38.4695 98.088L37.4927 97.3618L35.6704 98.0881L35.2036 98.0881L35.2037 100.194Z" fill="#2F2E41"/>
<path d="M22.0163 89.447L22.8396 90.9479L29.1387 88.5493L27.9232 86.334L22.0163 89.447Z" fill="#FFB6B6"/>
<path d="M20.3903 90.2356L22.9225 94.8512L22.9821 94.8198C23.9944 94.2863 24.3738 93.0496 23.8296 92.0574L24.0197 90.8703L22.504 89.6412L22.283 89.2383L20.3903 90.2356Z" fill="#2F2E41"/>
<path d="M38.5532 68.3145L40.0879 80.347L39.3206 84.3811L25.5085 90.3115L24.7411 87.8674C28.2717 85.7501 32.0458 82.5457 34.4238 82.3101C34.4238 82.3101 29.2493 70.6646 29.4411 69.7245C29.6329 68.7845 38.5532 68.3145 38.5532 68.3145Z" fill="#2F2E41"/>
<path d="M38.8182 80.3125L39.6211 85.3939L37.5947 95.764H34.909C33.9442 92.2796 33.8944 87.7 34.8131 83.8255L38.8182 80.3125Z" fill="#2F2E41"/>
<path d="M37.0916 53.6131L35.8535 51.4988L34.5242 50.4537L32.0304 50.0776L31.3375 50.5998C28.8441 54.3347 27.9142 58.8674 28.7411 63.2565L29.4219 66.8706L28.8361 69.5972C28.6519 70.4546 29.2117 71.296 30.0866 71.4766C30.1941 71.4988 30.3036 71.5102 30.4135 71.5106L36.6011 71.5356C38.1451 71.5418 39.4018 70.3202 39.4082 68.8071C39.4088 68.6658 39.3982 68.5248 39.3766 68.3851L37.0916 53.6131Z" fill="#E6E6E6"/>
<path d="M32.2341 60.894L34.707 60.5469C35.5434 61.9175 35.8406 65.5657 35.8406 65.5657L38.2608 71.2033C38.7647 71.5387 38.8957 72.211 38.5535 72.7048C38.2112 73.1986 37.5253 73.3271 37.0214 72.9917C36.6944 72.774 36.5113 72.4014 36.5414 72.0152L32.5677 65.4532L32.2341 60.894Z" fill="#FFB8B8"/>
<path d="M32.6286 54.1655C31.19 54.3839 30.2045 55.7038 30.4273 57.1136C30.4522 57.2716 30.4921 57.427 30.5464 57.5778L31.0711 59.0355C31.0711 59.0355 31.3568 63.4249 32.4462 64.6639L35.7892 64.3674C35.7892 64.3674 35.178 62.1529 35.6473 61.0814C35.9346 60.4252 35.9187 58.1589 35.6355 56.3152C35.4126 54.9091 34.0689 53.9462 32.6341 54.1647L32.6286 54.1655Z" fill="#E6E6E6"/>
<path d="M37.4164 56.6741L38.0037 54.2944C39.6126 54.0409 43.1802 55.122 43.1802 55.122L49.4197 55.0078C49.9243 54.6733 50.61 54.8031 50.9512 55.2977C51.2924 55.7922 51.16 56.4642 50.6554 56.7986C50.328 57.0156 49.907 57.0443 49.5521 56.8738L41.8609 58.0597L37.4164 56.6741Z" fill="#FFB8B8"/>
<path d="M31.1858 53.8224C30.8597 55.2128 31.7454 56.5991 33.1641 56.9186C33.3231 56.9544 33.4851 56.9757 33.6481 56.9822L35.2241 57.0446C35.2241 57.0446 39.4899 58.4109 41.0678 57.8782L42.0254 54.7252C42.0254 54.7252 39.7002 54.4611 38.8586 53.637C38.3432 53.1322 36.1894 52.307 34.3372 51.8817C32.922 51.5636 31.5116 52.4301 31.187 53.8171L31.1858 53.8224Z" fill="#E6E6E6"/>
<path d="M30.6945 46.7899C30.4044 45.0379 31.6184 43.3872 33.406 43.1029C35.1937 42.8186 36.878 44.0084 37.1681 45.7604C37.4582 47.5123 36.2442 49.1631 34.4566 49.4474C32.6689 49.7317 30.9846 48.5419 30.6945 46.7899Z" fill="#FFB8B8"/>
<path d="M33.876 49.3975C33.3962 49.4048 32.9166 49.372 32.4425 49.2993C31.9726 49.2057 30.9213 48.4507 30.6282 47.9963C30.4147 47.6066 30.2676 47.1852 30.1928 46.7489C29.9791 45.7246 30.2185 44.6595 30.8516 43.8181C30.9719 43.6441 31.138 43.5052 31.3323 43.416C31.3495 43.4094 31.3672 43.4036 31.3851 43.3986C31.6682 43.3256 31.9226 43.1713 32.1155 42.9556C32.153 42.912 32.1936 42.8711 32.237 42.8332C32.4551 42.6528 32.7137 42.5255 32.9916 42.4618C33.4402 42.3442 34.0893 42.4609 34.9211 42.8093C35.3162 42.9453 35.7446 42.9582 36.1475 42.8462C36.1876 42.8386 36.2288 42.8525 36.2558 42.8826C36.4054 43.0202 36.6025 43.0972 36.8077 43.0982C36.9333 43.1036 37.0652 43.2741 37.2245 43.4965C37.2607 43.547 37.3029 43.6059 37.3333 43.6417L37.3374 43.5729L37.4085 43.6497C37.7741 44.0447 37.7438 44.6554 37.3408 45.0138C37.2324 45.1101 37.1036 45.1816 36.9636 45.223C36.8372 45.256 36.7077 45.2762 36.5771 45.2834C36.498 45.2904 36.4162 45.2976 36.3377 45.3109C35.8258 45.4137 35.4066 45.7725 35.2338 46.2558C35.1613 46.4537 34.9389 46.5567 34.7369 46.4857C34.7052 46.4745 34.6751 46.4594 34.6474 46.4406C34.4816 46.3141 34.2631 46.2751 34.0624 46.3362C33.977 46.3828 33.9105 46.4567 33.8741 46.5456C33.8298 46.6447 33.7565 46.7286 33.6634 46.7866C33.3449 46.9475 33.323 47.6603 33.4373 48.2546C33.5476 48.8274 33.7655 49.2418 33.9673 49.2622C34.1226 49.278 34.1404 49.2888 34.1516 49.3157L34.1617 49.3398L34.1442 49.3624C34.0584 49.3929 33.9669 49.4048 33.876 49.3975Z" fill="#2F2E41"/>
<path d="M44.4995 17.5522H126.988V41.4294H44.4995V17.5522Z" fill="#F9F9F9"/>
<path d="M41.6106 7.67735H130.87C131.061 7.67334 131.213 7.51802 131.209 7.33044C131.205 7.1485 131.055 7.00194 130.87 6.99805H41.6106C41.4192 7.00206 41.2673 7.15738 41.2714 7.34496C41.2754 7.5269 41.4249 7.67346 41.6106 7.67735Z" fill="#CACACA"/>
<path d="M126.934 17.3718L127.043 17.7324L44.5542 41.6095L44.4455 41.2489L126.934 17.3718Z" fill="white"/>
<path d="M44.5535 17.3734L127.043 41.248L126.934 41.6086L44.4448 17.734L44.5535 17.3734Z" fill="white"/>
<path d="M113.657 32.0288H114.232C119.053 32.0288 122.961 35.8587 122.961 40.5832V40.5832C122.961 45.3077 119.053 49.1376 114.232 49.1376H113.657C108.836 49.1376 104.929 45.3077 104.929 40.5832V40.5832C104.929 35.8587 108.836 32.0288 113.657 32.0288Z" fill="#FE4F60"/>
<path d="M116.768 53.4619H110.164C109.668 53.4619 109.266 53.856 109.266 54.3421C109.266 54.8282 109.668 55.2223 110.164 55.2223H116.768C117.264 55.2223 117.666 54.8282 117.666 54.3421C117.666 53.856 117.264 53.4619 116.768 53.4619Z" fill="#6C63FF"/>
<path d="M121.035 56.9829H105.9C105.404 56.9829 105.002 57.377 105.002 57.8631C105.002 58.3492 105.404 58.7433 105.9 58.7433H121.035C121.531 58.7433 121.934 58.3492 121.934 57.8631C121.934 57.377 121.531 56.9829 121.035 56.9829Z" fill="#E6E6E6"/>
<path d="M121.035 60.5034H105.9C105.404 60.5034 105.002 60.8975 105.002 61.3836C105.002 61.8697 105.404 62.2638 105.9 62.2638H121.035C121.531 62.2638 121.934 61.8697 121.934 61.3836C121.934 60.8975 121.531 60.5034 121.035 60.5034Z" fill="#E6E6E6"/>
<path d="M50.3647 60.1802H93.138C93.699 60.1796 94.1537 59.734 94.1543 59.1841V47.3461C94.1537 46.7963 93.699 46.3507 93.138 46.3501H50.3647C49.8036 46.3507 49.349 46.7963 49.3483 47.3461V59.1841C49.349 59.734 49.8036 60.1796 50.3647 60.1802Z" fill="white"/>
<path d="M50.3642 60.3683H93.1376C93.8045 60.3675 94.3449 59.8378 94.3457 59.1842V47.3462C94.3449 46.6925 93.8045 46.1629 93.1376 46.1621H50.3642C49.6973 46.1629 49.1568 46.6925 49.1561 47.3462V59.1842C49.1568 59.8378 49.6973 60.3675 50.3642 60.3683ZM93.1376 46.5381C93.5927 46.5387 93.9615 46.9001 93.962 47.3462V59.1842C93.9615 59.6303 93.5927 59.9917 93.1376 59.9922H50.3642C49.9091 59.9917 49.5403 59.6303 49.5397 59.1842V47.3462C49.5403 46.9001 49.9091 46.5387 50.3642 46.5381L93.1376 46.5381Z" fill="#CCCCCC"/>
<path d="M89.2395 51.9611C88.3286 51.9611 87.5903 51.2375 87.5903 50.3448C87.5903 49.4522 88.3286 48.7285 89.2395 48.7285C90.1503 48.7285 90.8887 49.4522 90.8887 50.3448C90.8887 51.2375 90.1503 51.9611 89.2395 51.9611Z" fill="#6C63FF"/>
<path d="M53.1039 54.4177H90.3969C90.6681 54.418 90.8883 54.2029 90.8887 53.937C90.889 53.6712 90.6695 53.4554 90.3982 53.4551H53.1039C52.8327 53.4547 52.6125 53.6699 52.6121 53.9357C52.6118 54.2015 52.8313 54.4173 53.1026 54.4177H53.1039Z" fill="#6C63FF"/>
<path d="M57.1151 56.3196H90.3975C90.6688 56.3196 90.8887 56.1041 90.8887 55.8383C90.8887 55.5724 90.6688 55.3569 90.3975 55.3569H57.1151C56.8438 55.3569 56.6239 55.5724 56.6239 55.8383C56.6239 56.1041 56.8438 56.3196 57.1151 56.3196Z" fill="#6C63FF"/>
<path d="M50.3647 82.1773H93.138C93.699 82.1766 94.1537 81.7311 94.1543 81.1812V69.3432C94.1537 68.7933 93.699 68.3478 93.138 68.3472H50.3647C49.8036 68.3478 49.349 68.7933 49.3483 69.3432V81.1812C49.349 81.7311 49.8036 82.1766 50.3647 82.1773Z" fill="white"/>
<path d="M50.3642 82.3653H93.1376C93.8045 82.3646 94.3449 81.8349 94.3457 81.1813V69.3432C94.3449 68.6896 93.8045 68.1599 93.1376 68.1592H50.3642C49.6973 68.1599 49.1568 68.6896 49.1561 69.3432V81.1813C49.1568 81.8349 49.6973 82.3646 50.3642 82.3653ZM93.1376 68.5352C93.5927 68.5357 93.9615 68.8972 93.962 69.3432V81.1813C93.9615 81.6273 93.5927 81.9888 93.1376 81.9893H50.3642C49.9091 81.9888 49.5403 81.6273 49.5397 81.1813V69.3432C49.5403 68.8972 49.9091 68.5357 50.3642 68.5352L93.1376 68.5352Z" fill="#CCCCCC"/>
<path d="M89.2395 73.9582C88.3286 73.9582 87.5903 73.2346 87.5903 72.3419C87.5903 71.4492 88.3286 70.7256 89.2395 70.7256C90.1503 70.7256 90.8887 71.4492 90.8887 72.3419C90.8887 73.2346 90.1503 73.9582 89.2395 73.9582Z" fill="#6C63FF"/>
<path d="M53.1039 76.4148H90.3969C90.6681 76.4151 90.8883 76.1999 90.8887 75.9341C90.889 75.6683 90.6695 75.4525 90.3982 75.4521H53.1039C52.8327 75.4518 52.6125 75.667 52.6121 75.9328C52.6118 76.1986 52.8313 76.4144 53.1026 76.4148H53.1039Z" fill="#6C63FF"/>
<path d="M57.1151 78.3167H90.3975C90.6688 78.3167 90.8887 78.1012 90.8887 77.8353C90.8887 77.5695 90.6688 77.354 90.3975 77.354H57.1151C56.8438 77.354 56.6239 77.5695 56.6239 77.8353C56.6239 78.1012 56.8438 78.3167 57.1151 78.3167Z" fill="#6C63FF"/>
<path d="M16.0687 100.499L16.0839 100.419C16.588 97.695 15.844 94.8917 14.0496 92.7537C13.5475 92.1651 12.9718 91.6408 12.336 91.1931L12.2754 91.1503L12.2489 91.2187C11.9327 92.0358 11.5335 92.8542 11.3516 93.2164L11.2289 90.5124L11.1588 90.476C10.5023 90.1312 9.6977 90.2126 9.12684 90.6815C8.53632 91.1466 8.29391 91.917 8.51458 92.6273C8.60997 92.945 8.70006 93.2745 8.78723 93.5932C9.08662 94.6884 9.39618 95.8208 9.99614 96.7744C10.9305 98.2273 12.4842 99.1893 14.2243 99.3924L16.0687 100.499Z" fill="#F2F2F2"/>
<path d="M0.20813 100.466C0.207756 100.589 0.309349 100.689 0.435059 100.69H86.4338C86.5599 100.69 86.6621 100.589 86.6621 100.466C86.6621 100.342 86.5599 100.242 86.4338 100.242H0.436424C0.310722 100.242 0.208504 100.341 0.20813 100.465V100.466Z" fill="#CCCCCC"/>
</g>
<defs>
<clipPath id="clip0_1_15011">
<rect width="131" height="100" fill="white" transform="matrix(-1 0 0 1 131.209 0.689453)"/>
</clipPath>
</defs>
</svg>
