<svg id="Layer_1" data-name="Layer 1" xmlns="http://www.w3.org/2000/svg" viewBox="0 0 200 150"><defs><style>.cls-1,.cls-3{fill:#fdfefe;}.cls-2{fill:#775ca7;}.cls-3{font-size:8px;font-family:CourierNewPS-BoldMT, Courier New;font-weight:700;}</style></defs><rect class="cls-1" x="92.92" y="63.03" width="0.16" height="6.41" transform="translate(73.47 -46.26) rotate(44.69)"/><rect class="cls-1" x="93.32" y="63.35" width="0.16" height="6.03" transform="translate(73.67 -46.5) rotate(44.69)"/><rect class="cls-1" x="93.73" y="63.57" width="0.16" height="5.79" transform="translate(73.86 -46.76) rotate(44.69)"/><rect class="cls-1" x="93.83" y="67.51" width="0.16" height="5.98" transform="translate(210.08 53.33) rotate(134.69)"/><rect class="cls-1" x="93.43" y="67.46" width="0.16" height="6.36" transform="translate(209.5 53.83) rotate(134.69)"/><rect class="cls-1" x="93.09" y="67.4" width="0.16" height="6.81" transform="translate(209.03 54.36) rotate(134.69)"/><rect class="cls-1" x="105.94" y="67.56" width="0.16" height="6.41" transform="translate(129.76 196) rotate(-134.45)"/><rect class="cls-1" x="105.55" y="67.62" width="0.16" height="6.03" transform="translate(129.18 195.5) rotate(-134.45)"/><rect class="cls-1" x="105.14" y="67.64" width="0.16" height="5.79" transform="translate(128.56 195.03) rotate(-134.45)"/><rect class="cls-1" x="105.1" y="63.5" width="0.16" height="5.98" transform="translate(-16.46 92.69) rotate(-44.45)"/><rect class="cls-1" x="105.49" y="63.18" width="0.16" height="6.36" transform="translate(-16.26 92.93) rotate(-44.45)"/><rect class="cls-1" x="105.84" y="62.8" width="0.16" height="6.81" transform="translate(-16.05 93.13) rotate(-44.45)"/><rect class="cls-1" x="90.33" y="66.08" width="2.31" height="11.04" rx="1.16" transform="translate(206.72 56.91) rotate(134.69)"/><rect class="cls-1" x="90.23" y="59.8" width="2.31" height="11.04" rx="1.16" transform="translate(69.37 -44.83) rotate(43.14)"/><rect class="cls-1" x="106.47" y="59.71" width="2.31" height="11.04" rx="1.16" transform="translate(-15.58 90.89) rotate(-42.98)"/><rect class="cls-1" x="106.31" y="65.99" width="2.31" height="11.04" rx="1.16" transform="translate(131.86 198.28) rotate(-134.53)"/><rect class="cls-1" x="98.51" y="61.87" width="2.5" height="13.66" rx="1.25" transform="translate(17.98 -20.65) rotate(12.98)"/><rect class="cls-2" x="99.34" y="64.11" width="2.5" height="1.94" transform="translate(17.19 -20.93) rotate(12.98)"/><rect class="cls-2" x="97.81" y="69.94" width="2.5" height="3.6" transform="translate(18.64 -20.41) rotate(12.98)"/><path class="cls-1" d="M79.33,83.12V80.78a.44.44,0,0,1-.28-.09.31.31,0,0,1,0-.44.5.5,0,0,1,.31-.08h1.26a1.65,1.65,0,0,1,.57.11,1.39,1.39,0,0,1,.45.28,1.68,1.68,0,0,1,.27.34,2.49,2.49,0,0,1,.21.44,1.66,1.66,0,0,1,.07.53v.29a1.57,1.57,0,0,1-.13.67,1.34,1.34,0,0,1-.34.48,1.7,1.7,0,0,1-.39.28,1.84,1.84,0,0,1-.76.14H79.36a.44.44,0,0,1-.31-.09.28.28,0,0,1-.09-.22.27.27,0,0,1,.09-.21A.39.39,0,0,1,79.33,83.12Zm.6,0h.64a1.1,1.1,0,0,0,.54-.1.91.91,0,0,0,.36-.34,1.08,1.08,0,0,0,.12-.54v-.28a1.12,1.12,0,0,0-.11-.5.88.88,0,0,0-.91-.58h-.64Z"/><path class="cls-1" d="M83.66,82.24v.88h1.53V82.8a.5.5,0,0,1,.08-.31.31.31,0,0,1,.44,0,.5.5,0,0,1,.08.31v.93H83a.41.41,0,0,1-.3-.09.26.26,0,0,1-.1-.22.25.25,0,0,1,.1-.21.41.41,0,0,1,.3-.09h.1V80.78H83a.41.41,0,0,1-.3-.09.26.26,0,0,1-.1-.22.27.27,0,0,1,.1-.22.47.47,0,0,1,.3-.08h2.7v.92a.52.52,0,0,1-.08.31.31.31,0,0,1-.44,0,.5.5,0,0,1-.08-.31v-.31h-1.4v.86h.53a.68.68,0,0,1,0-.3.3.3,0,0,1,.26-.14.26.26,0,0,1,.21.09.43.43,0,0,1,.09.31v.69a.49.49,0,0,1-.05.26.28.28,0,0,1-.25.14.3.3,0,0,1-.26-.14.7.7,0,0,1,0-.31Z"/><path class="cls-1" d="M87.88,82.85l.87-2.07h-.14a.43.43,0,0,1-.31-.09.28.28,0,0,1-.09-.22.29.29,0,0,1,.09-.22.48.48,0,0,1,.31-.08h.8a.43.43,0,0,1,.31.09.26.26,0,0,1,.09.21.28.28,0,0,1-.14.26.5.5,0,0,1-.27,0l-1.23,3h-.58l-1.23-3a.55.55,0,0,1-.28,0,.3.3,0,0,1-.14-.26.29.29,0,0,1,.09-.22.5.5,0,0,1,.31-.08h.81a.44.44,0,0,1,.31.09.26.26,0,0,1,.09.21.28.28,0,0,1-.09.22.43.43,0,0,1-.31.09H87Z"/><path class="cls-1" d="M90.86,82.24v.88h1.53V82.8a.44.44,0,0,1,.09-.31.26.26,0,0,1,.21-.09.29.29,0,0,1,.22.09.44.44,0,0,1,.08.31v.93H90.17a.43.43,0,0,1-.31-.09.29.29,0,0,1-.1-.22.28.28,0,0,1,.1-.21.43.43,0,0,1,.31-.09h.09V80.78h-.09a.43.43,0,0,1-.31-.09.29.29,0,0,1-.1-.22.3.3,0,0,1,.1-.22.48.48,0,0,1,.31-.08h2.69v.92a.52.52,0,0,1-.08.31.31.31,0,0,1-.44,0,.5.5,0,0,1-.08-.31v-.31h-1.4v.86h.53a.68.68,0,0,1,0-.3.3.3,0,0,1,.26-.14.26.26,0,0,1,.21.09.43.43,0,0,1,.09.31v.69a.49.49,0,0,1,0,.26.28.28,0,0,1-.25.14.3.3,0,0,1-.26-.14.7.7,0,0,1,0-.31Z"/><path class="cls-1" d="M94.83,80.78v2.34h1.29v-.56a.43.43,0,0,1,.09-.31.26.26,0,0,1,.21-.09.29.29,0,0,1,.22.09.48.48,0,0,1,.08.31v1.17H93.88a.43.43,0,0,1-.31-.09.28.28,0,0,1-.09-.22.27.27,0,0,1,.09-.21.43.43,0,0,1,.31-.09h.35V80.78h-.35a.43.43,0,0,1-.31-.09.28.28,0,0,1-.09-.22.29.29,0,0,1,.09-.22.48.48,0,0,1,.31-.08h1.3a.44.44,0,0,1,.31.09.26.26,0,0,1,.09.21.28.28,0,0,1-.09.22.44.44,0,0,1-.31.09Z"/><path class="cls-1" d="M100.36,82a1.88,1.88,0,0,1-.5,1.33,1.58,1.58,0,0,1-1.18.53,1.53,1.53,0,0,1-1.08-.44,2,2,0,0,1,0-2.84,1.54,1.54,0,0,1,1.08-.45,1.59,1.59,0,0,1,1.18.54A1.88,1.88,0,0,1,100.36,82Zm-.6,0a1.29,1.29,0,0,0-.33-.91,1,1,0,0,0-1.5,0,1.32,1.32,0,0,0-.33.91,1.26,1.26,0,0,0,.33.9,1,1,0,0,0,.75.36,1,1,0,0,0,.75-.35A1.29,1.29,0,0,0,99.76,82Z"/><path class="cls-1" d="M101.93,82.51v.61h.61a.44.44,0,0,1,.31.09.28.28,0,0,1,.09.22.27.27,0,0,1-.09.21.44.44,0,0,1-.31.09h-1.3a.43.43,0,0,1-.31-.09.28.28,0,0,1-.09-.22.27.27,0,0,1,.09-.21.43.43,0,0,1,.31-.09h.09V80.78h-.09a.43.43,0,0,1-.31-.09.28.28,0,0,1-.09-.22.29.29,0,0,1,.09-.22.48.48,0,0,1,.31-.08h1.38a1.34,1.34,0,0,1,1,.34,1.06,1.06,0,0,1,.36.81,1.11,1.11,0,0,1-.12.5,1.15,1.15,0,0,1-.3.34,1.45,1.45,0,0,1-1,.35Zm0-.6h.56a1,1,0,0,0,.62-.18.54.54,0,0,0,.23-.43.49.49,0,0,0-.18-.37.87.87,0,0,0-.54-.15h-.69Z"/><path class="cls-1" d="M105.26,82.24v.88h1.53V82.8a.44.44,0,0,1,.09-.31.28.28,0,0,1,.22-.09.27.27,0,0,1,.21.09.44.44,0,0,1,.09.31v.93h-2.83a.43.43,0,0,1-.31-.09.28.28,0,0,1-.09-.22.27.27,0,0,1,.09-.21.44.44,0,0,1,.31-.09h.09V80.78h-.09a.43.43,0,0,1-.31-.09.28.28,0,0,1-.09-.22.29.29,0,0,1,.09-.22.48.48,0,0,1,.31-.08h2.69v.92a.46.46,0,0,1-.08.31.28.28,0,0,1-.22.09.27.27,0,0,1-.21-.09.44.44,0,0,1-.09-.31v-.31h-1.4v.86h.53a.68.68,0,0,1,0-.3.3.3,0,0,1,.26-.14.29.29,0,0,1,.22.09.48.48,0,0,1,.08.31v.69a.41.41,0,0,1,0,.26.27.27,0,0,1-.25.14.3.3,0,0,1-.26-.14.7.7,0,0,1,0-.31Z"/><path class="cls-1" d="M108.14,83.12V80.78a.42.42,0,0,1-.28-.09.29.29,0,0,1,0-.44.48.48,0,0,1,.31-.08h1.25a1.53,1.53,0,0,1,1,.39,2.13,2.13,0,0,1,.26.34,1.59,1.59,0,0,1,.21.44,1.66,1.66,0,0,1,.07.53v.29a1.57,1.57,0,0,1-.13.67,1.21,1.21,0,0,1-.33.48,1.73,1.73,0,0,1-.4.28,1.81,1.81,0,0,1-.76.14h-1.2a.43.43,0,0,1-.31-.09.26.26,0,0,1-.1-.22.25.25,0,0,1,.1-.21A.38.38,0,0,1,108.14,83.12Zm.6,0h.64a1.16,1.16,0,0,0,.54-.1,1,1,0,0,0,.35-.34,1.08,1.08,0,0,0,.12-.54v-.28a1,1,0,0,0-.11-.5.88.88,0,0,0-.91-.58h-.63Z"/><path class="cls-1" d="M115.46,83.12V80.78h-.1a.44.44,0,0,1-.31-.09.28.28,0,0,1-.09-.22.29.29,0,0,1,.09-.22.5.5,0,0,1,.31-.08h1.51a1.2,1.2,0,0,1,.86.3.94.94,0,0,1,.33.72.86.86,0,0,1-.07.36.82.82,0,0,1-.24.32,1.29,1.29,0,0,1,.43.4.9.9,0,0,1,.14.52.87.87,0,0,1-.1.42.65.65,0,0,1-.19.24,1.25,1.25,0,0,1-.36.2,1.73,1.73,0,0,1-.55.08h-1.76a.44.44,0,0,1-.31-.09.28.28,0,0,1-.09-.22.27.27,0,0,1,.09-.21.46.46,0,0,1,.31-.09Zm.6-1.47h.65a.92.92,0,0,0,.59-.18.35.35,0,0,0,.16-.3.36.36,0,0,0-.15-.28.83.83,0,0,0-.47-.11h-.78Zm0,1.47h1a1,1,0,0,0,.52-.1.3.3,0,0,0,.11-.24.48.48,0,0,0-.22-.36,1.09,1.09,0,0,0-.65-.17h-.79Z"/><path class="cls-1" d="M120.58,82.23v.89H121a.44.44,0,0,1,.31.09.28.28,0,0,1,.09.22.27.27,0,0,1-.09.21.44.44,0,0,1-.31.09h-1.41a.44.44,0,0,1-.31-.09.28.28,0,0,1-.09-.22.27.27,0,0,1,.09-.21.44.44,0,0,1,.31-.09h.4v-.89l-1-1.45a.4.4,0,0,1-.29-.09.31.31,0,0,1,0-.44.48.48,0,0,1,.31-.08h.54a.43.43,0,0,1,.31.09.27.27,0,0,1,.1.21.33.33,0,0,1-.24.31l.57.83.55-.83a.38.38,0,0,1-.18-.13.28.28,0,0,1-.06-.18.26.26,0,0,1,.09-.21.44.44,0,0,1,.31-.09h.57a.46.46,0,0,1,.31.09.29.29,0,0,1,0,.43.41.41,0,0,1-.3.09Z"/><path class="cls-1" d="M45.4,90H43.94l-.14.37h.14a.43.43,0,0,1,.31.08.29.29,0,0,1,.1.22.28.28,0,0,1-.1.21.43.43,0,0,1-.31.09h-.8a.43.43,0,0,1-.31-.09.29.29,0,0,1-.1-.22.3.3,0,0,1,.1-.22.48.48,0,0,1,.32-.07L44.09,88H43.7a.44.44,0,0,1-.31-.09.28.28,0,0,1-.09-.22.26.26,0,0,1,.09-.21.44.44,0,0,1,.31-.09H45l1.19,3a.58.58,0,0,1,.28,0,.31.31,0,0,1,.14.26.27.27,0,0,1-.09.21.44.44,0,0,1-.31.09H45.4a.44.44,0,0,1-.31-.09.28.28,0,0,1-.09-.22.27.27,0,0,1,.09-.21.44.44,0,0,1,.31-.08h.15Zm-.25-.6-.48-1.19-.49,1.19Z"/><path class="cls-1" d="M48,88v2.35h1.29v-.57a.43.43,0,0,1,.09-.31.28.28,0,0,1,.22-.09.27.27,0,0,1,.21.09.43.43,0,0,1,.09.31v1.17H47.07a.44.44,0,0,1-.31-.09.28.28,0,0,1-.09-.22.27.27,0,0,1,.09-.21.44.44,0,0,1,.31-.08h.35V88h-.35a.44.44,0,0,1-.31-.09.28.28,0,0,1-.09-.22.26.26,0,0,1,.09-.21.44.44,0,0,1,.31-.09h1.3a.43.43,0,0,1,.31.08.26.26,0,0,1,.09.21.28.28,0,0,1-.09.22.43.43,0,0,1-.31.09Z"/><path class="cls-1" d="M51.25,89.66v.67h.21a.43.43,0,0,1,.31.08.28.28,0,0,1,.09.22.27.27,0,0,1-.09.21.43.43,0,0,1-.31.09h-.91a.44.44,0,0,1-.31-.09.28.28,0,0,1-.09-.22.27.27,0,0,1,.09-.21.46.46,0,0,1,.31-.08h.09V88h-.09a.44.44,0,0,1-.31-.09.28.28,0,0,1-.09-.22.26.26,0,0,1,.09-.21.44.44,0,0,1,.31-.09h.91a.43.43,0,0,1,.31.08.26.26,0,0,1,.09.21.28.28,0,0,1-.09.22.43.43,0,0,1-.31.09h-.21v.89L52.31,88a.79.79,0,0,1-.13-.13.29.29,0,0,1,0-.14.28.28,0,0,1,.09-.22.43.43,0,0,1,.31-.09h.61a.43.43,0,0,1,.31.08.26.26,0,0,1,.09.21.29.29,0,0,1-.09.22.4.4,0,0,1-.29.09l-1.08.94a1.87,1.87,0,0,1,.57.53,3.62,3.62,0,0,1,.47.88h.16a.44.44,0,0,1,.31.08.28.28,0,0,1,.09.22.27.27,0,0,1-.09.21.43.43,0,0,1-.31.09h-.54c-.13-.3-.26-.59-.41-.86a1.86,1.86,0,0,0-.35-.48,1.28,1.28,0,0,0-.39-.24Z"/><path class="cls-1" d="M56.21,90H54.75l-.15.37h.15a.46.46,0,0,1,.31.08.28.28,0,0,1,.09.22.27.27,0,0,1-.09.21.46.46,0,0,1-.31.09h-.81a.43.43,0,0,1-.31-.09.28.28,0,0,1-.09-.22.29.29,0,0,1,.09-.22.48.48,0,0,1,.32-.07L54.9,88h-.4a.46.46,0,0,1-.31-.09.28.28,0,0,1-.09-.22.26.26,0,0,1,.09-.21.46.46,0,0,1,.31-.09h1.3l1.2,3a.53.53,0,0,1,.27,0,.31.31,0,0,1,.14.26.27.27,0,0,1-.09.21.43.43,0,0,1-.31.09H56.2a.44.44,0,0,1-.31-.09.28.28,0,0,1-.09-.22.27.27,0,0,1,.09-.21.44.44,0,0,1,.31-.08h.15Zm-.25-.6-.49-1.19L55,89.36Z"/><path class="cls-1" d="M58.19,90.77a.32.32,0,0,1-.12.12.24.24,0,0,1-.12,0,.28.28,0,0,1-.22-.09.44.44,0,0,1-.09-.31v-.4a.43.43,0,0,1,.09-.31.28.28,0,0,1,.22-.09.27.27,0,0,1,.18,0,.48.48,0,0,1,.11.19.57.57,0,0,0,.07.17.79.79,0,0,0,.31.19,1.19,1.19,0,0,0,.47.09,1.12,1.12,0,0,0,.66-.18.34.34,0,0,0,.16-.29.31.31,0,0,0-.08-.21.63.63,0,0,0-.25-.16,4.09,4.09,0,0,0-.53-.12,2.63,2.63,0,0,1-.74-.22.93.93,0,0,1-.4-.36,1,1,0,0,1-.15-.51,1,1,0,0,1,.36-.75,1.35,1.35,0,0,1,.94-.33,1.44,1.44,0,0,1,.43.06,1.14,1.14,0,0,1,.36.15.37.37,0,0,1,.23-.11.29.29,0,0,1,.22.09.48.48,0,0,1,.08.31v.45a.52.52,0,0,1-.08.31.29.29,0,0,1-.22.09.28.28,0,0,1-.19-.07.41.41,0,0,1-.1-.2.42.42,0,0,0-.08-.21.55.55,0,0,0-.25-.19,1,1,0,0,0-.4-.08.82.82,0,0,0-.51.16.35.35,0,0,0-.11.53.5.5,0,0,0,.23.16,3.61,3.61,0,0,0,.56.13,4,4,0,0,1,.71.2,1,1,0,0,1,.41.34.92.92,0,0,1,.16.55.88.88,0,0,1-.31.71,1.56,1.56,0,0,1-1.06.35,2,2,0,0,1-.49-.06A2.19,2.19,0,0,1,58.19,90.77Z"/><path class="cls-1" d="M62.06,89.44v.89h1.53V90a.5.5,0,0,1,.08-.31.29.29,0,0,1,.22-.09.26.26,0,0,1,.21.09.44.44,0,0,1,.09.31v.93H61.36a.44.44,0,0,1-.31-.09.28.28,0,0,1-.09-.22.27.27,0,0,1,.09-.21.46.46,0,0,1,.31-.08h.1V88h-.1a.44.44,0,0,1-.31-.09.28.28,0,0,1-.09-.22.26.26,0,0,1,.09-.21.44.44,0,0,1,.31-.09h2.7v.91a.46.46,0,0,1-.09.31.26.26,0,0,1-.21.09.29.29,0,0,1-.22-.09.44.44,0,0,1-.08-.31V88h-1.4v.86h.52a.64.64,0,0,1,.05-.3.29.29,0,0,1,.25-.14.29.29,0,0,1,.22.09.43.43,0,0,1,.08.31v.69a.51.51,0,0,1,0,.26.29.29,0,0,1-.26.14.29.29,0,0,1-.25-.14.66.66,0,0,1-.05-.31Z"/><path class="cls-1" d="M65.33,88.54v1.79h.22a.43.43,0,0,1,.31.08.28.28,0,0,1,.09.22.27.27,0,0,1-.09.21.43.43,0,0,1-.31.09h-.79a.46.46,0,0,1-.31-.09.28.28,0,0,1-.09-.22.27.27,0,0,1,.09-.21.39.39,0,0,1,.28-.08V88a.44.44,0,0,1-.24-.1.3.3,0,0,1-.08-.21.24.24,0,0,1,.1-.21.43.43,0,0,1,.31-.09h.65l.82,1.8.8-1.81h.67a.44.44,0,0,1,.31.08.26.26,0,0,1,.09.21.3.3,0,0,1-.08.21.41.41,0,0,1-.24.1v2.35a.38.38,0,0,1,.28.08.29.29,0,0,1,.09.22.27.27,0,0,1-.09.21.43.43,0,0,1-.31.09H67a.41.41,0,0,1-.3-.09.26.26,0,0,1-.1-.22.25.25,0,0,1,.1-.21.42.42,0,0,1,.3-.08h.22V88.54l-.69,1.54H66Z"/><path class="cls-1" d="M72.54,88.54v1.79h.21a.43.43,0,0,1,.31.08.28.28,0,0,1,.09.22.27.27,0,0,1-.09.21.43.43,0,0,1-.31.09H72a.46.46,0,0,1-.31-.09.28.28,0,0,1-.09-.22.27.27,0,0,1,.09-.21.39.39,0,0,1,.28-.08V88a.38.38,0,0,1-.23-.1.26.26,0,0,1-.08-.21.26.26,0,0,1,.09-.21.43.43,0,0,1,.31-.09h.66l.81,1.8.81-1.81H75a.43.43,0,0,1,.31.08.26.26,0,0,1,.09.21.3.3,0,0,1-.08.21A.38.38,0,0,1,75,88v2.35a.38.38,0,0,1,.28.08.3.3,0,0,1,.1.22.28.28,0,0,1-.1.21.43.43,0,0,1-.31.09h-.79a.41.41,0,0,1-.3-.09.26.26,0,0,1-.1-.22.25.25,0,0,1,.1-.21.42.42,0,0,1,.3-.08h.22V88.54l-.69,1.54h-.52Z"/><path class="cls-1" d="M78.76,89.15a1.84,1.84,0,0,1-.51,1.33,1.56,1.56,0,0,1-2.26.09,2,2,0,0,1,0-2.84,1.54,1.54,0,0,1,2.26.09A1.84,1.84,0,0,1,78.76,89.15Zm-.6,0a1.31,1.31,0,0,0-.33-.91,1,1,0,0,0-.75-.36,1,1,0,0,0-.75.37,1.28,1.28,0,0,0-.33.9,1.26,1.26,0,0,0,.33.9,1,1,0,0,0,.75.36,1,1,0,0,0,.75-.35A1.29,1.29,0,0,0,78.16,89.15Z"/><path class="cls-1" d="M79.8,90.77a.33.33,0,0,1-.13.12.21.21,0,0,1-.12,0,.29.29,0,0,1-.22-.09.44.44,0,0,1-.08-.31v-.4a.43.43,0,0,1,.08-.31.29.29,0,0,1,.22-.09.27.27,0,0,1,.18,0,.38.38,0,0,1,.11.19.38.38,0,0,0,.08.17.74.74,0,0,0,.3.19,1.19,1.19,0,0,0,.47.09,1.12,1.12,0,0,0,.66-.18.35.35,0,0,0,.17-.29.37.37,0,0,0-.08-.21.68.68,0,0,0-.26-.16,3.8,3.8,0,0,0-.52-.12,2.72,2.72,0,0,1-.75-.22.93.93,0,0,1-.4-.36,1,1,0,0,1-.14-.51,1,1,0,0,1,.36-.75,1.33,1.33,0,0,1,.94-.33,1.42,1.42,0,0,1,.42.06,1,1,0,0,1,.36.15.37.37,0,0,1,.24-.11.26.26,0,0,1,.21.09.43.43,0,0,1,.09.31v.45a.46.46,0,0,1-.09.31.26.26,0,0,1-.21.09.29.29,0,0,1-.2-.07.34.34,0,0,1-.09-.2.54.54,0,0,0-.08-.21.65.65,0,0,0-.26-.19.93.93,0,0,0-.39-.08.83.83,0,0,0-.52.16.43.43,0,0,0-.19.31.4.4,0,0,0,.08.22.5.5,0,0,0,.23.16,4,4,0,0,0,.56.13,3.75,3.75,0,0,1,.71.2,1,1,0,0,1,.41.34.92.92,0,0,1,.17.55.88.88,0,0,1-.32.71,1.56,1.56,0,0,1-1.06.35,1.91,1.91,0,0,1-.48-.06A2,2,0,0,1,79.8,90.77Z"/><path class="cls-1" d="M84.57,88v2.35H85a.43.43,0,0,1,.31.08.28.28,0,0,1,.09.22.27.27,0,0,1-.09.21.43.43,0,0,1-.31.09h-1.4a.43.43,0,0,1-.31-.09.26.26,0,0,1-.1-.22.25.25,0,0,1,.1-.21.43.43,0,0,1,.31-.08H84V88h-.65v.56a.43.43,0,0,1-.09.31A.29.29,0,0,1,83,89a.28.28,0,0,1-.21-.1.43.43,0,0,1-.08-.31V87.37h3.11v1.16a.43.43,0,0,1-.09.31.27.27,0,0,1-.21.1.3.3,0,0,1-.22-.1.43.43,0,0,1-.08-.31V88Z"/><path class="cls-1" d="M88.61,90H87.15l-.15.37h.15a.43.43,0,0,1,.31.08.28.28,0,0,1,.09.22.27.27,0,0,1-.09.21.43.43,0,0,1-.31.09h-.81a.46.46,0,0,1-.31-.09.28.28,0,0,1-.09-.22.27.27,0,0,1,.1-.22.46.46,0,0,1,.32-.07L87.3,88h-.39a.43.43,0,0,1-.31-.09.28.28,0,0,1-.09-.22.26.26,0,0,1,.09-.21.43.43,0,0,1,.31-.09h1.3l1.19,3a.61.61,0,0,1,.28,0,.3.3,0,0,1,.13.26.27.27,0,0,1-.09.21.41.41,0,0,1-.3.09h-.81a.43.43,0,0,1-.31-.09.28.28,0,0,1-.09-.22.27.27,0,0,1,.09-.21.43.43,0,0,1,.31-.08h.14Zm-.25-.6-.48-1.19-.49,1.19Z"/><path class="cls-1" d="M91.07,89.45v.88h.61a.43.43,0,0,1,.31.08.28.28,0,0,1,.09.22.27.27,0,0,1-.09.21.43.43,0,0,1-.31.09H90.37a.44.44,0,0,1-.31-.09.28.28,0,0,1-.09-.22.27.27,0,0,1,.09-.21.46.46,0,0,1,.31-.08h.09V88h-.09a.44.44,0,0,1-.31-.09.28.28,0,0,1-.09-.22.26.26,0,0,1,.09-.21.44.44,0,0,1,.31-.09H93.2v.91a.44.44,0,0,1-.09.31.26.26,0,0,1-.21.09.29.29,0,0,1-.22-.09.48.48,0,0,1-.08-.31V88H91.07v.87h.52a.66.66,0,0,1,0-.31.29.29,0,0,1,.25-.14.29.29,0,0,1,.22.09.44.44,0,0,1,.08.31v.69a.43.43,0,0,1-.08.31.29.29,0,0,1-.22.09.27.27,0,0,1-.25-.14.61.61,0,0,1,0-.3Z"/><path class="cls-1" d="M95.81,90H94.35l-.14.37h.14a.43.43,0,0,1,.31.08.28.28,0,0,1,.09.22.27.27,0,0,1-.09.21.43.43,0,0,1-.31.09h-.81a.46.46,0,0,1-.31-.09.28.28,0,0,1-.09-.22.27.27,0,0,1,.1-.22.46.46,0,0,1,.32-.07L94.5,88h-.39a.43.43,0,0,1-.31-.09.28.28,0,0,1-.09-.22.26.26,0,0,1,.09-.21.43.43,0,0,1,.31-.09h1.3l1.19,3a.58.58,0,0,1,.28,0,.31.31,0,0,1,.14.26.25.25,0,0,1-.1.21.41.41,0,0,1-.3.09h-.81a.43.43,0,0,1-.31-.09.28.28,0,0,1-.09-.22.27.27,0,0,1,.09-.21.43.43,0,0,1,.31-.08H96Zm-.25-.6-.48-1.19-.49,1.19Z"/><path class="cls-1" d="M101.66,89.57v.76h.22a.46.46,0,0,1,.31.08.28.28,0,0,1,.09.22.27.27,0,0,1-.09.21.46.46,0,0,1-.31.09H101a.41.41,0,0,1-.3-.09.26.26,0,0,1-.1-.22.25.25,0,0,1,.1-.21.42.42,0,0,1,.3-.08h.1V88H101a.41.41,0,0,1-.3-.09.26.26,0,0,1-.1-.22.24.24,0,0,1,.1-.21.41.41,0,0,1,.3-.09h1.36a1.42,1.42,0,0,1,1,.31,1,1,0,0,1,.35.77.88.88,0,0,1-.16.51,1.51,1.51,0,0,1-.5.41,4.14,4.14,0,0,1,.41.42c.09.12.21.29.36.53a.68.68,0,0,1,.3,0,.3.3,0,0,1,.14.26.28.28,0,0,1-.1.21.41.41,0,0,1-.3.09h-.35a3.72,3.72,0,0,0-1.21-1.36Zm0-.6h.47a1.3,1.3,0,0,0,.46-.08.81.81,0,0,0,.37-.22.36.36,0,0,0,.1-.23.41.41,0,0,0-.18-.32.82.82,0,0,0-.53-.14h-.69Z"/><path class="cls-1" d="M106.61,90h-1.46l-.14.37h.14a.43.43,0,0,1,.31.08.29.29,0,0,1,.1.22.28.28,0,0,1-.1.21.43.43,0,0,1-.31.09h-.8a.43.43,0,0,1-.31-.09.29.29,0,0,1-.1-.22.3.3,0,0,1,.1-.22.48.48,0,0,1,.32-.07L105.3,88h-.39a.44.44,0,0,1-.31-.09.28.28,0,0,1-.09-.22.26.26,0,0,1,.09-.21.44.44,0,0,1,.31-.09h1.3l1.19,3a.58.58,0,0,1,.28,0,.31.31,0,0,1,.14.26.27.27,0,0,1-.09.21.44.44,0,0,1-.31.09h-.81a.44.44,0,0,1-.31-.09.28.28,0,0,1-.09-.22.27.27,0,0,1,.09-.21.44.44,0,0,1,.31-.08h.15Zm-.25-.6-.48-1.19-.49,1.19Z"/><path class="cls-1" d="M108.14,90.33V88a.42.42,0,0,1-.28-.09.27.27,0,0,1-.1-.22.24.24,0,0,1,.1-.21.43.43,0,0,1,.31-.09h1.25a1.46,1.46,0,0,1,1,.38,2.13,2.13,0,0,1,.26.34,1.59,1.59,0,0,1,.21.44,1.66,1.66,0,0,1,.07.53v.29a1.57,1.57,0,0,1-.13.67,1.21,1.21,0,0,1-.33.48,1.73,1.73,0,0,1-.4.28,1.81,1.81,0,0,1-.76.14h-1.2a.43.43,0,0,1-.31-.09.26.26,0,0,1-.1-.22.25.25,0,0,1,.1-.21A.34.34,0,0,1,108.14,90.33Zm.6,0h.64a1.15,1.15,0,0,0,.54-.11,1,1,0,0,0,.35-.34,1.08,1.08,0,0,0,.12-.54v-.28a1,1,0,0,0-.11-.5.88.88,0,0,0-.91-.58h-.63Z"/><path class="cls-1" d="M113.38,89.43v.9h.41a.44.44,0,0,1,.31.08.28.28,0,0,1,.09.22.27.27,0,0,1-.09.21.44.44,0,0,1-.31.09h-1.41a.44.44,0,0,1-.31-.09.28.28,0,0,1-.09-.22.27.27,0,0,1,.09-.21.44.44,0,0,1,.31-.08h.4v-.9l-1-1.45a.4.4,0,0,1-.29-.09.29.29,0,0,1-.09-.22.26.26,0,0,1,.09-.21.43.43,0,0,1,.31-.09h.54a.43.43,0,0,1,.31.08.26.26,0,0,1,.09.21.34.34,0,0,1-.23.31l.56.83.56-.83a.48.48,0,0,1-.19-.13.35.35,0,0,1,0-.18.26.26,0,0,1,.09-.21.44.44,0,0,1,.31-.09h.57a.42.42,0,0,1,.3.08.24.24,0,0,1,.1.21.26.26,0,0,1-.1.22.41.41,0,0,1-.3.09Z"/><path class="cls-1" d="M119.4,90.77a.32.32,0,0,1-.12.12.21.21,0,0,1-.12,0,.28.28,0,0,1-.22-.09.44.44,0,0,1-.09-.31v-.4a.43.43,0,0,1,.09-.31.28.28,0,0,1,.22-.09.23.23,0,0,1,.17,0,.39.39,0,0,1,.12.19.57.57,0,0,0,.07.17.79.79,0,0,0,.31.19,1.19,1.19,0,0,0,.47.09,1.12,1.12,0,0,0,.66-.18.34.34,0,0,0,.16-.29.31.31,0,0,0-.08-.21.63.63,0,0,0-.25-.16,4.09,4.09,0,0,0-.53-.12,2.63,2.63,0,0,1-.74-.22.93.93,0,0,1-.4-.36,1,1,0,0,1-.15-.51,1,1,0,0,1,.36-.75,1.35,1.35,0,0,1,.94-.33,1.44,1.44,0,0,1,.43.06,1.14,1.14,0,0,1,.36.15.37.37,0,0,1,.23-.11.29.29,0,0,1,.22.09.43.43,0,0,1,.08.31v.45a.46.46,0,0,1-.08.31.29.29,0,0,1-.22.09.28.28,0,0,1-.19-.07.41.41,0,0,1-.1-.2.42.42,0,0,0-.08-.21.55.55,0,0,0-.25-.19,1,1,0,0,0-.4-.08.82.82,0,0,0-.51.16.35.35,0,0,0-.11.53.5.5,0,0,0,.23.16,3.61,3.61,0,0,0,.56.13,3.75,3.75,0,0,1,.71.2,1,1,0,0,1,.41.34.92.92,0,0,1,.16.55.88.88,0,0,1-.31.71,1.56,1.56,0,0,1-1.06.35,2,2,0,0,1-.49-.06A2.19,2.19,0,0,1,119.4,90.77Z"/><path class="cls-1" d="M124.62,90h-1.46l-.15.37h.15a.46.46,0,0,1,.31.08.28.28,0,0,1,.09.22.27.27,0,0,1-.09.21.46.46,0,0,1-.31.09h-.81a.43.43,0,0,1-.31-.09.28.28,0,0,1-.09-.22.29.29,0,0,1,.09-.22.48.48,0,0,1,.32-.07l1-2.35h-.4a.41.41,0,0,1-.3-.09.26.26,0,0,1-.1-.22.24.24,0,0,1,.1-.21.41.41,0,0,1,.3-.09h1.3l1.2,3a.61.61,0,0,1,.28,0,.3.3,0,0,1,.13.26.27.27,0,0,1-.09.21.43.43,0,0,1-.31.09h-.81a.46.46,0,0,1-.31-.09.28.28,0,0,1-.09-.22.27.27,0,0,1,.09-.21.46.46,0,0,1,.31-.08h.15Zm-.25-.6-.49-1.19-.48,1.19Z"/><path class="cls-1" d="M126.86,89.57v.76h.22a.44.44,0,0,1,.31.08.28.28,0,0,1,.09.22.27.27,0,0,1-.09.21.44.44,0,0,1-.31.09h-.91a.43.43,0,0,1-.31-.09.28.28,0,0,1-.09-.22.27.27,0,0,1,.09-.21.44.44,0,0,1,.31-.08h.09V88h-.09a.43.43,0,0,1-.31-.09.28.28,0,0,1-.09-.22.26.26,0,0,1,.09-.21.43.43,0,0,1,.31-.09h1.36a1.41,1.41,0,0,1,1,.31,1,1,0,0,1,.35.77.88.88,0,0,1-.16.51,1.46,1.46,0,0,1-.49.41,4.15,4.15,0,0,1,.4.42c.09.12.21.29.37.53a.68.68,0,0,1,.3,0,.29.29,0,0,1,.13.26.27.27,0,0,1-.09.21.43.43,0,0,1-.31.09h-.34a3.81,3.81,0,0,0-1.21-1.36Zm0-.6h.47a1.36,1.36,0,0,0,.47-.08.94.94,0,0,0,.37-.22.4.4,0,0,0,.09-.23.41.41,0,0,0-.18-.32.82.82,0,0,0-.53-.14h-.69Z"/><path class="cls-1" d="M131.82,90h-1.46l-.15.37h.15a.44.44,0,0,1,.31.08.28.28,0,0,1,.09.22.27.27,0,0,1-.09.21.44.44,0,0,1-.31.09h-.81a.44.44,0,0,1-.31-.09.28.28,0,0,1-.09-.22.27.27,0,0,1,.1-.22.45.45,0,0,1,.31-.07l.95-2.35h-.39a.43.43,0,0,1-.31-.09.26.26,0,0,1-.1-.22.24.24,0,0,1,.1-.21.43.43,0,0,1,.31-.09h1.29l1.2,3a.61.61,0,0,1,.28,0,.3.3,0,0,1,.13.26.27.27,0,0,1-.09.21.43.43,0,0,1-.31.09h-.81a.41.41,0,0,1-.3-.09.26.26,0,0,1-.1-.22.25.25,0,0,1,.1-.21.42.42,0,0,1,.3-.08H132Zm-.25-.6-.49-1.19-.48,1.19Z"/><path class="cls-1" d="M137.66,89.66v.67h.22a.46.46,0,0,1,.31.08.28.28,0,0,1,.09.22.27.27,0,0,1-.09.21.46.46,0,0,1-.31.09H137a.41.41,0,0,1-.3-.09.26.26,0,0,1-.1-.22.25.25,0,0,1,.1-.21.42.42,0,0,1,.3-.08h.1V88H137a.41.41,0,0,1-.3-.09.26.26,0,0,1-.1-.22.24.24,0,0,1,.1-.21.41.41,0,0,1,.3-.09h.92a.46.46,0,0,1,.31.08.26.26,0,0,1,.09.21.28.28,0,0,1-.09.22.46.46,0,0,1-.31.09h-.22v.89l1.07-.92a.39.39,0,0,1-.13-.13.21.21,0,0,1,0-.14.28.28,0,0,1,.09-.22.44.44,0,0,1,.31-.09h.62a.42.42,0,0,1,.3.08.24.24,0,0,1,.1.21.27.27,0,0,1-.1.22.38.38,0,0,1-.28.09l-1.08.94a1.74,1.74,0,0,1,.56.53,3.3,3.3,0,0,1,.47.88h.17a.42.42,0,0,1,.3.08.28.28,0,0,1,.09.22.27.27,0,0,1-.09.21.41.41,0,0,1-.3.09h-.55a7.57,7.57,0,0,0-.41-.86,1.86,1.86,0,0,0-.34-.48,1.28,1.28,0,0,0-.39-.24Z"/><path class="cls-1" d="M142.54,89.46h-1.28v.87h.09a.43.43,0,0,1,.31.08.28.28,0,0,1,.09.22.27.27,0,0,1-.09.21.43.43,0,0,1-.31.09h-.73a.43.43,0,0,1-.31-.09.28.28,0,0,1-.09-.22.27.27,0,0,1,.14-.25.56.56,0,0,1,.3,0V88a.38.38,0,0,1-.24-.1.3.3,0,0,1-.08-.21.26.26,0,0,1,.09-.21.44.44,0,0,1,.31-.09h.61a.43.43,0,0,1,.31.08.26.26,0,0,1,.09.21.28.28,0,0,1-.09.22.43.43,0,0,1-.31.09h-.09v.87h1.28V88h-.09a.43.43,0,0,1-.31-.09.28.28,0,0,1-.09-.22.26.26,0,0,1,.09-.21.43.43,0,0,1,.31-.09h.61a.43.43,0,0,1,.31.08.26.26,0,0,1,.09.21.26.26,0,0,1-.08.21.38.38,0,0,1-.24.1v2.35a.63.63,0,0,1,.3,0,.29.29,0,0,1,.15.26.25.25,0,0,1-.1.21.43.43,0,0,1-.31.09h-.73a.43.43,0,0,1-.31-.09.28.28,0,0,1-.09-.22.27.27,0,0,1,.09-.21.44.44,0,0,1,.31-.08h.09Z"/><path class="cls-1" d="M146.22,90h-1.46l-.15.37h.15a.43.43,0,0,1,.31.08.28.28,0,0,1,.09.22.27.27,0,0,1-.09.21.43.43,0,0,1-.31.09H144a.46.46,0,0,1-.31-.09.28.28,0,0,1-.09-.22.27.27,0,0,1,.1-.22.46.46,0,0,1,.32-.07l.94-2.35h-.39a.43.43,0,0,1-.31-.09.28.28,0,0,1-.09-.22.26.26,0,0,1,.09-.21.43.43,0,0,1,.31-.09h1.3l1.19,3a.61.61,0,0,1,.28,0,.3.3,0,0,1,.13.26.27.27,0,0,1-.09.21.41.41,0,0,1-.3.09h-.81a.43.43,0,0,1-.31-.09.28.28,0,0,1-.09-.22.27.27,0,0,1,.09-.21.43.43,0,0,1,.31-.08h.14Zm-.25-.6-.48-1.19L145,89.36Z"/><path class="cls-1" d="M149.39,88v2.35h.6a.43.43,0,0,1,.31.08.28.28,0,0,1,.09.22.27.27,0,0,1-.09.21.43.43,0,0,1-.31.09h-1.81a.44.44,0,0,1-.31-.09.28.28,0,0,1-.09-.22.27.27,0,0,1,.09-.21.44.44,0,0,1,.31-.08h.61V88h-.61a.44.44,0,0,1-.31-.09.28.28,0,0,1-.09-.22.26.26,0,0,1,.09-.21.44.44,0,0,1,.31-.09H150a.43.43,0,0,1,.31.08.26.26,0,0,1,.09.21.28.28,0,0,1-.09.22A.43.43,0,0,1,150,88Z"/><path class="cls-1" d="M152.07,89.57v.76h.21a.43.43,0,0,1,.31.08.29.29,0,0,1,.1.22.28.28,0,0,1-.1.21.43.43,0,0,1-.31.09h-.91a.44.44,0,0,1-.31-.09.28.28,0,0,1-.09-.22.25.25,0,0,1,.1-.21.42.42,0,0,1,.3-.08h.1V88h-.1a.44.44,0,0,1-.31-.09.28.28,0,0,1-.09-.22.26.26,0,0,1,.09-.21.44.44,0,0,1,.31-.09h1.36a1.43,1.43,0,0,1,1,.31,1,1,0,0,1,.35.77.89.89,0,0,1-.17.51,1.46,1.46,0,0,1-.49.41,4.14,4.14,0,0,1,.41.42c.09.12.21.29.36.53a.68.68,0,0,1,.3,0,.29.29,0,0,1,.13.26.27.27,0,0,1-.09.21.43.43,0,0,1-.31.09h-.34a3.72,3.72,0,0,0-1.21-1.36Zm0-.6h.47a1.3,1.3,0,0,0,.46-.08.81.81,0,0,0,.37-.22.36.36,0,0,0,.1-.23.41.41,0,0,0-.18-.32.82.82,0,0,0-.53-.14h-.69Z"/><path class="cls-1" d="M156.59,89.43v.9H157a.42.42,0,0,1,.3.08.26.26,0,0,1,.1.22.25.25,0,0,1-.1.21.41.41,0,0,1-.3.09h-1.41a.43.43,0,0,1-.31-.09.28.28,0,0,1-.09-.22.27.27,0,0,1,.09-.21.43.43,0,0,1,.31-.08h.4v-.9L155,88a.39.39,0,0,1-.29-.09.27.27,0,0,1-.1-.22.24.24,0,0,1,.1-.21.41.41,0,0,1,.3-.09h.55a.44.44,0,0,1,.31.08.26.26,0,0,1,.09.21.33.33,0,0,1-.24.31l.57.83.56-.83a.48.48,0,0,1-.19-.13.27.27,0,0,1,0-.18.26.26,0,0,1,.09-.21.43.43,0,0,1,.31-.09h.56a.43.43,0,0,1,.31.08.26.26,0,0,1,.09.21.28.28,0,0,1-.09.22.41.41,0,0,1-.3.09Z"/><text class="cls-3" transform="translate(83.2 100.15)">2024 ITI</text></svg>