<svg id="Layer_1" data-name="Layer 1" xmlns="http://www.w3.org/2000/svg" viewBox="0 0 200 150"><defs><style>.cls-1,.cls-3{fill:#fdfefe;}.cls-2{fill:#775ca7;}.cls-3{font-size:6px;font-family:CourierNewPSMT, Courier New;}</style></defs><rect class="cls-1" x="84.79" y="46.48" width="0.39" height="15.16" transform="translate(62.58 -44.14) rotate(44.69)"/><rect class="cls-1" x="85.73" y="47.22" width="0.39" height="14.26" transform="translate(63.06 -44.72) rotate(44.69)"/><rect class="cls-1" x="86.7" y="47.74" width="0.39" height="13.68" transform="translate(63.51 -45.33) rotate(44.69)"/><rect class="cls-1" x="86.93" y="57.06" width="0.39" height="14.14" transform="translate(193.99 47.3) rotate(134.69)"/><rect class="cls-1" x="86" y="56.93" width="0.39" height="15.03" transform="translate(192.63 48.49) rotate(134.69)"/><rect class="cls-1" x="85.18" y="56.78" width="0.39" height="16.1" transform="translate(191.51 49.74) rotate(134.69)"/><rect class="cls-1" x="115.57" y="57.17" width="0.39" height="15.16" transform="translate(150.61 192.73) rotate(-134.45)"/><rect class="cls-1" x="114.63" y="57.32" width="0.39" height="14.26" transform="translate(149.24 191.54) rotate(-134.45)"/><rect class="cls-1" x="113.66" y="57.36" width="0.39" height="13.68" transform="translate(147.77 190.43) rotate(-134.45)"/><rect class="cls-1" x="113.58" y="47.57" width="0.39" height="14.14" transform="translate(-5.71 95.32) rotate(-44.45)"/><rect class="cls-1" x="114.51" y="46.83" width="0.39" height="15.03" transform="translate(-5.23 95.88) rotate(-44.45)"/><rect class="cls-1" x="115.33" y="45.92" width="0.39" height="16.1" transform="translate(-4.73 96.35) rotate(-44.45)"/><rect class="cls-1" x="78.66" y="53.67" width="5.47" height="26.1" rx="2.73" transform="translate(186.07 55.78) rotate(134.69)"/><rect class="cls-1" x="78.43" y="38.83" width="5.47" height="26.1" rx="2.73" transform="translate(57.42 -41.48) rotate(43.14)"/><rect class="cls-1" x="116.83" y="38.63" width="5.47" height="26.1" rx="2.73" transform="translate(-3.14 95.38) rotate(-42.98)"/><rect class="cls-1" x="116.45" y="53.46" width="5.47" height="26.1" rx="2.73" transform="translate(155.34 198.13) rotate(-134.53)"/><rect class="cls-1" x="98" y="43.72" width="5.9" height="32.29" rx="2.73" transform="translate(16.02 -21.14) rotate(12.98)"/><rect class="cls-2" x="99.97" y="49.02" width="5.91" height="4.58" transform="matrix(0.97, 0.22, -0.22, 0.97, 14.15, -21.81)"/><rect class="cls-2" x="96.34" y="62.81" width="5.91" height="8.52" transform="translate(17.6 -20.59) rotate(12.98)"/><path class="cls-1" d="M79.71,83.36V80.42H79.5a.17.17,0,0,1-.12,0,.12.12,0,0,1,0-.18.17.17,0,0,1,.12,0h1.33a1.18,1.18,0,0,1,.56.13,1.1,1.1,0,0,1,.39.29,2,2,0,0,1,.36.59,1.69,1.69,0,0,1,.08.53v.34a1.57,1.57,0,0,1-.17.73,1.47,1.47,0,0,1-.55.62,1.2,1.2,0,0,1-.67.2H79.5a.17.17,0,0,1-.12,0,.1.1,0,0,1,0-.09.12.12,0,0,1,0-.09.17.17,0,0,1,.12,0Zm.25,0h.89a1,1,0,0,0,.58-.2,1.36,1.36,0,0,0,.41-.49,1.27,1.27,0,0,0,.13-.56v-.44a1.07,1.07,0,0,0-.07-.41,1.8,1.8,0,0,0-.3-.49.88.88,0,0,0-.31-.24.93.93,0,0,0-.44-.11H80Z"/><path class="cls-1" d="M83.47,82v1.41h1.9v-.73a.17.17,0,0,1,0-.12.12.12,0,0,1,.18,0,.17.17,0,0,1,0,.12v1H82.9a.22.22,0,0,1-.13,0,.13.13,0,0,1,0-.09.18.18,0,0,1,0-.09.23.23,0,0,1,.13,0h.33V80.42H82.9a.23.23,0,0,1-.13,0,.12.12,0,0,1,0-.18.23.23,0,0,1,.13,0h2.58V81a.23.23,0,0,1,0,.13.12.12,0,0,1-.18,0,.23.23,0,0,1,0-.13v-.6H83.47V81.7h.89v-.27a.23.23,0,0,1,0-.13.12.12,0,0,1,.09,0,.1.1,0,0,1,.09,0,.22.22,0,0,1,0,.13v.8a.17.17,0,0,1,0,.12.1.1,0,0,1-.09,0,.12.12,0,0,1-.09,0,.17.17,0,0,1,0-.12V82Z"/><path class="cls-1" d="M88.06,83.61h-.34l-1.24-3.19h-.29a.1.1,0,0,1,0,0,.19.19,0,0,1,0-.07.25.25,0,0,1,0-.07.1.1,0,0,1,0,0H87.3a.1.1,0,0,1,0,0,.25.25,0,0,1,0,.07.19.19,0,0,1,0,.07l0,0h-.57l1.15,2.94h0L89,80.42h-.57l0,0a.19.19,0,0,1,0-.07.13.13,0,0,1,0-.07s0,0,0,0h1.12s0,0,0,0a.11.11,0,0,1,0,.07.1.1,0,0,1,0,.07.1.1,0,0,1,0,0h-.28Z"/><path class="cls-1" d="M90.68,82v1.41h1.89v-.73a.17.17,0,0,1,0-.12.12.12,0,0,1,.18,0,.17.17,0,0,1,0,.12v1H90.1a.22.22,0,0,1-.13,0,.13.13,0,0,1,0-.09.18.18,0,0,1,0-.09.23.23,0,0,1,.13,0h.33V80.42H90.1a.23.23,0,0,1-.13,0,.12.12,0,0,1,0-.18.23.23,0,0,1,.13,0h2.59V81a.22.22,0,0,1,0,.13.1.1,0,0,1-.09,0,.12.12,0,0,1-.09,0,.23.23,0,0,1,0-.13v-.6H90.68V81.7h.88v-.27a.23.23,0,0,1,0-.13.12.12,0,0,1,.09,0,.1.1,0,0,1,.09,0,.22.22,0,0,1,0,.13v.8a.17.17,0,0,1,0,.12.1.1,0,0,1-.09,0,.12.12,0,0,1-.09,0,.17.17,0,0,1,0-.12V82Z"/><path class="cls-1" d="M94.65,80.42v2.94h1.64v-1a.23.23,0,0,1,0-.13.14.14,0,0,1,.09,0,.12.12,0,0,1,.09,0,.22.22,0,0,1,0,.13v1.23H93.82a.22.22,0,0,1-.13,0,.13.13,0,0,1,0-.09.18.18,0,0,1,0-.09.23.23,0,0,1,.13,0h.58V80.42h-.58a.23.23,0,0,1-.13,0,.12.12,0,0,1,0-.18.23.23,0,0,1,.13,0h1.42a.17.17,0,0,1,.12,0,.12.12,0,0,1,0,.18.17.17,0,0,1-.12,0Z"/><path class="cls-1" d="M100.18,81.9a2,2,0,0,1-.2.91,1.55,1.55,0,0,1-.55.66,1.35,1.35,0,0,1-.75.23,1.38,1.38,0,0,1-1-.5,2.07,2.07,0,0,1,0-2.6,1.38,1.38,0,0,1,1-.5,1.35,1.35,0,0,1,.75.23A1.55,1.55,0,0,1,100,81,2,2,0,0,1,100.18,81.9Zm-.25,0a1.75,1.75,0,0,0-.35-1.08,1.06,1.06,0,0,0-.9-.48,1.11,1.11,0,0,0-.88.46,1.83,1.83,0,0,0,0,2.22,1.16,1.16,0,0,0,.87.44,1.06,1.06,0,0,0,.9-.48A1.75,1.75,0,0,0,99.93,81.9Z"/><path class="cls-1" d="M101.74,82.2v1.16h.85a.17.17,0,0,1,.12,0,.12.12,0,0,1,0,.09.1.1,0,0,1,0,.09.17.17,0,0,1-.12,0h-1.42a.22.22,0,0,1-.13,0,.13.13,0,0,1,0-.09.18.18,0,0,1,0-.09.23.23,0,0,1,.13,0h.33V80.42h-.33a.23.23,0,0,1-.13,0,.12.12,0,0,1,0-.18.23.23,0,0,1,.13,0h1.43a1.15,1.15,0,0,1,.82.3.91.91,0,0,1,.33.7.85.85,0,0,1-.11.42.84.84,0,0,1-.25.3,1.64,1.64,0,0,1-.45.24,1.35,1.35,0,0,1-.43.06Zm0-.25h.79a1.13,1.13,0,0,0,.51-.12.81.81,0,0,0,.35-.3.66.66,0,0,0,.11-.35.67.67,0,0,0-.25-.52.88.88,0,0,0-.63-.24h-.88Z"/><path class="cls-1" d="M105.08,82v1.41H107v-.73a.17.17,0,0,1,0-.12.12.12,0,0,1,.09,0,.1.1,0,0,1,.09,0s0,.06,0,.12v1H104.5a.17.17,0,0,1-.12,0,.1.1,0,0,1,0-.09.12.12,0,0,1,0-.09.17.17,0,0,1,.12,0h.33V80.42h-.33a.17.17,0,0,1-.12,0,.12.12,0,0,1,0-.18.17.17,0,0,1,.12,0h2.59V81a.17.17,0,0,1,0,.13.1.1,0,0,1-.09,0,.09.09,0,0,1-.08,0,.17.17,0,0,1,0-.13v-.6h-1.76V81.7H106v-.27a.17.17,0,0,1,0-.13.1.1,0,0,1,.09,0,.09.09,0,0,1,.08,0,.17.17,0,0,1,0,.13v.8c0,.06,0,.1,0,.12a.09.09,0,0,1-.08,0,.1.1,0,0,1-.09,0s0-.06,0-.12V82Z"/><path class="cls-1" d="M108.51,83.36V80.42h-.2a.23.23,0,0,1-.13,0,.12.12,0,0,1,0-.18.23.23,0,0,1,.13,0h1.32a1.2,1.2,0,0,1,.57.13,1.1,1.1,0,0,1,.39.29,2.24,2.24,0,0,1,.35.59,1.44,1.44,0,0,1,.09.53v.34a1.7,1.7,0,0,1-.17.73,1.5,1.5,0,0,1-.56.62,1.18,1.18,0,0,1-.67.2h-1.32a.22.22,0,0,1-.13,0,.13.13,0,0,1,0-.09.18.18,0,0,1,0-.09.23.23,0,0,1,.13,0Zm.25,0h.89a1,1,0,0,0,.59-.2,1.33,1.33,0,0,0,.4-.49,1.29,1.29,0,0,0,.14-.56v-.44a1.3,1.3,0,0,0-.07-.41,1.8,1.8,0,0,0-.3-.49,1,1,0,0,0-.31-.24,1,1,0,0,0-.45-.11h-.89Z"/><path class="cls-1" d="M115.63,83.36V80.42h-.33a.23.23,0,0,1-.13,0,.15.15,0,0,1,0-.18.23.23,0,0,1,.13,0h1.55a1.12,1.12,0,0,1,.75.26.84.84,0,0,1,.28.63.81.81,0,0,1-.48.72,1.27,1.27,0,0,1,.56.37.79.79,0,0,1,.18.51.89.89,0,0,1-.12.45.88.88,0,0,1-.35.34,1,1,0,0,1-.53.15H115.3a.22.22,0,0,1-.13,0,.12.12,0,0,1,0-.09.16.16,0,0,1,0-.09.23.23,0,0,1,.13,0Zm.25-1.66h.87a1.25,1.25,0,0,0,.51-.1.73.73,0,0,0,.28-.24.62.62,0,0,0,.09-.32.57.57,0,0,0-.21-.42.84.84,0,0,0-.57-.2h-1Zm0,1.66h1.24a.82.82,0,0,0,.42-.11.72.72,0,0,0,.26-.26.62.62,0,0,0,.09-.32.57.57,0,0,0-.13-.36.82.82,0,0,0-.36-.27,1.81,1.81,0,0,0-.64-.09h-.88Z"/><path class="cls-1" d="M120.41,82.06v1.3h.64a.23.23,0,0,1,.13,0,.16.16,0,0,1,0,.09.12.12,0,0,1,0,.09.22.22,0,0,1-.13,0h-1.53a.19.19,0,0,1-.12,0,.1.1,0,0,1,0-.09.12.12,0,0,1,0-.09.17.17,0,0,1,.12,0h.64v-1.3l-1.08-1.64h-.14a.21.21,0,0,1-.13,0,.12.12,0,0,1,0-.18.21.21,0,0,1,.13,0h.67a.23.23,0,0,1,.13,0,.12.12,0,0,1,0,.18.23.23,0,0,1-.13,0h-.24l.92,1.39.9-1.39H121a.21.21,0,0,1-.13,0,.12.12,0,0,1,0-.18.21.21,0,0,1,.13,0h.67a.23.23,0,0,1,.13,0,.12.12,0,0,1,0,.18.23.23,0,0,1-.13,0h-.14Z"/><path class="cls-1" d="M45.48,89.66H43.86l-.33.9H44a.23.23,0,0,1,.13,0,.18.18,0,0,1,0,.09.13.13,0,0,1,0,.09.22.22,0,0,1-.13,0h-.92a.17.17,0,0,1-.12,0,.1.1,0,0,1,0-.09.12.12,0,0,1,0-.09.17.17,0,0,1,.12,0h.19l1.09-2.94h-.73a.19.19,0,0,1-.12,0,.12.12,0,0,1,0-.18.19.19,0,0,1,.12,0h1.24l1.2,3.18h.19a.21.21,0,0,1,.13,0,.12.12,0,0,1,0,.09.1.1,0,0,1,0,.09.2.2,0,0,1-.13,0h-.91a.2.2,0,0,1-.13,0,.1.1,0,0,1,0-.09.12.12,0,0,1,0-.09.21.21,0,0,1,.13,0h.47Zm-.09-.25-.68-1.79h-.09L44,89.41Z"/><path class="cls-1" d="M47.84,87.62v2.94h1.64v-1a.17.17,0,0,1,0-.12.13.13,0,0,1,.18,0,.17.17,0,0,1,0,.13v1.23H47a.22.22,0,0,1-.13,0,.13.13,0,0,1,0-.09.18.18,0,0,1,0-.09.23.23,0,0,1,.13,0h.58V87.62H47a.23.23,0,0,1-.13,0,.12.12,0,0,1,0-.18.23.23,0,0,1,.13,0h1.42a.23.23,0,0,1,.13,0,.15.15,0,0,1,0,.18.23.23,0,0,1-.13,0Z"/><path class="cls-1" d="M51.07,89.46v1.1h.46a.23.23,0,0,1,.13,0,.16.16,0,0,1,0,.09.12.12,0,0,1,0,.09.22.22,0,0,1-.13,0h-1a.2.2,0,0,1-.13,0,.1.1,0,0,1,0-.09.12.12,0,0,1,0-.09.21.21,0,0,1,.13,0h.33V87.62H50.5a.21.21,0,0,1-.13,0,.12.12,0,0,1,0-.18.21.21,0,0,1,.13,0h1a.23.23,0,0,1,.13,0,.15.15,0,0,1,0,.18.23.23,0,0,1-.13,0h-.46v1.52l1.7-1.52H52.5a.23.23,0,0,1-.13,0,.12.12,0,0,1,0-.18.23.23,0,0,1,.13,0h.73a.19.19,0,0,1,.12,0,.12.12,0,0,1,0,.18.19.19,0,0,1-.12,0h-.1l-1.36,1.21a1.86,1.86,0,0,1,.5.31,2,2,0,0,1,.39.53,7.93,7.93,0,0,1,.38.89h.31a.21.21,0,0,1,.13,0,.12.12,0,0,1,0,.09.1.1,0,0,1,0,.09.2.2,0,0,1-.13,0h-.47a5.45,5.45,0,0,0-.65-1.37,1.44,1.44,0,0,0-.66-.42Z"/><path class="cls-1" d="M56.28,89.66H54.66l-.33.9h.47a.21.21,0,0,1,.13,0,.12.12,0,0,1,0,.09.1.1,0,0,1,0,.09.2.2,0,0,1-.13,0h-.92a.19.19,0,0,1-.12,0,.1.1,0,0,1,0-.09.12.12,0,0,1,0-.09.19.19,0,0,1,.12,0h.2l1.08-2.94h-.72a.21.21,0,0,1-.13,0,.12.12,0,0,1,0-.18.21.21,0,0,1,.13,0h1.23l1.21,3.18h.19a.19.19,0,0,1,.12,0,.12.12,0,0,1,0,.09.1.1,0,0,1,0,.09.19.19,0,0,1-.12,0h-.92a.22.22,0,0,1-.13,0,.13.13,0,0,1,0-.09.18.18,0,0,1,0-.09.23.23,0,0,1,.13,0h.47Zm-.09-.25-.68-1.79h-.09l-.66,1.79Z"/><path class="cls-1" d="M60,87.62v-.08c0-.06,0-.1,0-.12a.1.1,0,0,1,.09,0,.09.09,0,0,1,.08,0s0,.06,0,.12v.63c0,.06,0,.1,0,.12a.09.09,0,0,1-.08,0,.12.12,0,0,1-.09,0,.19.19,0,0,1,0-.12.61.61,0,0,0-.25-.44,1,1,0,0,0-.63-.2,1,1,0,0,0-.64.21.65.65,0,0,0-.24.5.55.55,0,0,0,.06.26.7.7,0,0,0,.18.2,1.15,1.15,0,0,0,.25.12,3.27,3.27,0,0,0,.44.09,3.73,3.73,0,0,1,.69.17.89.89,0,0,1,.39.32.82.82,0,0,1,.13.48.88.88,0,0,1-.34.71,1.3,1.3,0,0,1-.91.3,1.35,1.35,0,0,1-1-.4v.14a.23.23,0,0,1,0,.13.18.18,0,0,1-.09,0,.13.13,0,0,1-.09,0,.22.22,0,0,1,0-.13V90a.17.17,0,0,1,0-.13.13.13,0,0,1,.09,0,.14.14,0,0,1,.12.15.68.68,0,0,0,.29.49,1.12,1.12,0,0,0,.73.23,1.08,1.08,0,0,0,.74-.24.7.7,0,0,0,.26-.54.6.6,0,0,0-.1-.35.73.73,0,0,0-.3-.24,3.44,3.44,0,0,0-.59-.13,2,2,0,0,1-.88-.32.72.72,0,0,1-.27-.6.83.83,0,0,1,.31-.66,1.14,1.14,0,0,1,.81-.28A1.33,1.33,0,0,1,60,87.62Z"/><path class="cls-1" d="M61.87,89.15v1.41h1.89v-.73c0-.06,0-.1,0-.12a.1.1,0,0,1,.09,0,.12.12,0,0,1,.09,0,.17.17,0,0,1,0,.12v1H61.29a.19.19,0,0,1-.12,0,.1.1,0,0,1,0-.09.12.12,0,0,1,0-.09.19.19,0,0,1,.12,0h.33V87.62h-.33a.19.19,0,0,1-.12,0,.12.12,0,0,1,0-.18.19.19,0,0,1,.12,0h2.59v.84a.21.21,0,0,1,0,.13.12.12,0,0,1-.09,0,.1.1,0,0,1-.09,0,.2.2,0,0,1,0-.13v-.6H61.87V88.9h.88v-.27a.17.17,0,0,1,0-.13.1.1,0,0,1,.09,0,.12.12,0,0,1,.09,0,.23.23,0,0,1,0,.13v.8a.17.17,0,0,1,0,.12.12.12,0,0,1-.09,0,.1.1,0,0,1-.09,0s0-.06,0-.12v-.28Z"/><path class="cls-1" d="M66.44,89.78h-.29l-.94-2.16h0v2.94h.46a.19.19,0,0,1,.12,0,.12.12,0,0,1,0,.09.1.1,0,0,1,0,.09.19.19,0,0,1-.12,0h-.91a.22.22,0,0,1-.13,0,.13.13,0,0,1,0-.09.18.18,0,0,1,0-.09.23.23,0,0,1,.13,0h.21V87.62h-.16a.23.23,0,0,1-.13,0,.15.15,0,0,1,0-.18.23.23,0,0,1,.13,0h.6l.93,2.12.92-2.12h.61a.17.17,0,0,1,.12,0,.12.12,0,0,1,0,.18.17.17,0,0,1-.12,0h-.16v2.94h.21a.23.23,0,0,1,.13,0,.18.18,0,0,1,0,.09.13.13,0,0,1,0,.09.22.22,0,0,1-.13,0H67a.17.17,0,0,1-.12,0,.1.1,0,0,1,0-.09.16.16,0,0,1,0-.09.23.23,0,0,1,.13,0h.46V87.62h-.06Z"/><path class="cls-1" d="M73.64,89.78h-.28l-1-2.16h0v2.94h.46a.17.17,0,0,1,.12,0,.12.12,0,0,1,0,.09.1.1,0,0,1,0,.09.17.17,0,0,1-.12,0h-.91a.22.22,0,0,1-.13,0,.13.13,0,0,1,0-.09.18.18,0,0,1,0-.09.23.23,0,0,1,.13,0h.21V87.62H72a.23.23,0,0,1-.13,0,.15.15,0,0,1,0-.18.23.23,0,0,1,.13,0h.6l.94,2.12.91-2.12H75a.23.23,0,0,1,.13,0,.15.15,0,0,1,0,.18.23.23,0,0,1-.13,0h-.16v2.94h.21a.23.23,0,0,1,.13,0,.18.18,0,0,1,0,.09.13.13,0,0,1,0,.09.22.22,0,0,1-.13,0h-.91a.19.19,0,0,1-.12,0,.1.1,0,0,1,0-.09.12.12,0,0,1,0-.09.17.17,0,0,1,.12,0h.46V87.62h-.05Z"/><path class="cls-1" d="M78.58,89.1a2.13,2.13,0,0,1-.2.91,1.63,1.63,0,0,1-.55.66,1.35,1.35,0,0,1-.75.23,1.38,1.38,0,0,1-1-.5,2.1,2.1,0,0,1,0-2.6,1.38,1.38,0,0,1,1-.5,1.35,1.35,0,0,1,.75.23,1.71,1.71,0,0,1,.55.66A2.13,2.13,0,0,1,78.58,89.1Zm-.25,0A1.81,1.81,0,0,0,78,88a1.06,1.06,0,0,0-.9-.48,1.13,1.13,0,0,0-.89.46,1.71,1.71,0,0,0-.36,1.1,1.6,1.6,0,0,0,.38,1.12,1.16,1.16,0,0,0,.87.44,1.06,1.06,0,0,0,.9-.48A1.81,1.81,0,0,0,78.33,89.1Z"/><path class="cls-1" d="M81.56,87.62v-.08a.17.17,0,0,1,0-.12.12.12,0,0,1,.18,0,.17.17,0,0,1,0,.12v.63a.17.17,0,0,1,0,.12.1.1,0,0,1-.09,0,.12.12,0,0,1-.09,0,.19.19,0,0,1,0-.12.63.63,0,0,0-.26-.44,1,1,0,0,0-.62-.2,1,1,0,0,0-.65.21.65.65,0,0,0-.24.5.46.46,0,0,0,.07.26.49.49,0,0,0,.18.2.83.83,0,0,0,.25.12,3,3,0,0,0,.44.09,4.23,4.23,0,0,1,.69.17.81.81,0,0,1,.38.32.82.82,0,0,1,.13.48.91.91,0,0,1-.33.71,1.33,1.33,0,0,1-.91.3,1.36,1.36,0,0,1-1-.4v.14a.23.23,0,0,1,0,.13.13.13,0,0,1-.09,0,.15.15,0,0,1-.09,0,.23.23,0,0,1,0-.13V90a.23.23,0,0,1,0-.13.13.13,0,0,1,.09,0,.15.15,0,0,1,.09,0,.16.16,0,0,1,0,.11.68.68,0,0,0,.29.49,1.13,1.13,0,0,0,.74.23,1.05,1.05,0,0,0,.73-.24.68.68,0,0,0,.27-.54.61.61,0,0,0-.11-.35.62.62,0,0,0-.3-.24,3.22,3.22,0,0,0-.59-.13,2.06,2.06,0,0,1-.88-.32.72.72,0,0,1-.27-.6.86.86,0,0,1,.31-.66,1.17,1.17,0,0,1,.82-.28A1.35,1.35,0,0,1,81.56,87.62Z"/><path class="cls-1" d="M84.4,87.62v2.94H85a.19.19,0,0,1,.12,0,.12.12,0,0,1,0,.09.1.1,0,0,1,0,.09.19.19,0,0,1-.12,0H83.51a.22.22,0,0,1-.13,0,.12.12,0,0,1,0-.09.16.16,0,0,1,0-.09.23.23,0,0,1,.13,0h.64V87.62h-1v.86a.23.23,0,0,1,0,.13.16.16,0,0,1-.09,0,.12.12,0,0,1-.09,0,.22.22,0,0,1,0-.13v-1.1h2.76v1.1a.23.23,0,0,1,0,.13.15.15,0,0,1-.18,0,.23.23,0,0,1,0-.13v-.86Z"/><path class="cls-1" d="M88.69,89.66H87.07l-.33.9h.47a.23.23,0,0,1,.13,0,.16.16,0,0,1,0,.09.12.12,0,0,1,0,.09.22.22,0,0,1-.13,0h-.92a.22.22,0,0,1-.13,0,.12.12,0,0,1,0-.09.16.16,0,0,1,0-.09.23.23,0,0,1,.13,0h.19l1.09-2.94h-.73a.23.23,0,0,1-.13,0,.15.15,0,0,1,0-.18.23.23,0,0,1,.13,0h1.24l1.2,3.18h.19a.23.23,0,0,1,.13,0,.18.18,0,0,1,0,.09.13.13,0,0,1,0,.09.22.22,0,0,1-.13,0h-.92a.17.17,0,0,1-.12,0,.1.1,0,0,1,0-.09.12.12,0,0,1,0-.09.17.17,0,0,1,.12,0H89Zm-.1-.25-.68-1.79h-.09l-.66,1.79Z"/><path class="cls-1" d="M90.88,89.15v1.41h.85a.17.17,0,0,1,.12,0,.12.12,0,0,1,0,.09.1.1,0,0,1,0,.09.17.17,0,0,1-.12,0H90.31a.22.22,0,0,1-.13,0,.13.13,0,0,1,0-.09.18.18,0,0,1,0-.09.23.23,0,0,1,.13,0h.33V87.62h-.33a.23.23,0,0,1-.13,0,.13.13,0,0,1,0-.09.11.11,0,0,1,0-.09.17.17,0,0,1,.12,0H93v.84a.2.2,0,0,1,0,.13.1.1,0,0,1-.09,0,.12.12,0,0,1-.09,0,.21.21,0,0,1,0-.13v-.6H90.88V88.9h.89v-.27a.23.23,0,0,1,0-.13.12.12,0,0,1,.18,0,.23.23,0,0,1,0,.13v.8a.17.17,0,0,1,0,.12.12.12,0,0,1-.18,0,.17.17,0,0,1,0-.12v-.28Z"/><path class="cls-1" d="M95.89,89.66H94.27l-.33.9h.47a.23.23,0,0,1,.13,0,.18.18,0,0,1,0,.09.13.13,0,0,1,0,.09.22.22,0,0,1-.13,0h-.92a.17.17,0,0,1-.12,0,.1.1,0,0,1,0-.09.12.12,0,0,1,0-.09.17.17,0,0,1,.12,0h.19l1.09-2.94H94a.17.17,0,0,1-.12,0,.12.12,0,0,1,0-.18.17.17,0,0,1,.12,0h1.24l1.2,3.18h.19a.23.23,0,0,1,.13,0,.18.18,0,0,1,0,.09.13.13,0,0,1,0,.09.22.22,0,0,1-.13,0h-.91a.2.2,0,0,1-.13,0,.1.1,0,0,1,0-.09.12.12,0,0,1,0-.09.21.21,0,0,1,.13,0h.46Zm-.1-.25-.68-1.79H95l-.66,1.79Z"/><path class="cls-1" d="M101.48,89.28v1.28h.45a.21.21,0,0,1,.13,0,.12.12,0,0,1,0,.09.1.1,0,0,1,0,.09.2.2,0,0,1-.13,0h-1a.22.22,0,0,1-.13,0,.12.12,0,0,1,0-.09.16.16,0,0,1,0-.09.23.23,0,0,1,.13,0h.33V87.62h-.33a.23.23,0,0,1-.13,0,.15.15,0,0,1,0-.18.23.23,0,0,1,.13,0h1.49a1.1,1.1,0,0,1,.77.29.87.87,0,0,1,.32.66.75.75,0,0,1-.2.49,1.34,1.34,0,0,1-.65.39,2,2,0,0,1,.45.41,7.25,7.25,0,0,1,.6.94h.19a.23.23,0,0,1,.13,0,.18.18,0,0,1,0,.09.13.13,0,0,1,0,.09.22.22,0,0,1-.13,0h-.33a7.2,7.2,0,0,0-.7-1.1,1.72,1.72,0,0,0-.58-.43Zm0-.25h.67a1.37,1.37,0,0,0,.58-.12.91.91,0,0,0,.38-.27.56.56,0,0,0,.12-.32.64.64,0,0,0-.24-.47.89.89,0,0,0-.61-.23h-.9Z"/><path class="cls-1" d="M106.69,89.66h-1.62l-.33.9h.47a.23.23,0,0,1,.13,0,.18.18,0,0,1,0,.09.13.13,0,0,1,0,.09.22.22,0,0,1-.13,0h-.92a.17.17,0,0,1-.12,0,.1.1,0,0,1,0-.09.12.12,0,0,1,0-.09.17.17,0,0,1,.12,0h.19l1.09-2.94h-.73a.19.19,0,0,1-.12,0,.12.12,0,0,1,0-.18.19.19,0,0,1,.12,0h1.24l1.2,3.18h.19a.21.21,0,0,1,.13,0,.12.12,0,0,1,0,.09.1.1,0,0,1,0,.09.2.2,0,0,1-.13,0h-.91a.2.2,0,0,1-.13,0,.1.1,0,0,1,0-.09.12.12,0,0,1,0-.09.21.21,0,0,1,.13,0H107Zm-.09-.25-.68-1.79h-.09l-.66,1.79Z"/><path class="cls-1" d="M108.51,90.56V87.62h-.2a.23.23,0,0,1-.13,0,.12.12,0,0,1,0-.18.23.23,0,0,1,.13,0h1.32a1.2,1.2,0,0,1,.57.13,1.1,1.1,0,0,1,.39.29,2.24,2.24,0,0,1,.35.59,1.44,1.44,0,0,1,.09.53v.34a1.7,1.7,0,0,1-.17.73,1.5,1.5,0,0,1-.56.62,1.18,1.18,0,0,1-.67.2h-1.32a.22.22,0,0,1-.13,0,.13.13,0,0,1,0-.09.18.18,0,0,1,0-.09.23.23,0,0,1,.13,0Zm.25,0h.89a1,1,0,0,0,.59-.2,1.33,1.33,0,0,0,.4-.49,1.29,1.29,0,0,0,.14-.56v-.44a1.3,1.3,0,0,0-.07-.41,1.8,1.8,0,0,0-.3-.49,1,1,0,0,0-.31-.24,1,1,0,0,0-.45-.11h-.89Z"/><path class="cls-1" d="M113.21,89.26v1.3h.64a.23.23,0,0,1,.13,0,.16.16,0,0,1,0,.09.12.12,0,0,1,0,.09.22.22,0,0,1-.13,0h-1.53a.17.17,0,0,1-.12,0,.1.1,0,0,1,0-.09.12.12,0,0,1,0-.09.17.17,0,0,1,.12,0H113v-1.3l-1.08-1.64h-.15a.19.19,0,0,1-.12,0,.12.12,0,0,1,0-.18.19.19,0,0,1,.12,0h.68a.23.23,0,0,1,.13,0,.12.12,0,0,1,0,.18.23.23,0,0,1-.13,0h-.24l.92,1.39.9-1.39h-.24a.21.21,0,0,1-.13,0,.12.12,0,0,1,0-.18.21.21,0,0,1,.13,0h.67a.23.23,0,0,1,.13,0,.15.15,0,0,1,0,.18.23.23,0,0,1-.13,0h-.15Z"/><path class="cls-1" d="M121.16,87.62v-.08c0-.06,0-.1,0-.12a.1.1,0,0,1,.09,0,.09.09,0,0,1,.08,0s0,.06,0,.12v.63c0,.06,0,.1,0,.12a.09.09,0,0,1-.08,0,.12.12,0,0,1-.09,0,.19.19,0,0,1,0-.12.61.61,0,0,0-.25-.44,1,1,0,0,0-.63-.2,1,1,0,0,0-.64.21.65.65,0,0,0-.24.5.55.55,0,0,0,.06.26.7.7,0,0,0,.18.2,1.15,1.15,0,0,0,.25.12,3.27,3.27,0,0,0,.44.09,3.73,3.73,0,0,1,.69.17.89.89,0,0,1,.39.32.82.82,0,0,1,.13.48.88.88,0,0,1-.34.71,1.3,1.3,0,0,1-.91.3,1.35,1.35,0,0,1-1-.4v.14a.23.23,0,0,1,0,.13.18.18,0,0,1-.09,0,.13.13,0,0,1-.09,0,.22.22,0,0,1,0-.13V90a.17.17,0,0,1,0-.13.13.13,0,0,1,.09,0,.12.12,0,0,1,.08,0,.16.16,0,0,1,0,.11.68.68,0,0,0,.29.49,1.12,1.12,0,0,0,.73.23,1.08,1.08,0,0,0,.74-.24.7.7,0,0,0,.26-.54.6.6,0,0,0-.1-.35.73.73,0,0,0-.3-.24,3.44,3.44,0,0,0-.59-.13,2,2,0,0,1-.88-.32.72.72,0,0,1-.27-.6.83.83,0,0,1,.31-.66,1.14,1.14,0,0,1,.81-.28A1.33,1.33,0,0,1,121.16,87.62Z"/><path class="cls-1" d="M124.69,89.66h-1.61l-.34.9h.48a.19.19,0,0,1,.12,0,.12.12,0,0,1,0,.09.1.1,0,0,1,0,.09.19.19,0,0,1-.12,0h-.92a.22.22,0,0,1-.13,0,.1.1,0,0,1,0-.09.12.12,0,0,1,0-.09.23.23,0,0,1,.13,0h.19l1.08-2.94h-.72a.23.23,0,0,1-.13,0,.12.12,0,0,1,0-.18.23.23,0,0,1,.13,0h1.24l1.2,3.18h.19a.17.17,0,0,1,.12,0,.12.12,0,0,1,0,.09.1.1,0,0,1,0,.09.17.17,0,0,1-.12,0h-.92a.22.22,0,0,1-.13,0,.13.13,0,0,1,0-.09.18.18,0,0,1,0-.09.23.23,0,0,1,.13,0H125Zm-.09-.25-.68-1.79h-.09l-.66,1.79Z"/><path class="cls-1" d="M126.68,89.28v1.28h.46a.17.17,0,0,1,.12,0,.12.12,0,0,1,0,.09.1.1,0,0,1,0,.09.17.17,0,0,1-.12,0h-1a.19.19,0,0,1-.12,0,.1.1,0,0,1,0-.09.12.12,0,0,1,0-.09.19.19,0,0,1,.12,0h.34V87.62h-.34a.19.19,0,0,1-.12,0,.12.12,0,0,1,0-.18.19.19,0,0,1,.12,0h1.49a1.12,1.12,0,0,1,.78.29.86.86,0,0,1,.31.66.74.74,0,0,1-.19.49,1.39,1.39,0,0,1-.65.39,2.52,2.52,0,0,1,.45.41,10.48,10.48,0,0,1,.6.94h.19a.19.19,0,0,1,.12,0,.12.12,0,0,1,0,.09.1.1,0,0,1,0,.09.19.19,0,0,1-.12,0h-.33a7,7,0,0,0-.71-1.1,1.72,1.72,0,0,0-.58-.43Zm0-.25h.67a1.41,1.41,0,0,0,.59-.12,1.06,1.06,0,0,0,.38-.27.56.56,0,0,0,.12-.32.65.65,0,0,0-.25-.47.88.88,0,0,0-.6-.23h-.91Z"/><path class="cls-1" d="M131.89,89.66h-1.61l-.33.9h.47a.17.17,0,0,1,.12,0,.12.12,0,0,1,0,.09.1.1,0,0,1,0,.09.17.17,0,0,1-.12,0h-.92a.22.22,0,0,1-.13,0,.13.13,0,0,1,0-.09.18.18,0,0,1,0-.09.23.23,0,0,1,.13,0h.19l1.08-2.94h-.72a.23.23,0,0,1-.13,0,.12.12,0,0,1,0-.18.23.23,0,0,1,.13,0h1.24l1.2,3.18h.19a.17.17,0,0,1,.12,0,.12.12,0,0,1,0,.09.1.1,0,0,1,0,.09.17.17,0,0,1-.12,0h-.92a.22.22,0,0,1-.13,0,.13.13,0,0,1,0-.09.18.18,0,0,1,0-.09.23.23,0,0,1,.13,0h.47Zm-.09-.25-.68-1.79H131l-.66,1.79Z"/><path class="cls-1" d="M137.49,89.46v1.1h.45a.23.23,0,0,1,.13,0,.18.18,0,0,1,0,.09.13.13,0,0,1,0,.09.22.22,0,0,1-.13,0h-1a.22.22,0,0,1-.13,0,.12.12,0,0,1,0-.09.16.16,0,0,1,0-.09.23.23,0,0,1,.13,0h.33V87.62h-.33a.23.23,0,0,1-.13,0,.15.15,0,0,1,0-.18.23.23,0,0,1,.13,0h1a.23.23,0,0,1,.13,0,.12.12,0,0,1,0,.18.23.23,0,0,1-.13,0h-.45v1.52l1.7-1.52h-.27a.21.21,0,0,1-.13,0,.12.12,0,0,1,0-.18.21.21,0,0,1,.13,0h.72a.23.23,0,0,1,.13,0,.15.15,0,0,1,0,.18.23.23,0,0,1-.13,0h-.1l-1.35,1.21a2,2,0,0,1,.5.31,2,2,0,0,1,.38.53,9.47,9.47,0,0,1,.39.89h.31a.17.17,0,0,1,.12,0,.12.12,0,0,1,0,.09.1.1,0,0,1,0,.09.17.17,0,0,1-.12,0h-.48a5.11,5.11,0,0,0-.65-1.37A1.39,1.39,0,0,0,138,89Z"/><path class="cls-1" d="M142.72,89.15h-1.63v1.41h.33a.17.17,0,0,1,.12,0,.12.12,0,0,1,0,.09.1.1,0,0,1,0,.09.17.17,0,0,1-.12,0h-.86a.17.17,0,0,1-.12,0,.1.1,0,0,1,0-.09.12.12,0,0,1,0-.09.17.17,0,0,1,.12,0h.28V87.62h-.15a.21.21,0,0,1-.13,0,.12.12,0,0,1,0-.18.21.21,0,0,1,.13,0h.73a.17.17,0,0,1,.12,0,.12.12,0,0,1,0,.18.17.17,0,0,1-.12,0h-.33V88.9h1.63V87.62h-.33a.23.23,0,0,1-.13,0,.15.15,0,0,1,0-.18.23.23,0,0,1,.13,0h.73a.23.23,0,0,1,.13,0,.12.12,0,0,1,0,.18.23.23,0,0,1-.13,0H143v2.94h.28a.19.19,0,0,1,.12,0,.12.12,0,0,1,0,.09.1.1,0,0,1,0,.09.19.19,0,0,1-.12,0h-.86a.22.22,0,0,1-.13,0,.12.12,0,0,1,0-.09.16.16,0,0,1,0-.09.23.23,0,0,1,.13,0h.33Z"/><path class="cls-1" d="M146.3,89.66h-1.62l-.33.9h.47a.23.23,0,0,1,.13,0,.16.16,0,0,1,0,.09.12.12,0,0,1,0,.09.22.22,0,0,1-.13,0h-.92a.22.22,0,0,1-.13,0,.12.12,0,0,1,0-.09.16.16,0,0,1,0-.09.23.23,0,0,1,.13,0h.19l1.09-2.94h-.73a.23.23,0,0,1-.13,0,.15.15,0,0,1,0-.18.23.23,0,0,1,.13,0h1.24l1.2,3.18h.19a.23.23,0,0,1,.13,0,.18.18,0,0,1,0,.09.13.13,0,0,1,0,.09.22.22,0,0,1-.13,0h-.92a.17.17,0,0,1-.12,0,.1.1,0,0,1,0-.09.12.12,0,0,1,0-.09.17.17,0,0,1,.12,0h.47Zm-.1-.25-.68-1.79h-.09l-.66,1.79Z"/><path class="cls-1" d="M149.21,87.62v2.94h.84a.21.21,0,0,1,.13,0,.12.12,0,0,1,0,.09.1.1,0,0,1,0,.09.2.2,0,0,1-.13,0h-1.93a.17.17,0,0,1-.12,0,.1.1,0,0,1,0-.09.12.12,0,0,1,0-.09.17.17,0,0,1,.12,0H149V87.62h-.84a.17.17,0,0,1-.12,0,.12.12,0,0,1,0-.18.17.17,0,0,1,.12,0h1.93a.21.21,0,0,1,.13,0,.12.12,0,0,1,0,.18.21.21,0,0,1-.13,0Z"/><path class="cls-1" d="M151.89,89.28v1.28h.45a.23.23,0,0,1,.13,0,.18.18,0,0,1,0,.09.13.13,0,0,1,0,.09.22.22,0,0,1-.13,0h-1a.22.22,0,0,1-.13,0,.13.13,0,0,1,0-.09.18.18,0,0,1,0-.09.23.23,0,0,1,.13,0h.33V87.62h-.33a.23.23,0,0,1-.13,0,.12.12,0,0,1,0-.18.23.23,0,0,1,.13,0h1.49a1.12,1.12,0,0,1,.77.29.87.87,0,0,1,.32.66.75.75,0,0,1-.2.49,1.39,1.39,0,0,1-.65.39,2,2,0,0,1,.45.41,7.25,7.25,0,0,1,.6.94h.19a.23.23,0,0,1,.13,0,.16.16,0,0,1,0,.09.12.12,0,0,1,0,.09.22.22,0,0,1-.13,0H154a6.36,6.36,0,0,0-.71-1.1,1.69,1.69,0,0,0-.57-.43Zm0-.25h.67a1.37,1.37,0,0,0,.58-.12,1,1,0,0,0,.38-.27.56.56,0,0,0,.12-.32.62.62,0,0,0-.25-.47.85.85,0,0,0-.6-.23h-.9Z"/><path class="cls-1" d="M156.42,89.26v1.3h.64a.17.17,0,0,1,.12,0,.12.12,0,0,1,0,.09.1.1,0,0,1,0,.09.17.17,0,0,1-.12,0h-1.53a.22.22,0,0,1-.13,0,.12.12,0,0,1,0-.09.16.16,0,0,1,0-.09.23.23,0,0,1,.13,0h.64v-1.3l-1.08-1.64h-.15a.17.17,0,0,1-.12,0,.12.12,0,0,1,0-.18.17.17,0,0,1,.12,0h.68a.17.17,0,0,1,.12,0,.12.12,0,0,1,0,.18.17.17,0,0,1-.12,0h-.24l.91,1.39.9-1.39H157a.17.17,0,0,1-.12,0,.12.12,0,0,1,0-.18.17.17,0,0,1,.12,0h.68a.17.17,0,0,1,.12,0,.12.12,0,0,1,0,.18.17.17,0,0,1-.12,0h-.15Z"/><text class="cls-3" transform="translate(88 98.76)">2024 ITI</text></svg>