<svg width="22" height="23" viewBox="0 0 22 23" fill="none" xmlns="http://www.w3.org/2000/svg">
<path d="M9.125 5.98063H12.625C12.625 5.4944 12.4406 5.02809 12.1124 4.68427C11.7842 4.34045 11.3391 4.1473 10.875 4.1473C10.4109 4.1473 9.96575 4.34045 9.63756 4.68427C9.30937 5.02809 9.125 5.4944 9.125 5.98063ZM7.375 5.98063C7.375 5.00817 7.74375 4.07554 8.40013 3.38791C9.0565 2.70027 9.94674 2.31396 10.875 2.31396C11.8033 2.31396 12.6935 2.70027 13.3499 3.38791C14.0063 4.07554 14.375 5.00817 14.375 5.98063H18.75C18.9821 5.98063 19.2046 6.07721 19.3687 6.24912C19.5328 6.42103 19.625 6.65418 19.625 6.8973C19.625 7.14041 19.5328 7.37357 19.3687 7.54548C19.2046 7.71739 18.9821 7.81396 18.75 7.81396H17.9783L17.203 17.2923C17.1285 18.2076 16.7287 19.0602 16.0829 19.6814C15.437 20.3027 14.5921 20.6474 13.7153 20.6473H8.03475C7.15792 20.6474 6.31299 20.3027 5.66713 19.6814C5.02127 19.0602 4.62153 18.2076 4.547 17.2923L3.77175 7.81396H3C2.76794 7.81396 2.54538 7.71739 2.38128 7.54548C2.21719 7.37357 2.125 7.14041 2.125 6.8973C2.125 6.65418 2.21719 6.42103 2.38128 6.24912C2.54538 6.07721 2.76794 5.98063 3 5.98063H7.375ZM13.5 11.4806C13.5 11.2375 13.4078 11.0044 13.2437 10.8325C13.0796 10.6605 12.8571 10.564 12.625 10.564C12.3929 10.564 12.1704 10.6605 12.0063 10.8325C11.8422 11.0044 11.75 11.2375 11.75 11.4806V15.1473C11.75 15.3904 11.8422 15.6236 12.0063 15.7955C12.1704 15.9674 12.3929 16.064 12.625 16.064C12.8571 16.064 13.0796 15.9674 13.2437 15.7955C13.4078 15.6236 13.5 15.3904 13.5 15.1473V11.4806ZM9.125 10.564C9.35706 10.564 9.57962 10.6605 9.74372 10.8325C9.90781 11.0044 10 11.2375 10 11.4806V15.1473C10 15.3904 9.90781 15.6236 9.74372 15.7955C9.57962 15.9674 9.35706 16.064 9.125 16.064C8.89294 16.064 8.67038 15.9674 8.50628 15.7955C8.34219 15.6236 8.25 15.3904 8.25 15.1473V11.4806C8.25 11.2375 8.34219 11.0044 8.50628 10.8325C8.67038 10.6605 8.89294 10.564 9.125 10.564ZM6.29 17.1365C6.32728 17.5943 6.52727 18.0207 6.85039 18.3314C7.1735 18.642 7.59618 18.8142 8.03475 18.814H13.7153C14.1535 18.8138 14.5758 18.6413 14.8985 18.3307C15.2213 18.0201 15.421 17.5939 15.4583 17.1365L16.2213 7.81396H5.52875L6.29 17.1365Z" fill="#FF3A3A"/>
</svg>
