<svg width="16" height="22" viewBox="0 0 16 22" fill="none" xmlns="http://www.w3.org/2000/svg">
<path d="M10.6634 20.6646L10.2474 21.2886C10.3603 21.3639 10.4916 21.4071 10.6272 21.4136C10.7628 21.4202 10.8976 21.3898 11.0173 21.3258C11.137 21.2617 11.237 21.1664 11.3068 21.05C11.3765 20.9335 11.4134 20.8003 11.4134 20.6646H10.6634ZM7.6634 18.6646L8.0794 18.0406C7.9562 17.9585 7.81146 17.9146 7.6634 17.9146C7.51534 17.9146 7.37059 17.9585 7.2474 18.0406L7.6634 18.6646ZM4.6634 20.6646H3.9134C3.91341 20.8003 3.95026 20.9335 4.02002 21.05C4.08978 21.1664 4.18984 21.2617 4.30952 21.3258C4.4292 21.3898 4.56402 21.4202 4.6996 21.4136C4.83519 21.4071 4.96645 21.3639 5.0794 21.2886L4.6634 20.6646ZM11.0794 20.0406L8.0794 18.0406L7.2474 19.2886L10.2474 21.2886L11.0794 20.0406ZM7.2474 18.0406L4.2474 20.0406L5.0794 21.2886L8.0794 19.2886L7.2474 18.0406ZM8.6154 1.94058L8.6574 1.99057L9.8004 1.01858L9.7574 0.968575L8.6154 1.94058ZM10.9724 2.94957L11.0374 2.94357L10.9174 1.44857L10.8524 1.45457L10.9724 2.94957ZM12.3844 4.28958L12.3784 4.35558L13.8734 4.47557L13.8794 4.41057L12.3844 4.28958ZM13.3374 6.66958L13.3874 6.71258L14.3594 5.57058L14.3094 5.52758L13.3374 6.66958ZM13.3874 8.61657L13.3374 8.65858L14.3094 9.80157L14.3594 9.75857L13.3874 8.61657ZM12.3784 10.9736L12.3844 11.0386L13.8794 10.9186L13.8734 10.8536L12.3784 10.9736ZM11.0384 12.3856L10.9724 12.3796L10.8524 13.8746L10.9174 13.8806L11.0384 12.3856ZM8.6584 13.3386L8.6154 13.3886L9.7574 14.3606L9.8004 14.3106L8.6584 13.3386ZM6.7114 13.3886L6.6684 13.3386L5.5264 14.3106L5.5694 14.3606L6.7114 13.3886ZM4.3544 12.3796L4.2894 12.3846L4.4094 13.8806L4.4744 13.8756L4.3544 12.3796ZM2.9424 11.0396L2.9484 10.9736L1.4534 10.8536L1.4474 10.9186L2.9424 11.0396ZM1.9894 8.65957L1.9394 8.61657L0.9674 9.75857L1.0174 9.80157L1.9894 8.65957ZM1.9394 6.71258L1.9894 6.66958L1.0174 5.52758L0.9674 5.57058L1.9394 6.71258ZM2.9484 4.35558L2.9424 4.29058L1.4474 4.41057L1.4534 4.47557L2.9484 4.35558ZM4.2884 2.94357L4.3544 2.94957L4.4744 1.45457L4.4094 1.44857L4.2884 2.94357ZM6.6684 1.99057L6.7114 1.94058L5.5694 0.968575L5.5264 1.01858L6.6684 1.99057ZM4.3544 2.94957C4.78873 2.9844 5.22512 2.91553 5.62761 2.74862C6.03011 2.58171 6.38718 2.32155 6.6694 1.98958L5.5264 1.01858C5.39811 1.16937 5.23583 1.28753 5.05293 1.36333C4.87004 1.43913 4.67175 1.47041 4.4744 1.45457L4.3544 2.94957ZM2.9424 4.29058C2.92805 4.11013 2.95307 3.92772 3.01571 3.75789C3.07836 3.58806 3.17715 3.43386 3.30524 3.30595C3.43333 3.17805 3.58768 3.07949 3.7576 3.0171C3.92753 2.9547 4.10897 2.92996 4.2894 2.94458L4.4094 1.44958C4.0123 1.41758 3.61299 1.47224 3.2391 1.60978C2.86521 1.74731 2.52567 1.96445 2.24397 2.24615C1.96227 2.52785 1.74514 2.86739 1.6076 3.24128C1.47006 3.61517 1.4154 4.01448 1.4474 4.41158L2.9424 4.29058ZM1.9894 6.66958C2.32105 6.38735 2.58093 6.0304 2.74766 5.6281C2.91438 5.2258 2.98319 4.78966 2.9484 4.35558L1.4534 4.47557C1.4854 4.87558 1.3234 5.26758 1.0174 5.52758L1.9894 6.66958ZM1.9394 8.61657C1.80149 8.49923 1.69072 8.35332 1.61476 8.18894C1.5388 8.02457 1.49946 7.84565 1.49946 7.66458C1.49946 7.4835 1.5388 7.30458 1.61476 7.14021C1.69072 6.97583 1.80149 6.82992 1.9394 6.71258L0.9674 5.57058C0.664137 5.82874 0.420568 6.14969 0.253538 6.51124C0.0865069 6.87279 0 7.26631 0 7.66458C0 8.06284 0.0865069 8.45636 0.253538 8.81791C0.420568 9.17946 0.664137 9.50041 0.9674 9.75857L1.9394 8.61657ZM2.9484 10.9736C2.98323 10.5392 2.91435 10.1029 2.74744 9.70036C2.58053 9.29787 2.32037 8.9408 1.9884 8.65858L1.0174 9.80157C1.3234 10.0616 1.4854 10.4536 1.4534 10.8536L2.9484 10.9736ZM4.2884 12.3856C4.10787 12.4001 3.92635 12.3752 3.7564 12.3126C3.58644 12.25 3.43212 12.1513 3.3041 12.0231C3.17608 11.895 3.07744 11.7406 3.01498 11.5706C2.95253 11.4006 2.92776 11.2191 2.9424 11.0386L1.4474 10.9186C1.4154 11.3157 1.47006 11.715 1.6076 12.0889C1.74514 12.4628 1.96227 12.8023 2.24397 13.084C2.52567 13.3657 2.86521 13.5828 3.2391 13.7204C3.61299 13.8579 4.0123 13.9126 4.4094 13.8806L4.2884 12.3856ZM8.6154 13.3886C8.49805 13.5265 8.35214 13.6373 8.18777 13.7132C8.02339 13.7892 7.84448 13.8285 7.6634 13.8285C7.48232 13.8285 7.30341 13.7892 7.13903 13.7132C6.97466 13.6373 6.82875 13.5265 6.7114 13.3886L5.5694 14.3606C5.82756 14.6638 6.14852 14.9074 6.51007 15.0744C6.87162 15.2415 7.26513 15.328 7.6634 15.328C8.06167 15.328 8.45518 15.2415 8.81673 15.0744C9.17828 14.9074 9.49924 14.6638 9.7574 14.3606L8.6154 13.3886ZM12.3844 11.0386C12.3989 11.2191 12.374 11.4006 12.3114 11.5706C12.2488 11.7405 12.1501 11.8949 12.022 12.0229C11.8939 12.1509 11.7395 12.2495 11.5695 12.312C11.3995 12.3744 11.2179 12.3992 11.0374 12.3846L10.9174 13.8806C11.3145 13.9126 11.7138 13.8579 12.0877 13.7204C12.4616 13.5828 12.8011 13.3657 13.0828 13.084C13.3645 12.8023 13.5817 12.4628 13.7192 12.0889C13.8567 11.715 13.9114 11.3157 13.8794 10.9186L12.3844 11.0386ZM13.3374 8.65858C13.0056 8.9409 12.7456 9.29801 12.5789 9.7005C12.4122 10.103 12.3435 10.5393 12.3784 10.9736L13.8734 10.8536C13.8414 10.4536 14.0034 10.0616 14.3094 9.80157L13.3374 8.65858ZM13.3874 6.71258C13.5253 6.82992 13.6361 6.97583 13.712 7.14021C13.788 7.30458 13.8273 7.4835 13.8273 7.66458C13.8273 7.84565 13.788 8.02457 13.712 8.18894C13.6361 8.35332 13.5253 8.49923 13.3874 8.61657L14.3594 9.75857C14.6627 9.50041 14.9062 9.17946 15.0733 8.81791C15.2403 8.45636 15.3268 8.06284 15.3268 7.66458C15.3268 7.26631 15.2403 6.87279 15.0733 6.51124C14.9062 6.14969 14.6627 5.82874 14.3594 5.57058L13.3874 6.71258ZM12.3784 4.35558C12.3436 4.78991 12.4124 5.2263 12.5794 5.62879C12.7463 6.03128 13.0064 6.38835 13.3384 6.67057L14.3094 5.52758C14.1586 5.39928 14.0404 5.23701 13.9646 5.05411C13.8888 4.87121 13.8576 4.67292 13.8734 4.47557L12.3784 4.35558ZM11.0384 2.94357C11.2189 2.92907 11.4004 2.95397 11.5704 3.01655C11.7404 3.07913 11.8947 3.1779 12.0227 3.30601C12.1507 3.43412 12.2494 3.58852 12.3118 3.75852C12.3743 3.92852 12.399 4.10906 12.3844 4.28958L13.8794 4.41057C13.9114 4.01348 13.8567 3.61417 13.7192 3.24028C13.5817 2.86639 13.3645 2.52685 13.0828 2.24515C12.8011 1.96345 12.4616 1.74631 12.0877 1.60878C11.7138 1.47124 11.3145 1.41658 10.9174 1.44857L11.0384 2.94357ZM8.6574 1.99057C8.93962 2.32222 9.29757 2.58211 9.69987 2.74883C10.1022 2.91556 10.5383 2.98436 10.9724 2.94957L10.8524 1.45457C10.6551 1.47041 10.4568 1.43913 10.2739 1.36333C10.091 1.28753 9.92869 1.16937 9.8004 1.01858L8.6574 1.99057ZM9.7584 0.968575C9.50024 0.664969 9.17917 0.421103 8.81743 0.253861C8.45569 0.0866196 8.06193 0 7.6634 0C7.26487 0 6.87111 0.0866196 6.50937 0.253861C6.14763 0.421103 5.82656 0.664969 5.5684 0.968575L6.7114 1.94058C6.82875 1.80267 6.97466 1.6919 7.13903 1.61594C7.30341 1.53998 7.48232 1.50063 7.6634 1.50063C7.84448 1.50063 8.02339 1.53998 8.18777 1.61594C8.35214 1.6919 8.49805 1.80267 8.6154 1.94058L9.7584 0.968575ZM6.6684 13.3386C6.4236 13.0509 6.12216 12.8168 5.78288 12.6507C5.4436 12.4847 5.07375 12.3904 4.6964 12.3736L4.6304 13.8726C4.9744 13.8876 5.3004 14.0446 5.5264 14.3106L6.6684 13.3386ZM4.6964 12.3736C4.58239 12.3685 4.46817 12.3705 4.3544 12.3796L4.4744 13.8746C4.5263 13.8704 4.57841 13.8697 4.6304 13.8726L4.6964 12.3736ZM5.4134 20.6646V13.1226H3.9134V20.6646H5.4134ZM10.9734 12.3796C10.8593 12.3705 10.7447 12.3685 10.6304 12.3736L10.6964 13.8726C10.7484 13.8697 10.8005 13.8704 10.8524 13.8746L10.9734 12.3796ZM10.6304 12.3736C10.2529 12.3902 9.88284 12.4845 9.54338 12.6506C9.20392 12.8166 8.90332 13.0508 8.6584 13.3386L9.8004 14.3106C9.91169 14.18 10.0487 14.0737 10.2028 13.9983C10.357 13.923 10.525 13.8802 10.6964 13.8726L10.6304 12.3736ZM9.9134 13.1236V20.6646H11.4134V13.1226L9.9134 13.1236Z" fill="#FF8A65"/>
</svg>
