<svg width="210" height="76" viewBox="0 0 210 76" fill="none" xmlns="http://www.w3.org/2000/svg">
<g clip-path="url(#clip0_1_14950)">
<path d="M209.262 3.21088C209.152 3.10026 209.043 2.98964 208.933 2.87902C209.218 2.81265 209.328 2.92327 209.262 3.21088Z" fill="#FEFEFE"/>
<path d="M208.933 72.5032C209.043 72.3926 209.152 72.282 209.262 72.1714C209.328 72.459 209.218 72.5696 208.933 72.5032Z" fill="#FEFEFE"/>
<path d="M17.7578 26.3969C18.7689 23.211 20.1755 20.534 22.0438 18.1225C24.923 14.4057 28.5056 11.7066 33.2971 11.0429C39.5831 10.1801 44.5944 12.5916 48.5067 17.3261C54.0235 24.0075 54.3751 32.7464 49.6056 40.888C48.7045 42.4146 48.0671 43.7862 48.2429 45.711C48.5506 49.1181 45.6054 51.9721 42.2646 52.0385C38.66 52.1048 35.8247 49.4278 35.7368 45.8438C35.6489 42.5031 38.3303 39.627 41.803 39.5385C42.858 39.5163 43.3196 39.1181 43.7372 38.2331C46.5286 32.2376 46.8363 26.2641 43.6493 20.357C39.9348 13.4986 32.374 12.1933 26.4616 17.2818C24.1538 19.273 22.3075 21.6845 20.8129 24.3172C20.1535 25.4898 19.2084 25.9544 17.7578 26.3969Z" fill="white"/>
<path d="M33.0554 60.2462C27.209 60.9542 21.7362 61.2861 16.681 58.4321C9.29595 54.2507 6.41668 45.2905 9.84543 37.4365C13.2522 29.6489 19.4284 25.91 27.6705 25.202C28.7036 25.1135 29.7586 25.0692 30.7916 25.1577C32.0004 25.2462 32.9455 24.9807 33.9566 24.2285C36.9238 22.0604 40.5723 22.7905 42.7043 25.8657C44.6165 28.6091 43.9132 32.5029 41.1218 34.494C38.3085 36.5073 34.3962 35.9321 32.44 32.9896C31.6268 31.7507 30.7916 31.5073 29.4728 31.6622C23.5165 32.348 18.5712 34.8259 15.1204 39.8923C10.3949 46.8834 13.1423 54.7816 21.2306 57.3038C23.9561 58.1445 26.7474 58.7418 29.6267 58.5869C30.9894 58.4984 31.8905 59.1179 33.0554 60.2462Z" fill="white"/>
<path d="M54.4189 30.0913C57.5839 33.8302 59.8697 37.7462 60.7049 42.3922C62.3753 51.6842 56.3311 59.9586 46.7042 61.4409C38.2642 62.7462 31.9342 59.1842 27.0768 52.4586C26.7251 51.9718 26.3954 51.463 26.1317 50.932C25.2525 49.2506 24.3074 47.8347 22.3952 46.8833C19.6478 45.5117 18.6587 42.2152 19.6039 39.5161C20.549 36.8391 23.3183 35.0692 26.1976 35.3125C29.0109 35.5559 31.3188 37.7904 31.7803 40.755C32.0001 42.171 31.7144 43.4984 30.9671 44.6931C30.6154 45.2683 30.5495 45.7329 30.9231 46.3524C34.4618 52.3258 41.9567 57.0825 50.0011 55.3789C55.2101 54.2727 58.7048 49.3391 58.0894 43.8302C57.6938 40.2241 56.419 36.9055 54.6387 33.786C54.0013 32.6134 54.0232 31.5294 54.4189 30.0913Z" fill="white"/>
<path d="M71.2992 47.1711C67.1232 47.3924 66.244 46.795 65.1231 41.1534C64.2439 36.7729 63.7604 32.3702 64.3978 27.8791C64.6615 25.9322 65.5847 24.8039 67.5848 24.2508C71.541 23.1888 75.4973 22.4145 79.5854 22.7021C82.4866 22.9012 83.3438 23.5649 83.9373 25.8437C84.4648 27.9012 83.9153 28.5428 81.8493 28.2773C78.7941 27.857 75.739 27.7906 72.662 28.0561C70.3322 28.2552 70.3322 28.2773 70.3322 30.6003C70.3322 31.0428 70.3541 31.4853 70.3322 31.9278C70.2442 33.0561 70.6838 33.4986 71.8707 33.2995C73.3213 33.0561 74.8159 32.9455 76.2885 32.8791C77.2336 32.8348 78.4425 32.5915 78.6843 33.9632C78.904 35.2021 78.3765 36.2419 77.1897 36.8171C75.783 37.503 74.2225 37.6579 72.7059 37.7464C71.1014 37.8348 71.0135 38.4101 71.2992 39.7817C71.9586 42.8791 71.3212 42.6357 74.8379 42.3039C77.7391 42.0163 80.5964 41.618 83.4098 40.8216C84.267 40.5782 85.234 39.9809 85.8714 41.1534C86.4649 42.2375 86.4429 43.3879 85.6956 44.4056C85.0802 45.2464 84.1571 45.5782 83.168 45.8437C79.7393 46.7287 76.2446 46.9499 71.2992 47.1711Z" fill="white"/>
<path d="M124.423 39.5386C124.489 37.7244 124.467 35.8881 124.906 34.1182C125.478 31.9058 127.698 30.4899 129.17 31.7731C130.555 32.9899 131.962 32.105 132.951 32.6802C135.303 34.0297 137.281 33.1448 139.523 32.6359C142.16 32.0386 144.072 33.5873 145.369 35.7333C147.149 38.72 147.435 42.0828 147.017 45.4678C146.82 47.1713 146.028 47.7244 144.666 47.4589C143.105 47.1713 142.556 46.2643 142.797 44.6492C143.127 42.4147 143.457 40.1802 142.248 38.0563C141.808 37.2598 141.325 36.4191 140.292 36.6182C139.171 36.8174 138.929 37.835 138.885 38.7864C138.819 40.1581 138.929 41.5297 138.929 42.9014C138.929 43.7864 138.951 44.6713 138.797 45.5342C138.555 46.7289 138.094 47.7687 136.511 47.4368C134.929 47.105 134.335 46.22 134.599 44.6492C134.929 42.5253 135.259 40.3793 134.226 38.3439C133.742 37.3704 133.127 36.2421 131.83 36.4412C130.489 36.6625 130.401 37.9678 130.291 39.0519C130.115 40.7554 130.159 42.4589 130.511 44.1404C130.973 46.3749 130.709 46.9943 129.17 47.3704C126.972 47.9014 125.434 47.0828 124.95 45.1359C124.797 44.5607 124.687 43.9412 124.643 43.3439C124.511 42.0607 124.467 40.7997 124.423 39.5386Z" fill="white"/>
<path d="M160.358 47.3705C154.797 47.3262 151.127 44.2289 150.226 39.1404C149.874 37.1714 150.292 35.3793 151.764 34.0077C154.622 31.3528 157.984 30.3572 161.765 31.4192C164.622 32.2378 165.985 34.2289 166.095 37.1493C166.161 38.5873 165.589 39.428 164.095 39.605C161.435 39.9147 158.776 40.2687 156.116 40.6227C155.721 40.667 155.127 40.5563 154.973 41.0431C154.797 41.574 155.215 41.9501 155.545 42.3262C157.281 44.1625 160.468 44.3838 162.424 42.813C162.688 42.6139 162.908 42.3262 163.193 42.1935C164.27 41.7068 165.303 41.9723 166.051 42.7687C166.886 43.6537 165.941 44.251 165.479 44.8484C164.073 46.6183 162.182 47.3705 160.358 47.3705ZM154.885 37.6802C157.281 37.4147 159.457 37.1714 161.633 36.9059C161.941 36.8616 162.358 36.8838 162.468 36.5077C162.578 36.1316 162.226 35.9324 162.007 35.7112C160.336 34.2953 155.984 35.3351 154.885 37.6802Z" fill="white"/>
<path d="M119.939 37.1049C119.632 40.2022 119.192 43.543 120.071 46.8615C120.313 47.7907 119.851 48.2111 118.994 48.2775C118.005 48.366 116.796 48.4102 116.269 47.5474C115.653 46.5297 115.126 46.7509 114.313 47.0607C112.312 47.835 110.334 47.6801 108.444 46.6845C105.96 45.3792 105.169 42.9456 106.378 40.4235C107.829 37.4368 111.038 35.7111 114.357 36.1315C114.84 36.1978 115.521 36.6845 115.785 35.9766C116.049 35.2465 115.39 34.7819 114.796 34.45C113.433 33.6757 112.049 33.8527 110.686 34.4058C110.334 34.5385 110.027 34.8261 109.653 34.9146C108.532 35.2244 107.213 35.1138 106.62 34.2288C105.96 33.2775 107.257 32.658 107.873 32.0828C110.202 30.0031 116.005 30.0031 118.357 32.0164C119.851 33.3217 120.093 35.0474 119.939 37.1049ZM115.082 42.3261C115.06 40.7775 113.499 39.2067 112.027 39.2288C110.774 39.2509 109.851 40.3129 109.895 41.6624C109.939 43.4323 111.279 44.8483 112.818 44.804C114.203 44.7598 115.104 43.7642 115.082 42.3261Z" fill="white"/>
<path d="M199.13 38.1891C199.108 44.251 192.756 49.0077 187.657 46.7953C184.777 45.5342 183.458 42.813 184.25 39.8041C185.261 35.9546 188.843 32.7908 192.756 32.282C196.47 31.7953 199.13 34.2731 199.13 38.1891ZM191.393 37.0829C189.657 37.0829 188.228 38.6537 188.25 40.5785C188.272 42.1714 189.657 43.7422 191.019 43.72C192.866 43.6979 194.536 41.8616 194.514 39.8484C194.492 38.1006 193.327 37.0608 191.393 37.0829Z" fill="white"/>
<path d="M102.444 32.5029C102.114 35.5118 101.147 37.6578 99.7623 39.5826C98.993 40.6445 98.9711 41.3967 100.158 42.0604C100.576 42.3038 100.993 42.5914 101.367 42.9233C102.004 43.4764 103.191 43.7861 102.466 45.0693C101.85 46.1755 100.378 46.8613 99.2568 46.441C98.2677 46.0649 97.4325 45.4233 96.7072 44.6711C96.0918 44.0295 95.6522 44.0958 95.1027 44.7153C94.6412 45.2463 94.0917 45.7109 93.5642 46.1976C92.3993 47.2596 91.3443 47.0604 90.2673 45.9985C89.542 45.2905 89.4541 44.6711 90.1574 43.8967C91.0366 42.9454 92.5971 42.1489 92.4652 40.91C92.3553 39.8259 91.1245 38.8525 90.3992 37.8348C89.7838 36.9941 89.3222 36.0649 88.9046 35.1135C88.3551 33.8525 88.7947 32.879 89.7398 32.0383C90.8607 31.0427 91.5641 31.1534 92.3993 32.4144C93.3224 33.764 94.2455 35.1135 95.1687 36.4852C95.6742 37.2374 96.0478 37.4365 96.6632 36.4852C97.5204 35.1357 98.3117 33.7861 98.9711 32.3259C99.3447 31.5073 99.6085 30.6003 100.817 30.9542C101.872 31.264 102.554 31.8613 102.444 32.5029Z" fill="white"/>
<path d="M169.766 40.0251C169.898 38.1667 169.941 36.5296 170.139 34.8924C170.425 32.3924 171.876 31.2419 174.118 31.5959C174.381 31.6402 174.799 31.6623 174.887 31.8172C175.678 33.4765 176.997 32.9234 178.272 32.7021C178.579 32.6357 178.931 32.7021 179.261 32.7464C181.217 33.034 182.118 33.8968 181.92 35.2242C181.722 36.5296 180.865 36.9499 178.821 36.7508C176.513 36.5296 175.876 37.0605 175.59 39.3614C175.348 41.3083 175.612 43.211 176.074 45.0915C176.403 46.4411 175.766 47.0827 174.623 47.3703C172.029 48.0119 170.469 46.9278 170.183 44.2508C169.963 42.7906 169.876 41.3083 169.766 40.0251Z" fill="white"/>
</g>
<defs>
<clipPath id="clip0_1_14950">
<rect width="209" height="75" fill="white" transform="translate(0.28418 0.202148)"/>
</clipPath>
</defs>
</svg>
