<svg width="19" height="20" viewBox="0 0 19 20" fill="none" xmlns="http://www.w3.org/2000/svg">
<path d="M3.16406 18.3332H14.2474C14.6673 18.3332 15.07 18.1576 15.367 17.845C15.6639 17.5325 15.8307 17.1085 15.8307 16.6665V5.83317L11.8724 1.6665H4.7474C4.32747 1.6665 3.92474 1.8421 3.62781 2.15466C3.33088 2.46722 3.16406 2.89114 3.16406 3.33317V6.6665" stroke="#4941A6" stroke-width="2" stroke-linecap="round" stroke-linejoin="round"/>
<path d="M11.082 1.6665V4.99984C11.082 5.44186 11.2488 5.86579 11.5458 6.17835C11.8427 6.49091 12.2454 6.6665 12.6654 6.6665H15.832M1.58203 12.4998H9.4987M9.4987 12.4998L7.1237 14.9998M9.4987 12.4998L7.1237 9.99984" stroke="#4941A6" stroke-width="2" stroke-linecap="round" stroke-linejoin="round"/>
</svg>
