<svg width="25" height="25" viewBox="0 0 25 25" fill="none" xmlns="http://www.w3.org/2000/svg">
<path d="M20.5 19.373V10.873C20.5 10.7178 20.4639 10.5647 20.3944 10.4258C20.325 10.287 20.2242 10.1662 20.1 10.073L13.1 4.82305C12.9269 4.69322 12.7164 4.62305 12.5 4.62305C12.2836 4.62305 12.0731 4.69322 11.9 4.82305L4.9 10.073C4.7758 10.1662 4.675 10.287 4.60557 10.4258C4.53614 10.5647 4.5 10.7178 4.5 10.873V19.373C4.5 19.6383 4.60536 19.8926 4.79289 20.0802C4.98043 20.2677 5.23478 20.373 5.5 20.373H9.5C9.76522 20.373 10.0196 20.2677 10.2071 20.0802C10.3946 19.8926 10.5 19.6383 10.5 19.373V16.373C10.5 16.1078 10.6054 15.8535 10.7929 15.6659C10.9804 15.4784 11.2348 15.373 11.5 15.373H13.5C13.7652 15.373 14.0196 15.4784 14.2071 15.6659C14.3946 15.8535 14.5 16.1078 14.5 16.373V19.373C14.5 19.6383 14.6054 19.8926 14.7929 20.0802C14.9804 20.2677 15.2348 20.373 15.5 20.373H19.5C19.7652 20.373 20.0196 20.2677 20.2071 20.0802C20.3946 19.8926 20.5 19.6383 20.5 19.373Z" stroke="#4941A6" stroke-width="2" stroke-linecap="round" stroke-linejoin="round"/>
</svg>
